<svg width="27" height="27" viewBox="0 0 27 27" fill="none" xmlns="http://www.w3.org/2000/svg">
    <path d="M13.5 26C6.60729 26 1 20.3927 1 13.5C1 6.60729 6.60729 1 13.5 1C20.3927 1 26 6.60729 26 13.5C26 20.3927 20.3927 26 13.5 26ZM13.5 2.04167C7.18229 2.04167 2.04167 7.18229 2.04167 13.5C2.04167 19.8177 7.18229 24.9583 13.5 24.9583C19.8177 24.9583 24.9583 19.8177 24.9583 13.5C24.9583 7.18229 19.8177 2.04167 13.5 2.04167Z" fill="#8152E4" stroke="#8152E4" stroke-width="0.5"/>
    <path d="M19.0933 18.7085H7.90582C7.65165 18.7085 7.43499 18.5251 7.39228 18.2751L6.21519 11.3303C6.1829 11.1366 6.26103 10.9418 6.41728 10.8251C6.57353 10.7085 6.78186 10.6876 6.95895 10.7762L10.3392 12.4428L13.0433 7.51992C13.2256 7.18867 13.7735 7.18867 13.9558 7.51992L16.66 12.4428L20.0402 10.7762C20.2162 10.6876 20.4256 10.7085 20.5819 10.8251C20.7381 10.9418 20.8173 11.1376 20.7839 11.3303L19.6069 18.2751C19.5642 18.5251 19.3464 18.7085 19.0933 18.7085ZM8.34645 17.6668H18.6537L19.5871 12.1605L16.6746 13.597C16.4235 13.722 16.1214 13.6251 15.9881 13.3814L13.4996 8.85221L11.0121 13.3814C10.8787 13.6251 10.5777 13.722 10.3256 13.597L7.41311 12.1605L8.34645 17.6668Z" fill="#8152E4" stroke="#8152E4" stroke-width="0.5"/>
</svg>
