<svg width="109" height="109" viewBox="0 0 109 109" fill="none" xmlns="http://www.w3.org/2000/svg">
<path d="M26.0046 11.3744C26.0046 10.8221 25.5569 10.3744 25.0046 10.3744H11.3744C10.8221 10.3744 10.3744 10.8221 10.3744 11.3744V25.0046C10.3744 25.5569 10.8221 26.0046 11.3744 26.0046H25.0046C25.5569 26.0046 26.0046 25.5569 26.0046 25.0046V11.3744Z" fill="#8152E4"/>
<path fill-rule="evenodd" clip-rule="evenodd" d="M36.379 1C36.379 0.447715 35.9313 0 35.379 0H1C0.447715 0 0 0.447714 0 0.999999V35.379C0 35.9313 0.447714 36.379 0.999999 36.379H35.379C35.9313 36.379 36.379 35.9313 36.379 35.379V1ZM6.25572 31.1233C5.70344 31.1233 5.25572 30.6756 5.25572 30.1233V6.25572C5.25572 5.70344 5.70344 5.25572 6.25572 5.25572H30.1233C30.6756 5.25572 31.1233 5.70344 31.1233 6.25572V30.1233C31.1233 30.6756 30.6756 31.1233 30.1233 31.1233H6.25572Z" fill="#8152E4"/>
<path d="M51.9407 1C51.9407 0.447715 51.4929 0 50.9406 0H42.4977C41.9454 0 41.4977 0.447715 41.4977 1V25.0046C41.4977 25.5569 41.9454 26.0046 42.4977 26.0046H50.9407C51.4929 26.0046 51.9407 25.5569 51.9407 25.0046V21.8174C51.9407 21.2651 52.3884 20.8174 52.9406 20.8174H56.1279C56.6801 20.8174 57.1279 20.3696 57.1279 19.8174V16.6301C57.1279 16.0779 57.5756 15.6301 58.1279 15.6301H66.5023C67.0546 15.6301 67.5023 15.1824 67.5023 14.6301V1C67.5023 0.447715 67.0546 0 66.5023 0H63.2466C62.6943 0 62.2466 0.447716 62.2466 1V4.18721C62.2466 4.7395 61.7988 5.18721 61.2466 5.18721H58.0593C57.5071 5.18721 57.0593 5.63493 57.0593 6.18721V9.37443C57.0593 9.92671 56.6116 10.3744 56.0593 10.3744H47.7534C47.2011 10.3744 46.7534 9.92671 46.7534 9.37443V6.25572C46.7534 5.70344 47.2011 5.25572 47.7534 5.25572H50.9407C51.4929 5.25572 51.9407 4.80801 51.9407 4.25572V1Z" fill="#8152E4"/>
<path d="M98.6256 11.3744C98.6256 10.8221 98.1778 10.3744 97.6256 10.3744H83.9954C83.4431 10.3744 82.9954 10.8221 82.9954 11.3744V25.0046C82.9954 25.5569 83.4431 26.0046 83.9954 26.0046H97.6256C98.1778 26.0046 98.6256 25.5569 98.6256 25.0046V11.3744Z" fill="#8152E4"/>
<path fill-rule="evenodd" clip-rule="evenodd" d="M109 1C109 0.447715 108.552 0 108 0H73.621C73.0687 0 72.621 0.447714 72.621 0.999999V35.379C72.621 35.9313 73.0687 36.379 73.621 36.379H108C108.552 36.379 109 35.9313 109 35.379V1ZM78.8767 31.1233C78.3244 31.1233 77.8767 30.6756 77.8767 30.1233V6.25572C77.8767 5.70344 78.3244 5.25572 78.8767 5.25572H102.744C103.297 5.25572 103.744 5.70344 103.744 6.25572V30.1233C103.744 30.6756 103.297 31.1233 102.744 31.1233H78.8767Z" fill="#8152E4"/>
<path d="M67.5023 21.7489C67.5023 21.1966 67.0546 20.7489 66.5023 20.7489H63.2466C62.6943 20.7489 62.2466 21.1966 62.2466 21.7489V25.0046C62.2466 25.5569 62.6943 26.0046 63.2466 26.0046H66.5023C67.0546 26.0046 67.5023 25.5569 67.5023 25.0046V21.7489Z" fill="#8152E4"/>
<path fill-rule="evenodd" clip-rule="evenodd" d="M46.7534 32.1233C46.7534 31.571 46.3057 31.1233 45.7534 31.1233H42.4977C41.9454 31.1233 41.4977 31.571 41.4977 32.1233V40.4977C41.4977 41.05 41.05 41.4977 40.4977 41.4977H32.1233C31.571 41.4977 31.1233 41.9454 31.1233 42.4977V45.7534C31.1233 46.3057 31.571 46.7534 32.1233 46.7534H40.5662C41.1185 46.7534 41.5662 46.3057 41.5662 45.7534V42.5662C41.5662 42.0139 42.0139 41.5662 42.5662 41.5662H50.8721C51.4244 41.5662 51.8721 42.0139 51.8721 42.5662V45.6849C51.8721 46.2372 51.4244 46.6849 50.8721 46.6849H47.6849C47.1326 46.6849 46.6849 47.1326 46.6849 47.6849V50.8721C46.6849 51.4244 46.2372 51.8721 45.6849 51.8721H42.4977C41.9454 51.8721 41.4977 52.3199 41.4977 52.8721V61.2466C41.4977 61.7988 41.05 62.2466 40.4977 62.2466H32.1918C31.6395 62.2466 31.1918 61.7988 31.1918 61.2466V58.1279C31.1918 57.5756 31.6395 57.1279 32.1918 57.1279H35.379C35.9313 57.1279 36.379 56.6801 36.379 56.1279V52.8721C36.379 52.3199 35.9313 51.8721 35.379 51.8721H32.1233C31.571 51.8721 31.1233 52.3199 31.1233 52.8721V56.0593C31.1233 56.6116 30.6756 57.0593 30.1233 57.0593H26.9361C26.3838 57.0593 25.9361 57.5071 25.9361 58.0593V66.5023C25.9361 67.0546 26.3838 67.5023 26.9361 67.5023H40.4977C41.05 67.5023 41.4977 67.95 41.4977 68.5023V76.8767C41.4977 77.429 41.9454 77.8767 42.4977 77.8767H45.6849C46.2372 77.8767 46.6849 78.3244 46.6849 78.8767V81.9954C46.6849 82.5477 46.2372 82.9954 45.6849 82.9954H42.4977C41.9454 82.9954 41.4977 83.4431 41.4977 83.9954V87.2511C41.4977 87.8034 41.9454 88.2511 42.4977 88.2511H45.6849C46.2372 88.2511 46.6849 88.6989 46.6849 89.2511V92.3698C46.6849 92.9221 46.2372 93.3698 45.6849 93.3698H42.4977C41.9454 93.3698 41.4977 93.8176 41.4977 94.3698V102.813C41.4977 103.365 41.9454 103.813 42.4977 103.813H45.6849C46.2372 103.813 46.6849 104.26 46.6849 104.813V108C46.6849 108.552 47.1326 109 47.6849 109H50.9407C51.4929 109 51.9407 108.552 51.9407 108V104.813C51.9407 104.26 52.3884 103.813 52.9407 103.813H56.0593C56.6116 103.813 57.0593 104.26 57.0593 104.813V108C57.0593 108.552 57.5071 109 58.0593 109H61.3151C61.8674 109 62.3151 108.552 62.3151 108V104.813C62.3151 104.26 62.7628 103.813 63.3151 103.813H66.4338C66.9861 103.813 67.4338 104.26 67.4338 104.813V108C67.4338 108.552 67.8815 109 68.4338 109H76.8767C77.429 109 77.8767 108.552 77.8767 108V104.813C77.8767 104.26 78.3244 103.813 78.8767 103.813H81.9954C82.5477 103.813 82.9954 104.26 82.9954 104.813V108C82.9954 108.552 83.4431 109 83.9954 109H92.4384C92.9906 109 93.4384 108.552 93.4384 108V104.744C93.4384 104.192 92.9906 103.744 92.4384 103.744H89.2511C88.6989 103.744 88.2511 103.297 88.2511 102.744V99.6256C88.2511 99.0733 88.6989 98.6256 89.2511 98.6256H97.5571C98.1093 98.6256 98.5571 99.0733 98.5571 99.6256V108C98.5571 108.552 99.0048 109 99.5571 109H108C108.552 109 109 108.552 109 108V104.744C109 104.192 108.552 103.744 108 103.744H104.813C104.26 103.744 103.813 103.297 103.813 102.744V99.6256C103.813 99.0733 104.26 98.6256 104.813 98.6256H108C108.552 98.6256 109 98.1778 109 97.6256V94.3698C109 93.8176 108.552 93.3698 108 93.3698H104.813C104.26 93.3698 103.813 92.9221 103.813 92.3698V89.1826C103.813 88.6303 103.365 88.1826 102.813 88.1826H99.5571C99.0048 88.1826 98.5571 88.6303 98.5571 89.1826V92.3698C98.5571 92.9221 98.1093 93.3698 97.5571 93.3698H89.2511C88.6989 93.3698 88.2511 92.9221 88.2511 92.3698V89.1826C88.2511 88.6303 87.8034 88.1826 87.2511 88.1826H78.8767C78.3244 88.1826 77.8767 87.7349 77.8767 87.1826V78.8767C77.8767 78.3244 78.3244 77.8767 78.8767 77.8767H87.2511C87.8034 77.8767 88.2511 77.429 88.2511 76.8767V68.5023C88.2511 67.95 88.6989 67.5023 89.2511 67.5023H92.4384C92.9906 67.5023 93.4384 67.0546 93.4384 66.5023V63.2466C93.4384 62.6943 92.9906 62.2466 92.4384 62.2466H83.9954C83.4431 62.2466 82.9954 62.6943 82.9954 63.2466V66.4338C82.9954 66.9861 82.5477 67.4338 81.9954 67.4338H78.8767C78.3244 67.4338 77.8767 66.9861 77.8767 66.4338V63.2466C77.8767 62.6943 77.429 62.2466 76.8767 62.2466H73.6895C73.1372 62.2466 72.6895 61.7988 72.6895 61.2466V58.1279C72.6895 57.5756 73.1372 57.1279 73.6895 57.1279H108C108.552 57.1279 109 56.6801 109 56.1279V42.4977C109 41.9454 108.552 41.4977 108 41.4977H83.9954C83.4431 41.4977 82.9954 41.9454 82.9954 42.4977V45.6849C82.9954 46.2372 82.5477 46.6849 81.9954 46.6849H78.8767C78.3244 46.6849 77.8767 46.2372 77.8767 45.6849V42.4977C77.8767 41.9454 77.429 41.4977 76.8767 41.4977H73.621C73.0687 41.4977 72.621 41.9454 72.621 42.4977V56.0593C72.621 56.6116 72.1733 57.0593 71.621 57.0593H68.5023C67.95 57.0593 67.5023 56.6116 67.5023 56.0593V52.8721C67.5023 52.3199 67.0546 51.8721 66.5023 51.8721H58.0593C57.5071 51.8721 57.0593 52.3199 57.0593 52.8721V56.0593C57.0593 56.6116 56.6116 57.0593 56.0593 57.0593H52.9407C52.3884 57.0593 51.9407 56.6116 51.9407 56.0593V47.7534C51.9407 47.2011 52.3884 46.7534 52.9406 46.7534H56.1279C56.6801 46.7534 57.1279 46.3057 57.1279 45.7534V42.5662C57.1279 42.0139 57.5756 41.5662 58.1279 41.5662H66.5023C67.0546 41.5662 67.5023 41.1185 67.5023 40.5662V32.1233C67.5023 31.571 67.0546 31.1233 66.5023 31.1233H63.2466C62.6943 31.1233 62.2466 31.571 62.2466 32.1233V35.3105C62.2466 35.8628 61.7988 36.3105 61.2466 36.3105H58.1279C57.5756 36.3105 57.1279 35.8628 57.1279 35.3105V32.1233C57.1279 31.571 56.6801 31.1233 56.1279 31.1233H52.8721C52.3199 31.1233 51.8721 31.571 51.8721 32.1233V35.3105C51.8721 35.8628 51.4244 36.3105 50.8721 36.3105H47.7534C47.2011 36.3105 46.7534 35.8628 46.7534 35.3105V32.1233ZM52.9407 41.4977C52.3884 41.4977 51.9407 41.05 51.9407 40.4977V37.379C51.9407 36.8267 52.3884 36.379 52.9407 36.379H56.0593C56.6116 36.379 57.0593 36.8267 57.0593 37.379V40.4977C57.0593 41.05 56.6116 41.4977 56.0593 41.4977H52.9407ZM46.7534 58.1279C46.7534 57.5756 47.2011 57.1279 47.7534 57.1279H50.8721C51.4244 57.1279 51.8721 57.5756 51.8721 58.1279V61.2466C51.8721 61.7988 51.4244 62.2466 50.8721 62.2466H47.7534C47.2011 62.2466 46.7534 61.7988 46.7534 61.2466V58.1279ZM46.7534 68.5023C46.7534 67.95 47.2011 67.5023 47.7534 67.5023H56.0593C56.6116 67.5023 57.0593 67.95 57.0593 68.5023V71.621C57.0593 72.1733 56.6116 72.621 56.0593 72.621H47.7534C47.2011 72.621 46.7534 72.1733 46.7534 71.621V68.5023ZM51.9407 78.8767C51.9407 78.3244 52.3884 77.8767 52.9407 77.8767H61.2466C61.7988 77.8767 62.2466 78.3244 62.2466 78.8767V81.9954C62.2466 82.5477 61.7988 82.9954 61.2466 82.9954H52.9407C52.3884 82.9954 51.9407 82.5477 51.9407 81.9954V78.8767ZM63.3151 88.2511C62.7628 88.2511 62.3151 88.6989 62.3151 89.2511V97.5571C62.3151 98.1093 62.7628 98.5571 63.3151 98.5571H66.4338C66.9861 98.5571 67.4338 98.1093 67.4338 97.5571V89.2511C67.4338 88.6989 66.9861 88.2511 66.4338 88.2511H63.3151ZM72.6895 102.744C72.6895 103.297 73.1372 103.744 73.6895 103.744H76.8082C77.3605 103.744 77.8082 103.297 77.8082 102.744V99.6256C77.8082 99.0733 77.3605 98.6256 76.8082 98.6256H73.6895C73.1372 98.6256 72.6895 99.0733 72.6895 99.6256V102.744ZM76.8082 93.3698C77.3605 93.3698 77.8082 92.9221 77.8082 92.3699V89.2511C77.8082 88.6989 77.3605 88.2511 76.8082 88.2511H73.6895C73.1372 88.2511 72.6895 88.6989 72.6895 89.2511V92.3698C72.6895 92.9221 73.1372 93.3698 73.6895 93.3698H76.8082ZM73.621 77.8082C73.0687 77.8082 72.621 78.2559 72.621 78.8082V87.1826C72.621 87.7349 72.1733 88.1826 71.621 88.1826H68.5023C67.95 88.1826 67.5023 87.7349 67.5023 87.1826V78.8082C67.5023 78.2559 67.0546 77.8082 66.5023 77.8082H63.3151C62.7628 77.8082 62.3151 77.3605 62.3151 76.8082V73.6895C62.3151 73.1372 62.7628 72.6895 63.3151 72.6895H66.5023C67.0546 72.6895 67.5023 72.2418 67.5023 71.6895V68.4338C67.5023 67.8815 67.0546 67.4338 66.5023 67.4338H58.1279C57.5756 67.4338 57.1279 66.9861 57.1279 66.4338V63.3151C57.1279 62.7628 57.5756 62.3151 58.1279 62.3151H71.621C72.1733 62.3151 72.621 62.7628 72.621 63.3151V71.6895C72.621 72.2418 73.0687 72.6895 73.621 72.6895H76.8082C77.3605 72.6895 77.8082 73.1372 77.8082 73.6895V76.8082C77.8082 77.3605 77.3605 77.8082 76.8082 77.8082H73.621ZM99.6256 98.5571C99.0733 98.5571 98.6256 98.1093 98.6256 97.5571V94.4384C98.6256 93.8861 99.0733 93.4384 99.6256 93.4384H102.744C103.297 93.4384 103.744 93.8861 103.744 94.4384V97.5571C103.744 98.1093 103.297 98.5571 102.744 98.5571H99.6256ZM47.7534 98.5571C47.2011 98.5571 46.7534 98.1093 46.7534 97.5571V94.4384C46.7534 93.8861 47.2011 93.4384 47.7534 93.4384H50.9407C51.4929 93.4384 51.9407 92.9906 51.9407 92.4384V89.2511C51.9407 88.6989 52.3884 88.2511 52.9407 88.2511H56.0593C56.6116 88.2511 57.0593 88.6989 57.0593 89.2511V97.5571C57.0593 98.1093 56.6116 98.5571 56.0593 98.5571H47.7534ZM46.6849 66.4338C46.6849 66.9861 46.2372 67.4338 45.6849 67.4338H42.5662C42.0139 67.4338 41.5662 66.9861 41.5662 66.4338V63.3151C41.5662 62.7628 42.0139 62.3151 42.5662 62.3151H45.6849C46.2372 62.3151 46.6849 62.7628 46.6849 63.3151V66.4338ZM94.4384 51.8721C93.8861 51.8721 93.4384 51.4244 93.4384 50.8721V47.7534C93.4384 47.2011 93.8861 46.7534 94.4384 46.7534H97.5571C98.1093 46.7534 98.5571 47.2011 98.5571 47.7534V50.8721C98.5571 51.4244 98.1093 51.8721 97.5571 51.8721H94.4384Z" fill="#8152E4"/>
<path fill-rule="evenodd" clip-rule="evenodd" d="M15.6301 42.4977C15.6301 41.9454 15.1824 41.4977 14.6301 41.4977H6.18721C5.63493 41.4977 5.18721 41.9454 5.18721 42.4977V45.6849C5.18721 46.2372 4.7395 46.6849 4.18721 46.6849H1C0.447715 46.6849 0 47.1326 0 47.6849V50.9407C0 51.4929 0.447716 51.9407 1 51.9407H9.37443C9.92671 51.9407 10.3744 52.3884 10.3744 52.9406V66.5023C10.3744 67.0546 10.8221 67.5023 11.3744 67.5023H14.6301C15.1824 67.5023 15.6301 67.0546 15.6301 66.5023V58.1279C15.6301 57.5756 16.0779 57.1279 16.6301 57.1279H19.8174C20.3696 57.1279 20.8174 56.6801 20.8174 56.1279V47.7534C20.8174 47.2011 21.2651 46.7534 21.8174 46.7534H25.0046C25.5569 46.7534 26.0046 46.3057 26.0046 45.7534V42.4977C26.0046 41.9454 25.5569 41.4977 25.0046 41.4977H21.7489C21.1966 41.4977 20.7489 41.9454 20.7489 42.4977V45.6849C20.7489 46.2372 20.3011 46.6849 19.7489 46.6849H16.6301C16.0779 46.6849 15.6301 46.2372 15.6301 45.6849V42.4977ZM10.4429 50.8721C10.4429 51.4244 10.8907 51.8721 11.4429 51.8721H14.5616C15.1139 51.8721 15.5616 51.4244 15.5616 50.8721V47.7534C15.5616 47.2011 15.1139 46.7534 14.5616 46.7534H11.4429C10.8907 46.7534 10.4429 47.2011 10.4429 47.7534V50.8721Z" fill="#8152E4"/>
<path d="M5.25572 58.0593C5.25572 57.5071 4.80801 57.0593 4.25572 57.0593H1C0.447715 57.0593 0 57.5071 0 58.0593V61.3151C0 61.8674 0.447716 62.3151 1 62.3151H4.25572C4.80801 62.3151 5.25572 61.8674 5.25572 61.3151V58.0593Z" fill="#8152E4"/>
<path d="M103.813 63.2466C103.813 62.6943 103.365 62.2466 102.813 62.2466H99.5571C99.0048 62.2466 98.5571 62.6943 98.5571 63.2466V71.621C98.5571 72.1733 98.1093 72.621 97.5571 72.621H94.3698C93.8176 72.621 93.3698 73.0687 93.3698 73.621V76.8767C93.3698 77.429 93.8176 77.8767 94.3698 77.8767H97.5571C98.1093 77.8767 98.5571 78.3244 98.5571 78.8767V82.0639C98.5571 82.6162 99.0048 83.0639 99.5571 83.0639H102.813C103.365 83.0639 103.813 82.6162 103.813 82.0639V78.8767C103.813 78.3244 104.26 77.8767 104.813 77.8767H108C108.552 77.8767 109 77.429 109 76.8767V68.4338C109 67.8815 108.552 67.4338 108 67.4338H104.813C104.26 67.4338 103.813 66.9861 103.813 66.4338V63.2466Z" fill="#8152E4"/>
<path d="M26.0046 83.9954C26.0046 83.4431 25.5569 82.9954 25.0046 82.9954H11.3744C10.8221 82.9954 10.3744 83.4431 10.3744 83.9954V97.6256C10.3744 98.1778 10.8221 98.6256 11.3744 98.6256H25.0046C25.5569 98.6256 26.0046 98.1778 26.0046 97.6256V83.9954Z" fill="#8152E4"/>
<path fill-rule="evenodd" clip-rule="evenodd" d="M36.379 73.621C36.379 73.0687 35.9313 72.621 35.379 72.621H1C0.447715 72.621 0 73.0687 0 73.621V108C0 108.552 0.447714 109 0.999999 109H35.379C35.9313 109 36.379 108.552 36.379 108V73.621ZM6.25572 103.744C5.70344 103.744 5.25572 103.297 5.25572 102.744V78.8767C5.25572 78.3244 5.70344 77.8767 6.25572 77.8767H30.1233C30.6756 77.8767 31.1233 78.3244 31.1233 78.8767V102.744C31.1233 103.297 30.6756 103.744 30.1233 103.744H6.25572Z" fill="#8152E4"/>
</svg>
