<svg width="75" height="73" viewBox="0 0 75 73" fill="none" xmlns="http://www.w3.org/2000/svg">
    <path d="M6.54454 51.4564H9.92731L15.5319 65.4679H12.0691L11.2084 63.0859H5.28351L4.4228 65.4679H0.959967L6.54454 51.4564ZM8.2059 54.9993L6.16423 60.6239H10.3276L8.28597 54.9993H8.2059ZM20.235 55.1194C21.5827 55.1194 22.7103 55.6465 23.6177 56.7007H23.6778V50.936H26.5602V65.4679H24.9789L24.0781 63.6063H24.0181C23.6044 64.2736 23.0706 64.8007 22.4168 65.1876C21.7629 65.5613 21.0423 65.7481 20.255 65.7481C18.9206 65.7481 17.813 65.2544 16.9323 64.2669C16.0649 63.2661 15.6312 61.9917 15.6312 60.4437C15.6312 58.8958 16.0649 57.6281 16.9323 56.6406C17.7996 55.6398 18.9005 55.1327 20.235 55.1194ZM19.2742 62.3253C19.7679 62.819 20.3818 63.0659 21.1157 63.0659C21.8496 63.0659 22.4568 62.819 22.9372 62.3253C23.4309 61.8316 23.6778 61.2044 23.6778 60.4437C23.6778 59.6831 23.4309 59.0559 22.9372 58.5622C22.4568 58.0685 21.8496 57.8216 21.1157 57.8216C20.3818 57.8216 19.7679 58.0685 19.2742 58.5622C18.7938 59.0559 18.5536 59.6831 18.5536 60.4437C18.5536 61.2044 18.7938 61.8316 19.2742 62.3253ZM44.5846 51.4564H47.8072L43.7239 65.4679H40.201L37.739 56.9008H37.6589L35.2169 65.4679H31.694L27.5907 51.4564H30.8133L33.4355 61.1443H33.4955L36.1977 51.4564H39.2002L41.9024 61.1443H41.9825L44.5846 51.4564ZM48.9016 65.4679V55.3996H51.7839V65.4679H48.9016ZM49.0417 50.8559C49.3886 50.5089 49.8223 50.3355 50.3428 50.3355C50.8632 50.3355 51.2902 50.5089 51.6238 50.8559C51.9708 51.2028 52.1442 51.6299 52.1442 52.1369C52.1442 52.6307 51.9708 53.0577 51.6238 53.418C51.2769 53.7649 50.8498 53.9384 50.3428 53.9384C49.8357 53.9384 49.4087 53.7649 49.0617 53.418C48.7148 53.0577 48.5413 52.6307 48.5413 52.1369C48.5413 51.6299 48.7081 51.2028 49.0417 50.8559ZM62.1179 62.6055C62.1179 63.5663 61.7376 64.3336 60.9769 64.9074C60.2163 65.4679 59.2489 65.7481 58.0746 65.7481C56.3531 65.7481 54.7585 65.3478 53.2906 64.5471L54.0513 62.3253C55.2122 63.0726 56.4799 63.4462 57.8544 63.4462C58.2947 63.4462 58.6484 63.3795 58.9152 63.246C59.1821 63.0993 59.3156 62.8991 59.3156 62.6456C59.3156 62.3787 59.1821 62.1718 58.9152 62.025C58.6617 61.8649 58.1746 61.6981 57.4541 61.5246C56.2798 61.2311 55.3657 60.8241 54.7118 60.3036C54.0713 59.7832 53.751 59.076 53.751 58.1819C53.751 57.2745 54.1046 56.5406 54.8119 55.9801C55.5191 55.4063 56.6334 55.1194 58.1546 55.1194C58.7017 55.1194 59.3423 55.2061 60.0762 55.3796C60.8235 55.5531 61.3906 55.7399 61.7776 55.9401L61.1971 58.0818C60.3164 57.6281 59.3156 57.4013 58.1947 57.4013C57.1138 57.4013 56.5733 57.6615 56.5733 58.1819C56.5733 58.4087 56.7201 58.6022 57.0137 58.7624C57.3206 58.9225 57.8277 59.096 58.5349 59.2828C59.7626 59.6031 60.6633 60.0167 61.2372 60.5238C61.8243 61.0309 62.1179 61.7248 62.1179 62.6055ZM68.5273 55.1194C70.1286 55.1194 71.4097 55.6131 72.3705 56.6006C73.3446 57.5747 73.8317 58.8558 73.8317 60.4437C73.8317 60.4971 73.825 60.5705 73.8117 60.6639C73.8117 60.7573 73.805 60.8774 73.7917 61.0242C73.7783 61.1577 73.7716 61.2644 73.7716 61.3445H66.1654C66.5791 62.4921 67.6399 63.0659 69.348 63.0659C70.5757 63.0659 71.6499 62.799 72.5706 62.2652L73.1111 64.7873C72.0836 65.4278 70.8226 65.7481 69.328 65.7481C67.4198 65.7481 65.9052 65.261 64.7843 64.2869C63.6634 63.2994 63.1029 62.0184 63.1029 60.4437C63.1029 58.8958 63.61 57.6214 64.6241 56.6206C65.6516 55.6198 66.9527 55.1194 68.5273 55.1194ZM66.1254 59.563H70.9293C70.9026 59.0426 70.6624 58.6223 70.2087 58.302C69.755 57.9817 69.2012 57.8216 68.5474 57.8216C67.9335 57.8216 67.4131 57.9817 66.9861 58.302C66.5724 58.6089 66.2855 59.0293 66.1254 59.563Z" fill="#25233E"/>
    <path d="M22.7771 22.5368L15.089 11.6811C13.9489 10.0826 12.1498 9.2258 10.3298 9.2258C9.16875 9.2258 7.98678 9.57059 6.97217 10.2915L20.6014 29.5267L22.7248 32.5149L22.7666 32.5776C22.7771 32.5671 22.7771 32.5671 22.7875 32.5671C22.8084 32.5462 22.8294 32.5358 22.8503 32.5149L24.9736 29.5267C25.4757 27.8654 25.2351 25.9952 24.1578 24.4697L22.7771 22.5368Z" fill="#ED8E00"/>
    <path d="M27.0553 20.3113L29.1786 23.2995L29.2205 23.3518L29.2623 23.2995L31.3752 20.3113L31.4798 20.1651L35.873 13.9588L40.2661 20.1651L40.3707 20.3113L42.4836 23.2995L42.5255 23.3518L42.5673 23.2995L44.6907 20.3113L44.7952 20.1651L58.3094 1.06572C57.2844 0.344791 56.1129 0 54.9413 0C53.1109 0 51.3118 0.856754 50.1821 2.45533L42.5255 13.2692L39.4398 8.91233L35.873 3.87629L32.3061 8.91233L29.21 13.2692L21.5429 2.45533C20.4028 0.856754 18.6037 0 16.7837 0C15.6226 0 14.4406 0.344791 13.426 1.06572L26.9507 20.1546L27.0553 20.3113Z" fill="#8152E4"/>
    <path d="M61.4056 9.21536C59.5751 9.21536 57.776 10.0721 56.6463 11.6707L48.9583 22.5264L47.588 24.4593C46.5002 25.9848 46.2596 27.855 46.7722 29.5163L48.8955 32.5044C48.9164 32.5253 48.9374 32.5358 48.9583 32.5567C48.9688 32.5567 48.9688 32.5671 48.9792 32.5671L49.021 32.5044L51.1444 29.5163L64.7632 10.2915C63.7381 9.56015 62.5666 9.21536 61.4056 9.21536Z" fill="#ED8E00"/>
    <path d="M42.5565 31.9089L39.5022 27.5938L35.9354 22.5577L35.8726 22.6413L35.8099 22.5577L32.2431 27.5938L29.1888 31.9089L27.8185 33.8418C26.7307 35.3672 26.4901 37.2375 27.0026 38.8987L29.126 41.8869C29.1469 41.9078 29.1678 41.9183 29.1888 41.9392C29.1992 41.9496 29.1992 41.9496 29.2097 41.9496L29.2515 41.8869L31.3749 38.8987L35.8203 32.6298L35.8831 32.5462L35.9459 32.6298L40.3913 38.8987L42.5147 41.8869L42.5565 41.9496C42.567 41.9392 42.567 41.9392 42.5774 41.9392C42.5984 41.9183 42.6193 41.9078 42.6402 41.8869L44.7635 38.8987C45.2656 37.2375 45.025 35.3672 43.9477 33.8418L42.5565 31.9089Z" fill="#8152E4"/>
</svg>
