<svg width="28" height="21" viewBox="0 0 28 21" fill="none" xmlns="http://www.w3.org/2000/svg">
    <path d="M7.65751 11.549L3.93265 6.28938C3.38025 5.51486 2.50858 5.09976 1.62678 5.09976C1.06425 5.09976 0.491581 5.26681 0 5.61611L6.6034 14.9356L7.63217 16.3834L7.65244 16.4138C7.65751 16.4087 7.65751 16.4087 7.66258 16.4087C7.67272 16.3986 7.68285 16.3935 7.69299 16.3834L8.72176 14.9356C8.96502 14.1307 8.84845 13.2246 8.32647 12.4855L7.65751 11.549Z" fill="#ED8E00"/>
    <path d="M9.7306 10.4705L10.7594 11.9183L10.7796 11.9436L10.7999 11.9183L11.8236 10.4705L11.8743 10.3997L14.0028 7.39272L16.1313 10.3997L16.182 10.4705L17.2057 11.9183L17.2259 11.9436L17.2462 11.9183L18.275 10.4705L18.3257 10.3997L24.8733 1.14598C24.3767 0.796691 23.8091 0.629639 23.2415 0.629639C22.3546 0.629639 21.4829 1.04474 20.9356 1.81925L17.2259 7.05862L15.7309 4.94769L14.0028 2.50771L12.2747 4.94769L10.7746 7.05862L7.05984 1.81925C6.50745 1.04474 5.63578 0.629639 4.75398 0.629639C4.19145 0.629639 3.61878 0.796691 3.1272 1.14598L9.67992 10.3946L9.7306 10.4705Z" fill="#8152E4"/>
    <path d="M26.3734 5.09454C25.4865 5.09454 24.6148 5.50964 24.0675 6.28416L20.3426 11.5438L19.6787 12.4803C19.1517 13.2194 19.0351 14.1255 19.2835 14.9304L20.3122 16.3782C20.3224 16.3883 20.3325 16.3933 20.3426 16.4035C20.3477 16.4035 20.3477 16.4085 20.3528 16.4085L20.373 16.3782L21.4018 14.9304L28.0001 5.61595C27.5035 5.2616 26.9359 5.09454 26.3734 5.09454Z" fill="#ED8E00"/>
    <path d="M17.2412 16.0896L15.7614 13.9989L14.0333 11.5589L14.0029 11.5994L13.9725 11.5589L12.2443 13.9989L10.7645 16.0896L10.1006 17.0261C9.57356 17.7651 9.457 18.6713 9.70533 19.4762L10.7341 20.924C10.7442 20.9341 10.7544 20.9391 10.7645 20.9493C10.7696 20.9543 10.7696 20.9543 10.7746 20.9543L10.7949 20.924L11.8237 19.4762L13.9775 16.4388L14.0079 16.3984L14.0383 16.4388L16.1922 19.4762L17.2209 20.924L17.2412 20.9543C17.2463 20.9493 17.2463 20.9493 17.2514 20.9493C17.2615 20.9391 17.2716 20.9341 17.2818 20.924L18.3105 19.4762C18.5538 18.6713 18.4372 17.7651 17.9152 17.0261L17.2412 16.0896Z" fill="#8152E4"/>
</svg>
