<svg width="17" height="16" viewBox="0 0 17 16" fill="none" xmlns="http://www.w3.org/2000/svg">
<g clip-Path="url(#clip0)">
<Path d="M8.09863 16C12.5169 16 16.0986 12.4183 16.0986 8C16.0986 3.58172 12.5169 0 8.09863 0C3.68035 0 0.0986328 3.58172 0.0986328 8C0.0986328 12.4183 3.68035 16 8.09863 16Z" fill="#D80027"/>
<Path d="M4.47676 4.86914L5.16738 6.99414H7.40176L5.59551 8.30977L6.28613 10.4348L4.47676 9.12227L2.66738 10.4348L3.36113 8.30977L1.55176 6.99414H3.78613L4.47676 4.86914Z" fill="#FFDA44"/>
<Path d="M9.5831 12.3908L9.05498 11.7408L8.27373 12.0439L8.72685 11.3408L8.19873 10.6877L9.0081 10.9033L9.46435 10.2002L9.5081 11.0377L10.3206 11.2533L9.53622 11.5533L9.5831 12.3908Z" fill="#FFDA44"/>
<Path d="M10.6331 10.4846L10.8831 9.68457L10.1987 9.2002L11.0362 9.1877L11.2831 8.3877L11.555 9.18145L12.3925 9.17207L11.7206 9.67207L11.9894 10.4658L11.305 9.98145L10.6331 10.4846Z" fill="#FFDA44"/>
<Path d="M12.0485 5.87197L11.6798 6.6251L12.2798 7.20947L11.4517 7.09072L11.0829 7.84072L10.9392 7.01572L10.1079 6.89697L10.8517 6.50635L10.7079 5.67822L11.3079 6.2626L12.0485 5.87197Z" fill="#FFDA44"/>
<Path d="M9.60508 3.59082L9.54258 4.4252L10.3207 4.74082L9.50508 4.94082L9.4457 5.77832L9.00508 5.06582L8.18945 5.26582L8.73008 4.6252L8.28633 3.91582L9.06445 4.23145L9.60508 3.59082Z" fill="#FFDA44"/>
</g>
<defs>
<clipPath id="clip0">
<rect width="16" height="16" fill="white" transform="translate(0.0986328)"/>
</clipPath>
</defs>
</svg>
