<svg width="17" height="16" viewBox="0 0 17 16" fill="none" xmlns="http://www.w3.org/2000/svg">
<g clip-Path="url(#clip0)">
<Path d="M16.0986 8C16.0986 3.58172 12.5169 0 8.09863 0C3.68035 0 0.0986328 3.58172 0.0986328 8C0.0986328 12.4183 3.68035 16 8.09863 16C12.5169 16 16.0986 12.4183 16.0986 8Z" fill="#41B217"/>
<Path d="M10.8811 0.497594C10.0144 0.176001 9.07707 0 8.09851 0C7.11995 0 6.18257 0.176001 5.31592 0.497594L5.31592 15.5024C6.18257 15.824 7.11995 16 8.09851 16C9.07707 16 10.0144 15.824 10.8811 15.5024L11.5768 8L10.8811 0.497594Z" fill="#F0F0F0"/>
<Path d="M16.0988 8.00004C16.0988 4.56032 13.9278 1.62797 10.8813 0.49763L10.8813 15.5024C13.9278 14.3721 16.0988 11.4398 16.0988 8.00004Z" fill="#D80027"/>
</g>
<defs>
<clipPath id="clip0">
<rect width="16" height="16" fill="white" transform="translate(0.0986328 16) rotate(-90)"/>
</clipPath>
</defs>
</svg>
