<svg width="24" height="24" viewBox="0 0 24 24" fill="none" xmlns="http://www.w3.org/2000/svg">
<Path d="M12 24C18.6274 24 24 18.6274 24 12C24 5.37258 18.6274 0 12 0C5.37258 0 0 5.37258 0 12C0 18.6274 5.37258 24 12 24Z" fill="#F0F0F0"/>
<g clip-Path="url(#clip0)">
<Path d="M15.3283 6.99628C12.5661 5.18496 8.85285 5.90949 6.99625 8.67175C6.09059 10.0302 6.45285 11.9321 7.81134 12.8378C9.16983 13.7434 11.0717 13.3812 11.9774 12.0227C12.883 10.6642 14.7396 10.2567 16.1434 11.2076C17.5019 12.1133 17.9095 13.9699 16.9585 15.3736C18.8604 12.5661 18.0906 8.85288 15.3283 6.99628Z" fill="#D80027"/>
<Path d="M6.99628 8.67188C6.09062 10.0304 6.45288 11.9323 7.81137 12.8379C9.16986 13.7436 11.0717 13.3813 11.9774 12.0228C12.8831 10.6643 14.7397 10.2568 16.1434 11.2077C17.5019 12.1134 17.9095 13.97 16.9585 15.3738C15.1019 18.136 11.3887 18.8606 8.62647 17.0492C5.90949 15.1473 5.18496 11.4341 6.99628 8.67188Z" fill="#0052B4"/>
</g>
<defs>
<clipPath id="clip0">
<rect width="12" height="12" fill="white" transform="translate(6 6)"/>
</clipPath>
</defs>
</svg>
