<svg width="367" height="604" viewBox="0 0 367 604" fill="none" xmlns="http://www.w3.org/2000/svg">
<g clip-path="url(#clip0)">
<path d="M293.003 377.046C288.062 384.388 282.471 390.261 281.765 390.914C281.439 391.24 279.159 391.947 278.779 392.273C275.576 402.388 279.702 411.035 284.099 417.779C284.805 412.286 285.348 404.781 286.217 403.857C287.574 402.388 292.134 396.026 301.418 388.249C296.477 385.53 295.935 381.777 293.003 377.046Z" fill="#F7A491"/>
<path d="M281.493 391.077C277.856 391.294 271.015 393.578 271.07 394.285C271.124 395.155 274.979 425.012 279.702 427.676C282.525 429.253 283.068 424.631 284.099 417.833C279.702 411.035 279.485 392.817 281.493 391.077Z" fill="#50348C"/>
<path d="M218.083 363.07C210.536 367.583 203.044 371.01 202.122 371.336C201.687 371.499 199.298 371.173 198.81 371.336C191.589 379.167 191.698 388.684 192.784 396.678C195.77 392.001 199.461 385.475 200.601 384.986C202.447 384.224 209.125 381.342 220.797 378.188C217.54 373.62 218.68 368.617 218.083 363.07Z" fill="#F7A491"/>
<path d="M300.821 161.962C300.821 161.962 312.276 140.427 313.959 132.704C315.642 124.982 321.505 86.1527 321.016 83.5967C320.528 81.0951 311.244 75.0586 312.384 72.9376C313.525 70.8167 322.374 70.8167 324.382 70.9799C326.391 71.143 330.463 72.3394 332.2 73.7534C333.938 75.1673 330.246 121.773 329.16 131.78C328.074 141.786 311.299 174.633 311.299 174.633L300.821 161.962Z" fill="#F7A491"/>
<path d="M249.408 193.124C249.408 193.124 226.118 230.484 222.046 237.826C217.974 245.168 202.827 263.875 202.067 264.8C201.307 265.724 185.292 264.909 185.726 266.758C186.16 268.607 193.544 266.758 193.707 268.987C193.869 271.163 181.003 285.085 182.306 285.629C184.694 286.662 190.449 277.417 191.481 278.124C192.512 278.831 184.586 287.206 185.889 289C187.192 290.795 192.675 280.353 193.707 280.462C194.738 280.571 189.852 290.958 192.078 291.067C193.272 291.121 196.204 281.713 197.344 282.583C198.484 283.399 197.398 290.958 198.81 290.849C200.221 290.795 198.918 284.432 201.09 281.06C203.262 277.689 203.099 274.154 208.093 269.858C213.088 265.507 232.361 252.346 239.364 240.654C246.368 229.016 261.895 203.239 261.895 203.239L249.408 193.124Z" fill="#F7A491"/>
<path d="M305.11 248.703L264.664 261.755C264.664 261.755 286.922 299.659 291.32 307.219C295.717 314.778 314.665 333.431 314.719 338.325C314.719 341.806 296.857 364.701 286.108 378.677C288.551 383.191 295.174 389.065 299.409 391.621C317.325 374.599 343.493 347.734 343.981 338.978C344.633 326.089 305.11 248.703 305.11 248.703Z" fill="#8152E4"/>
<path d="M201.742 371.336C198.376 369.976 191.264 369.106 190.992 369.813C190.666 370.629 181.491 399.288 184.64 403.693C186.54 406.358 188.983 402.334 192.784 396.678C191.644 388.629 199.516 371.553 201.742 371.336Z" fill="#50348C"/>
<path d="M296.803 272.087C297.292 269.586 300.658 262.244 302.395 256.425C303.807 251.585 304.078 246.473 303.155 241.524L273.404 240.11L272.264 242.34C271.016 244.733 269.278 246.854 267.161 248.485C262.709 251.857 254.891 259.253 255.109 269.586C255.434 283.997 265.641 336.694 262.275 338.652C256.14 342.187 230.57 354.695 215.26 362.363C215.477 367.964 217.051 375.904 219.929 380.69C232.035 376.067 274.599 357.196 282.525 352.574C286.054 350.453 295.935 276.329 296.803 272.087Z" fill="#C4A2FC"/>
<path d="M224.869 104.316C227.203 110.57 223.512 115.247 220.906 121.393C219.169 125.526 223.023 132.106 227.366 135.097C238.387 142.765 240.939 142.928 240.179 153.315C238.279 178.331 268.138 167.672 272.916 166.857C277.747 166.041 281.331 166.258 283.665 164.681C290.56 159.896 297.075 145.484 295.88 133.357C294.686 121.23 280.245 125.417 276.933 119.816C273.621 114.269 283.611 107.308 275.087 98.0081C250.711 71.3062 225.195 89.1981 224.326 99.422C224.109 101.38 224.38 102.957 224.869 104.316Z" fill="#E08A08"/>
<path d="M308.693 192.743C308.693 192.743 316.999 173.002 318.302 169.685C318.302 169.685 306.684 159.352 299.789 160.168C299.789 160.168 290.831 174.307 285.511 174.797C280.245 175.286 261.623 176.102 258.366 178.059C255.108 180.017 241.265 200.9 241.265 200.9C241.265 200.9 253.697 213.354 258.692 213.354C258.692 213.354 262.112 204.925 263.252 206.447C264.392 207.97 269.007 240.708 271.341 243.21C273.513 245.494 299.518 254.304 307.064 252.727C307.064 252.727 311.136 221.185 310.919 201.825C310.919 198.779 308.693 192.743 308.693 192.743Z" fill="#F7DD7F"/>
<path d="M272.427 165.497C272.427 165.497 275.359 175.232 275.359 179.147C275.359 183.117 278.507 195.516 286.814 194.701C295.066 193.885 286.705 178.495 285.565 174.742C284.371 170.99 282.959 159.134 282.959 159.134L272.427 165.497Z" fill="#F7A491"/>
<path d="M283.774 165.116C283.285 161.908 283.014 159.189 283.014 159.189L272.481 165.497C272.481 165.497 273.078 167.509 273.73 170.011C278.67 170.5 281.982 168.325 283.774 165.116Z" fill="#F47458"/>
<path d="M265.586 138.578C265.586 138.578 261.569 141.406 260.537 146.681C259.506 152.01 262.655 165.062 274.001 167.129C285.348 169.195 289.04 158.21 285.945 150.216C282.796 142.221 276.77 132.324 265.586 138.578Z" fill="#F7A491"/>
<path d="M286.977 146.898C286.977 149.128 285.945 150.922 284.642 150.922C283.339 150.922 282.308 149.128 282.253 146.898C282.253 144.668 283.285 142.874 284.588 142.874C285.891 142.874 286.977 144.668 286.977 146.898Z" fill="#F7A491"/>
<path d="M265.424 157.992C266.944 159.787 267.161 162.071 265.912 163.05C264.718 164.083 262.492 163.431 261.026 161.636C259.506 159.841 259.289 157.557 260.538 156.578C261.732 155.545 263.958 156.198 265.424 157.992Z" fill="#F7A491"/>
<path d="M320.311 73.1008C320.094 73.2639 319.822 73.4271 319.605 73.5902L318.356 74.7323C319.551 75.0042 321.451 74.7867 323.242 76.1462C323.297 76.1462 322.917 74.6779 320.311 73.1008Z" fill="#F47257"/>
<path d="M340.072 7.35205C337.358 7.89588 326.445 22.5248 326.445 22.5248L326.065 23.5581C326.065 23.5581 345.773 21.3828 346.533 20.5127C348.433 18.1742 342.298 6.86261 340.072 7.35205ZM326.554 22.7968C330.137 18.1742 338.335 11.4308 340.126 10.0168C341.701 11.6483 344.09 16.434 344.415 18.5549C342.19 19.0443 332.309 22.1442 326.554 22.7968Z" fill="#F47458"/>
<path d="M317.162 4.30664C312.927 -1.45793 310.647 -0.479043 309.018 0.227933C307.39 0.934908 301.418 8.38535 303.264 12.3009C305.11 16.2165 323.568 23.8844 323.568 23.8844L324.22 22.4705C324.274 22.4161 321.451 10.0712 317.162 4.30664ZM305.49 11.2132C304.567 9.25547 308.53 3.43651 310.104 2.40324C310.484 2.24009 310.81 2.07695 311.081 2.07695C311.407 2.07695 312.764 2.34886 315.262 5.72059C317.976 9.41862 322.374 18.5549 323.405 22.4161C315.968 19.1531 306.412 12.8991 305.49 11.2132Z" fill="#F47458"/>
<path d="M324.491 26.3316H325.36C326.228 26.3316 326.934 25.6247 326.934 24.7545V22.1442C326.934 21.2741 326.228 20.5671 325.36 20.5671H324.491C323.622 20.5671 322.917 21.2741 322.917 22.1442V24.7545C322.862 25.6247 323.622 26.3316 324.491 26.3316Z" fill="#F47458"/>
<path d="M354.785 74.7323H298.703C295.663 74.7323 293.166 72.3938 292.949 69.3484L290.017 24.2107H363.037L359.997 71.1974C359.888 73.2096 357.608 74.7323 354.785 74.7323Z" fill="#F7DD7F"/>
<path d="M366.077 34.054L286.814 34.2171L285.945 29.1052C285.457 26.0597 287.791 23.2862 290.886 23.2862L362.657 23.5038C365.208 23.5038 367.217 25.0809 367 26.9299L366.077 34.054Z" fill="#F4D35F"/>
<path d="M326.337 23.3406H324.817V34.1627H326.337V23.3406Z" fill="#F47458"/>
<path d="M328.291 34.1084H326.391V74.7866H328.291V34.1084Z" fill="#F47458"/>
<path d="M319.116 77.6146L318.411 74.7867C316.185 74.8411 314.502 74.2973 313.307 73.971L311.353 73.1008C310.701 72.8289 309.996 73.1008 309.724 73.7534C309.507 74.2429 309.67 74.8411 310.104 75.1674C310.104 75.1674 315.425 79.5724 317.325 80.9319C318.248 81.5845 321.179 83.3792 321.179 83.3792L322.862 80.1706L319.116 77.6146Z" fill="#F7A491"/>
<path d="M106.463 478.905C106.463 478.905 120.469 489.02 122.695 492.065C125.898 496.416 98.9163 504.573 101.902 499.461C102.554 498.265 104.508 494.349 104.617 493.969C105.051 491.902 99.3506 486.301 99.3506 486.301L106.463 478.905Z" fill="#F7A491"/>
<path d="M94.5731 507.945L104.074 494.458C104.074 494.458 110.046 493.099 116.126 486.192C116.126 486.192 121.609 488.313 124.975 492.827C124.975 492.827 118.624 499.733 108.797 507.456C108.797 507.456 102.988 512.622 94.9531 515.341C86.9182 518.115 94.5731 507.945 94.5731 507.945Z" fill="#F7CC7F"/>
<path d="M223.675 294.33C223.675 294.33 221.937 295.852 221.34 296.342C220.634 296.886 218.354 298.354 218.354 298.354C218.354 298.354 210.156 303.031 209.885 302.378C209.613 301.78 209.613 299.986 210.048 299.551C210.428 299.061 211.622 298.626 212.057 298.137C212.437 297.647 212.599 296.723 212.057 296.233C211.514 295.689 208.745 297.266 208.745 297.266C208.745 297.266 206.465 298.517 205.542 300.04C202.284 305.315 203.262 305.641 202.827 306.294C202.284 307.055 190.829 312.276 190.829 312.276C190.829 312.276 156.518 326.579 154.672 327.34C154.401 328.917 155.269 330.386 155.704 331.799C156.518 336.694 157.984 337.02 159.124 341.752C164.39 339.087 200.818 318.965 204.51 316.899C204.51 316.899 210.048 315.974 213.522 315.213C216.997 314.506 220.037 312.33 220.96 311.95C221.123 311.895 224.217 310.536 227.638 307.925C230.569 305.641 226.769 306.512 226.769 306.512C226.769 306.512 220.58 309.774 220.417 309.285C220.309 308.904 223.783 307.273 227.041 304.771C227.909 304.119 228.724 303.52 229.484 302.922C231.492 301.4 231.112 299.768 228.778 301.073C227.963 301.508 226.606 302.324 225.738 303.031C224.76 303.792 223.675 304.173 222.752 304.717C220.96 305.75 219.657 306.511 219.657 306.403C219.657 306.294 219.168 306.24 220.037 305.533C221.069 304.662 223.729 303.357 225.14 301.998C225.955 301.236 227.801 299.714 227.801 299.714C227.801 299.714 230.135 296.94 230.026 296.723C229.429 295.744 227.312 297.212 226.28 298.408C225.249 298.844 223.403 300.529 223.403 300.529C223.403 300.529 218.897 303.031 218.571 302.433C218.408 302.161 221.014 300.312 223.295 298.082C225.412 296.016 227.203 293.623 226.878 293.133C226.226 292.263 223.675 294.33 223.675 294.33Z" fill="#F8A492"/>
<path d="M127.907 374.816L125.681 385.802L69.9255 436.595L109.829 477.056L99.0249 488.095C99.0249 488.095 40.066 444.752 37.9487 439.042C34.6913 430.287 80.1863 372.315 80.1863 372.315L127.907 374.816Z" fill="#ED8E00"/>
<path d="M166.996 508.108C166.996 508.108 181.003 518.224 183.229 521.269C186.432 525.62 159.45 533.777 162.436 528.665C163.087 527.469 165.041 523.553 165.15 523.172C165.584 521.106 159.884 515.504 159.884 515.504L166.996 508.108Z" fill="#F7A491"/>
<path d="M155.106 537.258L164.607 523.771C164.607 523.771 170.959 522.629 177.039 515.776C177.039 515.776 182.143 517.625 185.509 522.193C185.509 522.193 179.157 529.1 169.33 536.822C169.33 536.822 163.521 541.989 155.486 544.708C147.397 547.373 155.106 537.258 155.106 537.258Z" fill="#F7CC7F"/>
<path d="M126.007 379.874L123.51 449.212L170.633 507.13L159.558 517.353C159.558 517.353 104.834 470.312 98.8077 457.206C95.0617 449.049 82.5207 375.578 82.5207 375.578L126.007 379.874Z" fill="#FFB240"/>
<path d="M81.0006 374.218C85.561 363.94 85.0181 290.469 102.662 273.229C108.851 274.263 113.303 274.861 114.335 275.133C115.258 282.692 116.289 310.481 116.886 335.933C117.321 352.9 116.886 370.683 118.949 380.091C120.252 385.91 76.8746 383.572 81.0006 374.218Z" fill="#FAE0B2"/>
<path d="M128.776 278.939C133.716 280.081 137.354 280.843 143.868 290.469C150.112 299.659 163.901 321.521 163.901 321.521L200.276 305.315L201.959 323.751C201.959 323.751 160.807 345.178 154.998 343.22C149.189 341.262 132.902 317.388 131.653 315.757C131.382 315.376 133.01 341.262 133.01 345.395C133.01 349.528 140.882 385.584 140.882 385.584C140.882 385.584 120.849 390.533 116.941 381.56C104.942 354.096 114.172 275.078 114.172 275.078C114.172 275.078 125.247 278.124 128.776 278.939Z" fill="#50348C"/>
<path d="M53.0956 200.193C54.4529 198.725 54.7243 195.571 54.67 193.613L54.9958 190.948C54.3443 190.785 42.0748 190.676 38.4373 191.057C38.2202 192.253 38.1659 193.232 38.3831 193.83C39.306 196.713 45.6579 215.475 45.6579 215.475L56.0273 214.278C56.0816 214.278 52.3356 203.184 53.0956 200.193Z" fill="#F7A491"/>
<path d="M98.5906 277.525C98.5906 277.525 91.4243 297.973 85.5067 294.982C79.5891 292.046 46.4722 258.22 46.1465 256.588C45.8208 254.957 43.5406 213.408 43.5406 213.408L56.6245 210.798L64.1708 244.787C64.1708 244.787 88.4384 268.008 93.3245 270.293C98.2649 272.631 98.5906 277.525 98.5906 277.525Z" fill="#50348C"/>
<path d="M79.2634 379.112C75.3002 379.112 73.8344 378.569 71.1742 377.753C71.1742 377.753 78.7205 335.117 83.118 292.807C84.8552 276.112 86.4839 269.259 93.3245 270.456C95.3332 270.782 100.708 272.849 102.662 273.175C85.3981 322.174 85.2895 359.915 82.8465 370.846C81.6521 376.393 80.5663 379.167 79.2634 379.112Z" fill="#50348C"/>
<path d="M104.508 265.833L102.717 273.229C102.717 273.229 102.282 279.701 105.268 280.245C108.851 280.952 114.226 275.568 114.226 275.568L117.321 254.685L104.508 265.833Z" fill="#F7A491"/>
<path d="M104.508 265.833L102.717 273.229C102.717 273.229 102.282 279.701 105.268 280.245C108.851 280.952 114.226 275.568 114.226 275.568L117.321 254.685L104.508 265.833Z" fill="#F7A491"/>
<path d="M117.266 254.739L104.454 265.779L103.097 271.326C108.037 270.184 114.986 264.8 117.266 254.739Z" fill="#F47458"/>
<path d="M104.454 235.542C101.359 235.542 98.5906 237.663 97.5048 240.763C96.5818 243.319 95.4417 247.126 94.736 251.476C93.3787 259.525 97.9391 266.866 101.902 267.465C105.865 268.063 115.312 265.398 117.429 254.032C118.352 249.138 119.492 242.775 115.529 239.403C112.38 236.793 107.983 235.542 104.454 235.542Z" fill="#F7A491"/>
<path d="M116.126 262.733C116.126 262.733 130.133 250.225 130.73 240.491C131.327 230.702 122.315 225.481 114.66 225.209C111.186 225.101 108.851 225.264 105.214 225.699C97.5048 226.678 92.5101 230.104 94.2474 236.412C96.6361 244.896 112.597 237.717 115.909 240.382C118.624 242.557 114.226 247.778 116.832 249.79C119.275 251.694 118.026 251.041 117.212 254.576C116.452 258.165 116.126 262.733 116.126 262.733Z" fill="#184655"/>
<path d="M121.501 251.367C121.175 253.706 119.709 255.446 118.298 255.229C116.886 255.011 116.018 252.944 116.343 250.606C116.669 248.268 118.135 246.527 119.546 246.745C121.012 246.962 121.881 249.029 121.501 251.367Z" fill="#F7A491"/>
<path d="M51.9012 192.036C51.9012 192.036 49.9468 193.395 48.1009 196.658C48.1009 196.658 41.749 193.667 41.8033 192.471C41.8576 190.839 48.2638 193.015 48.2638 193.015L51.9012 192.036Z" fill="#F47458"/>
<path d="M143.868 144.614L40.7175 197.8C35.1799 200.683 28.3394 198.453 25.5163 192.906L1.24868 145.756C-1.62869 140.209 0.597199 133.357 6.13477 130.529L109.286 77.3426C114.823 74.4603 121.664 76.69 124.487 82.2371L148.754 129.387C151.632 134.934 149.406 141.732 143.868 144.614Z" fill="#C4A2FC"/>
<path d="M140.873 113.989L17.5939 177.574L24.9507 191.886L148.23 128.301L140.873 113.989Z" fill="#8152E4"/>
<path d="M53.5299 187.25L54.9957 190.894L51.5755 192.688C51.5755 192.688 52.4441 190.948 52.1184 190.459C50.4897 187.848 51.9012 185.292 53.5299 187.25Z" fill="#F7A491"/>
<path opacity="0.3" d="M240.536 460.696C226.66 460.696 198.074 463.41 198.352 470.737C198.475 473.994 226.382 477.935 242.201 478.607C254.968 479.15 284.053 478.336 287.161 470.737C291.047 461.239 254.413 460.696 240.536 460.696Z" fill="#C4C4C4"/>
<path opacity="0.3" d="M132.615 562.601C154.586 562.601 199.847 566.911 199.407 578.549C199.212 583.721 155.026 589.98 129.979 591.048C109.765 591.91 63.7138 590.617 58.7923 578.549C52.6404 563.463 110.644 562.601 132.615 562.601Z" fill="#C4C4C4"/>
</g>
<defs>
<clipPath id="clip0">
<rect width="367" height="604" fill="white"/>
</clipPath>
</defs>
</svg>
