<svg width="32" height="32" viewBox="0 0 32 32" fill="none" xmlns="http://www.w3.org/2000/svg">
<path d="M27.25 3.75H26.3125V2.8125C26.3125 1.26169 25.0508 0 23.5 0H4.75C3.19919 0 1.9375 1.26169 1.9375 2.8125V25.4375C1.9375 26.9883 3.19919 28.25 4.75 28.25H5.6875V29.1875C5.6875 30.7383 6.94919 32 8.5 32H27.25C28.8008 32 30.0625 30.7383 30.0625 29.1875V6.5625C30.0625 5.01169 28.8008 3.75 27.25 3.75ZM6.51125 7.22544C5.98 7.75663 5.6875 8.46287 5.6875 9.21412V26.375H4.75C4.23306 26.375 3.8125 25.9544 3.8125 25.4375V2.8125C3.8125 2.29556 4.23306 1.875 4.75 1.875H23.5C24.0169 1.875 24.4375 2.29556 24.4375 2.8125V3.75H11.1516C10.4004 3.75 9.69412 4.04256 9.16294 4.57375L6.51125 7.22544ZM11.3125 5.625V9.375H7.5625V9.21412C7.5625 8.96375 7.66 8.72831 7.83706 8.55125L10.4888 5.89956C10.6658 5.7225 10.9012 5.625 11.1516 5.625H11.3125ZM28.1875 29.1875C28.1875 29.7044 27.7669 30.125 27.25 30.125H8.5C7.98306 30.125 7.5625 29.7044 7.5625 29.1875V11.25H12.25C12.7677 11.25 13.1875 10.8302 13.1875 10.3125V5.625H27.25C27.7669 5.625 28.1875 6.04556 28.1875 6.5625V29.1875Z" fill="#ED8E00"/>
<path d="M25.375 13.25H10.375C9.85725 13.25 9.4375 13.6697 9.4375 14.1875C9.4375 14.7053 9.85725 15.125 10.375 15.125H25.375C25.8927 15.125 26.3125 14.7053 26.3125 14.1875C26.3125 13.6697 25.8927 13.25 25.375 13.25Z" fill="#ED8E00"/>
<path d="M25.375 17H10.375C9.85725 17 9.4375 17.4197 9.4375 17.9375C9.4375 18.4553 9.85725 18.875 10.375 18.875H25.375C25.8927 18.875 26.3125 18.4553 26.3125 17.9375C26.3125 17.4197 25.8927 17 25.375 17Z" fill="#ED8E00"/>
<path d="M25.375 20.75H10.375C9.85725 20.75 9.4375 21.1697 9.4375 21.6875C9.4375 22.2053 9.85725 22.625 10.375 22.625H25.375C25.8927 22.625 26.3125 22.2053 26.3125 21.6875C26.3125 21.1697 25.8927 20.75 25.375 20.75Z" fill="#ED8E00"/>
<path d="M25.375 24.5H10.375C9.85725 24.5 9.4375 24.9197 9.4375 25.4375C9.4375 25.9553 9.85725 26.375 10.375 26.375H25.375C25.8927 26.375 26.3125 25.9553 26.3125 25.4375C26.3125 24.9197 25.8927 24.5 25.375 24.5Z" fill="#ED8E00"/>
</svg>
