<svg width="114" height="99" viewBox="0 0 114 99" fill="none" xmlns="http://www.w3.org/2000/svg">
<path opacity="0.8" d="M84.9434 21.4685C82.4199 14.7202 78.4678 9.45506 73.0869 5.67303C67.7061 1.89101 61.082 0 53.2148 0C46.4609 0 40.3936 1.53876 35.0127 4.61629C29.6318 7.69382 25.4014 11.8837 22.3213 17.186C19.2412 22.4882 17.4785 28.4393 17.0332 35.0393C12.0605 36.6708 7.97852 39.7669 4.78711 44.3275C1.5957 48.8882 0 54.0236 0 59.7337C0 66.7045 2.375 72.7483 7.125 77.8652C11.875 82.982 17.5156 85.5405 24.0469 85.5405H34.2891C35.3281 85.5405 36.1816 85.1882 36.8496 84.4837C37.5176 83.7792 37.8516 82.9449 37.8516 81.9809C37.8516 81.4618 37.7588 80.9983 37.5732 80.5904C37.3877 80.1826 37.1465 79.8118 36.8496 79.4781C36.5527 79.1444 36.1816 78.8848 35.7363 78.6994C35.291 78.514 34.8086 78.4213 34.2891 78.4213H24.0469C19.4453 78.4213 15.4561 76.5674 12.0791 72.8596C8.70215 69.1517 7.01367 64.7764 7.01367 59.7337C7.01367 55.2843 8.38672 51.2798 11.1328 47.7202C13.8789 44.1607 17.2188 42.0472 21.1523 41.3798L24.3809 40.8236L24.1582 37.4865H24.0469C24.0469 31.7022 25.2344 26.5112 27.6094 21.9135C29.9844 17.3157 33.3984 13.7006 37.8516 11.068C42.3047 8.43539 47.4258 7.1191 53.2148 7.1191C66.5 7.1191 75.0723 13.3854 78.9316 25.918L79.7109 28.3652L82.2715 28.4764C88.9512 28.5506 94.7588 30.9607 99.6943 35.7067C104.63 40.4528 107.098 46.1258 107.098 52.7258C107.098 56.8787 106.281 60.9017 104.648 64.7949C103.016 68.6882 100.622 71.9326 97.4678 74.5281C94.3135 77.1236 90.7695 78.4213 86.8359 78.4213H78.709C77.7441 78.4213 76.9092 78.7736 76.2041 79.4781C75.499 80.1826 75.1465 81.0169 75.1465 81.9809C75.1465 82.9449 75.499 83.7792 76.2041 84.4837C76.9092 85.1882 77.7441 85.5405 78.709 85.5405H86.8359C91.1406 85.3921 95.0557 84.3354 98.5811 82.3702C102.106 80.4051 104.964 77.8466 107.153 74.6949C109.343 71.5433 111.031 68.0764 112.219 64.2944C113.406 60.5124 114 56.6562 114 52.7258C114 44.6427 111.198 37.6348 105.595 31.7022C99.9912 25.7697 93.1074 22.3584 84.9434 21.4685ZM59.6719 49.8337V49.7225L58.7812 48.8326C58.2617 48.3135 57.6494 48.0539 56.9443 48.0539C56.2393 48.0539 55.627 48.3135 55.1074 48.8326L54.2168 49.7225V49.8337L41.3027 64.0719C40.7832 64.591 40.5234 65.2028 40.5234 65.9073C40.5234 66.6118 40.7832 67.2607 41.3027 67.8539L42.1934 68.4101C42.7129 68.9292 43.3066 69.1331 43.9746 69.0219C44.6426 68.9107 45.2734 68.5955 45.8672 68.0764L53.4375 59.6225V95.4404C53.4375 96.4787 53.7715 97.3315 54.4395 97.9989C55.1074 98.6663 55.9424 99 56.9443 99C57.9463 99 58.7998 98.6663 59.5049 97.9989C60.21 97.3315 60.5625 96.4787 60.5625 95.4404V59.6225L68.3555 68.2989C68.875 68.818 69.4688 69.1331 70.1367 69.2444C70.8047 69.3556 71.3984 69.1517 71.918 68.6326L72.8086 68.0764C73.3281 67.4831 73.5879 66.8343 73.5879 66.1298C73.5879 65.4253 73.3281 64.8135 72.8086 64.2944L59.6719 49.8337Z" fill="#C4A2FC"/>
</svg>
