<svg width="232" height="27" viewBox="0 0 232 27" fill="none" xmlns="http://www.w3.org/2000/svg">
<g filter="url(#filter0_bd)">
<rect x="4.71387" y="2.39131" width="49.2097" height="17.3274" rx="8.66368" fill="#0084FF" fill-opacity="0.8"/>
<path d="M14.9428 12.7123L18.2807 8.06445H19.6295V14.8568H18.2419V10.1992L14.904 14.8568H13.5552V8.06445H14.9428V12.7123ZM22.6509 14.8568H21.2633V8.06445H22.6509V10.8493H25.7948V8.06445H27.1823V14.8568H25.7948V12.0719H22.6509V14.8568ZM33.3029 8.46229H33.3223C34.2797 8.46229 35.0657 8.74369 35.6802 9.30648C36.3013 9.86927 36.6118 10.5873 36.6118 11.4606C36.6118 12.3339 36.3013 13.052 35.6802 13.6148C35.0657 14.1775 34.2797 14.4589 33.3223 14.4589H33.3029V15.2449H31.9154V14.4589H31.896C30.945 14.4589 30.1591 14.1775 29.538 13.6148C28.9235 13.052 28.6162 12.3339 28.6162 11.4606C28.6162 10.5873 28.9235 9.86927 29.538 9.30648C30.1591 8.74369 30.945 8.46229 31.896 8.46229H31.9154V7.67632H33.3029V8.46229ZM31.896 13.2266H31.9154V9.69461H31.896C31.3396 9.69461 30.8836 9.85957 30.5278 10.1895C30.1785 10.5129 30.0038 10.9366 30.0038 11.4606C30.0038 11.9846 30.1785 12.4115 30.5278 12.7415C30.8836 13.0649 31.3396 13.2266 31.896 13.2266ZM33.3029 13.2266H33.3223C33.8787 13.2266 34.3347 13.0649 34.6905 12.7415C35.0463 12.4115 35.2242 11.9846 35.2242 11.4606C35.2242 10.9366 35.0463 10.5129 34.6905 10.1895C34.3412 9.85957 33.8851 9.69461 33.3223 9.69461H33.3029V13.2266ZM38.8785 13.9447C38.1928 13.2719 37.8499 12.4439 37.8499 11.4606C37.8499 10.4773 38.1928 9.64933 38.8785 8.97657C39.5642 8.3038 40.4116 7.96742 41.4208 7.96742C42.4299 7.96742 43.2773 8.3038 43.963 8.97657C44.6487 9.64933 44.9916 10.4773 44.9916 11.4606C44.9916 12.4439 44.6487 13.2719 43.963 13.9447C43.2773 14.6174 42.4299 14.9538 41.4208 14.9538C40.4116 14.9538 39.5642 14.6174 38.8785 13.9447ZM39.8973 9.87898C39.4898 10.3059 39.286 10.8331 39.286 11.4606C39.286 12.0881 39.4898 12.6153 39.8973 13.0423C40.3113 13.4692 40.8191 13.6827 41.4208 13.6827C42.0288 13.6827 42.5366 13.4692 42.9442 13.0423C43.3517 12.6153 43.5555 12.0881 43.5555 11.4606C43.5555 10.8331 43.3517 10.3059 42.9442 9.87898C42.5366 9.45203 42.0288 9.23856 41.4208 9.23856C40.8191 9.23856 40.3113 9.45203 39.8973 9.87898Z" fill="white"/>
</g>
<g filter="url(#filter1_bd)">
<rect x="59.4688" y="2.39131" width="90.1023" height="17.3274" rx="8.66368" fill="white" fill-opacity="0.8"/>
<path d="M69.2222 13.9447C68.5495 13.2719 68.2131 12.4439 68.2131 11.4606C68.2131 10.4773 68.5495 9.64933 69.2222 8.97657C69.9015 8.3038 70.7392 7.96742 71.7354 7.96742C72.7316 7.96742 73.5661 8.3038 74.2388 8.97657C74.9181 9.64933 75.2577 10.4773 75.2577 11.4606C75.2577 12.4439 74.9181 13.2719 74.2388 13.9447C73.5661 14.6174 72.7316 14.9538 71.7354 14.9538C70.7392 14.9538 69.9015 14.6174 69.2222 13.9447ZM69.785 9.48114C69.2546 10.0181 68.9893 10.6779 68.9893 11.4606C68.9893 12.2434 69.2546 12.9064 69.785 13.4498C70.3155 13.9867 70.9656 14.2552 71.7354 14.2552C72.5117 14.2552 73.1618 13.9867 73.6858 13.4498C74.2162 12.9129 74.4814 12.2498 74.4814 11.4606C74.4814 10.6714 74.2162 10.0084 73.6858 9.47144C73.1618 8.93452 72.5117 8.66606 71.7354 8.66606C70.9656 8.66606 70.3155 8.93775 69.785 9.48114ZM85.6428 8.06445L83.2072 11.4024L85.8368 14.8568H84.915L82.5571 11.8002H81.1404V14.8568H80.3835V8.06445H81.1404V11.121H82.5571L84.7986 8.06445H85.6428ZM87.7886 13.9447C87.1158 13.2719 86.7794 12.4439 86.7794 11.4606C86.7794 10.4773 87.1158 9.64933 87.7886 8.97657C88.4678 8.3038 89.3055 7.96742 90.3017 7.96742C91.2979 7.96742 92.1324 8.3038 92.8052 8.97657C93.4844 9.64933 93.824 10.4773 93.824 11.4606C93.824 12.4439 93.4844 13.2719 92.8052 13.9447C92.1324 14.6174 91.2979 14.9538 90.3017 14.9538C89.3055 14.9538 88.4678 14.6174 87.7886 13.9447ZM88.3513 9.48114C87.8209 10.0181 87.5557 10.6779 87.5557 11.4606C87.5557 12.2434 87.8209 12.9064 88.3513 13.4498C88.8818 13.9867 89.5319 14.2552 90.3017 14.2552C91.078 14.2552 91.7281 13.9867 92.2521 13.4498C92.7825 12.9129 93.0478 12.2498 93.0478 11.4606C93.0478 10.6714 92.7825 10.0084 92.2521 9.47144C91.7281 8.93452 91.078 8.66606 90.3017 8.66606C89.5319 8.66606 88.8818 8.93775 88.3513 9.48114ZM102.329 8.06445V14.8568H101.601V9.22885L99.2138 14.8568H98.5733L96.1863 9.22885V14.8568H95.4586V8.06445H96.4483L98.913 13.8282L101.368 8.06445H102.329ZM104.966 14.8568H104.209V8.06445H109.885V14.8568H109.129V8.75339H104.966V14.8568ZM117.928 14.8568H117.113L116.337 13.052H112.786L112.009 14.8568H111.223L114.173 8.06445H114.979L117.928 14.8568ZM114.561 8.92805L113.077 12.363H116.036L114.561 8.92805ZM120.022 14.8568H119.265V8.06445H120.022V11.121H124.185V8.06445H124.942V14.8568H124.185V11.8002H120.022V14.8568ZM127.522 13.6924L131.752 8.06445H132.499V14.8568H131.742V9.22885L127.512 14.8568H126.765V8.06445H127.522V13.6924ZM135.078 13.6924L139.309 8.06445H140.056V14.8568H139.299V9.22885L135.068 14.8568H134.321V8.06445H135.078V13.6924Z" fill="#0084FF" fill-opacity="0.7"/>
</g>
<g filter="url(#filter2_bd)">
<rect x="155.115" y="2.39131" width="72.0818" height="17.3274" rx="8.66368" fill="white" fill-opacity="0.8"/>
<path d="M169.313 8.06445L166.877 11.4024L169.507 14.8568H168.585L166.227 11.8002H164.81V14.8568H164.054V8.06445H164.81V11.121H166.227L168.469 8.06445H169.313ZM171.459 13.9447C170.786 13.2719 170.449 12.4439 170.449 11.4606C170.449 10.4773 170.786 9.64933 171.459 8.97657C172.138 8.3038 172.976 7.96742 173.972 7.96742C174.968 7.96742 175.802 8.3038 176.475 8.97657C177.154 9.64933 177.494 10.4773 177.494 11.4606C177.494 12.4439 177.154 13.2719 176.475 13.9447C175.802 14.6174 174.968 14.9538 173.972 14.9538C172.976 14.9538 172.138 14.6174 171.459 13.9447ZM172.021 9.48114C171.491 10.0181 171.226 10.6779 171.226 11.4606C171.226 12.2434 171.491 12.9064 172.021 13.4498C172.552 13.9867 173.202 14.2552 173.972 14.2552C174.748 14.2552 175.398 13.9867 175.922 13.4498C176.453 12.9129 176.718 12.2498 176.718 11.4606C176.718 10.6714 176.453 10.0084 175.922 9.47144C175.398 8.93452 174.748 8.66606 173.972 8.66606C173.202 8.66606 172.552 8.93775 172.021 9.48114ZM179.886 14.8568H179.129V8.06445H179.886V11.121H184.048V8.06445H184.805V14.8568H184.048V11.8002H179.886V14.8568ZM189.161 14.8568H188.404V8.75339H186.104V8.06445H191.461V8.75339H189.161V14.8568ZM197.941 14.8568H197.126L196.349 13.052H192.798L192.022 14.8568H191.236L194.186 8.06445H194.991L197.941 14.8568ZM194.574 8.92805L193.089 12.363H196.049L194.574 8.92805ZM204.537 8.06445L202.101 11.4024L204.731 14.8568H203.809L201.451 11.8002H200.034V14.8568H199.277V8.06445H200.034V11.121H201.451L203.692 8.06445H204.537ZM208.627 14.8568H207.871V8.75339H205.571V8.06445H210.927V8.75339H208.627V14.8568ZM214.695 14.8568H212.23V8.06445H212.987V10.8105H214.695C215.335 10.8105 215.856 11.0046 216.257 11.3927C216.664 11.7744 216.868 12.2531 216.868 12.8288C216.868 13.411 216.664 13.8962 216.257 14.2843C215.856 14.6659 215.335 14.8568 214.695 14.8568ZM218.246 14.8568H217.489V8.06445H218.246V14.8568ZM212.987 11.4994V14.1678H214.695C215.102 14.1678 215.435 14.0417 215.694 13.7894C215.959 13.5371 216.092 13.2202 216.092 12.8385C216.092 12.4568 215.959 12.1398 215.694 11.8876C215.435 11.6288 215.102 11.4994 214.695 11.4994H212.987Z" fill="#0084FF" fill-opacity="0.7"/>
</g>
<defs>
<filter id="filter0_bd" x="-64.5956" y="-66.9182" width="187.829" height="155.946" filterUnits="userSpaceOnUse" color-interpolation-filters="sRGB">
<feFlood flood-opacity="0" result="BackgroundImageFix"/>
<feGaussianBlur in="BackgroundImage" stdDeviation="34.6547"/>
<feComposite in2="SourceAlpha" operator="in" result="effect1_backgroundBlur"/>
<feColorMatrix in="SourceAlpha" type="matrix" values="0 0 0 0 0 0 0 0 0 0 0 0 0 0 0 0 0 0 127 0"/>
<feOffset dy="2.3258"/>
<feGaussianBlur stdDeviation="2.3258"/>
<feColorMatrix type="matrix" values="0 0 0 0 0 0 0 0 0 0 0 0 0 0 0 0 0 0 0.25 0"/>
<feBlend mode="overlay" in2="effect1_backgroundBlur" result="effect2_dropShadow"/>
<feBlend mode="normal" in="SourceGraphic" in2="effect2_dropShadow" result="shape"/>
</filter>
<filter id="filter1_bd" x="-9.84071" y="-66.9182" width="228.721" height="155.946" filterUnits="userSpaceOnUse" color-interpolation-filters="sRGB">
<feFlood flood-opacity="0" result="BackgroundImageFix"/>
<feGaussianBlur in="BackgroundImage" stdDeviation="34.6547"/>
<feComposite in2="SourceAlpha" operator="in" result="effect1_backgroundBlur"/>
<feColorMatrix in="SourceAlpha" type="matrix" values="0 0 0 0 0 0 0 0 0 0 0 0 0 0 0 0 0 0 127 0"/>
<feOffset dy="2.3258"/>
<feGaussianBlur stdDeviation="2.3258"/>
<feColorMatrix type="matrix" values="0 0 0 0 0 0 0 0 0 0 0 0 0 0 0 0 0 0 0.25 0"/>
<feBlend mode="overlay" in2="effect1_backgroundBlur" result="effect2_dropShadow"/>
<feBlend mode="normal" in="SourceGraphic" in2="effect2_dropShadow" result="shape"/>
</filter>
<filter id="filter2_bd" x="85.8058" y="-66.9182" width="210.701" height="155.946" filterUnits="userSpaceOnUse" color-interpolation-filters="sRGB">
<feFlood flood-opacity="0" result="BackgroundImageFix"/>
<feGaussianBlur in="BackgroundImage" stdDeviation="34.6547"/>
<feComposite in2="SourceAlpha" operator="in" result="effect1_backgroundBlur"/>
<feColorMatrix in="SourceAlpha" type="matrix" values="0 0 0 0 0 0 0 0 0 0 0 0 0 0 0 0 0 0 127 0"/>
<feOffset dy="2.3258"/>
<feGaussianBlur stdDeviation="2.3258"/>
<feColorMatrix type="matrix" values="0 0 0 0 0 0 0 0 0 0 0 0 0 0 0 0 0 0 0.25 0"/>
<feBlend mode="overlay" in2="effect1_backgroundBlur" result="effect2_dropShadow"/>
<feBlend mode="normal" in="SourceGraphic" in2="effect2_dropShadow" result="shape"/>
</filter>
</defs>
</svg>
