<svg width="102" height="102" viewBox="0 0 102 102" fill="none" xmlns="http://www.w3.org/2000/svg">
<g filter="url(#filter0_d)">
<circle cx="50.6087" cy="48.3197" r="47.8235" fill="white"/>
</g>
<path d="M37.125 50.9735L39.1727 52.9236L42.0004 49.9984L41.9029 54.4838L44.7307 54.5813L44.9257 47.1706L50.3862 41.6126V49.4133L45.3157 54.8738L47.3634 56.7265L50.3862 53.5087V57.6041H53.2139V53.5087L56.3342 56.7265L58.2844 54.8738L53.2139 49.4133V41.6126L58.6744 47.1706L58.9669 54.5813L61.7947 54.4838L61.5997 49.9984L64.5249 52.9236L66.4751 50.9735L63.5499 48.0482L68.0352 48.1457L68.1328 45.4155L60.7221 45.1229L55.1641 39.6625H62.9648L68.4253 44.7329L70.3755 42.6852L67.0602 39.6625H71.1555V36.8347H67.0602L70.3755 33.8119L68.4253 31.7643L62.9648 36.8347H55.1641L60.7221 31.3742L68.1328 31.0817L68.0352 28.3515L63.5499 28.449L66.4751 25.6212L64.5249 23.5735L37.125 50.9735Z" fill="url(#paint0_linear)"/>
<path d="M62.7696 18.893L58.8693 22.7934C58.3817 22.4033 57.9917 22.1108 57.5041 21.8183L60.0394 16.9429L57.7967 15.7727L55.1639 20.6482C54.5789 20.4532 53.9938 20.2581 53.4088 20.0631L54.3839 14.6026L51.8486 14.1151L50.8735 19.6731C50.581 19.6731 50.386 19.6731 50.0935 19.6731C49.7034 19.6731 49.4109 19.6731 49.0209 19.6731L48.2408 14.0176L45.6081 14.4076L46.3881 20.0631C45.8031 20.2581 45.218 20.4532 44.633 20.6482L42.0978 15.4802L39.7576 16.6503L42.2928 21.9158C41.8052 22.2083 41.3177 22.5984 40.9277 22.9884L36.8323 18.698L34.9796 20.4532L39.1725 24.7435C38.7825 25.2311 38.4899 25.6211 38.1974 26.1087L32.8344 23.2809L31.6643 25.5236L37.0273 28.3514C36.8323 28.8389 36.6373 29.424 36.5398 30.009L30.3967 29.0339L29.9092 31.5692L36.0522 32.6418C36.0522 33.2268 36.0522 33.7143 36.0522 34.2994L29.9092 35.177L30.2992 37.7122L36.4423 36.8346C36.5398 37.3222 36.7348 37.9072 36.9298 38.3948L31.3718 41.125L32.5419 43.4652L38.0999 40.735C38.3924 41.32 38.7825 41.8076 39.27 42.2951L35.3697 46.1955L37.2223 48.0481L64.7198 20.5507L62.7696 18.893ZM42.0003 25.5236C44.1454 23.3784 46.9732 22.2083 49.996 22.2083C52.5312 22.2083 54.9689 23.0859 57.0166 24.646L41.0252 40.54C37.5149 36.1521 37.8074 29.619 42.0003 25.5236Z" fill="url(#paint1_linear)"/>
<path d="M28.6596 70.9527H27.0537V60.8969H28.6596V70.9527ZM30.686 65.5998L35.3124 70.9144H33.3242L28.6978 65.5998L32.9036 60.8969H34.8918L30.686 65.5998Z" fill="black"/>
<path d="M42.998 70.9525H41.4304V64.8731H39.1745V65.5996C39.1745 69.576 37.6834 70.8378 35.7334 71.0289V69.6143C37.0716 69.3084 37.5687 68.0466 37.5687 64.8349V63.4967H42.998V70.9525Z" fill="black"/>
<path d="M50.7593 70.9526H49.1917V66.3644L44.6417 71.1055H44.1064V63.4968H45.7123V68.085L50.2622 63.3056H50.7975V70.9526H50.7593Z" fill="black"/>
<path d="M59.9741 70.9526H58.3682V66.6321L56.1888 69.1556H55.6153L53.4359 66.6321V70.9144H51.8301V63.3056H52.3654L55.883 67.3585L59.4006 63.3056H59.9358V70.9526H59.9741Z" fill="black"/>
<path d="M67.2771 66.4407V70.9524H65.7859V70.1113C65.2507 70.723 64.4477 71.1054 63.4154 71.1054C61.8478 71.1054 60.8154 70.226 60.8154 68.9642C60.8154 67.626 61.886 66.8231 63.5683 66.8231H65.6712V66.326C65.6712 65.2937 65.0977 64.7202 64.0654 64.7202C63.186 64.7202 62.5742 65.1025 62.0007 65.829L61.0831 64.8731C61.8478 63.7643 62.9566 63.2672 64.2183 63.2672C66.0154 63.3055 67.2771 64.376 67.2771 66.4407ZM65.633 68.1231V67.9701H63.7213C62.8801 67.9701 62.3831 68.276 62.3831 68.8878C62.3831 69.5377 62.9566 69.8819 63.683 69.8819C64.7536 69.8819 65.633 69.1554 65.633 68.1231Z" fill="black"/>
<path d="M74.4271 64.8731H71.9036V70.9525H70.336V64.8731H67.8125V63.4967H74.4271V64.8731Z" fill="black"/>
<path d="M43.6788 83.319H42.0729V77.0103L39.1671 80.7955H38.6318L35.726 77.0103V83.319H34.1201V73.1103H34.6554L38.8612 78.7308L43.0671 73.1103H43.6023V83.319H43.6788Z" fill="black"/>
<path d="M51.0583 78.8071V83.3188H49.5672V82.4777C49.0319 83.0894 48.229 83.4718 47.1966 83.4718C45.629 83.4718 44.5967 82.5924 44.5967 81.3306C44.5967 79.9924 45.6673 79.1895 47.3496 79.1895H49.4525V78.6924C49.4525 77.6601 48.879 77.0866 47.8466 77.0866C46.9672 77.0866 46.3555 77.4689 45.782 78.1954L44.8643 77.2395C45.629 76.1307 46.7378 75.6336 47.9996 75.6336C49.7966 75.6719 51.0583 76.7424 51.0583 78.8071ZM49.4525 80.4894V80.3365H47.5408C46.6996 80.3365 46.2025 80.6424 46.2025 81.2541C46.2025 81.9041 46.7761 82.2482 47.5025 82.2482C48.5731 82.2482 49.4525 81.5218 49.4525 80.4894Z" fill="black"/>
<path d="M59.7763 79.5718C59.7763 81.7894 58.2087 83.4718 56.1058 83.4718C55.0734 83.4718 54.194 83.0894 53.6205 82.4012V86.0335H52.0146V75.863H53.5058V76.9336C54.0411 76.1307 54.997 75.6719 56.1058 75.6719C58.2469 75.6719 59.7763 77.3542 59.7763 79.5718ZM53.6205 79.5718C53.6205 81.2541 54.7293 82.0188 55.8764 82.0188C57.1381 82.0188 58.1704 81.063 58.1704 79.5718C58.1704 78.1189 57.1763 77.1248 55.8764 77.1248C54.7676 77.1248 53.6205 77.8895 53.6205 79.5718Z" fill="black"/>
<path d="M66.6195 77.2395H64.096V83.3189H62.5284V77.2395H60.0049V75.8631H66.6195V77.2395Z" fill="black"/>
<defs>
<filter id="filter0_d" x="0.0127778" y="0.496155" width="101.192" height="101.192" filterUnits="userSpaceOnUse" color-interpolation-filters="sRGB">
<feFlood flood-opacity="0" result="BackgroundImageFix"/>
<feColorMatrix in="SourceAlpha" type="matrix" values="0 0 0 0 0 0 0 0 0 0 0 0 0 0 0 0 0 0 127 0"/>
<feOffset dy="2.77238"/>
<feGaussianBlur stdDeviation="1.38619"/>
<feColorMatrix type="matrix" values="0 0 0 0 0 0 0 0 0 0 0 0 0 0 0 0 0 0 0.25 0"/>
<feBlend mode="normal" in2="BackgroundImageFix" result="effect1_dropShadow"/>
<feBlend mode="normal" in="SourceGraphic" in2="effect1_dropShadow" result="shape"/>
</filter>
<linearGradient id="paint0_linear" x1="37.1629" y1="40.5922" x2="71.1535" y2="40.5922" gradientUnits="userSpaceOnUse">
<stop stop-color="#9DD600"/>
<stop offset="0.3208" stop-color="#65C65B"/>
<stop offset="0.6528" stop-color="#2FB7B2"/>
<stop offset="0.8871" stop-color="#0DAEEA"/>
<stop offset="1" stop-color="#00AAFF"/>
</linearGradient>
<linearGradient id="paint1_linear" x1="29.9209" y1="31.1389" x2="64.672" y2="31.1389" gradientUnits="userSpaceOnUse">
<stop stop-color="#F16522"/>
<stop offset="1" stop-color="#FFE605"/>
</linearGradient>
</defs>
</svg>
