<svg width="450" height="208" viewBox="0 0 450 208" fill="none" xmlns="http://www.w3.org/2000/svg">
<path d="M439.906 208L334.933 207.966L245.789 207.932H233.516L25.6092 207.864C25.6092 207.864 14.6516 180.445 17.5849 150.81C17.9558 147.11 18.5289 143.358 19.3887 139.624C19.3887 139.607 19.3887 139.607 19.3887 139.59C19.9113 137.305 20.535 135.02 21.2767 132.752C24.3786 123.17 29.4865 113.877 37.4434 105.76C85.6735 56.5501 147.997 97.6949 171.395 96.5013C194.777 95.3077 196.092 48.0585 265.984 42.4145C304.74 39.2941 346.345 46.6091 359.781 79.4841C365.074 92.4431 366.001 109.358 360.641 131.184C357.522 143.87 360.202 151.628 366.136 156.658C378.476 167.111 404.909 165.747 422.93 172.26C436.349 177.103 445.115 186.311 439.906 208Z" fill="#EBF2F9"/>
<path d="M366.134 156.658L63.1152 196.49C60.3674 186.413 58.9513 175.483 59.6594 163.82L359.761 79.5012C365.055 92.4602 365.982 109.375 360.621 131.201C357.519 143.87 360.2 151.628 366.134 156.658Z" fill="#F8FBFF"/>
<path d="M239.415 94.9667L17.584 150.827C17.9549 147.127 18.528 143.375 19.3878 139.641C19.3878 139.624 19.3878 139.624 19.3878 139.607C19.9104 137.322 20.5341 135.037 21.2758 132.77L239.415 94.9667Z" fill="#F8FBFF"/>
<path d="M233.516 207.949L25.6095 207.881C25.6095 207.881 11.7356 173.181 19.389 139.641C19.389 139.624 19.389 139.624 19.389 139.607C32.2346 138.993 53.3405 140.528 75.5591 153.316C110.64 173.505 168.243 158.739 184.932 170.061C201.605 181.383 205.431 193.097 217.839 195.126C228.645 196.865 232.657 205.715 233.516 207.949Z" fill="#C9E0F2"/>
<path d="M317.383 71.9133C317.383 68.6736 319.979 66.0477 323.182 66.0477C326.385 66.0477 328.981 68.6736 328.981 71.9133C328.981 75.1531 326.385 77.779 323.182 77.779C319.979 77.779 317.383 75.1531 317.383 71.9133Z" fill="#F8FBFF"/>
<path d="M297.018 191.204C302.766 189.38 310.184 186.413 306.155 184.179C301.839 181.792 296.344 186.856 293.36 190.215C293.208 190.181 293.056 190.164 292.888 190.147C292.129 190.045 291.354 189.994 290.561 189.977C296.242 180.752 302.581 168.492 297.187 166.94C291.371 165.252 287.207 180.172 285.133 190.625C279.452 191.869 273.333 194.666 266.961 196.524C264.702 188.237 259.526 175.892 248.653 176.148C237.24 176.438 251.485 189.84 261.077 197.888C258.936 198.247 256.762 198.4 254.587 198.298C240.646 197.65 231.896 207.198 231.896 207.198H306.812C309.661 202.697 305.396 194.376 297.018 191.204Z" fill="#A8D29F"/>
<path d="M170.061 5.95876C170.061 5.95876 164.835 0.195417 163.233 0.00785254C161.615 -0.179712 154.973 3.04299 154.602 4.30479C154.214 5.58364 161.918 3.02594 162.34 4.30479C162.761 5.58364 163.233 6.4362 165.425 6.53851C167.616 6.64082 169.504 7.88556 169.504 7.88556L170.061 5.95876Z" fill="#FFB27D"/>
<path d="M176.314 207.949C174.662 206.926 175.606 199.287 175.606 199.287C175.606 199.287 183.344 193.029 184.406 197.82C185.468 202.612 191.756 204.76 195.33 205.34C197.791 205.749 198.567 207.13 198.803 207.949H176.314Z" fill="#50348C"/>
<path d="M174.932 203.089C172.943 202.339 161.918 175.551 162.373 166.855C162.424 165.815 162.222 157.357 161.918 155.601C161.665 154.237 161.345 152.651 160.957 150.878C160.35 148.184 159.609 145.098 158.766 141.773C156.423 132.446 153.439 121.362 151.365 112.53C155.057 104.14 159.811 96.7912 164.143 94.2846C167.245 94.6598 170.229 95.2395 172.454 95.734C174.224 96.7741 175.539 97.6779 176.517 98.4452C176.854 100.184 177.36 103.083 177.765 106.817C178.034 109.256 178.253 112.069 178.355 115.138C179.096 136.896 175.337 160.529 184.912 199.133C185.199 200.225 178.001 204.266 174.932 203.089Z" fill="#8152E4"/>
<path d="M177.781 106.834C176.18 114.917 172.336 132.207 158.766 141.773C156.423 132.446 153.439 121.362 151.365 112.53C155.057 104.14 159.811 96.7912 164.143 94.2846C167.245 94.6598 170.229 95.2395 172.454 95.734C174.224 96.7741 175.539 97.6779 176.517 98.4452C176.871 100.201 177.36 103.1 177.781 106.834Z" fill="#50348C"/>
<path d="M161.093 30.7343V32.0985C161.093 32.0985 161.464 36.3442 156.288 36.9581C151.13 37.5719 147.202 35.3041 147.354 32.0302C147.826 29.4896 148.332 27.7504 148.365 25.653C148.382 24.8687 148.332 24.0502 148.18 23.1124L158.193 22.9078L161.143 23.4023L161.093 30.7343Z" fill="#FFB27D"/>
<path d="M161.126 23.3852L161.092 30.7173C160.03 31.2118 158.833 31.5187 157.484 31.5187C152.882 31.5187 149.915 28.1084 148.348 25.636C148.364 24.8516 148.314 24.0332 148.162 23.0953L158.176 22.8907L161.126 23.3852Z" fill="#E8945B"/>
<path d="M161.715 26.966C161.715 26.966 148.886 29.5919 147.403 21.4925C145.92 13.3931 143.256 8.27775 151.381 6.26569C159.507 4.25363 161.665 7.05005 162.811 9.6248C163.957 12.1825 165.003 26.0623 161.715 26.966Z" fill="#FFB27D"/>
<path d="M152.477 207.949C152.477 207.949 151.769 204.078 150.673 201.827C149.56 199.577 142.497 201.009 142.497 201.009C142.497 201.009 141.081 202.237 140.777 207.949H152.477Z" fill="#50348C"/>
<path d="M166.318 98.5816C166.318 98.5816 159.288 130.263 157.029 144.552C156.186 149.906 154.433 167.043 154.163 172.448C153.793 179.865 151.365 202.595 151.365 202.595C151.365 202.595 147.285 199.986 141.234 202.424C141.234 202.424 139.699 192.245 138.739 170.913C138.452 164.656 139.649 155.26 139.497 152.208C138.789 137.203 134.052 98.4281 137.811 95.9387C141.571 93.4492 166.318 98.5816 166.318 98.5816Z" fill="#8152E4"/>
<path d="M165.306 3.58865C165.306 3.58865 161.733 3.31583 157.518 1.45724C154.096 -0.0432811 149.78 1.6107 148.381 2.36096C148.415 2.13929 148.516 1.81531 148.718 1.50839C148.718 1.50839 148.095 1.95172 147.993 2.58262C147.926 2.63378 147.892 2.66788 147.909 2.66788C147.909 2.66788 147.201 2.53147 146.729 2.73609C146.729 2.73609 147.049 2.68493 147.167 2.9066C147.184 2.92365 147.201 2.9407 147.218 2.95775C141.874 5.56661 141.385 14.1093 143.105 16.0702C145.178 18.4404 147.656 23.7945 147.656 23.7945C147.656 23.7945 148.567 22.5327 148.179 20.4354C147.808 18.338 149.595 18.338 151.837 17.4002C154.096 16.4454 152.208 13.7853 154.18 12.1655C156.153 10.5456 163.385 11.5005 163.3 10.2728C165.998 9.30085 165.306 3.86147 165.306 3.58865Z" fill="#50348C"/>
<path d="M168.73 3.14529C168.73 3.14529 167.651 3.58863 166.993 5.1403C166.167 7.11825 166.842 8.19249 166.842 8.19249C166.842 8.19249 180.412 20.64 179.535 22.9078C179.08 24.0843 168.561 30.3251 164.195 32.8828C162.391 32.7293 161.009 32.7464 160.958 32.7464C160.958 32.7464 157.991 41.903 147.337 32.0302C145.466 34.7755 130.985 41.5278 133.497 53.1909C134.087 55.9362 134.593 58.511 135.048 60.9493C138.032 77.472 137.796 87.2083 137.222 92.5795C136.767 96.7741 135.048 97.2004 136.582 98.3088C136.582 98.3088 139.582 99.6729 145.179 100.832C149.343 101.702 154.94 102.486 161.818 102.52C172.759 102.589 176.906 98.7691 176.906 98.7691C179.805 95.9045 174.074 84.6165 174.529 76.4831C174.765 72.3055 174.512 57.9994 174.461 51.4347C174.461 51.4347 174.461 51.4347 174.478 51.4176C175.001 50.8379 191.016 33.0192 194.168 22.8907C194.32 22.3792 194.455 21.8847 194.539 21.4243C195.5 16.4624 168.73 3.14529 168.73 3.14529Z" fill="#EE9849"/>
<path d="M137.22 92.5795C137.81 87.2083 138.029 77.455 135.045 60.9493C135.247 60.2843 135.45 59.6534 135.652 59.0566C136.562 56.3284 140.406 56.4648 141.131 59.2442C143.339 67.8892 145.328 82.5874 137.22 92.5795Z" fill="#E58638"/>
<path d="M133.95 83.5423C133.95 83.5423 140.609 79.4671 142.666 79.9956C144.723 80.5072 149.207 82.4851 148.92 83.6787C148.65 84.8894 143.441 85.7078 142.548 85.5544C141.638 85.418 140.188 85.5714 139.598 86.1C139.008 86.6116 134.288 86.8162 133.714 85.418C133.124 84.0198 133.95 83.5423 133.95 83.5423Z" fill="#FFB27D"/>
<path d="M147.336 32.0302C147.336 32.0302 139.177 32.627 134.743 35.2529C131.878 36.958 115.256 63.7457 115.256 67.6845C115.256 71.6234 132.704 85.6055 132.704 85.6055C132.704 85.6055 135.94 86.6968 136.058 81.4791C136.058 81.4791 127.36 68.4689 127.815 66.9513C128.101 65.9965 140.93 55.5951 140.93 55.5951L147.336 32.0302Z" fill="#EE9849"/>
<path d="M194.168 22.9078C191.015 33.0192 175 50.8379 174.478 51.4346C174.478 51.4346 174.478 51.4346 174.461 51.4517C174.41 51.2812 173.095 46.1828 176.248 42.5339C179.468 38.7996 190.543 29.5066 194.168 22.9078Z" fill="#E58638"/>
<path d="M144.27 33.5478C144.236 32.8316 147.591 31.8426 147.591 31.8426C147.591 31.8426 151.417 37.2138 157.739 37.3161C157.739 37.3161 155.935 40.8628 153.811 41.7835C153.811 41.7665 144.472 37.7935 144.27 33.5478Z" fill="#E58638"/>
<path d="M157.723 37.1797C157.723 37.1797 161.061 35.1677 161.077 33.0021C161.077 33.0021 163.235 32.7293 164.179 33.7865C164.179 33.7865 164.972 37.5207 163.926 39.6863C163.926 39.6863 159.105 38.936 157.723 37.1797Z" fill="#E58638"/>
<path d="M169.354 87.6857C169.287 89.442 168.579 91.1131 167.365 92.3749L165.46 94.3528C164.988 94.8473 164.179 94.8302 163.74 94.3017L161.094 91.2324C160.386 90.4139 160.015 89.3397 160.065 88.2484C160.167 85.8271 160.369 81.138 160.487 76.6365C160.588 72.9875 160.622 69.4408 160.537 67.2753C160.234 60.4036 157.756 38.5779 157.756 38.5779H159.391C159.391 38.5779 163.875 46.8649 166.589 58.3234C167.264 61.1368 167.82 64.1549 168.174 67.2753C168.157 67.2753 169.641 79.7398 169.354 87.6857Z" fill="#C65447"/>
<path d="M155.464 36.8728L159.998 35.7815C159.998 35.7815 160.588 35.8327 160.571 36.5829C160.555 37.3332 159.29 39.5157 158.734 39.6862C158.178 39.8397 154.385 38.3733 155.464 36.8728Z" fill="#BA4C43"/>
<path d="M144.27 32.5077C144.236 31.7915 147.591 30.8025 147.591 30.8025C147.591 30.8025 151.417 36.1737 157.739 36.276C157.739 36.276 155.935 39.8227 153.811 40.7434C153.811 40.7264 144.472 36.7534 144.27 32.5077Z" fill="#EE9849"/>
<path d="M157.723 36.276C157.723 36.276 161.061 34.2639 161.077 32.0984C161.077 32.0984 163.235 31.8256 164.179 32.8827C164.179 32.8827 164.972 36.617 163.926 38.7825C163.926 38.7655 159.105 38.0322 157.723 36.276Z" fill="#EE9849"/>
<path d="M169.356 87.6857C169.288 89.442 168.58 91.113 167.367 92.3748L165.462 94.3528C164.99 94.8473 164.18 94.8302 163.742 94.3016L161.095 91.2324C160.387 90.4139 160.016 89.3397 160.067 88.2484C160.168 85.8271 160.371 81.138 160.489 76.6364C164.72 71.2823 166.186 64.1208 166.591 58.3233C167.265 61.1368 167.822 64.1549 168.176 67.2753C168.159 67.2753 169.642 79.7398 169.356 87.6857Z" fill="#BA4C43"/>
<path d="M128.556 207.949H100.808C99.2912 207.949 98.0605 206.704 98.0605 205.169V186.311C98.0605 184.776 99.2912 183.531 100.808 183.531H128.556C130.073 183.531 131.304 184.776 131.304 186.311V205.169C131.304 206.687 130.057 207.949 128.556 207.949Z" fill="#50348C"/>
<path d="M128.777 186.311V205.169C128.777 206.704 127.546 207.949 126.029 207.949H98.281C96.7638 207.949 95.5332 206.704 95.5332 205.169V186.311C95.5332 184.776 96.7638 183.531 98.281 183.531H126.029C127.546 183.531 128.777 184.776 128.777 186.311Z" fill="#8152E4"/>
<path d="M106.104 183.531C107.874 181.417 110.184 180.581 111.667 180.581C115.292 180.581 117.298 183.429 117.382 183.531L116.506 183.582C116.438 183.497 115.005 181.673 111.887 181.673C110.605 181.673 108.717 181.673 107.166 183.531C107.048 183.651 106.071 183.548 106.104 183.531Z" fill="#50348C"/>
<path d="M128.777 187.078V192.551C128.777 194.086 127.546 195.331 126.029 195.331H98.281C96.7638 195.331 95.5332 194.086 95.5332 192.551V187.078C95.5332 185.543 96.7638 184.299 98.281 184.299H126.029C127.546 184.299 128.777 185.543 128.777 187.078Z" fill="#50348C"/>
<path d="M128.777 186.311V191.784C128.777 193.319 127.546 194.564 126.029 194.564H98.281C96.7638 194.564 95.5332 193.319 95.5332 191.784V186.311C95.5332 184.776 96.7638 183.531 98.281 183.531H126.029C127.546 183.531 128.777 184.776 128.777 186.311Z" fill="#8152E4"/>
<path d="M110.824 192.415C110.824 191.938 111.195 191.562 111.667 191.562C112.139 191.562 112.51 191.938 112.51 192.415C112.51 192.892 112.139 193.268 111.667 193.268C111.195 193.268 110.824 192.892 110.824 192.415Z" fill="#50348C"/>
<path d="M439.905 208L334.932 207.966L334.797 207.932C334.797 207.932 344.035 195.058 362.056 195.092C380.06 195.143 379.841 185.68 403.425 179.797C410.404 178.058 417.046 175.278 422.946 172.243C436.348 177.103 445.114 186.311 439.905 208Z" fill="#A8D29F"/>
<path d="M282.352 54.6574V204.76C282.352 206.107 281.341 207.216 280.093 207.216H277.834C277.211 207.216 276.654 206.943 276.233 206.499C275.828 206.056 275.559 205.442 275.559 204.76V54.6574C275.559 53.7707 275.997 53.0034 276.637 52.56C276.975 52.3213 277.379 52.202 277.818 52.202H280.076C281.341 52.202 282.352 53.2932 282.352 54.6574Z" fill="#FFB240"/>
<path d="M277.312 54.2993V204.402C277.312 205.289 276.873 206.056 276.233 206.499C275.828 206.056 275.559 205.442 275.559 204.76V54.6573C275.559 53.7707 275.997 53.0034 276.637 52.56C277.059 53.0034 277.312 53.6172 277.312 54.2993Z" fill="#E58638"/>
<path d="M251.402 113.229L238.877 121.771L250.222 131.832L278.341 130.041V118.566L251.402 113.229Z" fill="#FFB240"/>
<path d="M276.452 120.134C276.317 120.493 276.368 120.97 276.536 121.226C276.722 121.482 276.958 121.396 277.093 121.055C277.228 120.697 277.177 120.22 277.008 119.964C276.84 119.691 276.587 119.776 276.452 120.134Z" fill="#CE8032"/>
<path d="M276.452 126.921C276.317 127.279 276.368 127.756 276.536 128.012C276.722 128.268 276.958 128.183 277.093 127.842C277.228 127.484 277.177 127.006 277.008 126.75C276.84 126.495 276.587 126.563 276.452 126.921Z" fill="#CE8032"/>
<path d="M323.789 90.0218L343.361 98.5475L324.548 108.659L279.504 107.073V92.8523L323.789 90.0218Z" fill="#FFB240"/>
<path d="M323.791 90.0218H326.64L346.212 98.5475H343.363L323.791 90.0218Z" fill="#E89746"/>
<path d="M324.549 108.659H326.066L346.211 98.5475H343.362L324.549 108.659Z" fill="#CE8032"/>
<path d="M282.455 94.9838C282.623 95.4271 282.573 96.058 282.337 96.382C282.101 96.7059 281.797 96.6036 281.629 96.1603C281.46 95.717 281.511 95.0861 281.747 94.7621C281.966 94.4381 282.286 94.5404 282.455 94.9838Z" fill="#CE8032"/>
<path d="M282.455 103.697C282.623 104.14 282.573 104.771 282.337 105.095C282.101 105.419 281.797 105.317 281.629 104.874C281.46 104.43 281.511 103.799 281.747 103.475C281.966 103.151 282.286 103.254 282.455 103.697Z" fill="#CE8032"/>
<path d="M235.217 65.3656L215.662 73.8913L234.475 84.0027L279.503 82.4169V68.1961L235.217 65.3656Z" fill="#FFB240"/>
<path d="M235.218 65.3656H232.386L212.814 73.8913H215.663L235.218 65.3656Z" fill="#E89746"/>
<path d="M234.477 84.0027H232.96L212.814 73.8913H215.663L234.477 84.0027Z" fill="#CE8032"/>
<path d="M276.57 70.3275C276.401 70.7709 276.452 71.4018 276.688 71.7257C276.924 72.0497 277.227 71.9474 277.396 71.5041C277.564 71.0607 277.514 70.4298 277.278 70.1058C277.042 69.7819 276.722 69.8842 276.57 70.3275Z" fill="#CE8032"/>
<path d="M276.57 79.0408C276.401 79.4841 276.452 80.115 276.688 80.439C276.924 80.763 277.227 80.6606 277.396 80.2173C277.564 79.774 277.514 79.1431 277.278 78.8191C277.042 78.4951 276.722 78.5974 276.57 79.0408Z" fill="#CE8032"/>
<path d="M251.401 113.229H249.766L236.465 121.84H238.875L251.401 113.229Z" fill="#E89746"/>
<path d="M250.221 131.832H248.046L236.465 121.84H238.875L250.221 131.832Z" fill="#CE8032"/>
<path d="M287.392 190.267V207.199H270.518V190.198C270.518 187.044 272.878 184.452 275.929 184.128C276.131 184.111 276.35 184.094 276.553 184.094H281.29C284.661 184.094 287.392 186.856 287.392 190.267Z" fill="#FFB240"/>
<path d="M281.391 190.267V207.199H270.518V190.198C270.518 187.044 272.878 184.452 275.929 184.128C278.997 184.452 281.391 187.078 281.391 190.267Z" fill="#E58638"/>
<path d="M279.741 47.4275V46.8307H278.257V46.8478C277.853 46.8819 277.499 47.0524 277.195 47.3423C276.858 47.6833 276.689 48.0925 276.689 48.587C276.689 49.0645 276.858 49.4737 277.212 49.8318C277.566 50.1728 277.971 50.3433 278.443 50.3433H279.741V49.7465C280.011 49.4225 280.162 49.0304 280.162 48.587C280.162 48.1437 280.027 47.7515 279.741 47.4275Z" fill="#E58638"/>
<path d="M282.606 33.0369C281.544 32.1332 280.229 31.6728 278.645 31.6728C277.633 31.6728 276.672 31.9115 275.762 32.3719C274.852 32.8494 274.144 33.5144 273.638 34.3669C273.335 34.8955 273.166 35.4241 273.166 35.9527C273.166 36.3619 273.284 36.703 273.537 36.9758C273.79 37.2486 274.11 37.385 274.498 37.385H275.796C275.796 37.385 275.779 36.8905 275.779 36.5495L276.672 35.3218C277.144 34.8444 277.768 34.6057 278.561 34.6057C279.235 34.6057 279.791 34.7932 280.229 35.1683C280.685 35.5435 280.904 36.055 280.904 36.7371C280.904 37.5044 280.668 38.1182 280.196 38.5445C279.859 38.8514 279.269 39.1413 278.443 39.4141C277.819 39.6187 277.414 39.8063 277.212 40.028C277.01 40.2326 276.908 40.5395 276.908 40.9488V43.4212C276.908 43.9157 277.043 44.3249 277.296 44.6659C277.549 44.9899 277.92 45.1604 278.392 45.1604H279.69V44.4102C279.741 44.2908 279.791 44.1715 279.842 44.018C279.909 43.7622 279.943 43.0802 279.943 41.9889C281.275 41.7331 282.337 41.1363 283.112 40.2497C283.888 39.3459 284.275 38.2205 284.275 36.8394C284.275 35.2707 283.719 34.0089 282.606 33.0369Z" fill="#E58638"/>
<path d="M285.574 36.8387C285.574 38.2028 285.186 39.3453 284.411 40.249C283.635 41.1527 282.573 41.7325 281.242 41.9882C281.242 43.0795 281.208 43.7616 281.141 44.0173C280.938 44.7846 280.466 45.1598 279.691 45.1598C279.219 45.1598 278.848 44.9893 278.595 44.6653C278.342 44.3413 278.207 43.915 278.207 43.4205V40.9481C278.207 40.5389 278.308 40.2319 278.511 40.0273C278.713 39.8227 279.134 39.6181 279.741 39.4135C280.567 39.1577 281.157 38.8678 281.495 38.5439C281.967 38.1176 282.203 37.5208 282.203 36.7364C282.203 36.0544 281.983 35.5428 281.528 35.1677C281.073 34.7926 280.517 34.605 279.859 34.605C279.084 34.605 278.443 34.8437 277.971 35.3212L276.994 36.6512C276.656 37.1286 276.252 37.3673 275.797 37.3673C275.409 37.3673 275.089 37.2309 274.836 36.9581C274.583 36.6853 274.465 36.3442 274.465 35.935C274.465 35.4064 274.617 34.8778 274.937 34.3492C275.443 33.4967 276.151 32.8317 277.061 32.3542C277.971 31.8768 278.932 31.6551 279.944 31.6551C281.528 31.6551 282.843 32.1155 283.905 33.0192C285.018 34.0082 285.574 35.27 285.574 36.8387ZM281.461 48.6041C281.461 49.0986 281.292 49.5079 280.972 49.8489C280.652 50.1899 280.23 50.3604 279.741 50.3604C279.269 50.3604 278.848 50.1899 278.511 49.8489C278.157 49.5079 277.988 49.0986 277.988 48.6041C277.988 48.1097 278.157 47.7004 278.494 47.3594C278.831 47.0184 279.252 46.8479 279.741 46.8479C280.23 46.8479 280.635 47.0184 280.972 47.3594C281.292 47.6834 281.461 48.1097 281.461 48.6041Z" fill="#FFB240"/>
<path d="M0.742188 207.301L79.6703 207.829C79.6703 207.829 72.3709 192.995 54.2656 196.166C42.836 198.178 39.043 195.143 34.3566 192.176C43.0552 188.851 55.9683 183.344 49.95 181.997C44.2184 180.718 36.4132 186.379 31.6088 190.573C30.5973 190.045 29.5015 189.567 28.2709 189.141C38.571 179.422 57.9406 160.035 49.3769 159.472C40.9817 158.926 30.3613 178.109 25.304 188.34C24.7139 188.22 24.1071 188.118 23.4665 188.033C20.8535 187.675 18.4091 188.169 16.167 189.158C15.0544 184.912 12.9978 180.053 10.25 181.042C7.4853 182.048 10.604 186.959 13.4867 190.659C5.51294 196.03 0.742188 207.301 0.742188 207.301Z" fill="#82B378"/>
<rect x="449.998" y="63.2514" width="88.9936" height="230.526" rx="9.86139" transform="rotate(90 449.998 63.2514)" fill="url(#paint0_linear)"/>
<path d="M373.767 124.29H376.547L381.153 135.804H378.307L377.6 133.847H372.731L372.024 135.804H369.178L373.767 124.29ZM375.133 127.201L373.455 131.823H376.876L375.198 127.201H375.133ZM385.018 127.3C386.125 127.3 387.052 127.733 387.798 128.599H387.847V123.862H390.216V135.804H388.916L388.176 134.274H388.127C387.787 134.823 387.348 135.256 386.811 135.574C386.274 135.881 385.681 136.034 385.034 136.034C383.938 136.034 383.028 135.629 382.304 134.817C381.591 133.995 381.235 132.947 381.235 131.675C381.235 130.403 381.591 129.362 382.304 128.55C383.017 127.728 383.921 127.311 385.018 127.3ZM384.228 133.222C384.634 133.627 385.139 133.83 385.742 133.83C386.345 133.83 386.844 133.627 387.239 133.222C387.644 132.816 387.847 132.3 387.847 131.675C387.847 131.05 387.644 130.535 387.239 130.129C386.844 129.723 386.345 129.521 385.742 129.521C385.139 129.521 384.634 129.723 384.228 130.129C383.834 130.535 383.636 131.05 383.636 131.675C383.636 132.3 383.834 132.816 384.228 133.222ZM405.028 124.29H407.676L404.321 135.804H401.426L399.402 128.764H399.337L397.33 135.804H394.435L391.063 124.29H393.711L395.866 132.251H395.915L398.136 124.29H400.603L402.824 132.251H402.89L405.028 124.29ZM408.576 135.804V127.53H410.944V135.804H408.576ZM408.691 123.796C408.976 123.511 409.332 123.369 409.76 123.369C410.188 123.369 410.539 123.511 410.813 123.796C411.098 124.081 411.24 124.432 411.24 124.849C411.24 125.255 411.098 125.606 410.813 125.902C410.528 126.187 410.177 126.329 409.76 126.329C409.343 126.329 408.992 126.187 408.707 125.902C408.422 125.606 408.28 125.255 408.28 124.849C408.28 124.432 408.417 124.081 408.691 123.796ZM419.437 133.452C419.437 134.241 419.124 134.872 418.499 135.344C417.874 135.804 417.079 136.034 416.114 136.034C414.699 136.034 413.389 135.705 412.182 135.047L412.808 133.222C413.762 133.836 414.803 134.143 415.933 134.143C416.295 134.143 416.585 134.088 416.805 133.978C417.024 133.858 417.134 133.693 417.134 133.485C417.134 133.265 417.024 133.096 416.805 132.975C416.596 132.843 416.196 132.706 415.604 132.564C414.639 132.322 413.888 131.988 413.35 131.56C412.824 131.133 412.561 130.551 412.561 129.817C412.561 129.071 412.851 128.468 413.433 128.007C414.014 127.536 414.929 127.3 416.18 127.3C416.629 127.3 417.156 127.371 417.759 127.514C418.373 127.656 418.839 127.81 419.157 127.974L418.68 129.734C417.956 129.362 417.134 129.175 416.212 129.175C415.324 129.175 414.88 129.389 414.88 129.817C414.88 130.003 415.001 130.162 415.242 130.294C415.494 130.425 415.911 130.568 416.492 130.721C417.501 130.985 418.241 131.324 418.713 131.741C419.195 132.158 419.437 132.728 419.437 133.452ZM424.704 127.3C426.02 127.3 427.072 127.706 427.862 128.517C428.662 129.318 429.063 130.37 429.063 131.675C429.063 131.719 429.057 131.78 429.046 131.856C429.046 131.933 429.041 132.032 429.03 132.152C429.019 132.262 429.013 132.35 429.013 132.416H422.763C423.103 133.359 423.974 133.83 425.378 133.83C426.387 133.83 427.27 133.611 428.026 133.172L428.471 135.245C427.626 135.771 426.59 136.034 425.362 136.034C423.794 136.034 422.549 135.634 421.628 134.834C420.707 134.022 420.246 132.969 420.246 131.675C420.246 130.403 420.663 129.356 421.496 128.534C422.341 127.711 423.41 127.3 424.704 127.3ZM422.73 130.952H426.678C426.656 130.524 426.458 130.179 426.085 129.915C425.713 129.652 425.257 129.521 424.72 129.521C424.216 129.521 423.788 129.652 423.437 129.915C423.097 130.168 422.861 130.513 422.73 130.952Z" fill="#25233E"/>
<path d="M388.401 97.995L381.627 88.4462C380.622 87.0401 379.037 86.2865 377.433 86.2865C376.41 86.2865 375.369 86.5898 374.475 87.2239L386.484 104.143L388.355 106.772L388.391 106.827C388.401 106.818 388.401 106.818 388.41 106.818C388.428 106.799 388.447 106.79 388.465 106.772L390.336 104.143C390.779 102.682 390.567 101.037 389.617 99.6952L388.401 97.995Z" fill="#ED8E00"/>
<path d="M392.169 96.0374L394.04 98.6659L394.077 98.7118L394.114 98.6659L395.976 96.0374L396.068 95.9088L399.939 90.4497L403.81 95.9088L403.902 96.0374L405.764 98.6659L405.8 98.7118L405.837 98.6659L407.708 96.0374L407.8 95.9088L419.708 79.1088C418.805 78.4747 417.773 78.1714 416.74 78.1714C415.127 78.1714 413.542 78.925 412.547 80.3312L405.8 89.8431L403.082 86.0108L399.939 81.581L396.796 86.0108L394.068 89.8431L387.312 80.3312C386.308 78.925 384.722 78.1714 383.119 78.1714C382.096 78.1714 381.054 78.4747 380.16 79.1088L392.077 95.8996L392.169 96.0374Z" fill="#8152E4"/>
<path d="M422.438 86.2773C420.825 86.2773 419.239 87.031 418.244 88.4371L411.47 97.9858L410.263 99.686C409.304 101.028 409.092 102.673 409.544 104.134L411.415 106.763C411.433 106.781 411.452 106.79 411.47 106.809C411.479 106.809 411.479 106.818 411.488 106.818L411.525 106.763L413.396 104.134L425.396 87.2239C424.493 86.5806 423.461 86.2773 422.438 86.2773Z" fill="#ED8E00"/>
<path d="M405.829 106.239L403.138 102.443L399.995 98.0133L399.939 98.0869L399.884 98.0133L396.741 102.443L394.05 106.239L392.843 107.939C391.884 109.281 391.672 110.926 392.124 112.387L393.995 115.015C394.013 115.034 394.032 115.043 394.05 115.061C394.059 115.071 394.059 115.071 394.069 115.071L394.105 115.015L395.976 112.387L399.893 106.873L399.949 106.799L400.004 106.873L403.921 112.387L405.792 115.015L405.829 115.071C405.838 115.061 405.838 115.061 405.847 115.061C405.866 115.043 405.884 115.034 405.902 115.015L407.773 112.387C408.216 110.926 408.004 109.281 407.055 107.939L405.829 106.239Z" fill="#8152E4"/>
<defs>
<linearGradient id="paint0_linear" x1="494.495" y1="63.2514" x2="494.495" y2="293.777" gradientUnits="userSpaceOnUse">
<stop stop-color="white"/>
<stop offset="1" stop-color="white" stop-opacity="0"/>
</linearGradient>
</defs>
</svg>
