<svg width="403" height="189" viewBox="0 0 403 189" fill="none" xmlns="http://www.w3.org/2000/svg">
<g clip-path="url(#clip0)">
<path d="M245.566 127.899C222.917 148.731 194.758 148.682 166.1 137.131C149.331 130.396 131.578 118.667 121.945 103.554C108.913 83.3991 113.456 66.0633 123.508 44.3773C136.862 15.5863 158.465 -1.47569 190.248 2.0366C231.052 6.54779 256.794 36.225 263.85 75.6495C267.41 95.5149 259.919 114.704 245.566 127.899Z" fill="#FFF7EF"/>
<path d="M6.78245 187.865C6.78245 187.865 -18.1543 103.651 27.6114 78.1466C73.3772 52.6422 100.972 93.3396 117.065 114.574C133.158 135.809 202.668 177.876 244.826 138.323C289.238 96.6586 311.275 84.8328 342.962 83.8178C374.648 82.8189 361.568 116.846 388.228 130.009C414.889 143.172 401.953 185.368 377.242 188.413L6.78245 187.865Z" fill="#FFF7EF"/>
<path d="M300.692 178.923C300.692 178.923 300.16 187.591 298.469 187.72C298.243 187.736 289.963 187.736 289.963 187.736L279.379 187.672C279.379 187.672 279.444 185.126 282.537 184.578C285.63 184.047 290.801 181.871 292.669 177.779C294.667 173.494 300.692 178.923 300.692 178.923Z" fill="#163560"/>
<path d="M306.33 76.3583C306.33 76.3583 301.336 79.1939 299.935 79.1939C298.533 79.1939 293.056 78.1306 291.526 78.92C289.995 79.7095 287.224 82.8512 286.709 83.8662C285.775 85.7191 290.462 84.8974 292.685 83.3185C293.008 83.0929 293.41 83.0123 293.797 83.0929C294.941 83.3507 297.341 83.7696 298.485 83.3507C300.031 82.7707 308.198 82.1423 308.198 82.1423L306.33 76.3583Z" fill="#ED975D"/>
<path d="M344.331 37.6908C344.331 37.6908 339.16 74.4892 330.59 77.7759C326.353 79.4032 307.667 83.0927 302.141 83.4633C302.141 83.4633 300.788 82.3677 301.11 77.8887C301.11 77.8887 320.699 70.703 323.47 66.788C327.61 60.9718 320.892 43.0076 326.095 37.5458C331.283 32.084 340.046 29.7318 344.331 37.6908Z" fill="#ED7D2B"/>
<path d="M342.575 115.203C341.061 117.764 339.321 120.165 337.517 122.437C331.959 129.461 325.902 135.245 324.839 140.723C324.63 141.819 324.291 142.995 323.857 144.219C323.422 145.476 322.874 146.797 322.246 148.15C319.878 153.274 316.35 159.026 312.822 164.246C306.733 173.284 301.739 179.342 301.739 179.342C301.739 179.342 300.144 180.583 295.569 180.583C294.296 180.583 290.011 179.89 290.011 179.89C290.43 178.843 295.489 166.84 301.61 151.614C304.107 145.428 306.749 138.854 309.294 132.506C309.632 131.652 309.971 130.815 310.309 129.977C311.082 128.027 311.855 126.126 312.612 124.257C318.363 109.95 322.954 98.5595 322.954 98.5595C322.954 98.5595 345.958 89.8432 348.358 95.4983C350.372 100.171 348.761 104.73 342.575 115.203Z" fill="#599DAD"/>
<path d="M325.017 154.16C325.017 154.16 332.33 158.864 331.621 160.379C331.525 160.588 327.481 167.822 327.481 167.822L322.278 177.022C322.278 177.022 320.087 175.717 321.118 172.752C322.149 169.788 322.777 164.213 320.119 160.588C317.332 156.77 325.017 154.16 325.017 154.16Z" fill="#163560"/>
<path d="M320.876 163.166C320.876 163.166 326.015 158.381 326.82 155.433C326.82 155.433 308.005 132.877 303.913 127.818C303.72 127.593 303.768 127.335 304.026 127.045C307.103 123.565 341.35 116.508 345.829 109.532C347.375 107.131 348.245 104.859 348.728 102.862C349.743 98.6081 348.938 95.6759 348.938 95.6759L314.738 94.6931C314.738 94.6931 286.257 112.432 283.036 124.515C279.798 136.615 320.876 163.166 320.876 163.166Z" fill="#6BB7BF"/>
<path d="M304.026 127.045C307.103 123.565 341.351 116.508 345.829 109.532C347.376 107.131 348.246 104.859 348.729 102.861V98.5275L334.199 96.2397C334.199 96.2397 330.075 108.919 317.864 113.688C306.41 118.151 304.252 126.062 304.026 127.045Z" fill="#5AA9AD"/>
<path d="M324.082 35.371C331.009 37.1594 342.478 30.747 342.478 30.747C342.478 30.747 338.032 27.7503 336.373 21.1769C336.292 20.8385 336.212 20.5002 336.147 20.1618C335.423 20.0007 334.053 19.7107 332.587 19.4046L327.304 24.1414C327.304 24.1414 327.416 26.1069 328.093 29.4903C328.206 30.0865 328.335 30.7148 328.496 31.3915C325.644 33.1315 324.082 35.371 324.082 35.371Z" fill="#FFB27D"/>
<path d="M349.809 64.0491C348.81 77.3732 350.115 97.6574 349.004 101.17C348.037 104.199 336.97 102.394 332.572 101.379C330.945 101.009 328.964 100.477 326.918 99.8325C321.216 98.0602 315.013 95.5468 314.337 93.6779C314.305 93.5974 314.289 93.5329 314.272 93.4685C314.208 93.1946 314.224 92.9368 314.289 92.679C314.514 91.7284 315.368 90.6973 315.465 88.3289C315.577 85.6867 315.561 82.5933 315.658 79.2421C315.658 78.8715 315.674 78.4526 315.706 78.0821V77.9532C315.706 77.8887 315.706 77.8082 315.706 77.7437C315.803 74.022 315.996 70.1069 316.222 66.2241C316.367 63.7913 316.528 61.3746 316.721 59.0545C317.22 53.0772 317.881 47.7765 318.767 44.4093C320.217 38.9314 323.406 35.3708 326.322 32.7446L328.432 30.9401C330.784 31.4557 333.555 31.1174 336.068 29.9251C338.791 28.6362 339.725 27.7179 340.192 28.0562C346.459 32.9218 350.969 47.7604 349.809 64.0491Z" fill="#F99746"/>
<path d="M326.902 99.8488C321.199 98.0765 314.997 95.5631 314.32 93.6942C314.288 93.6136 314.272 93.5492 314.256 93.4848C314.256 93.227 314.256 92.9692 314.272 92.6953C314.497 91.7447 315.351 90.7136 315.448 88.3452C315.561 85.703 315.545 82.6096 315.641 79.2584C315.641 78.8878 315.657 78.4689 315.69 78.0984V77.9695C315.69 77.905 315.69 77.8245 315.69 77.76L338.726 48.4051C338.742 48.389 354.239 80.6601 326.902 99.8488Z" fill="#ED7D2B"/>
<path d="M327.303 24.1413C327.303 24.1413 327.416 26.1069 328.093 29.4903C333.247 27.8147 335.599 23.1586 336.373 21.1769C336.292 20.8385 336.212 20.5002 336.147 20.1618C335.422 20.0007 334.053 19.7107 332.587 19.4046L327.303 24.1413Z" fill="#ED975D"/>
<path d="M326.612 27.1219C326.612 27.1219 337.872 25.2369 336.583 18.2445C335.31 11.2522 335.89 6.30599 328.657 7.20823C321.424 8.11046 320.506 11.0266 320.377 13.4756C320.248 15.9245 323.647 27.428 326.612 27.1219Z" fill="#FFB27D"/>
<path d="M309.955 84.9294L281.86 85.5416L273.87 60.9556L272.872 61.2779L281.329 87.2655L309.987 86.6533L309.955 84.9294Z" fill="#4A75CB"/>
<path d="M309.423 88.023C309.423 88.023 300.209 90.4558 296.761 90.198C293.314 89.9402 290.431 88.2969 289.996 87.443C289.561 86.5891 288.642 85.0585 290.994 85.3485C293.346 85.6224 296.552 86.1218 296.649 85.6707C296.745 85.2196 294.732 85.2679 294.732 85.2679C294.732 85.2679 294.12 84.3818 294.893 84.3496C295.666 84.3173 297.905 83.7051 298.727 84.124C299.564 84.5429 300.322 86.0735 300.934 86.009C301.546 85.9446 308.634 82.8029 308.634 82.8029L309.423 88.023Z" fill="#FFB27D"/>
<path d="M342.044 39.2054C342.044 39.2054 340.948 76.3422 332.797 80.5633C328.77 82.6417 310.599 88.3774 305.154 89.3441C305.154 89.3441 303.688 88.3935 303.527 83.9145C303.527 83.9145 322.197 74.6021 324.533 70.4132C328.013 64.1781 319.362 47.0677 323.921 41.0582C328.464 35.0647 336.905 31.7619 342.044 39.2054Z" fill="#F99746"/>
<path d="M336.373 21.1767C336.373 21.1767 336.502 18.7761 335.02 17.4067C335.02 17.4067 335.536 15.0061 334.585 14.6033C333.635 14.2005 333.441 16.2305 333.007 15.9083C332.572 15.5861 330.622 14.0877 329.801 11.8644C328.963 9.64099 321.344 12.3316 320.458 12.7344C319.572 13.1372 316.72 11.671 316.156 10.4788C316.156 10.4788 317.735 9.20598 318.46 8.25541C319.169 7.30483 324.163 0.87639 331.138 2.71309C338.113 4.53368 339.063 7.86873 338.677 10.7204C338.274 13.5722 339.225 20.2262 336.373 21.1767Z" fill="#2B478B"/>
<path d="M123.33 159.703C123.33 159.703 118.836 154.45 123.056 151.115C123.056 151.115 126.133 149.246 128.646 149.407C128.646 149.407 125.086 155.385 126.23 155.981C127.39 156.577 129.725 149.037 129.725 149.037C129.725 149.037 136.749 148.36 139.004 149.44C139.004 149.44 133.012 154.354 134.268 154.644C135.525 154.934 142.017 150.116 142.017 150.116C142.017 150.116 148.541 151.228 148.203 155.207C147.848 159.187 145.609 160.428 144.61 160.315C143.628 160.202 137.828 157.995 137.716 158.816C137.587 159.622 141.066 162.28 143.515 162.393C143.515 162.393 138.908 167.468 135.847 166.002C132.786 164.536 132.528 162.216 130.611 161.346C128.711 160.476 127.068 160.476 127.857 161.362C128.646 162.248 132.094 163.118 133.189 165.052C134.284 166.985 135.251 168.29 132.094 167.807C128.92 167.323 123.781 165.019 123.556 162.361C123.33 159.703 123.33 159.703 123.33 159.703Z" fill="#82B378"/>
<path d="M144.997 155.32C144.997 155.32 127.261 154.644 123.346 159.703C123.346 159.703 122.476 162.296 119.818 164.665L119.4 165.793C119.4 165.793 122.476 162.554 123.572 162.361C123.556 162.361 121.848 156.077 144.997 155.32Z" fill="#82B378"/>
<path d="M119.802 164.665C119.802 164.665 116.001 167.484 115.727 172.511L116.419 172.575C116.419 172.575 117.628 167.371 119.835 165.341C122.042 163.295 119.802 164.665 119.802 164.665Z" fill="#82B378"/>
<path d="M107.609 153.113C107.609 153.113 114.761 149.101 111.426 143.672C111.426 143.672 108.752 140.337 105.885 139.467C105.885 139.467 107.415 147.571 105.885 147.764C104.355 147.957 104.838 138.597 104.838 138.597C104.838 138.597 97.2987 134.972 94.3508 135.262C94.3508 135.262 99.0224 143.188 97.4921 142.995C95.9617 142.802 90.7101 134.794 90.7101 134.794C90.7101 134.794 82.9778 133.36 81.7374 137.936C80.497 142.512 82.4945 144.8 83.6382 145.09C84.782 145.38 92.1277 145.283 91.9344 146.233C91.7411 147.184 86.7795 148.715 84.0087 147.861C84.0087 147.861 87.0695 155.401 91.0645 155.014C95.0757 154.627 96.3161 152.146 98.7969 151.953C101.278 151.76 103.098 152.436 101.858 153.097C100.617 153.757 96.4127 153.322 94.4152 155.014C92.4177 156.722 90.7907 157.769 94.5119 158.526C98.2331 159.284 104.918 158.816 106.255 155.949C107.609 153.113 107.609 153.113 107.609 153.113Z" fill="#A8D29F"/>
<path d="M85.2808 139.37C85.2808 139.37 105.32 145.863 107.608 153.113C107.608 153.113 107.511 156.351 109.509 160.073V161.507C109.509 161.507 107.415 156.641 106.271 155.965C106.271 155.965 110.749 149.665 85.2808 139.37Z" fill="#82B378"/>
<path d="M109.509 160.073C109.509 160.073 112.602 164.762 110.83 170.481L110.04 170.272C110.04 170.272 110.814 163.972 109.203 160.814C107.592 157.64 109.509 160.073 109.509 160.073Z" fill="#82B378"/>
<path d="M118.997 147.571C118.997 147.571 109.558 142.286 113.971 135.117C113.971 135.117 117.499 130.718 121.269 129.574C121.269 129.574 119.255 140.272 121.269 140.514C123.282 140.772 122.654 128.43 122.654 128.43C122.654 128.43 132.594 123.645 136.492 124.032C136.492 124.032 130.322 134.472 132.336 134.214C134.349 133.956 141.26 123.404 141.26 123.404C141.26 123.404 151.441 121.519 153.084 127.56C154.727 133.602 152.085 136.615 150.571 137.002C149.057 137.372 139.375 137.259 139.633 138.516C139.891 139.773 146.431 141.787 150.072 140.659C150.072 140.659 146.045 150.6 140.761 150.1C135.477 149.601 133.85 146.33 130.58 146.072C127.31 145.814 124.926 146.701 126.553 147.587C128.196 148.473 133.721 147.877 136.363 150.116C139.005 152.356 141.147 153.741 136.234 154.756C131.321 155.755 122.525 155.127 120.769 151.357C118.997 147.571 118.997 147.571 118.997 147.571Z" fill="#A8D29F"/>
<path d="M148.428 129.461C148.428 129.461 122.009 138.017 118.997 147.571C118.997 147.571 119.126 151.84 116.484 156.754V158.639C116.484 158.639 119.255 152.227 120.753 151.341C120.753 151.357 114.841 143.043 148.428 129.461Z" fill="#82B378"/>
<path d="M116.484 156.754C116.484 156.754 112.409 162.941 114.728 170.465L115.775 170.191C115.775 170.191 114.761 161.894 116.887 157.721C119.013 153.564 116.484 156.754 116.484 156.754Z" fill="#82B378"/>
<path d="M118.676 186.802C128.889 186.802 137.153 178.521 137.153 168.322H100.198C100.198 178.537 108.462 186.802 118.676 186.802Z" fill="#F1A34F"/>
<path d="M123.218 186.673C122.461 186.77 121.704 186.818 120.914 186.818C110.701 186.818 102.437 178.537 102.437 168.338H107.028C107.044 177.763 114.1 185.545 123.218 186.673Z" fill="#FFB973"/>
<path d="M137.41 187.752H99.9404C99.9404 186.496 100.955 185.465 102.228 185.465H135.139C136.395 185.465 137.41 186.496 137.41 187.752Z" fill="#F1A34F"/>
<path d="M137.571 168.322H99.5857V168.886H137.571V168.322Z" fill="#D86713"/>
<path d="M370.412 186.737C366.014 182.242 358.281 179.149 349.325 178.794V163.94H363.146C363.485 163.94 363.791 163.634 363.984 163.183C364.113 162.86 364.193 162.458 364.193 162.023V161.362C364.193 160.315 363.71 159.445 363.13 159.445H349.309V124.08C349.309 123.097 348.503 122.308 347.537 122.308C346.554 122.308 345.765 123.114 345.765 124.08V159.445H331.943C331.363 159.445 330.88 160.315 330.88 161.362V162.039C330.88 162.49 330.96 162.909 331.105 163.231C331.299 163.666 331.605 163.956 331.927 163.956H345.749V178.811C336.808 179.181 329.06 182.258 324.662 186.754C324.34 187.076 324.05 187.414 323.76 187.752H371.281C371.04 187.398 370.734 187.076 370.412 186.737Z" fill="#D39E7A"/>
<path d="M349.342 178.859C343.107 179.439 337.743 182.452 334.634 186.738C334.392 187.06 334.183 187.398 333.974 187.736H329.576C329.785 187.398 330.011 187.06 330.236 186.738C333.7 181.952 339.982 178.762 347.151 178.762C347.876 178.762 348.617 178.795 349.342 178.859Z" fill="#E0B594"/>
<path d="M370.476 110.418H323.421C322.245 110.418 321.295 111.384 321.295 112.544V121.47C321.295 122.646 322.261 123.597 323.421 123.597H370.476C371.652 123.597 372.602 122.63 372.602 121.47V112.544C372.602 111.368 371.652 110.418 370.476 110.418Z" fill="#ED7D2B"/>
<path d="M109.977 42.5567C109.188 44.6834 107.819 47.1485 106.385 47.7607C104.758 48.4535 104.081 49.4363 104.081 49.4363L102.76 48.6791L101.198 47.7607C101.198 47.7607 101.23 47.5835 101.311 47.3096C101.391 47.0196 101.504 46.6329 101.665 46.1979C101.665 46.1979 102.148 45.5857 101.858 44.7962C101.568 44.0229 101.617 42.8145 102.132 42.0895C102.631 41.3645 103.115 39.56 103.421 39.6084C104.162 39.7372 103.066 42.2184 103.372 42.6695C103.662 43.0884 104.017 42.9434 104.081 42.9112H104.097C106.159 42.009 108.656 37.1272 109.752 37.7878C110.154 38.0133 110.315 41.6545 109.977 42.5567Z" fill="#FFB27D"/>
<path d="M102.857 45.5052L105.435 47.3258C105.612 47.4546 105.869 47.4063 105.998 47.2291L112.603 37.82C112.732 37.6428 112.684 37.385 112.506 37.2561L109.929 35.4356C109.752 35.3067 109.494 35.355 109.365 35.5322L102.76 44.9413C102.632 45.1185 102.664 45.3763 102.857 45.5052Z" fill="#2B478B"/>
<path d="M105.209 47.1647L106.724 48.228C106.869 48.3247 107.062 48.2925 107.159 48.1475L113.876 38.5934C113.973 38.4484 113.941 38.2551 113.796 38.1584L112.281 37.0951C112.136 36.9984 111.943 37.0306 111.846 37.1756L105.129 46.7297C105.048 46.8747 105.081 47.068 105.209 47.1647Z" fill="#233862"/>
<path d="M65.8548 32.02C65.8548 32.02 78.9837 54.9143 83.7359 59.1355L101.198 46.1175C101.198 46.1175 103.727 46.8908 104.839 49.4364C104.839 49.4364 94.239 71.0418 83.8003 71.9601C73.3616 72.8785 58.7024 46.0691 58.7024 46.0691L65.8548 32.02Z" fill="#233862"/>
<path d="M36.149 187.736H28.5617C27.6112 187.221 26.7575 186.028 26.4836 184.256C26.1131 181.807 23.3745 180.486 22.7785 178.488C22.1825 176.49 25.2271 173.671 25.2271 173.671L25.7426 173.01L26.2742 172.334L31.3002 173.526C31.3002 173.526 31.4291 174.718 31.4935 176.249C31.5419 177.344 31.5741 178.617 31.5096 179.745C31.3647 182.403 32.2506 185.287 34.6187 185.803C36.3907 186.189 36.3101 187.221 36.149 187.736Z" fill="#233862"/>
<path d="M80.1588 187.736H62.8094C61.9717 186.721 62.2778 182.967 62.4066 181.743C62.4389 181.501 62.455 181.356 62.455 181.356C62.455 181.356 68.3831 176.62 69.1886 180.245C69.2208 180.357 69.2369 180.47 69.2691 180.583C70.3001 183.982 74.8912 185.513 77.5491 185.948C79.2889 186.222 79.9172 187.124 80.1588 187.736Z" fill="#233862"/>
<path d="M76.857 90.9231C76.857 90.9231 75.9548 102.137 74.9078 115.638C73.4579 133.957 71.7343 156.464 71.5571 160.718C71.2671 168.129 70.075 179.971 70.075 179.971C70.075 179.971 67.256 182.79 61.6339 181.598C61.6339 181.598 56.624 164.697 55.1903 146.797C55.1741 146.507 55.1419 146.201 55.1258 145.911C53.7888 127.705 51.7268 89.3602 51.7268 89.3602L76.857 90.9231Z" fill="#F99746"/>
<path d="M76.8567 90.9229C76.8567 90.9229 75.9546 102.136 74.9075 115.638L55.2061 146.813C55.19 146.523 55.1578 146.217 55.1417 145.927C53.8046 127.721 51.7427 89.3762 51.7427 89.3762L76.8567 90.9229Z" fill="#ED7D2B"/>
<path d="M72.7495 92.2602C72.7495 92.2602 56.5438 132.893 45.8796 152.001C35.2154 171.093 31.8969 176.426 31.8969 176.426C31.8969 176.426 25.7916 173.977 25.2278 172.318C25.2278 172.318 29.3034 135.455 36.4397 126.465C40.4669 121.39 45.203 106.148 45.4285 100.815C45.6541 95.4825 46.8783 84.9295 46.8783 84.9295L72.7495 92.2602Z" fill="#F99746"/>
<path d="M68.7057 33.0028C62.3748 35.0006 51.4045 29.6033 51.4045 29.6033C51.4045 29.6033 57.2521 25.221 56.9461 16.102L61.8432 20.0493L65.1778 22.7237C65.1778 22.7237 65.1617 24.3027 64.8073 27.0738C64.7106 27.7988 64.5978 28.6205 64.4368 29.5066C67.1592 31.0211 68.7057 33.0028 68.7057 33.0028Z" fill="#FFB27D"/>
<path d="M65.178 22.7397C65.178 22.7397 65.1619 24.3186 64.8075 27.0898C61.1185 26.4614 56.9463 20.5002 56.9463 20.5002C58.831 19.9524 60.4742 19.8557 61.8595 20.0652L65.178 22.7397Z" fill="#ED975D"/>
<path d="M67.1102 22.5947C67.1102 22.5947 56.6554 24.3347 55.6728 17.7935C54.6901 11.2684 52.6765 7.07942 59.3134 5.69384C65.9504 4.30826 67.6257 6.61219 68.4795 8.70667C69.3494 10.8173 69.8165 21.9663 67.1102 22.5947Z" fill="#FFB27D"/>
<path d="M77.55 91.8575C77.3567 92.0187 77.1312 92.1153 76.8895 92.1153C74.5054 92.0831 67.5785 93.4042 61.6987 92.8081C56.7532 92.3409 52.3716 90.8748 47.6677 88.7642C47.0395 88.4903 45.6058 87.7169 45.638 87.0241C45.6541 86.2669 45.7346 85.1552 45.8313 83.7535C46.1696 78.904 46.7495 70.5422 46.1857 60.9076C46.089 59.1192 46.0246 57.3308 46.0246 55.5747C45.9763 42.5244 48.5698 31.037 53.7731 27.1542C54.2241 26.8319 56.9465 28.1692 59.4434 29.4098C61.7631 30.5537 64.0667 30.6826 66.2576 30.2314L68.4484 32.1648C71.1064 34.646 74.0382 37.9971 75.2947 43.1045C76.374 47.4545 77.0023 55.2847 77.3567 63.4048C77.5178 67.0782 77.6467 70.7999 77.6789 74.3122V74.4411C77.7111 74.7956 77.7111 75.1661 77.7111 75.5206C77.84 84.5591 77.7111 91.7286 77.55 91.8575Z" fill="#2B478B"/>
<path d="M45.8308 83.7376C46.1691 78.8881 46.749 70.5263 46.1852 60.8916C46.0886 59.1033 46.0241 57.3149 46.0241 55.5588C48.1988 50.3065 49.9547 46.4881 49.9547 46.4881H55.4157C55.4157 46.5042 59.4268 73.8452 45.8308 83.7376Z" fill="#233862"/>
<path d="M44.155 96.933L20.8613 93.614C17.8328 93.179 14.9976 95.3057 14.5627 98.3347L13.129 108.436C12.694 111.465 14.8204 114.301 17.8489 114.736L41.1426 118.055C44.1711 118.49 47.0063 116.363 47.4412 113.334L48.8749 103.233C49.326 100.204 47.1996 97.368 44.155 96.933Z" fill="#233862"/>
<path d="M45.4765 99.9456C44.816 98.3022 43.4145 97.0133 41.6103 96.5783C41.4331 96.53 41.2559 96.4978 41.0787 96.4817L36.4393 95.8211L36.7454 93.6461C36.8098 93.1627 36.6971 92.6794 36.391 92.2766C36.101 91.8899 35.6661 91.6321 35.1828 91.5516L33.9746 91.3743L29.1097 90.6816L28.2237 90.5527C27.2249 90.4077 26.2745 91.1166 26.1456 92.1155L25.8396 94.2905L17.8334 93.1466C14.7888 92.7116 11.9536 94.8544 11.5186 97.8834L10.0688 108.098C9.63386 111.143 11.7764 113.979 14.8049 114.414L38.0502 117.733C38.4529 117.797 38.8718 117.797 39.2584 117.765C39.9028 117.716 40.4988 117.555 41.0787 117.314C42.7863 116.556 44.0911 114.961 44.365 112.98L45.8148 102.765C45.9598 101.782 45.8309 100.816 45.4765 99.9456ZM27.2894 92.2766C27.3377 91.9705 27.5793 91.7449 27.8693 91.6966C27.9337 91.6805 27.9982 91.6805 28.0787 91.6966L29.1097 91.8416L32.9436 92.3894L35.0378 92.6794C35.4083 92.7277 35.6822 93.0822 35.6177 93.4527L35.3117 95.6278L26.9833 94.4355L27.2894 92.2766Z" fill="#2B478B"/>
<path d="M34.2802 87.3304C34.2802 87.2015 34.2963 87.0726 34.2963 86.9437C34.3447 86.2993 35.5689 84.6559 35.5689 84.6559L32.5082 83.0609L31.3 85.0748C29.4636 86.541 29.4314 86.5571 29.7697 89.3605C30.0597 91.7772 28.481 91.8094 28.5132 93.5494C28.5454 95.2734 30.7846 94.4356 30.7846 94.4356C34.2319 92.8083 34.5219 92.0027 34.4252 90.3594C34.7474 90.8266 35.1179 91.1005 35.424 90.8911C35.6978 90.7138 35.1501 90.0049 34.9085 88.3616C34.8601 88.1038 34.5702 87.701 34.2802 87.3304Z" fill="#FFB27D"/>
<path d="M32.4607 85.9286C34.426 86.3153 36.5524 86.1542 36.5524 86.1542C36.5524 86.1542 42.3839 68.1094 43.141 66.466C43.8981 64.8227 60.4905 45.3118 60.4905 45.3118L53.5797 28.0081C53.5797 28.0081 35.6342 57.9914 33.8139 62.1965C30.8015 69.1566 29.7544 84.7686 29.7544 84.7686C29.7544 84.7686 30.9142 85.6225 32.4607 85.9286Z" fill="#2B478B"/>
<path d="M55.6573 17.1652C55.6573 17.1652 56.7366 16.988 56.5594 15.5057C56.3822 14.0235 56.3822 12.0901 57.5904 12.4607C58.7986 12.8151 58.8469 13.7818 59.3463 13.2179C59.8457 12.654 59.8457 10.2856 63.4219 10.1245C66.9981 9.9634 68.4479 11.204 70.1233 10.479C71.7825 9.75396 71.8791 7.22447 71.8791 7.22447C71.8791 7.22447 71.412 8.12671 70.6871 8.41671C70.6871 8.41671 73.4578 4.61442 70.2521 2.02049C67.0303 -0.589556 63.7602 1.10214 61.9076 1.21492C57.8159 1.45659 55.158 1.71437 53.8209 4.40497C52.4838 7.09558 53.0316 14.5713 55.6573 17.1652Z" fill="#2B478B"/>
<path d="M203.826 88.168C203.826 88.168 193.243 86.0413 191.471 86.2024C189.699 86.3635 183.577 89.1185 183.513 89.6341C183.448 90.1336 183.754 90.5364 184.818 90.5847C185.897 90.633 189.409 90.0852 189.183 90.5202C188.974 90.9552 178.873 93.2108 178.809 95.257C178.744 97.3031 184.415 100.96 189.119 101.089C193.823 101.218 202.924 95.5148 203.714 95.4342C210.415 94.6448 203.826 88.168 203.826 88.168Z" fill="#ED975D"/>
<path d="M261.658 64.6293C257.518 69.7849 254.07 73.7806 252.25 75.2306C250.8 76.3906 248.98 77.5667 246.886 78.7429C231.791 87.2658 202.763 95.9015 202.763 95.9015C202.763 95.9015 202.747 95.8854 202.698 95.8532C202.328 95.5954 200.33 94.0487 199.074 91.5031C197.962 89.2636 198.204 87.878 198.526 87.153C198.72 86.718 198.961 86.5086 198.961 86.5086C198.961 86.5086 233.757 64.2748 236.527 61.9548C238.106 60.6337 243.825 47.3418 248.48 36.0638C249.125 37.0144 249.753 37.9649 250.365 38.9316C255.262 46.6973 259.032 55.3491 261.658 64.6293Z" fill="#ED7D2B"/>
<path d="M261.9 104.005C261.674 104.634 261.449 105.246 261.207 105.858C260.079 108.742 258.71 111.529 257.148 114.188C256.213 115.767 255.198 117.313 254.119 118.812C251.687 122.179 248.916 125.305 245.823 128.14C245.839 127.915 245.855 127.673 245.871 127.447C245.904 127.093 245.92 126.738 245.952 126.384C246 125.595 246.065 124.837 246.113 124.08C246.129 123.79 246.161 123.5 246.177 123.21C246.306 121.341 246.435 119.569 246.548 117.909C246.58 117.426 246.612 116.959 246.645 116.508C246.661 116.379 246.661 116.234 246.677 116.105C246.693 115.831 246.709 115.573 246.741 115.299C246.757 115.058 246.773 114.832 246.79 114.591C246.79 114.558 246.79 114.542 246.79 114.526C246.806 114.284 246.822 114.059 246.838 113.817C246.87 113.43 246.886 113.044 246.918 112.657C246.935 112.415 246.951 112.19 246.967 111.964C246.999 111.61 247.015 111.272 247.047 110.933C247.047 110.853 247.063 110.772 247.063 110.692C247.079 110.53 247.079 110.369 247.096 110.208C247.096 110.128 247.112 110.047 247.112 109.967C247.112 109.95 247.112 109.95 247.112 109.934C247.128 109.628 247.16 109.338 247.176 109.048C247.176 109.032 247.176 109.016 247.176 109C247.192 108.79 247.208 108.581 247.224 108.388C247.224 108.323 247.241 108.259 247.241 108.194C247.257 108.082 247.257 107.969 247.257 107.856C247.257 107.759 247.273 107.679 247.273 107.582C247.321 106.954 247.353 106.39 247.386 105.89C247.386 105.81 247.402 105.745 247.402 105.681C247.402 105.6 247.418 105.536 247.418 105.471C247.434 105.343 247.434 105.214 247.45 105.085C247.514 104.183 247.563 103.522 247.579 103.151C247.579 103.119 247.579 103.071 247.595 103.039C247.595 103.023 247.595 103.023 247.595 103.006C247.595 102.974 247.595 102.942 247.595 102.91C247.611 102.797 247.611 102.749 247.611 102.749L261.9 104.005Z" fill="#6BB7BF"/>
<path d="M261.9 104.005C261.674 104.634 261.449 105.246 261.207 105.858C260.079 108.742 258.71 111.529 257.148 114.188C256.213 115.767 255.198 117.313 254.119 118.812C251.687 122.179 248.916 125.305 245.823 128.14C245.839 127.915 245.855 127.673 245.871 127.447C245.904 127.093 245.92 126.738 245.952 126.384C246 125.595 246.065 124.837 246.113 124.08C246.129 123.79 246.161 123.5 246.177 123.21C246.306 121.341 246.435 119.569 246.548 117.909C246.58 117.426 246.612 116.959 246.645 116.508C246.661 116.379 246.661 116.234 246.677 116.105C246.693 115.831 246.709 115.573 246.741 115.299C246.757 115.058 246.773 114.832 246.79 114.591C246.79 114.558 246.79 114.542 246.79 114.526C246.806 114.284 246.822 114.059 246.838 113.817C246.87 113.43 246.886 113.044 246.918 112.657C246.935 112.415 246.951 112.19 246.967 111.964C246.999 111.61 247.015 111.272 247.047 110.933C247.047 110.853 247.063 110.772 247.063 110.692C247.079 110.53 247.079 110.369 247.096 110.208C247.096 110.128 247.112 110.047 247.112 109.967C247.112 109.95 247.112 109.95 247.112 109.934C247.128 109.628 247.16 109.338 247.176 109.048C247.176 109.032 247.176 109.016 247.176 109C247.192 108.79 247.208 108.581 247.224 108.388C247.224 108.323 247.241 108.259 247.241 108.194C247.257 108.082 247.257 107.969 247.257 107.856C247.257 107.759 247.273 107.679 247.273 107.582C247.321 106.954 247.353 106.39 247.386 105.89C247.386 105.81 247.402 105.745 247.402 105.681C247.402 105.6 247.418 105.536 247.418 105.471C247.434 105.343 247.434 105.214 247.45 105.085C247.514 104.183 247.563 103.522 247.579 103.151C247.579 103.119 247.579 103.071 247.595 103.039C247.595 103.023 247.595 103.023 247.595 103.006C247.595 102.974 247.595 102.942 247.595 102.91C247.611 102.797 247.611 102.749 247.611 102.749L261.9 104.005Z" fill="#599DAD"/>
<path d="M264.187 75.6655C265.959 85.5418 264.992 95.1925 261.883 104.005C261.658 104.634 261.432 105.246 261.19 105.858C260.063 108.742 258.694 111.529 257.131 114.188C256.197 115.767 255.182 117.313 254.103 118.812C250.994 118.361 248.481 117.99 246.918 117.958C246.789 117.958 246.66 117.942 246.531 117.91C246.177 117.829 245.871 117.652 245.613 117.41C245.307 117.136 245.597 102.813 246.547 84.7684C246.58 84.0757 246.596 83.3023 246.692 82.6095V82.3517C246.757 81.1595 246.805 79.9511 246.886 78.7428C246.918 78.05 246.966 77.3411 247.015 76.6322C247.305 71.8149 247.675 66.9009 248.062 61.9869C248.094 61.5197 248.142 61.0525 248.174 60.5691C248.803 53.0129 249.528 45.5855 250.381 38.9315C255.262 46.6811 259.032 55.3329 261.658 64.6292C262.672 68.222 263.51 71.8954 264.187 75.6655Z" fill="#F99746"/>
<path d="M134.301 102.33C134.123 97.2708 133.866 91.2612 133.527 84.7522C133.495 84.0594 133.463 83.2861 133.382 82.5933L133.366 82.3355C133.334 81.7555 133.318 81.1755 133.286 80.5955C133.27 80.2733 133.254 79.9349 133.237 79.6127C133.189 78.6299 133.125 77.631 133.06 76.616C132.77 71.7987 132.4 66.8847 132.013 61.9707C131.965 61.5035 131.933 61.0362 131.9 60.5529C131.32 53.5444 130.66 46.6649 129.887 40.3976C129.887 40.3653 129.871 40.3331 129.871 40.2848C129.774 39.4953 129.677 38.722 129.565 37.9486C129.355 36.4019 129.146 34.9036 128.92 33.4535C128.614 33.953 128.324 34.4524 128.034 34.9519C126.311 37.9003 124.7 40.9937 123.202 44.2321C120.157 50.8055 117.563 57.9267 115.405 65.4024C115.389 65.4508 115.373 65.4991 115.356 65.5474C114.648 67.9964 114.164 70.4131 113.874 72.7815C113.826 73.1198 113.794 73.4581 113.762 73.7965C112.715 84.575 115.791 94.6446 121.623 103.651C121.816 103.957 122.026 104.279 122.235 104.585C122.638 105.198 123.073 105.81 123.508 106.406C123.814 106.825 124.136 107.26 124.458 107.679C124.522 107.775 124.587 107.856 124.667 107.937C126.89 110.82 129.403 113.576 132.142 116.186C132.593 116.604 133.028 117.023 133.495 117.442C133.608 117.539 133.721 117.652 133.833 117.748C134.059 117.652 134.268 117.523 134.446 117.346C134.655 117.233 134.607 111.304 134.301 102.33Z" fill="#2A4E96"/>
<path d="M134.3 102.33C126.181 93.8231 119.416 83.3829 113.89 72.8138C114.18 70.4293 114.663 68.0126 115.372 65.5798C115.388 65.5315 115.404 65.4831 115.42 65.4348C117.579 57.943 120.173 50.8379 123.217 44.2644C128.195 51.3857 131.691 57.943 131.9 60.5853C131.932 61.0525 131.981 61.5197 132.013 62.0031C132.399 66.917 132.77 71.831 133.06 76.6483C133.124 77.6472 133.173 78.6461 133.237 79.645C133.253 79.9673 133.269 80.3056 133.285 80.6278C133.318 81.2078 133.35 81.7879 133.366 82.3679L133.382 82.6257C133.463 83.3184 133.495 84.0757 133.527 84.7846C133.865 91.2614 134.123 97.2709 134.3 102.33Z" fill="#1E3D70"/>
<path d="M171.142 88.7962C171.142 88.7962 181.935 88.8124 183.643 89.3279C185.35 89.8435 190.795 93.7585 190.763 94.258C190.731 94.7736 190.36 95.0958 189.297 94.9347C188.234 94.7736 184.899 93.533 185.028 94.0002C185.157 94.4674 194.597 98.6886 194.259 100.703C193.904 102.716 187.638 105.181 182.998 104.376C178.359 103.57 170.578 96.1752 169.821 95.9336C163.41 93.8552 171.142 88.7962 171.142 88.7962Z" fill="#FFB27D"/>
<path d="M173.107 92.4858C172.124 94.1775 170.819 95.3536 169.981 96.0142C169.466 96.417 169.128 96.6103 169.128 96.6103C169.128 96.6103 148.347 88.8285 133.285 80.6117C128.307 77.8889 123.958 75.1339 121.187 72.5721C119.931 71.4282 117.901 68.8504 115.42 65.4348C117.579 57.943 120.172 50.8379 123.217 44.2645C124.715 41.0422 126.326 37.9327 128.05 34.9843C128.646 36.7727 129.274 38.6094 129.886 40.4138C133.188 50.0484 136.571 59.2641 137.779 60.4242C140.389 62.9214 173.574 87.5074 173.574 87.5074C173.574 87.5074 174.009 87.9263 174.121 88.8124C174.218 89.6341 174.057 90.8424 173.107 92.4858Z" fill="#2A4E96"/>
<path d="M208.628 21.3215H162.798V59.2155H208.628V21.3215Z" fill="#DDEBFD"/>
<path d="M208.628 18.6633H162.798V21.3216H208.628V18.6633Z" fill="#739AF0"/>
<path d="M164.441 19.453C164.151 19.453 163.909 19.6947 163.909 19.9847C163.909 20.2747 164.151 20.5163 164.441 20.5163C164.73 20.5163 164.972 20.2747 164.972 19.9847C164.972 19.6947 164.73 19.453 164.441 19.453Z" fill="#DDEBFD"/>
<path d="M166.518 19.4527C166.228 19.4527 165.986 19.6943 165.986 19.9843C165.986 20.2743 166.228 20.516 166.518 20.516C166.808 20.516 167.049 20.2743 167.049 19.9843C167.049 19.6943 166.824 19.4527 166.518 19.4527Z" fill="#DDEBFD"/>
<path d="M168.629 19.4527C168.339 19.4527 168.097 19.6943 168.097 19.9843C168.097 20.2743 168.339 20.516 168.629 20.516C168.919 20.516 169.16 20.2743 169.16 19.9843C169.16 19.6943 168.919 19.4527 168.629 19.4527Z" fill="#DDEBFD"/>
<path d="M175.878 27.1056H194.565C195.048 27.1056 195.451 26.7029 195.451 26.2195C195.451 25.7362 195.048 25.3334 194.565 25.3334H175.878C175.395 25.3334 174.992 25.7362 174.992 26.2195C174.992 26.7029 175.395 27.1056 175.878 27.1056Z" fill="#A8C3F7"/>
<path d="M171.625 30.1507H198.817C199.301 30.1507 199.703 29.748 199.703 29.2646C199.703 28.7813 199.301 28.3785 198.817 28.3785H171.625C171.142 28.3785 170.739 28.7813 170.739 29.2646C170.739 29.748 171.142 30.1507 171.625 30.1507Z" fill="#A8C3F7"/>
<path d="M169.321 38.1579H202.103C202.458 38.1579 202.748 37.8679 202.748 37.5135C202.748 37.159 202.458 36.869 202.103 36.869H169.321C168.967 36.869 168.677 37.159 168.677 37.5135C168.677 37.8679 168.967 38.1579 169.321 38.1579Z" fill="#A8C3F7"/>
<path d="M202.103 39.8496H169.321C168.967 39.8496 168.677 40.1396 168.677 40.4941C168.677 40.8485 168.967 41.1385 169.321 41.1385H202.103C202.458 41.1385 202.748 40.8485 202.748 40.4941C202.764 40.1557 202.458 39.8496 202.103 39.8496Z" fill="#A8C3F7"/>
<path d="M202.103 42.8626H169.321C168.967 42.8626 168.677 43.1526 168.677 43.507C168.677 43.8615 168.967 44.1515 169.321 44.1515H202.103C202.458 44.1515 202.748 43.8615 202.748 43.507C202.764 43.1526 202.458 42.8626 202.103 42.8626Z" fill="#A8C3F7"/>
<path d="M172.625 53.77H169.338C168.984 53.77 168.694 54.06 168.694 54.4145C168.694 54.7689 168.984 55.0589 169.338 55.0589H172.625C172.979 55.0589 173.269 54.7689 173.269 54.4145C173.269 54.06 172.979 53.77 172.625 53.77Z" fill="#A8C3F7"/>
<path d="M178.118 53.7701H174.832C174.478 53.7701 174.188 54.0601 174.188 54.4145C174.188 54.769 174.478 55.059 174.832 55.059H178.118C178.473 55.059 178.763 54.769 178.763 54.4145C178.763 54.0601 178.473 53.7701 178.118 53.7701Z" fill="#A8C3F7"/>
<path d="M196.61 53.77H193.324C192.97 53.77 192.68 54.06 192.68 54.4145C192.68 54.7689 192.97 55.0589 193.324 55.0589H196.61C196.965 55.0589 197.255 54.7689 197.255 54.4145C197.255 54.06 196.965 53.77 196.61 53.77Z" fill="#A8C3F7"/>
<path d="M202.104 53.7701H198.818C198.463 53.7701 198.173 54.0601 198.173 54.4145C198.173 54.769 198.463 55.059 198.818 55.059H202.104C202.458 55.059 202.748 54.769 202.748 54.4145C202.765 54.0601 202.458 53.7701 202.104 53.7701Z" fill="#A8C3F7"/>
<path d="M218.954 107.663L214.024 114.317L213.541 114.977L213.299 115.299L212.687 116.121L212.365 116.572L211.753 117.394L211.108 118.264L210.512 119.069L210.496 119.086L209.932 119.843V119.859L209.852 119.972L209.836 119.988L209.723 120.133L209.111 120.89V120.954L208.547 121.728L207.822 122.711L207.274 123.452L206.662 124.273L205.647 125.643L205.551 125.772L205.213 126.239L204.407 127.318L203.344 128.688V128.752L202.796 129.494L202.732 129.574L201.975 130.605L201.266 131.572V131.588L199.51 133.972L196.884 137.517L192.486 143.446L191.939 144.187L191.616 144.622C191.778 144.654 191.955 144.67 192.116 144.687C192.696 144.767 193.276 144.832 193.856 144.896C194.017 144.912 194.178 144.928 194.339 144.944C194.436 144.96 194.548 144.96 194.645 144.977C194.887 145.009 195.144 145.025 195.386 145.041C195.483 145.057 195.595 145.057 195.692 145.073C195.74 145.073 195.789 145.089 195.837 145.089C195.998 145.105 196.159 145.122 196.32 145.122C196.353 145.122 196.385 145.122 196.417 145.122C196.771 145.154 197.142 145.17 197.496 145.186C197.657 145.202 197.818 145.202 197.98 145.218C198.108 145.234 198.237 145.234 198.366 145.234C198.398 145.234 198.414 145.234 198.447 145.234C198.656 145.25 198.866 145.25 199.075 145.267C199.236 145.267 199.397 145.283 199.558 145.283C199.735 145.283 199.929 145.299 200.106 145.299C200.267 145.299 200.428 145.299 200.589 145.315C200.766 145.315 200.927 145.315 201.105 145.315C201.266 145.315 201.427 145.315 201.588 145.315C201.685 145.315 201.765 145.315 201.862 145.315C201.958 145.315 202.055 145.315 202.152 145.315C202.216 145.315 202.281 145.315 202.345 145.315C202.41 145.315 202.474 145.315 202.538 145.315C202.635 145.315 202.716 145.315 202.812 145.315C202.828 145.315 202.861 145.315 202.877 145.315C202.925 145.315 202.973 145.315 203.022 145.315C203.086 145.315 203.151 145.315 203.215 145.315C204.488 145.283 205.744 145.218 207.001 145.105C208.434 144.993 209.868 144.815 211.27 144.606C212.8 144.38 214.298 144.107 215.78 143.768C215.812 143.768 215.828 143.752 215.861 143.752V143.768L217.262 143.43C217.455 143.382 217.649 143.333 217.842 143.285C219.678 142.818 221.483 142.286 223.239 141.658C223.528 141.561 223.835 141.448 224.125 141.351C224.205 141.319 224.27 141.303 224.35 141.271C224.898 141.078 225.445 140.868 225.977 140.643C226.122 140.578 226.267 140.53 226.412 140.465C226.444 140.449 226.476 140.449 226.509 140.433C226.686 140.369 226.847 140.288 227.024 140.224C227.153 140.175 227.282 140.111 227.411 140.063C227.556 139.998 227.717 139.934 227.862 139.869C227.958 139.821 228.055 139.789 228.152 139.74C228.313 139.66 228.49 139.595 228.651 139.515C230.294 138.774 231.889 137.968 233.452 137.114C233.613 137.018 233.774 136.937 233.951 136.84L242.537 125.256L218.954 107.663Z" fill="#A8D29F"/>
<path d="M205.969 131.523V132.216L206.469 131.539V131.523H205.969ZM205.035 132.426C204.842 132.506 204.68 132.587 204.519 132.683L203.424 134.166L202.586 135.293V136.776L203.585 135.438L205.969 132.216C205.663 132.232 205.357 132.297 205.035 132.426ZM200.991 137.452L200.863 137.613L200.379 138.258L198.221 141.174V142.656L199.751 140.594L200.975 138.951L201.62 138.081L202.103 137.436H200.991V137.452ZM219.227 112.834L214.088 119.762L214.04 119.826L213.734 120.245L213.331 120.777L213.122 121.051L212.171 122.34L211.768 122.807V122.871L211.511 123.226L211.156 123.693L209.739 125.61L209.706 125.643L209.642 125.739L209.191 126.352V126.416L207.838 128.172L207.322 128.881L207.242 128.994L205.792 130.943L205.357 131.523V131.539L204.503 132.683L203.408 134.166L202.57 135.293L201.958 136.115L200.959 137.452L200.83 137.613L200.347 138.258L198.188 141.174L197.576 141.996L196.545 143.381L195.353 144.976C195.45 144.992 195.563 144.992 195.659 145.008C195.708 145.008 195.756 145.025 195.804 145.025C195.965 145.041 196.127 145.057 196.288 145.057C196.32 145.057 196.352 145.057 196.384 145.057L197.625 143.365L198.156 142.656L199.687 140.594L200.911 138.951L201.555 138.081L202.039 137.436L202.538 136.759L203.537 135.422L205.921 132.2L206.42 131.523V131.507L207.193 130.524V130.46L207.806 129.638L208.289 128.978L209.159 127.818L209.771 126.996L210.464 126.078L210.721 125.723L210.818 125.594L211.14 125.175L211.752 124.354L212.397 123.484L213.041 122.614L213.105 122.533L213.718 121.711L214.185 121.083L214.41 120.793L214.974 120.036L215.022 119.971L215.151 119.81L217.487 116.652C218.55 115.219 220.58 114.912 221.998 115.976L233.951 124.837C235.529 126.013 235.868 128.237 234.692 129.815L227.475 139.547L227.056 140.127C227.185 140.078 227.314 140.014 227.442 139.966C227.587 139.901 227.749 139.837 227.894 139.772C227.99 139.724 228.087 139.692 228.184 139.643C228.345 139.563 228.522 139.498 228.683 139.418L238.058 126.77L219.227 112.834ZM200.991 137.452L200.863 137.613L200.379 138.258L198.221 141.174V142.656L199.751 140.594L200.975 138.951L201.62 138.081L202.103 137.436H200.991V137.452ZM205.035 132.426C204.842 132.506 204.68 132.587 204.519 132.683L203.424 134.166L202.586 135.293V136.776L203.585 135.438L205.969 132.216C205.663 132.232 205.357 132.297 205.035 132.426ZM205.969 131.523V132.216L206.469 131.539V131.523H205.969Z" fill="#82B378"/>
<path d="M215.908 143.687V143.671C215.876 143.671 215.86 143.687 215.828 143.687C214.346 144.01 212.831 144.3 211.317 144.525C209.916 144.735 208.482 144.896 207.048 145.025C205.792 145.137 204.535 145.202 203.263 145.234C203.198 145.234 203.134 145.234 203.069 145.234C203.021 145.234 202.973 145.234 202.924 145.234C202.908 145.234 202.876 145.234 202.86 145.234C202.844 145.057 202.844 144.864 202.844 144.686C202.844 144.251 202.892 143.816 202.973 143.397C203.166 142.35 203.601 141.351 204.277 140.433L204.294 140.417C204.616 139.982 204.986 139.595 205.373 139.257C205.566 139.096 205.776 138.935 205.985 138.79C206.565 138.387 207.193 138.081 207.838 137.855C208.031 137.791 208.24 137.726 208.45 137.678C208.917 137.565 209.4 137.501 209.9 137.484C210.109 137.468 210.302 137.484 210.512 137.484C210.963 137.501 211.414 137.565 211.865 137.678C212.074 137.726 212.268 137.791 212.477 137.855C212.703 137.936 212.944 138.016 213.17 138.129C213.379 138.226 213.572 138.322 213.782 138.435C214.007 138.564 214.217 138.693 214.426 138.838C214.459 138.87 214.507 138.886 214.539 138.918C214.7 139.031 214.861 139.16 215.006 139.289C215.022 139.289 215.022 139.305 215.038 139.305C215.151 139.402 215.264 139.515 215.377 139.611C215.602 139.837 215.796 140.046 215.989 140.288V140.304C216.069 140.401 216.15 140.513 216.231 140.626V140.642C216.456 140.965 216.665 141.319 216.843 141.69V141.706C216.923 141.883 216.988 142.044 217.052 142.221C217.197 142.592 217.294 142.978 217.374 143.365L215.908 143.687Z" fill="#82B378"/>
<path opacity="0.5" d="M209.74 120.101L209.128 120.858V120.906L208.564 121.679L207.839 122.662L207.291 123.403L206.679 124.225L205.664 125.595L205.568 125.723L205.229 126.191L204.424 127.27L203.361 128.64V128.688L202.813 129.429L202.749 129.51L201.991 130.541L201.283 131.507V131.524L199.527 133.908L196.901 137.453L192.503 143.382L191.955 144.123L191.633 144.558C191.794 144.59 191.972 144.606 192.133 144.622C192.713 144.703 193.293 144.767 193.872 144.832C194.034 144.848 194.195 144.864 194.356 144.88C194.452 144.896 194.565 144.896 194.662 144.912C194.903 144.944 195.161 144.961 195.403 144.977C195.499 144.993 195.612 144.993 195.709 145.009C195.757 145.009 195.806 145.025 195.854 145.025C196.015 145.041 196.176 145.057 196.337 145.057C196.369 145.057 196.402 145.057 196.434 145.057C196.788 145.089 197.159 145.106 197.513 145.122C197.674 145.138 197.835 145.138 197.996 145.154C198.125 145.17 198.254 145.17 198.383 145.17C198.415 145.17 198.431 145.17 198.464 145.17C198.592 144.574 198.737 143.978 198.898 143.365C199.14 142.447 199.43 141.513 199.752 140.594C199.994 139.885 200.252 139.16 200.526 138.451C200.638 138.161 200.751 137.888 200.864 137.614C200.88 137.565 200.912 137.501 200.928 137.453C201.267 136.615 201.621 135.793 201.975 134.988V134.939C202.169 134.488 202.378 134.101 202.587 133.666C202.926 132.941 203.264 132.232 203.618 131.54C203.618 131.54 203.618 131.54 203.618 131.524C204.086 130.589 204.553 129.671 205.02 128.801C205.084 128.688 205.149 128.607 205.197 128.511V128.462C205.407 128.076 205.6 127.705 205.809 127.335C206.099 126.787 206.389 126.255 206.679 125.756C206.711 125.707 206.728 125.659 206.76 125.611C206.937 125.288 207.114 125.031 207.275 124.741V124.692C207.678 123.967 208.065 123.307 208.387 122.711C208.58 122.356 208.773 122.018 208.934 121.728C208.999 121.615 209.063 121.502 209.112 121.389C209.385 120.906 209.579 120.503 209.724 120.213C209.772 120.117 209.804 120.036 209.837 119.956L209.74 120.101Z" fill="#82B378"/>
<path d="M216.988 138.758V142.109C216.988 142.141 216.988 142.173 216.988 142.205C216.972 142.431 216.891 142.64 216.762 142.818C216.617 143.027 216.408 143.204 216.15 143.301C216.086 143.317 216.037 143.349 215.973 143.349C215.957 143.349 215.941 143.365 215.908 143.365C215.876 143.365 215.828 143.382 215.796 143.382C215.763 143.382 215.715 143.382 215.683 143.382H215.312H213.734H212.445H211.833H210.48H209.868H208.418H207.806H205.953H205.341H202.957H202.183H201.571H198.865H197.576H196.545H192.438H191.455H190.746H190.456H188.781H186.332H185.14C184.447 143.237 183.771 143.075 183.078 142.914C182.917 142.882 182.756 142.834 182.595 142.802C182.144 142.689 181.677 142.576 181.226 142.463C181.032 142.415 180.823 142.367 180.614 142.302C180.259 142.205 179.921 142.125 179.566 142.028C179.196 141.932 178.809 141.819 178.439 141.722C178.278 141.674 178.117 141.625 177.956 141.577C177.021 141.319 176.103 141.029 175.169 140.739C175.136 140.723 175.104 140.723 175.056 140.707C174.782 140.626 174.492 140.53 174.218 140.433C174.057 140.385 173.896 140.336 173.735 140.272C171.109 139.418 168.516 138.468 165.938 137.436H166.679L180.63 137.453H181.242H184.995H185.833H187.637H189.925H191.89H192.067H195.112H195.82H196.433H196.835H199.88H200.895H202.055H202.554H205.341H205.921H206.533H207.806H210.302H212.155H212.219H212.751H214.201H214.813H215.651H215.699C215.763 137.453 215.812 137.469 215.876 137.469C215.957 137.485 216.037 137.501 216.118 137.533C216.359 137.63 216.569 137.807 216.73 138.016C216.907 138.242 216.988 138.484 216.988 138.758Z" fill="#FFB93E"/>
<path d="M190.795 143.382H190.505H188.83H186.381H185.769H185.189C184.497 143.237 183.82 143.076 183.127 142.914C182.966 142.882 182.805 142.834 182.644 142.802C182.193 142.689 181.726 142.576 181.275 142.463C181.081 142.415 180.872 142.367 180.663 142.302C180.308 142.206 179.97 142.125 179.616 142.028C179.245 141.932 178.858 141.819 178.488 141.722C178.327 141.674 178.166 141.626 178.005 141.577C177.07 141.319 176.152 141.029 175.218 140.739C175.186 140.723 175.153 140.723 175.105 140.707C174.831 140.627 174.541 140.53 174.267 140.433C174.106 140.385 173.945 140.337 173.784 140.272C171.158 139.418 168.565 138.468 165.987 137.437H166.728L180.679 137.453H181.291H185.044H185.866H185.882H187.3C187.493 138.29 187.799 139.289 188.331 140.288C188.83 141.239 189.49 142.206 190.425 143.043C190.473 143.092 190.537 143.14 190.602 143.204C190.618 143.221 190.618 143.221 190.634 143.237C190.682 143.285 190.747 143.333 190.795 143.382Z" fill="#FFA412"/>
<path d="M210.496 137.452H209.884V143.381H210.496V137.452Z" fill="#FFA412"/>
<path d="M208.45 137.452H207.838V143.381H208.45V137.452Z" fill="#FFA412"/>
<path d="M205.989 137.453L205.377 137.452L205.371 143.381L205.983 143.382L205.989 137.453Z" fill="#FFA412"/>
<path d="M202.215 137.452H201.603V143.381H202.215V137.452Z" fill="#FFA412"/>
<path d="M198.236 137.452H197.624V143.381H198.236V137.452Z" fill="#FFA412"/>
<path d="M192.115 137.452H191.503V143.381H192.115V137.452Z" fill="#FFA412"/>
<path d="M186.396 137.436H185.784V143.365H186.396V137.436Z" fill="#FFA412"/>
<path d="M181.29 137.436V142.447C181.097 142.399 180.888 142.35 180.678 142.286V137.436H181.29Z" fill="#FFA412"/>
<path d="M212.461 137.468H211.849V143.397H212.461V137.468Z" fill="#FFA412"/>
<path d="M213.749 137.468H213.137V143.397H213.749V137.468Z" fill="#FFA412"/>
<path d="M214.993 137.469L214.381 137.468L214.375 143.397L214.987 143.398L214.993 137.469Z" fill="#FFA412"/>
<path d="M215.925 137.485V143.365C215.844 143.381 215.78 143.381 215.699 143.381H215.312V137.452H215.699C215.78 137.468 215.844 137.468 215.925 137.485Z" fill="#FFA412"/>
<path d="M216.763 138.032V142.817C216.618 143.027 216.408 143.204 216.15 143.301V137.549C216.408 137.646 216.618 137.823 216.763 138.032Z" fill="#FFA412"/>
<path d="M221.354 132.828V136.18C221.354 136.453 221.274 136.695 221.129 136.905C220.984 137.114 220.774 137.291 220.517 137.388C220.436 137.42 220.355 137.436 220.275 137.452C220.194 137.468 220.13 137.468 220.049 137.468L166.728 137.436C166.036 137.436 165.472 136.888 165.44 136.212C165.44 136.196 165.44 136.163 165.44 136.147V132.796C165.44 132.78 165.44 132.748 165.44 132.732C165.472 132.103 165.955 131.588 166.583 131.523C166.632 131.523 166.68 131.507 166.728 131.507L220.049 131.539C220.13 131.539 220.21 131.539 220.275 131.556C220.355 131.572 220.436 131.588 220.517 131.62C220.758 131.717 220.968 131.894 221.129 132.103C221.274 132.313 221.354 132.554 221.354 132.828Z" fill="#FFB93E"/>
<path d="M195.161 137.452L166.6 137.436C165.988 137.436 165.488 136.888 165.456 136.212C165.456 136.196 165.456 136.163 165.456 136.147V132.796C165.456 132.78 165.456 132.748 165.456 132.732C165.488 132.103 165.923 131.588 166.471 131.523C166.519 131.523 166.568 131.507 166.6 131.507L191.665 131.523C191.665 131.523 191.665 131.523 191.665 131.539C192.068 133.279 192.986 135.68 195.161 137.452Z" fill="#FFA412"/>
<path d="M214.862 131.539H214.25V137.468H214.862V131.539Z" fill="#FFA412"/>
<path d="M212.815 131.539H212.203V137.468H212.815V131.539Z" fill="#FFA412"/>
<path d="M210.351 131.523H209.739V137.452H210.351V131.523Z" fill="#FFA412"/>
<path d="M206.581 131.523H205.969V137.452H206.581V131.523Z" fill="#FFA412"/>
<path d="M202.602 131.523H201.99V137.452H202.602V131.523Z" fill="#FFA412"/>
<path d="M196.481 131.523H195.869V137.452H196.481V131.523Z" fill="#FFA412"/>
<path d="M190.762 131.523H190.15V137.452H190.762V131.523Z" fill="#FFA412"/>
<path d="M185.656 131.507H185.044V137.436H185.656V131.507Z" fill="#FFA412"/>
<path d="M216.811 131.539H216.198V137.468H216.811V131.539Z" fill="#FFA412"/>
<path d="M218.115 131.539H217.503V137.468H218.115V131.539Z" fill="#FFA412"/>
<path d="M219.356 131.539H218.744V137.468H219.356V131.539Z" fill="#FFA412"/>
<path d="M220.29 131.555V137.436C220.21 137.452 220.145 137.452 220.065 137.452H219.678V131.523H220.065C220.145 131.539 220.21 131.539 220.29 131.555Z" fill="#FFA412"/>
<path d="M221.128 132.103V136.888C220.983 137.098 220.774 137.275 220.516 137.372V131.62C220.774 131.717 220.983 131.894 221.128 132.103Z" fill="#FFA412"/>
<path d="M214.346 126.9V130.251C214.346 130.525 214.266 130.766 214.121 130.976C213.976 131.185 213.766 131.362 213.509 131.459C213.428 131.491 213.348 131.507 213.267 131.524C213.235 131.524 213.219 131.54 213.187 131.54C213.17 131.54 213.154 131.54 213.122 131.54C213.106 131.54 213.106 131.54 213.09 131.54C213.074 131.54 213.042 131.54 213.025 131.54L159.704 131.507C159.012 131.507 158.448 130.96 158.416 130.283C158.416 130.267 158.416 130.235 158.416 130.219V126.867C158.416 126.851 158.416 126.819 158.416 126.803C158.448 126.126 159.012 125.578 159.704 125.578L213.025 125.611C213.042 125.611 213.074 125.611 213.09 125.611C213.138 125.611 213.203 125.627 213.251 125.627C213.332 125.643 213.412 125.659 213.493 125.691C213.525 125.707 213.573 125.723 213.605 125.74C213.621 125.756 213.654 125.756 213.67 125.772C213.686 125.788 213.718 125.804 213.734 125.82C213.734 125.82 213.734 125.82 213.75 125.82C213.766 125.836 213.783 125.852 213.815 125.868C213.863 125.901 213.895 125.933 213.944 125.981C213.96 125.997 213.976 126.013 213.976 126.013C213.976 126.013 213.992 126.03 213.992 126.046C214.008 126.062 214.024 126.078 214.024 126.094C214.04 126.11 214.056 126.142 214.073 126.158C214.266 126.384 214.346 126.642 214.346 126.9Z" fill="#FFB93E"/>
<path d="M188.17 131.523L159.609 131.507C158.996 131.507 158.497 130.959 158.465 130.283C158.465 130.267 158.465 130.234 158.465 130.218V126.867C158.465 126.851 158.465 126.819 158.465 126.803C158.497 126.126 158.996 125.578 159.609 125.578L184.674 125.594C184.69 125.643 184.69 125.691 184.707 125.723C185.109 127.463 186.044 129.783 188.17 131.523C188.154 131.523 188.17 131.523 188.17 131.523Z" fill="#FFA412"/>
<path d="M207.87 125.61H207.258V131.539H207.87V125.61Z" fill="#FFA412"/>
<path d="M205.826 125.61H205.214V131.539H205.826V125.61Z" fill="#FFA412"/>
<path d="M203.36 125.61H202.748V131.539H203.36V125.61Z" fill="#FFA412"/>
<path d="M199.591 125.61H198.979V131.539H199.591V125.61Z" fill="#FFA412"/>
<path d="M195.596 125.594H194.984V131.524H195.596V125.594Z" fill="#FFA412"/>
<path d="M189.492 125.594H188.879V131.524H189.492V125.594Z" fill="#FFA412"/>
<path d="M183.772 125.594H183.16V131.524H183.772V125.594Z" fill="#FFA412"/>
<path d="M178.653 125.595L178.041 125.594L178.034 131.523L178.646 131.524L178.653 125.595Z" fill="#FFA412"/>
<path d="M209.821 125.61H209.209V131.539H209.821V125.61Z" fill="#FFA412"/>
<path d="M211.109 125.61H210.497V131.539H211.109V125.61Z" fill="#FFA412"/>
<path d="M212.366 125.61H211.754V131.539H212.366V125.61Z" fill="#FFA412"/>
<path d="M213.284 125.627V131.507C213.204 131.524 213.139 131.524 213.059 131.524H212.672V125.594H213.059C213.139 125.611 213.22 125.627 213.284 125.627Z" fill="#FFA412"/>
<path d="M214.138 126.19V130.976C213.993 131.185 213.784 131.362 213.526 131.459V125.707C213.768 125.804 213.993 125.965 214.138 126.19Z" fill="#FFA412"/>
<path d="M218.277 121.115V124.467C218.277 124.74 218.197 124.982 218.052 125.192C217.907 125.401 217.697 125.578 217.44 125.675C217.359 125.707 217.279 125.723 217.198 125.739C217.118 125.755 217.053 125.755 216.973 125.755L163.652 125.723C163.442 125.723 163.249 125.675 163.072 125.578C162.685 125.385 162.411 124.998 162.363 124.547C162.363 124.531 162.363 124.515 162.363 124.499C162.363 124.483 162.363 124.45 162.363 124.434V121.083C162.363 121.067 162.363 121.035 162.363 121.019C162.395 120.39 162.878 119.875 163.507 119.81C163.555 119.81 163.603 119.794 163.652 119.794L216.973 119.826C217.053 119.826 217.134 119.826 217.198 119.843C217.279 119.859 217.359 119.875 217.44 119.907C217.681 120.004 217.891 120.181 218.052 120.39C218.197 120.6 218.277 120.841 218.277 121.115Z" fill="#FFB93E"/>
<path d="M192.085 125.739L163.524 125.723C163.346 125.723 163.169 125.675 163.008 125.578C162.654 125.385 162.412 124.998 162.38 124.547C162.38 124.531 162.38 124.515 162.38 124.499C162.38 124.483 162.38 124.45 162.38 124.434V121.083C162.38 121.067 162.38 121.035 162.38 121.019C162.412 120.39 162.847 119.875 163.395 119.81C163.443 119.81 163.491 119.794 163.524 119.794L188.589 119.81C188.589 119.81 188.589 119.81 188.589 119.827C188.976 121.534 189.878 123.854 191.924 125.611C191.988 125.643 192.037 125.691 192.085 125.739Z" fill="#FFA412"/>
<path d="M211.801 119.827H211.189V125.756H211.801V119.827Z" fill="#FFA412"/>
<path d="M209.74 119.827H209.128V125.756H209.74V119.827Z" fill="#FFA412"/>
<path d="M207.275 119.81H206.662V125.739H207.275V119.81Z" fill="#FFA412"/>
<path d="M203.505 119.81H202.893V125.739H203.505V119.81Z" fill="#FFA412"/>
<path d="M199.526 119.81H198.914V125.739H199.526V119.81Z" fill="#FFA412"/>
<path d="M193.405 119.81H192.793V125.739H193.405V119.81Z" fill="#FFA412"/>
<path d="M187.686 119.81H187.074V125.739H187.686V119.81Z" fill="#FFA412"/>
<path d="M182.579 119.794H181.967V125.723H182.579V119.794Z" fill="#FFA412"/>
<path d="M213.751 119.827H213.139V125.756H213.751V119.827Z" fill="#FFA412"/>
<path d="M215.039 119.827H214.427V125.756H215.039V119.827Z" fill="#FFA412"/>
<path d="M216.28 119.827H215.668V125.756H216.28V119.827Z" fill="#FFA412"/>
<path d="M217.214 119.843V125.723C217.133 125.739 217.069 125.739 216.988 125.739H216.602V119.81H216.988C217.069 119.827 217.133 119.827 217.214 119.843Z" fill="#FFA412"/>
<path d="M218.052 120.39V125.176C217.907 125.385 217.698 125.562 217.44 125.659V119.907C217.698 120.004 217.907 120.181 218.052 120.39Z" fill="#FFA412"/>
<path d="M214.363 115.186V118.538C214.363 118.811 214.282 119.053 214.137 119.263C213.992 119.472 213.783 119.649 213.525 119.746C213.445 119.778 213.364 119.794 213.283 119.81C213.251 119.81 213.235 119.826 213.203 119.826C213.187 119.826 213.171 119.826 213.155 119.826C213.138 119.826 213.122 119.826 213.106 119.826C213.09 119.826 213.058 119.826 213.042 119.826L159.721 119.794C159.028 119.794 158.464 119.246 158.432 118.57C158.432 118.554 158.432 118.521 158.432 118.505V115.154C158.432 115.138 158.432 115.106 158.432 115.09C158.464 114.413 159.028 113.865 159.721 113.865L213.042 113.897C213.122 113.897 213.203 113.897 213.267 113.914C213.348 113.93 213.428 113.946 213.509 113.978C213.751 114.075 213.96 114.252 214.121 114.461C214.282 114.687 214.363 114.929 214.363 115.186Z" fill="#FFB93E"/>
<path d="M188.169 119.81L159.608 119.794C158.996 119.794 158.496 119.246 158.464 118.57C158.464 118.554 158.464 118.521 158.464 118.505V115.154C158.464 115.138 158.464 115.106 158.464 115.09C158.496 114.413 158.996 113.865 159.608 113.865L184.674 113.881C185.06 115.621 185.995 118.038 188.169 119.81Z" fill="#FFA412"/>
<path d="M207.875 113.898L207.263 113.897L207.257 119.826L207.869 119.827L207.875 113.898Z" fill="#FFA412"/>
<path d="M205.826 113.897H205.214V119.826H205.826V113.897Z" fill="#FFA412"/>
<path d="M203.361 113.897H202.749V119.826H203.361V113.897Z" fill="#FFA412"/>
<path d="M199.592 113.897H198.98V119.826H199.592V113.897Z" fill="#FFA412"/>
<path d="M195.612 113.897H195V119.826H195.612V113.897Z" fill="#FFA412"/>
<path d="M189.491 113.881H188.879V119.81H189.491V113.881Z" fill="#FFA412"/>
<path d="M183.772 113.881H183.16V119.81H183.772V113.881Z" fill="#FFA412"/>
<path d="M178.666 113.881H178.054V119.81H178.666V113.881Z" fill="#FFA412"/>
<path d="M209.837 113.897H209.225V119.826H209.837V113.897Z" fill="#FFA412"/>
<path d="M211.125 113.897H210.513V119.826H211.125V113.897Z" fill="#FFA412"/>
<path d="M212.366 113.897H211.754V119.826H212.366V113.897Z" fill="#FFA412"/>
<path d="M213.3 113.929V119.81C213.22 119.826 213.155 119.826 213.075 119.826H212.688V113.897H213.075C213.155 113.897 213.22 113.913 213.3 113.929Z" fill="#FFA412"/>
<path d="M214.138 114.477V119.263C213.993 119.472 213.784 119.649 213.526 119.746V113.994C213.784 114.091 213.993 114.252 214.138 114.477Z" fill="#FFA412"/>
<path d="M221.563 142.157C220.355 142.544 219.13 142.898 217.89 143.204C217.697 143.253 217.503 143.301 217.31 143.349C216.843 143.462 216.392 143.575 215.925 143.672C215.892 143.672 215.876 143.688 215.844 143.688C214.362 144.01 212.848 144.3 211.334 144.526C209.932 144.735 208.498 144.896 207.065 145.025C205.808 145.138 204.552 145.202 203.279 145.234C203.215 145.234 203.15 145.234 203.086 145.234C203.037 145.234 202.989 145.234 202.941 145.234C202.925 145.234 202.892 145.234 202.876 145.234C202.78 145.234 202.699 145.234 202.602 145.234C202.538 145.234 202.474 145.234 202.409 145.234C202.345 145.234 202.28 145.234 202.216 145.234C202.119 145.234 202.023 145.234 201.926 145.234C201.829 145.234 201.749 145.234 201.652 145.234C201.491 145.234 201.33 145.234 201.169 145.234C200.992 145.234 200.83 145.234 200.653 145.234C200.492 145.234 200.331 145.234 200.17 145.218C199.993 145.218 199.799 145.218 199.622 145.202C199.461 145.202 199.3 145.186 199.139 145.186C198.93 145.186 198.72 145.17 198.511 145.154C198.479 145.154 198.462 145.154 198.43 145.154C198.301 145.154 198.172 145.138 198.044 145.138C197.882 145.138 197.721 145.122 197.56 145.106C197.206 145.089 196.835 145.057 196.481 145.041C196.449 145.041 196.417 145.041 196.384 145.041C196.223 145.025 196.062 145.025 195.901 145.009C195.853 145.009 195.804 144.993 195.756 144.993C195.659 144.993 195.547 144.977 195.45 144.961C195.208 144.944 194.951 144.912 194.709 144.896C194.612 144.88 194.5 144.88 194.403 144.864C194.242 144.848 194.081 144.832 193.92 144.816C193.34 144.751 192.76 144.687 192.18 144.606C192.019 144.59 191.842 144.558 191.68 144.542C191.632 144.542 191.568 144.526 191.519 144.509C191.471 144.509 191.423 144.493 191.374 144.493C191.262 144.477 191.149 144.461 191.02 144.445C190.988 144.445 190.956 144.429 190.923 144.429H190.907C190.891 144.429 190.891 144.429 190.875 144.429C190.44 144.364 190.005 144.3 189.57 144.219C189.425 144.187 189.264 144.171 189.119 144.139C188.974 144.107 188.813 144.09 188.668 144.058C188.491 144.026 188.33 143.994 188.153 143.962C187.991 143.929 187.83 143.897 187.669 143.865C186.864 143.704 186.075 143.543 185.269 143.365C184.576 143.22 183.9 143.059 183.207 142.898C183.046 142.866 182.885 142.818 182.724 142.785C182.643 142.769 182.563 142.753 182.482 142.721C181.854 135.487 185.446 128.237 192.212 124.515C192.454 124.386 192.695 124.257 192.937 124.128C193.179 123.983 193.404 123.855 193.646 123.71C202.812 118.667 214.314 122.002 219.356 131.169C221.225 134.649 221.933 138.484 221.563 142.157Z" fill="#E2810E"/>
<path d="M225.22 128.752C223.529 125.675 221.097 123.258 218.277 121.583C218.197 121.534 218.132 121.502 218.052 121.454C217.859 121.341 217.649 121.228 217.44 121.115C217.359 121.067 217.279 121.035 217.198 120.987C217.005 120.89 216.795 120.793 216.586 120.697C216.473 120.648 216.36 120.6 216.264 120.552C216.054 120.455 215.861 120.374 215.652 120.294C215.442 120.213 215.233 120.133 215.007 120.052C214.991 120.052 214.975 120.036 214.959 120.036C214.782 119.972 214.588 119.907 214.395 119.843C214.347 119.827 214.315 119.81 214.266 119.81H214.218C214.17 119.794 214.137 119.762 214.073 119.746C213.944 119.714 213.815 119.665 213.702 119.633C213.638 119.617 213.574 119.601 213.509 119.585C213.429 119.569 213.348 119.537 213.268 119.52C213.058 119.472 212.865 119.424 212.655 119.375C212.543 119.343 212.43 119.327 212.333 119.311C212.14 119.263 211.93 119.23 211.721 119.198C211.512 119.166 211.302 119.134 211.077 119.102C210.883 119.069 210.674 119.053 210.481 119.037C210.481 119.037 210.481 119.037 210.465 119.037C210.239 119.021 210.014 118.989 209.788 118.989C209.579 118.973 209.385 118.973 209.176 118.957C208.725 118.94 208.274 118.94 207.823 118.957C207.629 118.973 207.42 118.973 207.211 118.989C206.727 119.021 206.244 119.069 205.761 119.15C205.551 119.182 205.358 119.214 205.149 119.247C204.52 119.359 203.908 119.504 203.296 119.682C203.167 119.714 203.054 119.762 202.925 119.794C202.909 119.794 202.909 119.794 202.893 119.81C202.877 119.81 202.861 119.827 202.845 119.827C201.701 120.197 200.557 120.68 199.462 121.277C199.462 121.277 199.446 121.277 199.446 121.293C199.253 121.405 199.043 121.518 198.85 121.631C198.818 121.647 198.785 121.679 198.737 121.695C196.965 122.759 195.435 124.08 194.162 125.578C194.13 125.627 194.082 125.675 194.049 125.723C192.6 127.447 191.488 129.413 190.747 131.507C190.747 131.507 190.747 131.507 190.747 131.523C190.731 131.572 190.715 131.62 190.699 131.668C190.457 132.377 190.248 133.086 190.087 133.811V133.86C189.829 135.052 189.668 136.212 189.652 137.436C189.603 139.305 189.829 141.19 190.36 143.027C190.393 143.14 190.425 143.253 190.457 143.365C190.57 143.72 190.683 144.074 190.811 144.429C190.844 144.429 190.876 144.445 190.908 144.445C191.021 144.461 191.134 144.477 191.263 144.493C191.311 144.493 191.359 144.509 191.408 144.509C191.456 144.525 191.52 144.525 191.569 144.541C191.73 144.574 191.907 144.59 192.068 144.606C192.648 144.686 193.228 144.751 193.808 144.815C193.969 144.831 194.13 144.848 194.291 144.864C194.388 144.88 194.5 144.88 194.597 144.896C194.839 144.928 195.096 144.944 195.338 144.96C195.435 144.976 195.548 144.976 195.644 144.993C195.693 144.993 195.741 145.009 195.789 145.009C195.95 145.025 196.111 145.041 196.272 145.041C196.305 145.041 196.337 145.041 196.369 145.041C196.724 145.073 197.094 145.089 197.448 145.105C197.61 145.121 197.771 145.121 197.932 145.138C198.061 145.154 198.189 145.154 198.318 145.154C198.351 145.154 198.367 145.154 198.399 145.154C198.608 145.17 198.818 145.17 199.027 145.186C199.188 145.186 199.349 145.202 199.51 145.202C199.688 145.202 199.881 145.218 200.058 145.218C200.219 145.218 200.38 145.218 200.541 145.234C200.719 145.234 200.88 145.234 201.057 145.234C201.218 145.234 201.379 145.234 201.54 145.234C201.637 145.234 201.717 145.234 201.814 145.234C201.911 145.234 202.007 145.234 202.104 145.234C202.168 145.234 202.233 145.234 202.297 145.234C202.362 145.234 202.426 145.234 202.491 145.234C202.587 145.234 202.668 145.234 202.764 145.234C202.781 145.234 202.813 145.234 202.829 145.234C202.877 145.234 202.926 145.234 202.974 145.234C203.038 145.234 203.103 145.234 203.167 145.234C204.44 145.202 205.696 145.138 206.953 145.025C208.386 144.912 209.82 144.735 211.222 144.525C212.752 144.3 214.25 144.026 215.732 143.688C215.764 143.688 215.781 143.671 215.813 143.671V143.688L217.214 143.349C217.408 143.301 217.601 143.253 217.794 143.204C219.631 142.737 221.435 142.205 223.191 141.577C223.481 141.48 223.787 141.368 224.077 141.271C224.157 141.239 224.222 141.223 224.302 141.19C224.85 140.997 225.398 140.788 225.929 140.562C226.074 140.498 226.219 140.449 226.364 140.385C226.396 140.369 226.429 140.369 226.461 140.352C226.638 140.288 226.799 140.207 226.976 140.143C227.105 140.095 227.234 140.03 227.363 139.982C227.379 139.837 227.395 139.708 227.411 139.563C227.814 135.938 227.105 132.184 225.22 128.752Z" fill="#E2810E"/>
<path d="M223.77 129.558C222.369 127.012 220.484 124.934 218.277 123.339C218.196 123.291 218.132 123.226 218.051 123.178C217.858 123.033 217.649 122.904 217.455 122.775C217.375 122.727 217.294 122.678 217.214 122.63C217.02 122.501 216.811 122.388 216.602 122.276C216.489 122.211 216.376 122.147 216.279 122.098C216.086 121.986 215.877 121.889 215.667 121.776C215.458 121.663 215.248 121.567 215.023 121.47C214.83 121.373 214.62 121.293 214.411 121.212C214.346 121.18 214.266 121.148 214.185 121.116C214.024 121.051 213.879 121.003 213.718 120.938C213.589 120.89 213.46 120.842 213.315 120.793C213.251 120.777 213.17 120.745 213.106 120.729C212.655 120.584 212.22 120.455 211.753 120.342C211.56 120.294 211.35 120.246 211.141 120.197C210.706 120.101 210.255 120.02 209.804 119.956C209.771 119.956 209.723 119.939 209.691 119.939C209.481 119.907 209.288 119.891 209.079 119.859C208.998 119.843 208.918 119.843 208.837 119.843H208.773C208.757 119.843 208.757 119.843 208.724 119.827C208.467 119.794 208.177 119.778 207.919 119.778C207.709 119.762 207.516 119.762 207.307 119.762C206.823 119.762 206.34 119.778 205.857 119.811C205.776 119.811 205.712 119.827 205.631 119.827H205.599C205.583 119.827 205.583 119.827 205.567 119.843H205.519C204.874 119.907 204.262 120.004 203.618 120.133C203.408 120.165 203.215 120.213 203.006 120.262C201.862 120.536 200.734 120.906 199.623 121.389C199.413 121.486 199.22 121.567 199.011 121.679C198.978 121.696 198.946 121.712 198.898 121.728C198.64 121.857 198.398 121.986 198.157 122.114C196.417 123.065 194.903 124.257 193.598 125.611C193.566 125.643 193.534 125.675 193.501 125.707C193.485 125.723 193.485 125.723 193.469 125.74C191.874 127.447 190.634 129.413 189.764 131.524C189.764 131.524 189.764 131.524 189.764 131.54C188.991 133.425 188.54 135.422 188.395 137.453C188.33 138.387 188.346 139.338 188.427 140.288C188.507 141.319 188.685 142.35 188.942 143.382C189.007 143.639 189.071 143.897 189.152 144.155C189.313 144.187 189.458 144.203 189.603 144.235C190.038 144.316 190.473 144.38 190.908 144.445C190.924 144.445 190.924 144.445 190.94 144.445H190.956C190.988 144.445 191.021 144.461 191.053 144.461C191.165 144.477 191.278 144.493 191.407 144.509C191.455 144.509 191.504 144.525 191.552 144.525C191.6 144.542 191.665 144.542 191.713 144.558C191.874 144.59 192.051 144.606 192.213 144.622C192.792 144.703 193.372 144.767 193.952 144.832C194.113 144.848 194.275 144.864 194.436 144.88C194.532 144.896 194.645 144.896 194.742 144.912C194.983 144.944 195.241 144.96 195.483 144.977C195.579 144.993 195.692 144.993 195.789 145.009C195.837 145.009 195.885 145.025 195.934 145.025C196.095 145.041 196.256 145.057 196.417 145.057C196.449 145.057 196.481 145.057 196.514 145.057C196.868 145.089 197.239 145.105 197.593 145.122C197.754 145.138 197.915 145.138 198.076 145.154C198.205 145.17 198.334 145.17 198.463 145.17C198.495 145.17 198.511 145.17 198.543 145.17C198.753 145.186 198.962 145.186 199.172 145.202C199.333 145.202 199.494 145.218 199.655 145.218C199.832 145.218 200.025 145.234 200.203 145.234C200.364 145.234 200.525 145.234 200.686 145.25C200.863 145.25 201.024 145.25 201.201 145.25C201.362 145.25 201.524 145.25 201.685 145.25C201.781 145.25 201.862 145.25 201.959 145.25C202.055 145.25 202.152 145.25 202.248 145.25C202.313 145.25 202.377 145.25 202.442 145.25C202.506 145.25 202.571 145.25 202.635 145.25C202.732 145.25 202.812 145.25 202.909 145.25C202.925 145.25 202.957 145.25 202.973 145.25C203.022 145.25 203.07 145.25 203.118 145.25C203.183 145.25 203.247 145.25 203.312 145.25C204.584 145.218 205.841 145.154 207.097 145.041C208.531 144.928 209.965 144.751 211.366 144.542C212.897 144.316 214.395 144.042 215.877 143.704C215.909 143.704 215.925 143.688 215.957 143.688V143.704L217.359 143.365C217.552 143.317 217.745 143.269 217.939 143.22C219.775 142.753 221.579 142.221 223.335 141.593C223.625 141.496 223.931 141.384 224.221 141.287C224.302 141.255 224.366 141.239 224.447 141.206C224.994 141.013 225.542 140.804 226.074 140.578C226.396 136.872 225.687 133.038 223.77 129.558Z" fill="#FFB93E"/>
<path d="M222.401 130.557C221.241 128.462 219.711 126.706 217.939 125.304C217.778 125.176 217.601 125.047 217.44 124.918C217.359 124.853 217.278 124.805 217.198 124.757C217.005 124.612 216.795 124.483 216.586 124.354C216.473 124.289 216.36 124.209 216.264 124.144C216.07 124.015 215.861 123.903 215.651 123.79C215.442 123.677 215.233 123.564 215.007 123.452C214.798 123.355 214.604 123.258 214.395 123.162C214.169 123.065 213.944 122.968 213.718 122.872C213.525 122.791 213.316 122.71 213.106 122.646C213.09 122.63 213.058 122.63 213.042 122.63C212.752 122.533 212.446 122.437 212.156 122.34C212.027 122.308 211.898 122.259 211.769 122.227C211.576 122.179 211.366 122.114 211.157 122.082C210.674 121.969 210.19 121.873 209.707 121.808C209.514 121.776 209.304 121.76 209.095 121.728C209.031 121.728 208.966 121.712 208.918 121.712C208.789 121.695 208.66 121.695 208.531 121.679C208.096 121.647 207.677 121.631 207.243 121.631C207.033 121.631 206.84 121.631 206.63 121.647C205.567 121.679 204.52 121.824 203.473 122.05C203.264 122.098 203.07 122.147 202.861 122.195C201.717 122.501 200.573 122.92 199.478 123.484C199.301 123.58 199.124 123.677 198.946 123.774C198.93 123.79 198.898 123.806 198.882 123.806C197.948 124.322 197.062 124.934 196.256 125.594C196.208 125.643 196.143 125.691 196.095 125.723C195.918 125.868 195.741 126.029 195.58 126.191C195.37 126.384 195.177 126.577 194.967 126.771C193.614 128.14 192.503 129.735 191.681 131.507C191.681 131.507 191.681 131.507 191.681 131.523C191.665 131.54 191.665 131.556 191.665 131.572C191.295 132.345 190.989 133.167 190.747 134.005V134.037C190.731 134.053 190.731 134.053 190.715 134.085C190.441 134.987 190.231 135.97 190.135 136.888C190.119 137.033 190.103 137.178 190.086 137.324C190.038 137.807 190.022 138.306 190.022 138.79C190.022 140.24 190.199 141.674 190.57 143.075C190.586 143.14 190.602 143.188 190.618 143.252C190.715 143.623 190.827 143.978 190.94 144.332C191.053 144.348 191.166 144.364 191.295 144.38C191.343 144.38 191.391 144.396 191.44 144.396C191.488 144.413 191.552 144.413 191.601 144.429C191.762 144.461 191.939 144.477 192.1 144.493C192.036 144.332 191.971 144.155 191.923 143.994C191.842 143.752 191.762 143.51 191.681 143.252C191.617 143.011 191.552 142.817 191.488 142.576V142.511C191.085 140.82 190.956 139.08 191.117 137.324C191.214 136.292 191.407 135.261 191.697 134.246C191.826 133.827 191.955 133.408 192.116 132.99C192.326 132.442 192.551 131.91 192.825 131.395C192.825 131.395 192.825 131.395 192.825 131.378C193.405 130.218 194.13 129.139 194.967 128.172C195.161 127.947 195.37 127.721 195.58 127.512C196.24 126.819 196.981 126.174 197.77 125.611C197.835 125.562 197.899 125.514 197.964 125.482H197.98C198.286 125.272 198.576 125.063 198.898 124.886C199.075 124.773 199.269 124.66 199.462 124.563C199.478 124.547 199.494 124.547 199.51 124.547C200.606 123.951 201.733 123.484 202.893 123.162C203.102 123.097 203.296 123.049 203.505 123C204.552 122.743 205.615 122.614 206.679 122.565C206.872 122.565 207.081 122.549 207.275 122.549C207.452 122.549 207.645 122.549 207.822 122.565C208.016 122.565 208.193 122.582 208.386 122.598C208.628 122.614 208.886 122.63 209.127 122.662C209.337 122.678 209.53 122.71 209.723 122.743C210.207 122.823 210.69 122.92 211.173 123.033C211.286 123.065 211.399 123.097 211.528 123.129C211.608 123.145 211.705 123.178 211.785 123.21C211.995 123.274 212.22 123.339 212.43 123.403C212.671 123.484 212.897 123.564 213.138 123.661C213.348 123.742 213.541 123.822 213.751 123.903C213.976 123.999 214.202 124.112 214.427 124.225C214.637 124.322 214.83 124.434 215.039 124.531C215.249 124.644 215.474 124.773 215.684 124.902C215.893 125.031 216.086 125.159 216.296 125.288C216.409 125.369 216.521 125.433 216.618 125.514C216.682 125.562 216.763 125.611 216.827 125.659C218.712 127.012 220.323 128.801 221.515 130.96C223.303 134.214 223.915 137.887 223.303 141.48C223.593 141.384 223.899 141.271 224.189 141.174C224.27 141.142 224.334 141.126 224.415 141.094C224.898 137.549 224.221 133.843 222.401 130.557Z" fill="#FFA412"/>
<path d="M206.808 144.783C206.485 144.461 206.212 143.994 205.97 143.414L202.861 144.67C202.861 144.848 202.861 145.041 202.877 145.218C202.893 145.218 202.925 145.218 202.941 145.218C202.99 145.218 203.038 145.218 203.086 145.218C203.151 145.218 203.215 145.218 203.28 145.218C204.552 145.186 205.809 145.122 207.065 145.009C206.969 144.944 206.888 144.864 206.808 144.783ZM206.808 144.783C206.485 144.461 206.212 143.994 205.97 143.414L202.861 144.67C202.861 144.848 202.861 145.041 202.877 145.218C202.893 145.218 202.925 145.218 202.941 145.218C202.99 145.218 203.038 145.218 203.086 145.218C203.151 145.218 203.215 145.218 203.28 145.218C204.552 145.186 205.809 145.122 207.065 145.009C206.969 144.944 206.888 144.864 206.808 144.783ZM206.808 144.783C206.485 144.461 206.212 143.994 205.97 143.414L202.861 144.67C202.861 144.848 202.861 145.041 202.877 145.218C202.893 145.218 202.925 145.218 202.941 145.218C202.99 145.218 203.038 145.218 203.086 145.218C203.151 145.218 203.215 145.218 203.28 145.218C204.552 145.186 205.809 145.122 207.065 145.009C206.969 144.944 206.888 144.864 206.808 144.783ZM206.808 144.783C206.485 144.461 206.212 143.994 205.97 143.414L202.861 144.67C202.861 144.848 202.861 145.041 202.877 145.218C202.893 145.218 202.925 145.218 202.941 145.218C202.99 145.218 203.038 145.218 203.086 145.218C203.151 145.218 203.215 145.218 203.28 145.218C204.552 145.186 205.809 145.122 207.065 145.009C206.969 144.944 206.888 144.864 206.808 144.783ZM206.808 144.783C206.485 144.461 206.212 143.994 205.97 143.414L202.861 144.67C202.861 144.848 202.861 145.041 202.877 145.218C202.893 145.218 202.925 145.218 202.941 145.218C202.99 145.218 203.038 145.218 203.086 145.218C203.151 145.218 203.215 145.218 203.28 145.218C204.552 145.186 205.809 145.122 207.065 145.009C206.969 144.944 206.888 144.864 206.808 144.783ZM206.808 144.783C206.485 144.461 206.212 143.994 205.97 143.414L202.861 144.67C202.861 144.848 202.861 145.041 202.877 145.218C202.893 145.218 202.925 145.218 202.941 145.218C202.99 145.218 203.038 145.218 203.086 145.218C203.151 145.218 203.215 145.218 203.28 145.218C204.552 145.186 205.809 145.122 207.065 145.009C206.969 144.944 206.888 144.864 206.808 144.783ZM215.925 141.432C215.861 141.142 215.764 140.836 215.635 140.546C215.539 140.304 215.426 140.079 215.313 139.869C215.216 139.676 215.104 139.499 214.975 139.338C214.959 139.321 214.959 139.305 214.943 139.305C214.765 139.064 214.572 138.838 214.363 138.645C214.169 138.468 213.96 138.306 213.734 138.145C213.541 138.016 213.348 137.904 213.122 137.807C212.945 137.726 212.752 137.646 212.559 137.581C212.526 137.565 212.478 137.549 212.446 137.549C212.381 137.533 212.333 137.517 212.269 137.485C212.252 137.485 212.22 137.469 212.204 137.469C211.64 137.308 211.012 137.195 210.352 137.162C210.319 137.162 210.303 137.162 210.271 137.162C210.094 137.146 209.917 137.146 209.739 137.13C209.047 137.098 208.306 137.098 207.516 137.114C207.178 137.13 206.872 137.13 206.582 137.114C206.357 137.114 206.163 137.098 205.97 137.082C205.954 137.082 205.954 137.082 205.938 137.082C205.503 137.05 205.132 136.969 204.826 136.84C204.52 136.711 204.278 136.55 204.085 136.341C203.892 136.131 203.731 135.874 203.618 135.567C203.602 135.535 203.586 135.503 203.586 135.471C203.489 135.197 203.425 134.923 203.409 134.649C203.392 134.488 203.409 134.343 203.441 134.182C203.457 134.053 203.505 133.924 203.554 133.795C203.666 133.521 203.844 133.28 204.085 133.054C204.214 132.925 204.375 132.812 204.536 132.716C204.681 132.619 204.858 132.539 205.052 132.458C205.374 132.329 205.68 132.249 205.986 132.249C206.195 132.232 206.389 132.248 206.598 132.297C206.775 132.329 206.953 132.394 207.114 132.474C207.758 132.78 208.274 133.441 208.676 134.44L209.756 134.005L210.368 133.763L212.22 133.006L212.542 132.877C212.446 132.635 212.333 132.394 212.22 132.184V132.12C212.107 131.91 211.995 131.765 211.866 131.572C211.866 131.572 211.866 131.572 211.866 131.556C211.834 131.507 211.801 131.443 211.753 131.395C211.608 131.169 211.447 130.96 211.27 130.766C211.221 130.702 211.173 130.653 211.109 130.605C210.915 130.412 210.722 130.218 210.497 130.057C210.271 129.88 210.046 129.735 209.82 129.606C209.739 129.558 209.643 129.51 209.562 129.461C209.449 129.413 209.337 129.348 209.224 129.316C208.95 129.203 208.66 129.123 208.354 129.042C208.193 129.01 208.032 128.978 207.871 128.962C207.742 128.946 207.613 128.93 207.484 128.93C207.436 128.93 207.388 128.93 207.339 128.93C207.307 128.93 207.275 128.93 207.259 128.93C206.791 128.913 206.308 128.946 205.809 129.026C205.616 129.058 205.406 129.107 205.197 129.155C205.181 129.155 205.164 129.171 205.148 129.171L205.019 128.849L204.407 127.335L204.053 126.481L203.344 126.771L202.732 127.012L201.91 127.351L202.732 129.365L202.796 129.51L202.99 130.009C202.909 130.057 202.813 130.106 202.732 130.154C202.458 130.299 202.2 130.46 201.975 130.621C201.637 130.863 201.314 131.121 201.041 131.395C200.976 131.459 200.928 131.507 200.863 131.572C200.863 131.572 200.863 131.572 200.847 131.588C200.396 132.071 200.042 132.571 199.8 133.119C199.671 133.392 199.575 133.682 199.494 133.972C199.397 134.327 199.349 134.697 199.349 135.068C199.333 135.745 199.478 136.437 199.752 137.146C199.8 137.275 199.865 137.388 199.913 137.517C200.058 137.807 200.203 138.081 200.38 138.323C200.428 138.387 200.477 138.451 200.525 138.516C200.67 138.693 200.815 138.854 200.96 139.015L201.008 139.064C201.186 139.225 201.395 139.386 201.588 139.515C201.782 139.644 201.975 139.756 202.2 139.869C202.394 139.966 202.603 140.046 202.813 140.127C203.264 140.288 203.763 140.401 204.278 140.465C204.536 140.498 204.826 140.53 205.1 140.546C205.181 140.546 205.261 140.562 205.358 140.562C205.551 140.578 205.76 140.578 205.97 140.578C206.55 140.594 207.178 140.578 207.822 140.546C207.839 140.546 207.855 140.546 207.871 140.546C208.064 140.53 208.241 140.53 208.418 140.53C208.773 140.53 209.079 140.53 209.369 140.562C209.546 140.578 209.707 140.594 209.868 140.626C210.094 140.675 210.287 140.723 210.48 140.804C210.787 140.933 211.044 141.11 211.254 141.335C211.463 141.561 211.624 141.851 211.769 142.189C211.785 142.221 211.801 142.238 211.817 142.27V142.334C211.914 142.592 211.946 142.85 211.946 143.108C211.946 143.22 211.93 143.349 211.914 143.462C211.882 143.639 211.817 143.817 211.737 143.978C211.624 144.187 211.479 144.397 211.286 144.59C212.816 144.364 214.314 144.09 215.796 143.752C215.829 143.752 215.845 143.736 215.877 143.736C215.909 143.639 215.925 143.527 215.941 143.43C215.99 143.204 216.006 142.963 216.022 142.721C216.07 142.254 216.022 141.835 215.925 141.432ZM206.808 144.783C206.485 144.461 206.212 143.994 205.97 143.414L202.861 144.67C202.861 144.848 202.861 145.041 202.877 145.218C202.893 145.218 202.925 145.218 202.941 145.218C202.99 145.218 203.038 145.218 203.086 145.218C203.151 145.218 203.215 145.218 203.28 145.218C204.552 145.186 205.809 145.122 207.065 145.009C206.969 144.944 206.888 144.864 206.808 144.783ZM206.808 144.783C206.485 144.461 206.212 143.994 205.97 143.414L202.861 144.67C202.861 144.848 202.861 145.041 202.877 145.218C202.893 145.218 202.925 145.218 202.941 145.218C202.99 145.218 203.038 145.218 203.086 145.218C203.151 145.218 203.215 145.218 203.28 145.218C204.552 145.186 205.809 145.122 207.065 145.009C206.969 144.944 206.888 144.864 206.808 144.783ZM206.808 144.783C206.485 144.461 206.212 143.994 205.97 143.414L202.861 144.67C202.861 144.848 202.861 145.041 202.877 145.218C202.893 145.218 202.925 145.218 202.941 145.218C202.99 145.218 203.038 145.218 203.086 145.218C203.151 145.218 203.215 145.218 203.28 145.218C204.552 145.186 205.809 145.122 207.065 145.009C206.969 144.944 206.888 144.864 206.808 144.783ZM206.808 144.783C206.485 144.461 206.212 143.994 205.97 143.414L202.861 144.67C202.861 144.848 202.861 145.041 202.877 145.218C202.893 145.218 202.925 145.218 202.941 145.218C202.99 145.218 203.038 145.218 203.086 145.218C203.151 145.218 203.215 145.218 203.28 145.218C204.552 145.186 205.809 145.122 207.065 145.009C206.969 144.944 206.888 144.864 206.808 144.783ZM206.808 144.783C206.485 144.461 206.212 143.994 205.97 143.414L202.861 144.67C202.861 144.848 202.861 145.041 202.877 145.218C202.893 145.218 202.925 145.218 202.941 145.218C202.99 145.218 203.038 145.218 203.086 145.218C203.151 145.218 203.215 145.218 203.28 145.218C204.552 145.186 205.809 145.122 207.065 145.009C206.969 144.944 206.888 144.864 206.808 144.783ZM206.808 144.783C206.485 144.461 206.212 143.994 205.97 143.414L202.861 144.67C202.861 144.848 202.861 145.041 202.877 145.218C202.893 145.218 202.925 145.218 202.941 145.218C202.99 145.218 203.038 145.218 203.086 145.218C203.151 145.218 203.215 145.218 203.28 145.218C204.552 145.186 205.809 145.122 207.065 145.009C206.969 144.944 206.888 144.864 206.808 144.783ZM206.808 144.783C206.485 144.461 206.212 143.994 205.97 143.414L202.861 144.67L202.104 144.977C202.136 145.057 202.168 145.154 202.217 145.234C202.281 145.234 202.345 145.234 202.41 145.234C202.474 145.234 202.539 145.234 202.603 145.234C202.7 145.234 202.78 145.234 202.877 145.234C202.893 145.234 202.925 145.234 202.941 145.234C202.99 145.234 203.038 145.234 203.086 145.234C203.151 145.234 203.215 145.234 203.28 145.234C204.552 145.202 205.809 145.138 207.065 145.025C206.969 144.944 206.888 144.864 206.808 144.783Z" fill="#FFA412"/>
</g>
<defs>
<clipPath id="clip0">
<rect width="403" height="187.859" fill="white" transform="translate(0 0.570557)"/>
</clipPath>
</defs>
</svg>
