<svg width="47" height="8" viewBox="0 0 47 8" fill="none" xmlns="http://www.w3.org/2000/svg">
<path opacity="0.35" d="M29.8436 1.93962C29.8436 1.11025 30.516 0.437917 31.3453 0.437917H42.8969C43.7263 0.437917 44.3986 1.11025 44.3986 1.93962V6.09819C44.3986 6.92756 43.7263 7.59989 42.8969 7.59989H31.3453C30.516 7.59989 29.8436 6.92756 29.8436 6.09819V1.93962Z" stroke="#4F4F4F" stroke-width="0.693095"/>
<path opacity="0.4" d="M45.4385 2.63272V5.4051C45.9962 5.1703 46.3589 4.62407 46.3589 4.01891C46.3589 3.41375 45.9962 2.86753 45.4385 2.63272Z" fill="#4F4F4F"/>
<path d="M30.8828 2.40167C30.8828 1.89129 31.2966 1.47754 31.8069 1.47754H42.4344C42.9448 1.47754 43.3585 1.89128 43.3585 2.40167V5.63611C43.3585 6.14649 42.9448 6.56023 42.4344 6.56023H31.8069C31.2966 6.56023 30.8828 6.14649 30.8828 5.63611V2.40167Z" fill="#4F4F4F"/>
<path fill-rule="evenodd" clip-rule="evenodd" d="M20.7157 1.66791C22.2516 1.66798 23.7287 2.25811 24.8417 3.31632C24.9256 3.39802 25.0595 3.39699 25.1421 3.31401L25.9433 2.5054C25.9851 2.46331 26.0084 2.40631 26.008 2.34699C26.0077 2.28768 25.9837 2.23094 25.9414 2.18935C23.02 -0.610439 18.411 -0.610439 15.4896 2.18935C15.4473 2.23091 15.4232 2.28763 15.4229 2.34694C15.4225 2.40626 15.4457 2.46328 15.4875 2.5054L16.2889 3.31401C16.3714 3.39711 16.5055 3.39815 16.5893 3.31632C17.7025 2.25804 19.1798 1.66791 20.7157 1.66791ZM20.7159 4.29866C21.5597 4.29861 22.3734 4.61225 22.9989 5.17866C23.0835 5.25904 23.2168 5.2573 23.2993 5.17473L24.0996 4.36612C24.1417 4.32371 24.1651 4.26617 24.1645 4.20638C24.1639 4.14659 24.1393 4.08954 24.0963 4.04799C22.1916 2.27617 19.2418 2.27617 17.337 4.04799C17.294 4.08954 17.2695 4.14662 17.2689 4.20643C17.2683 4.26623 17.2918 4.32377 17.334 4.36612L18.1341 5.17473C18.2166 5.2573 18.3498 5.25904 18.4344 5.17866C19.0595 4.61263 19.8726 4.29901 20.7159 4.29866ZM22.319 6.06869C22.3203 6.12865 22.2967 6.18646 22.2539 6.22846L20.8696 7.62551C20.829 7.66657 20.7737 7.68967 20.7159 7.68967C20.6582 7.68967 20.6029 7.66657 20.5623 7.62551L19.1777 6.22846C19.1349 6.18642 19.1114 6.1286 19.1127 6.06864C19.114 6.00869 19.1399 5.95191 19.1844 5.91172C20.0685 5.16395 21.3633 5.16395 22.2474 5.91172C22.2919 5.95194 22.3178 6.00874 22.319 6.06869Z" fill="#4F4F4F"/>
<path fill-rule="evenodd" clip-rule="evenodd" d="M11.2458 0.322327H10.5527C10.1699 0.322327 9.85957 0.632636 9.85957 1.01542V7.02224C9.85957 7.40503 10.1699 7.71534 10.5527 7.71534H11.2458C11.6285 7.71534 11.9389 7.40503 11.9389 7.02224V1.01542C11.9389 0.632636 11.6285 0.322327 11.2458 0.322327ZM7.31817 1.93954H8.01127C8.39405 1.93954 8.70436 2.24985 8.70436 2.63264V7.02224C8.70436 7.40502 8.39405 7.71533 8.01127 7.71533H7.31817C6.93539 7.71533 6.62508 7.40502 6.62508 7.02224V2.63264C6.62508 2.24985 6.93539 1.93954 7.31817 1.93954ZM4.77694 3.55677H4.08384C3.70106 3.55677 3.39075 3.86708 3.39075 4.24987V7.02224C3.39075 7.40503 3.70106 7.71534 4.08384 7.71534H4.77694C5.15972 7.71534 5.47003 7.40503 5.47003 7.02224V4.24987C5.47003 3.86708 5.15972 3.55677 4.77694 3.55677ZM1.54244 4.94296H0.849345C0.466559 4.94296 0.15625 5.25327 0.15625 5.63606V7.02224C0.15625 7.40503 0.466559 7.71534 0.849345 7.71534H1.54244C1.92523 7.71534 2.23553 7.40503 2.23553 7.02224V5.63606C2.23553 5.25327 1.92523 4.94296 1.54244 4.94296Z" fill="#4F4F4F"/>
</svg>
