<svg width="21" height="9" viewBox="0 0 21 9" fill="none" xmlns="http://www.w3.org/2000/svg">
<path d="M3.4733 8.08206C5.33633 8.08206 6.44298 6.62514 6.44298 4.15802C6.44298 3.22904 6.2653 2.44728 5.92519 1.84319C5.43278 0.904061 4.58502 0.396423 3.51391 0.396423C1.91992 0.396423 0.792969 1.46754 0.792969 2.97015C0.792969 4.38138 1.80824 5.40681 3.20425 5.40681C4.06216 5.40681 4.75762 5.00577 5.10281 4.31031H5.11804C5.11804 4.31031 5.13835 4.31031 5.14342 4.31031C5.15358 4.31031 5.18911 4.31031 5.18911 4.31031C5.18911 5.98551 4.55456 6.98556 3.48345 6.98556C2.85398 6.98556 2.36665 6.64037 2.19913 6.08704H0.894496C1.11278 7.29014 2.13313 8.08206 3.4733 8.08206ZM3.51898 4.36615C2.6763 4.36615 2.07729 3.76714 2.07729 2.92954C2.07729 2.11224 2.70676 1.48784 3.52406 1.48784C4.34136 1.48784 4.97083 2.12239 4.97083 2.94984C4.97083 3.76714 4.35659 4.36615 3.51898 4.36615Z" fill="#4F4F4F"/>
<path d="M8.58541 8.01099C9.06767 8.01099 9.39763 7.66579 9.39763 7.20892C9.39763 6.74697 9.06767 6.40685 8.58541 6.40685C8.10823 6.40685 7.77319 6.74697 7.77319 7.20892C7.77319 7.66579 8.10823 8.01099 8.58541 8.01099ZM8.58541 4.20371C9.06767 4.20371 9.39763 3.86359 9.39763 3.40671C9.39763 2.94476 9.06767 2.60465 8.58541 2.60465C8.10823 2.60465 7.77319 2.94476 7.77319 3.40671C7.77319 3.86359 8.10823 4.20371 8.58541 4.20371Z" fill="#4F4F4F"/>
<path d="M14.1493 7.90438H15.4032V6.53884H16.3931V5.43219H15.4032V0.579173H13.5554C12.2609 2.5285 11.2304 4.15802 10.5705 5.37127V6.53884H14.1493V7.90438ZM11.7837 5.3865C12.6366 3.88389 13.398 2.68079 14.0986 1.64521H14.1696V5.46265H11.7837V5.3865Z" fill="#4F4F4F"/>
<path d="M19.1853 7.90438H20.495V0.579173H19.1904L17.2766 1.91934V3.17828L19.099 1.89903H19.1853V7.90438Z" fill="#4F4F4F"/>
</svg>
