<svg width="105" height="13" viewBox="0 0 105 13" fill="none" xmlns="http://www.w3.org/2000/svg">
<path d="M4.98408 0.810327H6.79348L11.6789 12.3247H9.82012L8.86607 9.92314H2.91149L1.95744 12.3247H0.0986947L4.98408 0.810327ZM3.45431 8.59076H8.32325L5.92168 2.73487H5.85588L3.45431 8.59076ZM16.5174 3.85341C17.8662 3.85341 18.9189 4.42365 19.6756 5.56412H19.7414V0.431997H21.2711V12.3247H20.3829L19.8894 10.5647H19.8236C19.4837 11.1788 19.0231 11.6613 18.4419 12.0122C17.8607 12.3631 17.2192 12.5385 16.5174 12.5385C15.4098 12.5385 14.4831 12.1328 13.7375 11.3213C12.9918 10.4989 12.6134 9.45708 12.6025 8.19598C12.6025 6.93488 12.9753 5.89859 13.721 5.0871C14.4667 4.26464 15.3988 3.85341 16.5174 3.85341ZM14.9711 10.285C15.5085 10.8224 16.1719 11.091 16.9615 11.091C17.751 11.091 18.409 10.8224 18.9354 10.285C19.4727 9.73671 19.7414 9.04037 19.7414 8.19598C19.7414 7.35159 19.4727 6.65525 18.9354 6.10694C18.398 5.55864 17.7346 5.28449 16.945 5.28449C16.1664 5.28449 15.5085 5.55864 14.9711 6.10694C14.4338 6.65525 14.1651 7.35159 14.1651 8.19598C14.1651 9.04037 14.4338 9.73671 14.9711 10.285ZM37.2692 0.810327H38.9964L35.5256 12.3247H33.601L31.0021 3.68892H30.9363L28.3373 12.3247H26.4292L22.942 0.810327H24.6692L27.3504 10.0218H27.4162L30.1467 0.810327H31.8081L34.5222 10.0218H34.588L37.2692 0.810327ZM40.7415 12.3247V4.0508H42.2713V12.3247H40.7415ZM40.7415 0.547141C40.9499 0.338786 41.2021 0.234608 41.4982 0.234608C41.7942 0.234608 42.041 0.338786 42.2384 0.547141C42.4467 0.744531 42.5509 0.991267 42.5509 1.28735C42.5509 1.58344 42.4467 1.83565 42.2384 2.04401C42.041 2.2414 41.7942 2.34009 41.4982 2.34009C41.2021 2.34009 40.9499 2.23592 40.7415 2.02756C40.5441 1.81921 40.4454 1.57247 40.4454 1.28735C40.4454 1.00223 40.5441 0.755497 40.7415 0.547141ZM51.1726 10.1041C51.1726 10.8278 50.882 11.4145 50.3007 11.8641C49.7195 12.3137 48.9629 12.5385 48.0308 12.5385C46.6819 12.5385 45.4483 12.1876 44.3297 11.4858L44.7738 10.285C45.695 10.9539 46.7477 11.2884 47.9321 11.2884C48.4584 11.2884 48.8752 11.1842 49.1822 10.9759C49.5002 10.7675 49.6592 10.4879 49.6592 10.137C49.6592 9.78606 49.5167 9.51739 49.2316 9.33097C48.9574 9.13358 48.4365 8.94716 47.6689 8.7717C46.66 8.54141 45.9088 8.22888 45.4154 7.8341C44.9329 7.43932 44.6916 6.90198 44.6916 6.22209C44.6916 5.54219 44.9712 4.97744 45.5305 4.52783C46.0898 4.07822 46.9013 3.85341 47.965 3.85341C48.4694 3.85341 49.0013 3.93018 49.5605 4.0837C50.1308 4.23723 50.5804 4.39623 50.9094 4.56072L50.5639 5.72861C49.7744 5.30093 48.9081 5.0871 47.965 5.0871C47.4167 5.0871 46.989 5.19676 46.6819 5.41608C46.3749 5.6354 46.2214 5.90407 46.2214 6.22209C46.2214 6.52914 46.3694 6.78136 46.6655 6.97874C46.9616 7.17613 47.4879 7.36256 48.2446 7.53801C49.2754 7.77927 50.0211 8.09728 50.4817 8.49206C50.9423 8.88684 51.1726 9.42418 51.1726 10.1041ZM54.0581 5.07065C54.8915 4.25916 55.9442 3.85341 57.2163 3.85341C58.4884 3.85341 59.5247 4.25916 60.3252 5.07065C61.1367 5.87117 61.5424 6.91295 61.5424 8.19598C61.5424 8.27274 61.5315 8.48658 61.5095 8.83749H54.4529C54.5954 9.52836 54.9518 10.0767 55.5221 10.4824C56.1033 10.8882 56.8435 11.091 57.7427 11.091C58.8941 11.091 59.8372 10.8169 60.5719 10.2686L60.868 11.6503C60.0675 12.2425 59.0257 12.5385 57.7427 12.5385C56.2403 12.5385 55.045 12.1383 54.1568 11.3378C53.2685 10.5372 52.8244 9.48998 52.8244 8.19598C52.8244 6.92391 53.2356 5.88214 54.0581 5.07065ZM54.4529 7.43932H59.9798C59.9249 6.82522 59.6343 6.3153 59.108 5.90955C58.5816 5.49284 57.951 5.28449 57.2163 5.28449C56.5255 5.28449 55.9278 5.48188 55.4234 5.87665C54.9299 6.26047 54.6064 6.78136 54.4529 7.43932ZM74.3391 11.0252C75.008 11.0252 75.6605 10.921 76.2965 10.7127C76.9435 10.5043 77.4863 10.2302 77.925 9.89024L78.2046 11.3871C77.108 12.1547 75.8085 12.5385 74.3062 12.5385C72.4419 12.5385 70.9231 12.0012 69.7498 10.9265C68.5764 9.84089 67.9897 8.42078 67.9897 6.66621C67.9897 4.91164 68.5764 3.46412 69.7498 2.32365C70.9341 1.17221 72.4529 0.596488 74.3062 0.596488C75.5782 0.596488 76.7352 0.881606 77.7769 1.45184L77.3657 2.98161C76.4665 2.40041 75.4412 2.10981 74.2897 2.10981C72.908 2.10981 71.784 2.54845 70.9177 3.42574C70.0623 4.29206 69.6346 5.37221 69.6346 6.66621C69.6346 7.97117 70.0733 9.02392 70.9506 9.82444C71.8278 10.625 72.9573 11.0252 74.3391 11.0252ZM87.1099 7.29128C87.8336 7.5106 88.3271 8.02052 88.5903 8.82105L89.7746 12.3247H87.9652L86.7973 8.98554C86.5342 8.19598 85.8707 7.8012 84.807 7.8012H81.7639V12.3247H80.119V0.810327H85.4321C86.5835 0.810327 87.5156 1.11738 88.2284 1.73148C88.9522 2.33461 89.3141 3.1461 89.3141 4.16595C89.3141 4.88971 89.1167 5.51477 88.7219 6.04115C88.3271 6.56752 87.7898 6.9623 87.1099 7.22548V7.29128ZM85.2511 6.46882C85.953 6.46882 86.5287 6.27692 86.9783 5.8931C87.4279 5.49832 87.6527 4.99389 87.6527 4.37978C87.6527 3.76568 87.4279 3.27221 86.9783 2.89936C86.5287 2.51555 85.953 2.32365 85.2511 2.32365H81.7639V6.46882H85.2511ZM93.6587 3.47508V12.3247H92.0138V0.810327H94.1028L98.0506 9.6435H98.1164L102.064 0.810327H104.153V12.3247H102.525V3.47508H102.459L98.5605 12.3247H97.6229L93.7245 3.47508H93.6587Z" fill="#25233E"/>
</svg>
