<svg width="50" height="50" viewBox="0 0 50 50" fill="none" xmlns="http://www.w3.org/2000/svg">
<circle cx="25" cy="25" r="25" fill="#ED1C24"/>
<path d="M17.0353 19.8384C15.6871 19.8384 14.5239 20.42 13.7044 21.451V20.0499H9.55401V33.2677H14.1009V27.2404C14.1009 24.9141 15.2376 24.0681 17.2467 24.0681H18.3306V20.0499C17.9341 19.9178 17.5111 19.8384 17.0353 19.8384ZM40.4474 13.441H35.9005V20.9752C35.081 20.1557 33.9707 19.7327 32.5168 19.7327C28.8158 19.7327 26.1723 22.6406 26.1723 26.6853C26.1723 30.7035 28.8158 33.5849 32.5168 33.5849C34.1822 33.5849 35.4511 33.0298 36.2971 31.9195V33.2677H40.4474V13.441ZM33.4156 23.8566C34.6845 23.8566 35.9798 24.7819 35.9798 26.6853C35.9798 28.615 34.6845 29.461 33.4156 29.461C32.0409 29.461 30.8249 28.5093 30.8249 26.6588C30.8249 24.8083 32.0938 23.8566 33.4156 23.8566Z" fill="white"/>
<path d="M22.4353 19.7327C18.47 19.7327 15.3771 22.7199 15.3771 26.6588C15.3771 30.5977 18.4436 33.5849 22.8054 33.5849C24.7352 33.5849 26.5064 33.0033 28.0661 31.8137L26.4271 28.7208C25.3432 29.3817 24.233 29.7518 22.9641 29.7518C21.5101 29.7518 20.5055 29.2759 20.0033 28.2449H28.4626C28.6477 27.6369 28.7534 26.8174 28.7534 25.9979C28.7534 22.6142 26.3478 19.7327 22.4353 19.7327ZM22.2503 23.3015C23.4135 23.3015 24.3651 24.0417 24.4444 25.2842H19.8447C20.2412 24.0153 21.1136 23.3015 22.2503 23.3015Z" fill="#FFD9D9"/>
</svg>
