<svg width="28" height="21" viewBox="0 0 28 21" fill="none" xmlns="http://www.w3.org/2000/svg">
<path d="M7.65751 11.549L3.93265 6.28938C3.38025 5.51486 2.50858 5.09976 1.62678 5.09976C1.06425 5.09976 0.491581 5.26681 0 5.61611L6.6034 14.9356L7.63217 16.3834L7.65244 16.4138C7.65751 16.4087 7.65751 16.4087 7.66258 16.4087C7.67272 16.3986 7.68285 16.3935 7.69299 16.3834L8.72176 14.9356C8.96502 14.1307 8.84845 13.2246 8.32647 12.4855L7.65751 11.549Z" fill="#ED8E00"/>
<path d="M9.73084 10.4705L10.7596 11.9183L10.7799 11.9436L10.8002 11.9183L11.8239 10.4705L11.8745 10.3997L14.003 7.39272L16.1315 10.3997L16.1822 10.4705L17.2059 11.9183L17.2262 11.9436L17.2465 11.9183L18.2752 10.4705L18.3259 10.3997L24.8736 1.14598C24.3769 0.796691 23.8093 0.629639 23.2417 0.629639C22.3548 0.629639 21.4832 1.04474 20.9359 1.81925L17.2262 7.05862L15.7312 4.94769L14.003 2.50771L12.2749 4.94769L10.7748 7.05862L7.06009 1.81925C6.50769 1.04474 5.63603 0.629639 4.75422 0.629639C4.19169 0.629639 3.61902 0.796691 3.12744 1.14598L9.68016 10.3946L9.73084 10.4705Z" fill="#8152E4"/>
<path d="M26.3731 5.09454C25.4863 5.09454 24.6146 5.50964 24.0673 6.28416L20.3424 11.5438L19.6785 12.4803C19.1514 13.2194 19.0349 14.1255 19.2832 14.9304L20.312 16.3782C20.3221 16.3883 20.3323 16.3933 20.3424 16.4035C20.3475 16.4035 20.3475 16.4085 20.3525 16.4085L20.3728 16.3782L21.4016 14.9304L27.9999 5.61595C27.5033 5.2616 26.9357 5.09454 26.3731 5.09454Z" fill="#ED8E00"/>
<path d="M17.241 16.0896L15.7612 13.9989L14.033 11.5589L14.0026 11.5994L13.9722 11.5589L12.2441 13.9989L10.7643 16.0896L10.1004 17.0261C9.57332 17.7651 9.45676 18.6713 9.70509 19.4762L10.7339 20.924C10.744 20.9341 10.7541 20.9391 10.7643 20.9493C10.7693 20.9543 10.7693 20.9543 10.7744 20.9543L10.7947 20.924L11.8234 19.4762L13.9773 16.4388L14.0077 16.3984L14.0381 16.4388L16.1919 19.4762L17.2207 20.924L17.241 20.9543C17.246 20.9493 17.246 20.9493 17.2511 20.9493C17.2612 20.9391 17.2714 20.9341 17.2815 20.924L18.3103 19.4762C18.5535 18.6713 18.437 17.7651 17.915 17.0261L17.241 16.0896Z" fill="#8152E4"/>
</svg>
