<svg width="193" height="138" viewBox="0 0 193 138" fill="none" xmlns="http://www.w3.org/2000/svg">
<g clip-path="url(#clip0)">
<g clip-path="url(#clip1)">
<path d="M90.5327 162.188C89.7754 161.565 88.8667 161.851 86.2585 160.638C85.7536 160.402 84.4242 160.031 83.8353 159.913C83.7175 159.896 83.6333 159.812 83.5997 159.694C82.8088 156.694 79.3254 142.789 78.9552 138.795C78.5682 134.699 75.9263 117.322 75.5224 114.693C75.4887 114.508 75.3205 114.407 75.1354 114.44L67.5629 116.564C67.4114 116.614 67.3105 116.766 67.3441 116.918C67.8153 118.991 70.7265 131.986 71.5847 138.559C72.2746 143.8 80.0659 160.621 80.2173 161.7C80.2173 161.716 80.2173 161.716 80.2173 161.733C80.2678 162.054 80.537 162.29 80.8736 162.29C82.792 162.29 88.9677 162.29 89.3211 162.29C89.6576 162.306 90.7683 162.391 90.5327 162.188Z" fill="#ED975D"/>
<path d="M73.671 108.07C69.6324 95.8165 65.1226 96.339 65.1226 96.339L68.6059 122.109C71.0964 121.435 74.3441 119.901 76.8346 119.21C76.0101 115.317 74.6639 111.086 73.671 108.07Z" fill="#50348C"/>
<path d="M72.4093 76.1981C71.1808 68.1417 63.8945 62.3438 56.2883 66.254C54.5719 67.1305 52.2497 68.917 51.0718 70.4339C47.8745 74.5463 47.0499 79.6195 43.7517 83.6139C44.9633 84.5409 46.4273 85.5016 48.1774 86.4286L50.2304 83.6814L49.5236 87.1028C54.6392 89.5467 61.8583 91.5692 71.7193 91.5186C72.9814 85.9398 73.0655 80.4959 72.4093 76.1981Z" fill="#ED8E00"/>
<path d="M54.8078 94.1312C54.8078 94.1312 48.2618 93.2717 45.317 96.4908C42.3721 99.71 50.9543 125.531 51.4928 129.626C52.0313 133.722 48.7667 144.61 48.7667 144.61C48.7667 144.61 66.217 148.132 71.2148 144.829C71.2148 144.829 71.7533 115.384 71.2148 112.469C70.6764 109.536 66.2338 97.6538 65.1569 96.4908C64.0799 95.311 54.8078 94.1312 54.8078 94.1312Z" fill="#8152E4"/>
<path d="M57.2813 84.1699C57.2813 84.1699 57.2477 84.389 57.1804 84.7598C56.8438 86.5464 55.5649 92.4959 54.7067 94.1308C53.6634 96.1027 58.2742 102.406 62.6999 101.648C64.0124 101.412 61.5892 95.8499 61.707 95.26C61.9258 94.1308 62.2287 92.5971 62.5484 91.0128C62.7167 90.1195 62.9018 89.2262 63.0701 88.3666C63.5412 85.9565 63.9283 83.9845 63.9283 83.9845L57.2813 84.1699Z" fill="#FFB27D"/>
<path opacity="0.5" d="M57.1641 84.7599C57.2314 84.3891 57.265 84.17 57.265 84.17L63.912 84.0015C63.912 84.0015 63.5249 85.9735 63.0538 88.3836C62.8855 89.2263 62.7172 90.1196 62.5321 91.0129C61.5056 90.8612 60.4286 90.3556 59.3517 89.4117C58.1737 88.3836 57.4165 87.1364 56.9453 85.8218C57.0463 85.4004 57.1136 85.0465 57.1641 84.7599Z" fill="#ED975D"/>
<path d="M61.7409 69.0015C61.7409 69.0015 58.611 68.6307 56.6421 71.1926C54.6733 73.7376 52.5698 81.6253 57.433 85.9063C62.313 90.1873 67.1258 85.3333 67.8494 80.1927C68.573 75.0522 68.859 68.8161 61.7409 69.0015Z" fill="#FFB27D"/>
<path d="M69.2967 80.1252C68.7078 81.2544 67.7318 81.8949 67.1091 81.5241C66.4865 81.1701 66.4529 79.9566 67.0418 78.8105C67.6308 77.6813 68.6068 77.0408 69.2294 77.4116C69.852 77.7824 69.8857 78.9959 69.2967 80.1252Z" fill="#FFB27D"/>
<path d="M62.0944 68.1589C62.0944 68.1589 57.9043 75.659 54.909 75.9961C51.9136 76.3501 51.5266 80.3277 51.5266 80.3277C51.5266 80.3277 52.6036 71.1421 55.5653 69.3724C58.5269 67.6196 62.0944 68.1589 62.0944 68.1589Z" fill="#ED8E00"/>
<path d="M55.6985 77.8835C55.9341 79.215 55.4461 80.4285 54.6047 80.6139C53.7633 80.7824 52.8715 79.8554 52.6359 78.5239C52.4003 77.1925 52.8883 75.9789 53.7297 75.7935C54.5711 75.625 55.4629 76.552 55.6985 77.8835Z" fill="#FFB27D"/>
<path d="M59.3853 82.7208L63.9119 83.614C63.9119 83.614 63.4744 85.3163 61.4719 84.9792C59.0319 84.5747 59.3853 82.7208 59.3853 82.7208Z" fill="white"/>
<path d="M12.1495 119.986C11.8803 119.328 15.0944 118.587 15.229 117.896C15.3636 117.205 11.0726 117.424 10.8706 116.834C10.5173 115.755 15.5656 116.311 15.431 115.806C15.2963 115.3 10.1302 114.474 10.6351 113.547C11.1231 112.637 15.9021 114.963 16.0031 114.356C16.1041 113.749 11.3755 112.586 11.3755 111.272C11.3755 110.564 19.2172 114.289 20.0754 113.851C20.9336 113.412 18.8975 110.227 19.5706 109.704C20.2437 109.165 22.7005 116.227 23.1885 116.446C23.6765 116.648 34.2948 121.873 37.9969 122.564C38.3671 121.317 41.1437 114.626 41.4634 113.446C43.6005 114.778 45.9901 114.946 48.1777 116.143C46.8819 120.07 42.2207 129.862 41.1942 130.401C38.0474 132.07 24.8545 122.446 22.2293 120.811C19.6042 119.176 18.2075 119.851 16.4911 119.396C14.7578 118.941 12.4356 120.643 12.1495 119.986Z" fill="#FFB27D"/>
<path d="M47.2008 123.019C47.2008 123.019 53.9655 109.401 54.1674 104.665C54.3694 99.9291 49.6576 94.62 45.5517 95.5301C41.4626 96.4403 38.1812 118.334 38.1812 118.334L47.2008 123.019Z" fill="#50348C"/>
<path d="M63.6928 5.25836H5.1661C2.30539 5.25836 0 7.58425 0 10.4495V44.7142C0 47.5794 2.30539 49.9053 5.1661 49.9053H46.1079C48.733 53.5964 53.5121 60.2032 53.9328 60.2032C54.3198 60.2032 53.5625 53.9672 53.0409 49.9053H63.6928C66.5535 49.9053 68.8589 47.5794 68.8589 44.7142V10.4495C68.8589 7.58425 66.5367 5.25836 63.6928 5.25836Z" fill="#ED8E00"/>
<path d="M26.0493 17.5621H7.21908C7.13494 17.5621 7.06763 17.4947 7.06763 17.4104V15.3542C7.06763 15.2699 7.13494 15.2025 7.21908 15.2025H26.0493C26.1334 15.2025 26.2007 15.2699 26.2007 15.3542V17.4104C26.2007 17.4947 26.1334 17.5621 26.0493 17.5621Z" fill="white"/>
<path d="M18.5946 25.2139H7.21908C7.13494 25.2139 7.06763 25.1465 7.06763 25.0622V23.006C7.06763 22.9217 7.13494 22.8543 7.21908 22.8543H18.5946C18.6787 22.8543 18.746 22.9217 18.746 23.006V25.0622C18.746 25.1633 18.6787 25.2139 18.5946 25.2139Z" fill="white"/>
<path d="M35.5562 25.2139H22.0604C21.9762 25.2139 21.9089 25.1465 21.9089 25.0622V23.006C21.9089 22.9217 21.9762 22.8543 22.0604 22.8543H35.5562C35.6403 22.8543 35.7076 22.9217 35.7076 23.006V25.0622C35.7076 25.1633 35.6403 25.2139 35.5562 25.2139Z" fill="white"/>
<path d="M61.5389 25.2139H39.6124C39.5282 25.2139 39.4609 25.1465 39.4609 25.0622V23.006C39.4609 22.9217 39.5282 22.8543 39.6124 22.8543H61.5389C61.623 22.8543 61.6903 22.9217 61.6903 23.006V25.0622C61.6735 25.1633 61.623 25.2139 61.5389 25.2139Z" fill="white"/>
<path d="M61.6231 17.5621H32.4102C32.3261 17.5621 32.2588 17.4947 32.2588 17.4104V15.3542C32.2588 15.2699 32.3261 15.2025 32.4102 15.2025H61.64C61.7241 15.2025 61.7914 15.2699 61.7914 15.3542V17.4104C61.7746 17.4947 61.7073 17.5621 61.6231 17.5621Z" fill="white"/>
<path d="M61.623 40.231H7.21908C7.13494 40.231 7.06763 40.1636 7.06763 40.0793V38.0231C7.06763 37.9388 7.13494 37.8714 7.21908 37.8714H61.623C61.7071 37.8714 61.7745 37.9388 61.7745 38.0231V40.0793C61.7745 40.1636 61.7071 40.231 61.623 40.231Z" fill="white"/>
<path d="M31.7539 32.8153H7.21908C7.13494 32.8153 7.06763 32.7479 7.06763 32.6636V30.6074C7.06763 30.5231 7.13494 30.4557 7.21908 30.4557H31.737C31.8212 30.4557 31.8885 30.5231 31.8885 30.6074V32.6636C31.8885 32.7479 31.8212 32.8153 31.7539 32.8153Z" fill="white"/>
<path d="M61.623 32.8153H36.8863C36.8022 32.8153 36.7349 32.7479 36.7349 32.6636V30.6074C36.7349 30.5231 36.8022 30.4557 36.8863 30.4557H61.6398C61.724 30.4557 61.7913 30.5231 61.7913 30.6074V32.6636C61.7744 32.7479 61.7071 32.8153 61.623 32.8153Z" fill="white"/>
<path d="M133.055 0H187.072C189.933 0 192.239 2.32589 192.239 5.19111V39.4558C192.239 42.321 189.933 44.6469 187.072 44.6469H150.624C147.998 48.338 143.219 54.9449 142.799 54.9449C142.412 54.9449 143.169 48.7088 143.691 44.6469H133.039C130.178 44.6469 127.873 42.321 127.873 39.4558V5.19111C127.889 2.32589 130.212 0 133.055 0Z" fill="#8152E4"/>
<path d="M186.231 17.6129H172.769H159.963C159.879 17.6129 159.812 17.6803 159.812 17.7646V19.7871C159.812 19.8714 159.879 19.9388 159.963 19.9388H172.769H173.426H186.231C186.316 19.9388 186.383 19.8714 186.383 19.7871V17.7646C186.4 17.6803 186.332 17.6129 186.231 17.6129Z" fill="white"/>
<path d="M133.982 19.9553H155.908C155.992 19.9553 156.06 19.8879 156.06 19.8036V17.7474C156.06 17.6632 155.992 17.5957 155.908 17.5957H133.982C133.898 17.5957 133.83 17.6632 133.83 17.7474V19.8036C133.847 19.8879 133.898 19.9553 133.982 19.9553Z" fill="white"/>
<path d="M133.898 12.3037H163.128C163.212 12.3037 163.279 12.2363 163.279 12.1521V10.0958C163.279 10.0116 163.212 9.94415 163.128 9.94415H133.898C133.814 9.94415 133.746 10.0116 133.746 10.0958V12.1521C133.746 12.2363 133.814 12.3037 133.898 12.3037Z" fill="white"/>
<path d="M168.395 12.3037H186.249C186.333 12.3037 186.401 12.2363 186.401 12.1521V10.0958C186.401 10.0116 186.333 9.94415 186.249 9.94415H168.395C168.311 9.94415 168.244 10.0116 168.244 10.0958V12.1521C168.26 12.2363 168.311 12.3037 168.395 12.3037Z" fill="white"/>
<path d="M133.746 34.9725H186.4V32.6298H133.746V34.9725Z" fill="white"/>
<path d="M161.358 27.5487L186.397 27.5487V25.206L161.358 25.206V27.5487Z" fill="white"/>
<path d="M133.835 27.5487L158.875 27.5487V25.206L133.835 25.206V27.5487Z" fill="white"/>
<path d="M139.233 119.817C139.031 120.508 138.913 120.744 138.66 121.216C136.994 124.233 133.158 128.547 133.158 128.547L130.179 121.823C130.179 121.823 130.667 119.716 131.509 116.699C134.369 117.457 137.112 117.896 139.233 119.817Z" fill="#F8A492"/>
<path d="M122.152 113.985C122.152 113.985 138.761 121.148 139.299 121.014C139.653 120.929 146.114 110.092 146.182 99.8951C146.215 95.1928 141.335 89.5298 135.883 90.6421C133.14 91.1983 133.191 91.9736 129.119 97.8726C125.063 103.772 122.152 113.985 122.152 113.985Z" fill="#ED7D2B"/>
<path d="M131.34 123.44L119.51 106.839C119.459 106.687 119.358 106.401 119.19 105.946C118.601 104.294 117.356 100.873 116.279 97.4681L116.262 97.4343C115.926 96.2377 115.202 94.1646 114.512 92.159C113.738 89.9173 112.779 87.1532 112.745 86.6813C112.779 86.597 112.829 86.4622 112.897 86.26C113.334 85.1307 113.923 82.4509 114.125 81.288C114.26 80.5464 114.394 78.743 113.502 78.743C112.123 78.743 112.779 80.5464 112.139 81.6756C111.904 80.9172 111.433 79.434 111.18 77.9171L110.945 74.3946C110.894 74.1249 111.18 72.1866 110.204 72.1866H110.154C109.279 72.2541 109.296 74.3271 108.942 77.816C108.824 77.4115 108.707 76.9227 108.622 76.4845C108.639 76.2485 108.454 75.1867 108.32 74.6305C108.488 73.653 108.387 72.1192 107.36 72.2541C106.839 72.3215 106.889 74.4788 106.889 74.4788C106.889 74.7654 106.923 77.0407 106.906 77.4957C106.805 76.7373 106.384 73.4844 105.577 73.4844C104.904 73.4844 104.853 74.3608 104.87 75.0519C104.87 75.4564 105.307 78.9789 105.324 79.3834C105.004 78.8441 104.634 75.7429 104.315 75.7429C103.002 75.7429 103.473 80.1587 103.961 81.3048C104.012 81.4228 104.062 81.6587 104.113 81.9116C104.281 82.7037 104.55 84.0183 105.24 85.1981C106.065 86.6139 107.209 88.8555 107.377 89.2095C107.512 89.9173 107.899 92.4455 108.404 95.6141C108.622 96.9793 108.858 98.4625 109.094 100.013H109.11C109.161 100.35 109.396 101.412 110.339 105.406C111.618 110.867 111.752 111.103 111.803 111.204C112.358 112.182 125.114 129.542 125.652 130.266L125.972 130.705L131.34 123.44Z" fill="#FFB27D"/>
<path d="M109.345 84.7259C109.345 84.7259 110.305 82.2653 112.021 82.2653C112.021 82.2653 111.062 81.9282 110.254 82.5686C109.413 83.2259 109.345 84.7259 109.345 84.7259Z" fill="#F47458"/>
<path d="M134.202 79.9735L135.716 89.6141C135.716 89.6141 129.911 94.2828 126.528 93.2884C123.684 92.4625 125.636 88.7546 125.636 88.7546C125.636 88.7546 127.151 83.614 126.68 80.9005C126.225 78.2207 134.202 79.9735 134.202 79.9735Z" fill="#FFB27D"/>
<path d="M133.106 82.8893C131.659 83.5803 128.781 84.5073 126.543 84.7433C126.762 83.3949 126.88 81.9623 126.694 80.9174C126.476 79.6702 128.057 79.3836 129.824 79.4173C132.13 79.6196 134.2 79.9735 134.2 79.9735L134.486 81.8275C134.048 82.2994 133.594 82.6702 133.106 82.8893Z" fill="#ED975D"/>
<path d="M141.52 68.8495C141.756 68.8495 139.232 79.6193 135.311 81.4733C131.39 83.3273 125.551 82.3666 124.457 79.4508C123.245 76.2485 127.671 65.2427 133.174 63.8606C138.676 62.4786 141.52 68.8495 141.52 68.8495Z" fill="#FFB27D"/>
<path d="M136.993 58.9562C140.123 60.7596 141.553 63.4394 142.041 64.5518C143.505 65.2428 145.289 66.7597 146.147 70.8384C147.19 75.8442 143.471 79.7038 139.517 80.8667C135.562 82.0297 134.957 84.6421 134.957 84.6421L134.502 81.8274C134.502 81.8274 135.377 79.3667 136.707 78.1363C138.036 76.906 136.084 75.1194 135.916 73.6531C135.781 72.5239 136.606 70.3497 136.437 68.4957C136.437 68.4957 134.233 65.1586 132.079 64.3327C128.343 62.9169 132.971 56.6303 136.993 58.9562Z" fill="#50348C"/>
<path d="M135.327 75.5072C134.823 76.7544 135.025 77.9848 135.799 78.2713C136.573 78.5578 137.616 77.7657 138.121 76.5185C138.626 75.2713 138.424 74.0409 137.65 73.7544C136.876 73.4847 135.832 74.2769 135.327 75.5072Z" fill="#F7A491"/>
<path d="M120.721 123.693L97.9031 119.969C97.9031 119.969 100.495 113.429 101.42 113.429C102.346 113.429 118.668 120.559 118.668 120.559L119.964 123.171L120.721 123.693Z" fill="#FFB27D"/>
<path d="M130.179 138.845C130.179 138.845 131.66 148.772 129.809 153.121C127.958 157.469 113.906 200.178 113.721 203.65C113.536 207.139 108.858 245.617 108.858 245.617L99.0981 245.347L96.9778 202.571L101.403 148.806L105.695 135.205L130.179 138.845Z" fill="#8152E4"/>
<path d="M110.053 113.109C110.053 113.109 101.42 121.266 97.533 119.868C93.6458 118.469 92.0304 113.716 101.538 106.755C110.036 100.519 110.053 113.109 110.053 113.109Z" fill="#FFB27D"/>
<path d="M104.214 123.171C105.493 116.193 114.781 94.4512 115.522 90.4399C115.875 88.4848 120.89 88.4511 125.669 88.7039C130.717 88.9735 135.715 89.614 135.715 89.614C135.715 89.614 140.174 90.3556 142.143 92.1927C144.112 94.0298 144.634 99.1367 141.807 108.811C139.585 116.446 136.809 120.643 135.446 126.205C135.177 128.075 134.924 129.913 134.621 132.07C134.116 140.396 134.621 151.385 134.621 151.385C134.621 151.385 110.322 156.441 101.235 148.772C101.235 148.772 102.901 130.334 104.214 123.171Z" fill="#F99746"/>
<path d="M98.0217 108.154C98.0217 108.154 107.563 116.042 108.118 116.042C108.472 116.042 121.732 106.283 124.778 98.2602C126.46 93.8276 122.927 88.8724 118.871 88.8893C116.061 88.9061 114.816 89.6309 109.246 94.3332C103.676 99.0187 98.0217 108.154 98.0217 108.154Z" fill="#ED7D2B"/>
<path d="M125.467 75.9117L129.035 77.5297C129.035 77.5297 128.345 78.8444 126.746 78.187C124.811 77.378 125.467 75.9117 125.467 75.9117Z" fill="white"/>
</g>
</g>
<defs>
<clipPath id="clip0">
<rect width="192.256" height="138" fill="white"/>
</clipPath>
<clipPath id="clip1">
<rect width="192.256" height="255.949" fill="white"/>
</clipPath>
</defs>
</svg>
