<svg width="12" height="7" viewBox="0 0 12 7" fill="none" xmlns="http://www.w3.org/2000/svg">
<path d="M0.234845 0.240319C0.160403 0.31599 0.10134 0.405885 0.0610417 0.504853C0.020743 0.603822 -2.74948e-07 0.70992 -2.70264e-07 0.817071C-2.65581e-07 0.924222 0.0207431 1.03032 0.0610417 1.12929C0.10134 1.22826 0.160403 1.31815 0.234845 1.39382L5.54907 6.80942C5.60823 6.86983 5.67851 6.91776 5.75587 6.95046C5.83323 6.98317 5.91616 7 5.99992 7C6.08367 7 6.1666 6.98317 6.24396 6.95046C6.32132 6.91776 6.3916 6.86983 6.45076 6.80941L11.765 1.39382C12.0783 1.07449 12.0783 0.55965 11.765 0.240319C11.4516 -0.0790119 10.9464 -0.0790119 10.6331 0.240319L5.99672 4.9586L1.36036 0.233803C1.0534 -0.0790105 0.541804 -0.0790115 0.234845 0.240319Z" fill="#8152E4"/>
</svg>
