<svg width="24" height="24" viewBox="0 0 24 24" fill="none" xmlns="http://www.w3.org/2000/svg">
<g clip-Path="url(#clip0)">
<Path d="M24 12C24 5.37258 18.6274 0 12 0C5.37258 0 0 5.37258 0 12C0 18.6274 5.37258 24 12 24C18.6274 24 24 18.6274 24 12Z" fill="#0052B4"/>
<Path d="M16.1738 0.746391C14.8738 0.264 13.4678 0 11.9999 0C10.5321 0 9.12603 0.264 7.82605 0.746391L7.82605 23.2536C9.12603 23.736 10.5321 24 11.9999 24C13.4678 24 14.8738 23.736 16.1738 23.2536L17.2173 12L16.1738 0.746391Z" fill="#F0F0F0"/>
<Path d="M24.0001 11.9998C24.0001 6.84023 20.7436 2.44172 16.174 0.746201V23.2534C20.7436 21.5579 24.0001 17.1594 24.0001 11.9998Z" fill="#D80027"/>
</g>
<defs>
<clipPath id="clip0">
<rect width="24" height="24" fill="white" transform="translate(0 24) rotate(-90)"/>
</clipPath>
</defs>
</svg>
