<svg width="17" height="16" viewBox="0 0 17 16" fill="none" xmlns="http://www.w3.org/2000/svg">
<g clip-Path="url(#clip0)">
<Path d="M8.09863 16C12.5169 16 16.0986 12.4183 16.0986 8C16.0986 3.58172 12.5169 0 8.09863 0C3.68035 0 0.0986328 3.58172 0.0986328 8C0.0986328 12.4183 3.68035 16 8.09863 16Z" fill="#D80027"/>
<Path d="M7.22363 12.25C9.50181 12.25 11.3486 10.4032 11.3486 8.125C11.3486 5.84683 9.50181 4 7.22363 4C4.94546 4 3.09863 5.84683 3.09863 8.125C3.09863 10.4032 4.94546 12.25 7.22363 12.25Z" fill="#F0F0F0"/>
<Path d="M8.59863 11.5625C10.4971 11.5625 12.0361 10.0235 12.0361 8.125C12.0361 6.22652 10.4971 4.6875 8.59863 4.6875C6.70015 4.6875 5.16113 6.22652 5.16113 8.125C5.16113 10.0235 6.70015 11.5625 8.59863 11.5625Z" fill="#D80027"/>
<Path d="M11.8987 5.1001L12.4182 6.78005H14.0987L12.7402 7.82014L13.2596 9.5001L11.8987 8.46248L10.5378 9.5001L11.0596 7.82014L9.69873 6.78005H11.3793L11.8987 5.1001Z" fill="#F0F0F0"/>
</g>
<defs>
<clipPath id="clip0">
<rect width="16" height="16" fill="white" transform="translate(0.0986328)"/>
</clipPath>
</defs>
</svg>
