<svg width="35" height="42" viewBox="0 0 35 42" fill="none" xmlns="http://www.w3.org/2000/svg">
<g filter="url(#filter0_d)">
<path d="M17.0625 3C11.4994 3 7 7.382 7 12.8C7 20.15 17.0625 31 17.0625 31C17.0625 31 27.125 20.15 27.125 12.8C27.125 7.382 22.6256 3 17.0625 3ZM17.0625 16.3C15.0787 16.3 13.4688 14.732 13.4688 12.8C13.4688 10.868 15.0787 9.3 17.0625 9.3C19.0463 9.3 20.6562 10.868 20.6562 12.8C20.6562 14.732 19.0463 16.3 17.0625 16.3Z" fill="#8152E4"/>
<path d="M17.0625 31L15.9627 32.02C16.2465 32.3261 16.6451 32.5 17.0625 32.5C17.4799 32.5 17.8785 32.3261 18.1623 32.02L17.0625 31ZM17.0625 31C18.1623 32.02 18.1625 32.0198 18.1628 32.0195L18.1635 32.0188L18.1655 32.0166L18.1723 32.0092L18.1967 31.9827C18.2176 31.9599 18.2478 31.9269 18.2866 31.8841C18.3642 31.7985 18.4765 31.6737 18.6184 31.5133C18.9021 31.1926 19.3049 30.7288 19.7871 30.1501C20.7502 28.9944 22.0369 27.3723 23.3268 25.5105C24.6136 23.653 25.923 21.529 26.9155 19.3714C27.8986 17.2343 28.625 14.9491 28.625 12.8C28.625 6.51644 23.4164 1.5 17.0625 1.5C10.7086 1.5 5.5 6.51644 5.5 12.8C5.5 14.9491 6.22645 17.2343 7.20953 19.3714C8.20203 21.529 9.51141 23.653 10.7982 25.5105C12.0881 27.3723 13.3748 28.9944 14.3379 30.1501C14.8201 30.7288 15.2229 31.1926 15.5066 31.5133C15.6485 31.6737 15.7608 31.7985 15.8384 31.8841C15.8772 31.9269 15.9074 31.9599 15.9283 31.9827L15.9527 32.0092L15.9595 32.0166L15.9615 32.0188L15.9622 32.0195C15.9625 32.0198 15.9627 32.02 17.0625 31ZM17.0625 14.8C15.8696 14.8 14.9688 13.8664 14.9688 12.8C14.9688 11.7336 15.8696 10.8 17.0625 10.8C18.2554 10.8 19.1562 11.7336 19.1562 12.8C19.1562 13.8664 18.2554 14.8 17.0625 14.8Z" stroke="white" stroke-width="3" stroke-linejoin="round"/>
</g>
<defs>
<filter id="filter0_d" x="0" y="0" width="34.125" height="42" filterUnits="userSpaceOnUse" color-interpolation-filters="sRGB">
<feFlood flood-opacity="0" result="BackgroundImageFix"/>
<feColorMatrix in="SourceAlpha" type="matrix" values="0 0 0 0 0 0 0 0 0 0 0 0 0 0 0 0 0 0 127 0"/>
<feOffset dy="4"/>
<feGaussianBlur stdDeviation="2"/>
<feColorMatrix type="matrix" values="0 0 0 0 0 0 0 0 0 0 0 0 0 0 0 0 0 0 0.25 0"/>
<feBlend mode="normal" in2="BackgroundImageFix" result="effect1_dropShadow"/>
<feBlend mode="normal" in="SourceGraphic" in2="effect1_dropShadow" result="shape"/>
</filter>
</defs>
</svg>
