<svg width="93" height="30" viewBox="0 0 93 30" fill="none" xmlns="http://www.w3.org/2000/svg">
<path d="M5.95002 30C5.71515 30 5.48028 30 5.24541 30C4.77567 30 4.30593 30 3.75791 29.8429C3.28817 29.7644 2.81843 29.6073 2.42698 29.4503C2.03553 29.2147 1.64408 28.9791 1.33092 28.6649C1.01777 28.3508 0.704607 27.9581 0.548028 27.5654C0.313159 27.1728 0.234869 26.7801 0.156579 26.2304C0.0782897 25.6806 0 25.1309 0 24.7382C0 24.5812 0 24.0314 0 24.0314V5.89005C0 5.89005 0 5.34031 0 5.18325C0 4.79058 -1.16661e-08 4.24084 0.156579 3.6911C0.313159 3.29843 0.391448 2.82723 0.626318 2.43456C0.861187 2.04188 1.09606 1.64921 1.40921 1.33508C1.72237 1.02094 2.11382 0.78534 2.50527 0.549738C2.89672 0.314136 3.36646 0.235602 3.83619 0.157068C4.30593 3.51075e-08 4.85396 0 5.24541 0H5.95002H86.4318H87.1364C87.5279 0 88.0759 3.51075e-08 88.6239 0.157068C89.0937 0.235602 89.4851 0.39267 89.9549 0.549738C90.3463 0.78534 90.7378 1.02094 91.0509 1.33508C91.3641 1.64921 91.6772 2.04188 91.8338 2.43456C92.0687 2.82723 92.147 3.29843 92.2253 3.6911C92.3035 4.1623 92.3818 4.71204 92.3818 5.18325C92.3818 5.41885 92.3818 5.65445 92.3818 5.89005C92.3818 6.20419 92.3818 6.43979 92.3818 6.75393V23.1675C92.3818 23.4817 92.3818 23.7173 92.3818 24.0314C92.3818 24.267 92.3818 24.5026 92.3818 24.7382C92.3818 25.2094 92.3035 25.6806 92.2253 26.2304C92.147 26.7016 91.9904 27.1728 91.8338 27.5654C91.5989 27.9581 91.3641 28.3508 91.0509 28.6649C90.7378 28.9791 90.3463 29.2932 89.9549 29.4503C89.5634 29.6859 89.172 29.7644 88.6239 29.8429C88.1542 29.9215 87.6062 29.9215 87.1364 30C86.9016 30 86.6667 30 86.4318 30H85.5706H5.95002Z" fill="#000001"/>
<path d="M18.789 15.2356C18.789 13.0367 20.5897 12.0157 20.668 11.9372C19.6502 10.445 18.0844 10.288 17.5364 10.2094C16.2055 10.0524 14.9528 10.9948 14.2482 10.9948C13.5436 10.9948 12.5258 10.2094 11.4298 10.2094C10.0206 10.2094 8.68965 11.0733 7.90676 12.3299C6.41925 14.9215 7.51531 18.8482 9.00281 20.9686C9.70742 21.9895 10.5686 23.1675 11.6647 23.1675C12.7607 23.089 13.1522 22.4607 14.4831 22.4607C15.814 22.4607 16.1272 23.1675 17.3015 23.1675C18.4759 23.1675 19.1805 22.1466 19.8851 21.0471C20.7463 19.8691 21.0594 18.6911 21.0594 18.6126C21.0594 18.6911 18.789 17.8272 18.789 15.2356Z" fill="white"/>
<path d="M16.5963 8.87442C17.1444 8.16762 17.6141 7.14667 17.4575 6.12573C16.5963 6.12573 15.5786 6.67547 14.9523 7.46081C14.4042 8.08908 13.9345 9.11003 14.0911 10.131C15.0306 10.131 16.0483 9.58123 16.5963 8.87442Z" fill="white"/>
<path d="M32.4904 20.5756H28.8108L27.9496 23.2457H26.3838L29.9068 13.5075H31.4726L34.9957 23.2457H33.4299L32.4904 20.5756ZM29.2022 19.3976H32.1772L30.6897 15.0782H30.6114L29.2022 19.3976Z" fill="white"/>
<path d="M42.5892 19.7117C42.5892 21.9107 41.4148 23.3243 39.6142 23.3243C38.5964 23.3243 37.8135 22.8531 37.4221 22.0677V25.6018H35.9346V16.1777H37.3438V17.3557C37.7352 16.5704 38.5964 16.0992 39.6142 16.0992C41.3366 16.0206 42.5892 17.5128 42.5892 19.7117ZM41.0234 19.7117C41.0234 18.2981 40.3188 17.3557 39.1444 17.3557C38.0484 17.3557 37.2655 18.2981 37.2655 19.7117C37.2655 21.1253 38.0484 22.0677 39.1444 22.0677C40.3188 22.0677 41.0234 21.1253 41.0234 19.7117Z" fill="white"/>
<path d="M50.3402 19.7117C50.3402 21.9107 49.1658 23.3243 47.3652 23.3243C46.3474 23.3243 45.5645 22.8531 45.1731 22.0677V25.6018H43.6855V16.1777H45.0948V17.3557C45.4862 16.5704 46.3474 16.0992 47.3652 16.0992C49.1658 16.0206 50.3402 17.5128 50.3402 19.7117ZM48.8527 19.7117C48.8527 18.2981 48.1481 17.3557 46.9737 17.3557C45.8777 17.3557 45.0948 18.2981 45.0948 19.7117C45.0948 21.1253 45.8777 22.0677 46.9737 22.0677C48.1481 22.0677 48.8527 21.1253 48.8527 19.7117Z" fill="white"/>
<path d="M55.5077 20.4972C55.586 21.4396 56.5254 22.0679 57.8564 22.0679C59.109 22.0679 59.9702 21.4396 59.9702 20.5757C59.9702 19.7904 59.4222 19.3977 58.1695 19.0836L56.9169 18.7694C55.1162 18.2982 54.3333 17.5129 54.3333 16.1778C54.3333 14.5286 55.8208 13.3506 57.8564 13.3506C59.8919 13.3506 61.3011 14.5286 61.3794 16.1778H59.8919C59.8136 15.2354 59.0307 14.6071 57.8564 14.6071C56.682 14.6071 55.8991 15.2354 55.8991 16.0993C55.8991 16.8061 56.4472 17.1988 57.6998 17.5129L58.7959 17.7485C60.7531 18.2197 61.6143 19.005 61.6143 20.4186C61.6143 22.2249 60.1268 23.4029 57.8564 23.4029C55.6643 23.4029 54.255 22.3035 54.1768 20.4972H55.5077Z" fill="white"/>
<path d="M64.5891 14.45V16.0992H65.92V17.2772H64.5891V21.2039C64.5891 21.8322 64.824 22.0678 65.4503 22.0678C65.6069 22.0678 65.8417 22.0678 65.92 22.0678V23.2458C65.7634 23.3243 65.4503 23.3243 65.1371 23.3243C63.7279 23.3243 63.1799 22.7746 63.1799 21.4395V17.3557H62.1621V16.1777H63.1799V14.5285H64.5891V14.45Z" fill="white"/>
<path d="M66.7812 19.7117C66.7812 17.5127 68.1122 16.0991 70.1477 16.0991C72.1832 16.0991 73.5142 17.5127 73.5142 19.7117C73.5142 21.9892 72.1832 23.3243 70.1477 23.3243C68.0339 23.3243 66.7812 21.9106 66.7812 19.7117ZM72.0267 19.7117C72.0267 18.141 71.3221 17.2771 70.1477 17.2771C68.9734 17.2771 68.2688 18.141 68.2688 19.7117C68.2688 21.2824 68.9734 22.1462 70.1477 22.1462C71.3221 22.1462 72.0267 21.2038 72.0267 19.7117Z" fill="white"/>
<path d="M74.6885 16.0991H76.0977V17.3557C76.3326 16.5703 76.9589 16.0991 77.8201 16.0991C78.0549 16.0991 78.2115 16.0991 78.2898 16.1777V17.5127C78.2115 17.4342 77.8984 17.4342 77.6635 17.4342C76.724 17.4342 76.176 18.0625 76.176 19.0834V23.3243H74.6885V16.0991Z" fill="white"/>
<path d="M85.0233 21.1255C84.7884 22.382 83.5358 23.3244 81.97 23.3244C79.9344 23.3244 78.6035 21.9108 78.6035 19.7119C78.6035 17.5129 79.8562 16.0208 81.8917 16.0208C83.8489 16.0208 85.1016 17.3558 85.1016 19.5548V20.026H80.091V20.1045C80.091 21.2825 80.8739 22.1464 81.97 22.1464C82.7529 22.1464 83.3792 21.7537 83.6141 21.1255H85.0233ZM80.091 19.005H83.6141C83.6141 17.9056 82.9095 17.1988 81.8917 17.1988C80.8739 17.1988 80.1693 17.9841 80.091 19.005Z" fill="white"/>
<path d="M28.1058 8.16754H28.7321C29.2802 8.16754 29.5933 7.8534 29.5933 7.3822C29.5933 6.91099 29.2802 6.67539 28.7321 6.67539C28.1841 6.67539 27.7927 6.98953 27.7927 7.3822H27.0881C27.1663 6.51832 27.7927 6.04712 28.7321 6.04712C29.6716 6.04712 30.2979 6.59686 30.2979 7.30366C30.2979 7.8534 29.9848 8.24607 29.4367 8.40314V8.48167C30.0631 8.56021 30.4545 8.95288 30.4545 9.58115C30.4545 10.3665 29.6716 10.9948 28.7321 10.9948C27.7144 10.9948 27.0098 10.445 27.0098 9.58115H27.7144C27.7927 10.0524 28.1841 10.288 28.8104 10.288C29.4367 10.288 29.8282 9.97382 29.8282 9.50262C29.8282 9.03141 29.4367 8.71728 28.8104 8.71728H28.1841V8.16754H28.1058Z" fill="white"/>
<path d="M31.3164 9.81696C31.3164 9.18869 31.7861 8.79602 32.6473 8.79602L33.5868 8.71749V8.40335C33.5868 8.01068 33.3519 7.85361 32.8822 7.85361C32.4908 7.85361 32.2559 8.01068 32.1776 8.24628H31.473C31.5513 7.61801 32.0993 7.22534 32.8822 7.22534C33.7434 7.22534 34.2914 7.69655 34.2914 8.40335V10.8379H33.5868V10.3667H33.5085C33.2736 10.7594 32.8822 10.9164 32.4125 10.9164C31.8644 10.9164 31.3164 10.4452 31.3164 9.81696ZM33.5868 9.50283V9.18869L32.7256 9.26723C32.2559 9.26723 32.021 9.50283 32.021 9.73843C32.021 10.0526 32.3342 10.2096 32.6473 10.2096C33.1954 10.2882 33.5868 9.97403 33.5868 9.50283Z" fill="white"/>
<path d="M36.1704 7.85369V10.838H35.4658V7.30396H37.8145V7.85369H36.1704Z" fill="white"/>
<path d="M41.9641 9.03155C41.9641 10.131 41.4161 10.8378 40.4766 10.8378C40.0069 10.8378 39.5371 10.6022 39.3806 10.2096H39.3023V11.9373H38.5977V7.22526H39.3023V7.775H39.3806C39.6154 7.38233 40.0069 7.14673 40.4766 7.14673C41.4161 7.22526 41.9641 7.93207 41.9641 9.03155ZM41.2595 9.03155C41.2595 8.2462 40.8681 7.85353 40.32 7.85353C39.772 7.85353 39.3806 8.32474 39.3806 9.03155C39.3806 9.73835 39.772 10.2096 40.32 10.2096C40.9463 10.2881 41.2595 9.81689 41.2595 9.03155Z" fill="white"/>
<path d="M42.903 12.0945V11.4663C42.9813 11.4663 43.0596 11.4663 43.1379 11.4663C43.451 11.4663 43.6859 11.3092 43.7642 10.9951L43.8425 10.838L42.5898 7.30396H43.3727L44.2339 10.1312H44.3122L45.1734 7.30396H45.878L44.5471 10.9951C44.2339 11.8589 43.9208 12.0945 43.2162 12.0945C43.1379 12.0945 42.9813 12.0945 42.903 12.0945Z" fill="white"/>
<path d="M46.4258 9.81696H47.1304C47.2087 10.1311 47.5218 10.2882 47.9133 10.2882C48.383 10.2882 48.6962 10.0526 48.6962 9.73843C48.6962 9.42429 48.4613 9.26723 47.9133 9.26723H47.3653V8.71749H47.9133C48.3047 8.71749 48.5396 8.56042 48.5396 8.24628C48.5396 8.01068 48.3047 7.77508 47.9133 7.77508C47.5218 7.77508 47.2087 7.93215 47.2087 8.24628H46.5041C46.5824 7.61801 47.1304 7.22534 47.9133 7.22534C48.7745 7.22534 49.2442 7.61801 49.2442 8.16775C49.2442 8.56042 49.0093 8.79602 48.6962 8.87456V8.95309C49.1659 9.03162 49.4008 9.34576 49.4008 9.73843C49.4008 10.4452 48.8528 10.8379 47.9916 10.8379C47.1304 10.9164 46.5041 10.5238 46.4258 9.81696Z" fill="white"/>
<path d="M50.3398 10.838V7.30396H51.0445V9.73851L52.6885 7.30396H53.3931V10.838H52.6885V8.40343H52.6102L50.9662 10.838H50.3398Z" fill="white"/>
<path d="M57.1526 7.85369H56.0565V10.838H55.3519V7.85369H54.2559V7.30396H57.1526V7.85369Z" fill="white"/>
<path d="M60.911 9.8955C60.7545 10.5238 60.2064 10.9164 59.3453 10.9164C58.3275 10.9164 57.7012 10.2096 57.7012 9.11016C57.7012 8.01068 58.3275 7.22534 59.3453 7.22534C60.363 7.22534 60.911 7.93215 60.911 9.03162V9.26723H58.4058C58.4058 9.8955 58.7972 10.2882 59.3453 10.2882C59.7367 10.2882 60.0499 10.1311 60.2064 9.8955H60.911ZM58.4841 8.71749H60.2847C60.2847 8.16775 59.8933 7.77508 59.4235 7.77508C58.8755 7.85361 58.4841 8.16775 58.4841 8.71749Z" fill="white"/>
<path d="M63.8849 7.30396H65.4507C66.1553 7.30396 66.5468 7.61809 66.5468 8.16783C66.5468 8.5605 66.3119 8.87464 65.9205 8.95317V9.0317C66.3902 9.11024 66.7034 9.42437 66.7034 9.81704C66.7034 10.4453 66.2336 10.838 65.4507 10.838H63.8066V7.30396H63.8849ZM64.5895 7.85369V8.71757H65.2941C65.6856 8.71757 65.9205 8.5605 65.9205 8.24636C65.9205 7.93223 65.7639 7.77516 65.3724 7.77516H64.5895V7.85369ZM64.5895 9.26731V10.2882H65.4507C65.8422 10.2882 66.077 10.1312 66.077 9.73851C66.077 9.34584 65.8422 9.18877 65.3724 9.18877H64.5895V9.26731Z" fill="white"/>
</svg>
