<svg width="126" height="126" viewBox="0 0 126 126" fill="none" xmlns="http://www.w3.org/2000/svg">
<path d="M30.0603 12.9925C30.0603 12.4402 29.6126 11.9925 29.0603 11.9925H12.9925C12.4402 11.9925 11.9925 12.4402 11.9925 12.9925V29.0603C11.9925 29.6126 12.4402 30.0603 12.9925 30.0603H29.0603C29.6126 30.0603 30.0603 29.6126 30.0603 29.0603V12.9925Z" fill="#0085FF"/>
<path fill-rule="evenodd" clip-rule="evenodd" d="M42.0528 1C42.0528 0.447715 41.6051 0 41.0528 0H1C0.447715 0 0 0.447713 0 0.999997V41.0528C0 41.6051 0.447713 42.0528 0.999997 42.0528H41.0528C41.6051 42.0528 42.0528 41.6051 42.0528 41.0528V1ZM7.07542 35.9774C6.52314 35.9774 6.07542 35.5297 6.07542 34.9774V7.07542C6.07542 6.52314 6.52314 6.07542 7.07543 6.07542H34.9774C35.5297 6.07542 35.9774 6.52314 35.9774 7.07543V34.9774C35.9774 35.5297 35.5297 35.9774 34.9774 35.9774H7.07542Z" fill="#0085FF"/>
<path d="M60.0415 1C60.0415 0.447715 59.5938 0 59.0415 0H48.9698C48.4175 0 47.9698 0.447715 47.9698 1V29.0603C47.9698 29.6126 48.4175 30.0603 48.9698 30.0603H59.0415C59.5938 30.0603 60.0415 29.6126 60.0415 29.0603V25.0641C60.0415 24.5118 60.4892 24.0641 61.0415 24.0641H65.0377C65.59 24.0641 66.0377 23.6164 66.0377 23.0641V19.0679C66.0377 18.5156 66.4854 18.0679 67.0377 18.0679H77.0302C77.5825 18.0679 78.0302 17.6202 78.0302 17.0679V1C78.0302 0.447715 77.5825 0 77.0302 0H72.9547C72.4025 0 71.9547 0.447715 71.9547 1V4.99623C71.9547 5.54851 71.507 5.99623 70.9547 5.99623H66.9585C66.4062 5.99623 65.9585 6.44394 65.9585 6.99623V10.9925C65.9585 11.5447 65.5108 11.9925 64.9585 11.9925H55.0453C54.493 11.9925 54.0453 11.5447 54.0453 10.9925V7.07542C54.0453 6.52314 54.493 6.07542 55.0453 6.07542H59.0415C59.5938 6.07542 60.0415 5.62771 60.0415 5.07542V1Z" fill="#0085FF"/>
<path d="M114.008 12.9925C114.008 12.4402 113.56 11.9925 113.008 11.9925H96.9397C96.3874 11.9925 95.9397 12.4402 95.9397 12.9925V29.0603C95.9397 29.6126 96.3874 30.0603 96.9397 30.0603H113.008C113.56 30.0603 114.008 29.6126 114.008 29.0603V12.9925Z" fill="#0085FF"/>
<path fill-rule="evenodd" clip-rule="evenodd" d="M126 1C126 0.447715 125.552 0 125 0H84.9472C84.3949 0 83.9472 0.447713 83.9472 0.999997V41.0528C83.9472 41.6051 84.3949 42.0528 84.9472 42.0528H125C125.552 42.0528 126 41.6051 126 41.0528V1ZM91.0226 35.9774C90.4703 35.9774 90.0226 35.5297 90.0226 34.9774V7.07542C90.0226 6.52314 90.4703 6.07542 91.0226 6.07542H118.925C119.477 6.07542 119.925 6.52314 119.925 7.07543V34.9774C119.925 35.5297 119.477 35.9774 118.925 35.9774H91.0226Z" fill="#0085FF"/>
<path d="M78.0302 24.9849C78.0302 24.4326 77.5825 23.9849 77.0302 23.9849H72.9547C72.4025 23.9849 71.9547 24.4326 71.9547 24.9849V29.0603C71.9547 29.6126 72.4025 30.0603 72.9547 30.0603H77.0302C77.5825 30.0603 78.0302 29.6126 78.0302 29.0603V24.9849Z" fill="#0085FF"/>
<path fill-rule="evenodd" clip-rule="evenodd" d="M54.0453 36.9774C54.0453 36.4251 53.5975 35.9774 53.0453 35.9774H48.9698C48.4175 35.9774 47.9698 36.4251 47.9698 36.9774V46.9698C47.9698 47.5221 47.5221 47.9698 46.9698 47.9698H36.9774C36.4251 47.9698 35.9774 48.4175 35.9774 48.9698V53.0453C35.9774 53.5975 36.4251 54.0453 36.9774 54.0453H47.049C47.6013 54.0453 48.049 53.5975 48.049 53.0453V49.049C48.049 48.4967 48.4967 48.049 49.049 48.049H58.9623C59.5146 48.049 59.9623 48.4967 59.9623 49.049V52.9661C59.9623 53.5183 59.5146 53.9661 58.9623 53.9661H54.9661C54.4138 53.9661 53.9661 54.4138 53.9661 54.9661V58.9623C53.9661 59.5146 53.5183 59.9623 52.9661 59.9623H48.9698C48.4175 59.9623 47.9698 60.41 47.9698 60.9623V70.9547C47.9698 71.507 47.5221 71.9547 46.9698 71.9547H37.0566C36.5043 71.9547 36.0566 71.507 36.0566 70.9547V67.0377C36.0566 66.4854 36.5043 66.0377 37.0566 66.0377H41.0528C41.6051 66.0377 42.0528 65.59 42.0528 65.0377V60.9623C42.0528 60.41 41.6051 59.9623 41.0528 59.9623H36.9774C36.4251 59.9623 35.9774 60.41 35.9774 60.9623V64.9585C35.9774 65.5108 35.5297 65.9585 34.9774 65.9585H30.9811C30.4289 65.9585 29.9811 66.4062 29.9811 66.9585V77.0302C29.9811 77.5825 30.4289 78.0302 30.9811 78.0302H46.9698C47.5221 78.0302 47.9698 78.4779 47.9698 79.0302V89.0226C47.9698 89.5749 48.4175 90.0226 48.9698 90.0226H52.9661C53.5183 90.0226 53.9661 90.4703 53.9661 91.0226V94.9397C53.9661 95.4919 53.5183 95.9397 52.9661 95.9397H48.9698C48.4175 95.9397 47.9698 96.3874 47.9698 96.9397V101.015C47.9698 101.567 48.4175 102.015 48.9698 102.015H52.9661C53.5183 102.015 53.9661 102.463 53.9661 103.015V106.932C53.9661 107.484 53.5183 107.932 52.9661 107.932H48.9698C48.4175 107.932 47.9698 108.38 47.9698 108.932V119.004C47.9698 119.556 48.4175 120.004 48.9698 120.004H52.9661C53.5183 120.004 53.9661 120.451 53.9661 121.004V125C53.9661 125.552 54.4138 126 54.9661 126H59.0415C59.5938 126 60.0415 125.552 60.0415 125V121.004C60.0415 120.451 60.4892 120.004 61.0415 120.004H64.9585C65.5108 120.004 65.9585 120.451 65.9585 121.004V125C65.9585 125.552 66.4062 126 66.9585 126H71.0339C71.5862 126 72.0339 125.552 72.0339 125V121.004C72.0339 120.451 72.4817 120.004 73.0339 120.004H76.951C77.5033 120.004 77.951 120.451 77.951 121.004V125C77.951 125.552 78.3987 126 78.951 126H89.0226C89.5749 126 90.0226 125.552 90.0226 125V121.004C90.0226 120.451 90.4703 120.004 91.0226 120.004H94.9397C95.4919 120.004 95.9397 120.451 95.9397 121.004V125C95.9397 125.552 96.3874 126 96.9397 126H107.011C107.564 126 108.011 125.552 108.011 125V120.925C108.011 120.372 107.564 119.925 107.011 119.925H103.015C102.463 119.925 102.015 119.477 102.015 118.925V115.008C102.015 114.455 102.463 114.008 103.015 114.008H112.928C113.481 114.008 113.928 114.455 113.928 115.008V125C113.928 125.552 114.376 126 114.928 126H125C125.552 126 126 125.552 126 125V120.925C126 120.372 125.552 119.925 125 119.925H121.004C120.451 119.925 120.004 119.477 120.004 118.925V115.008C120.004 114.455 120.451 114.008 121.004 114.008H125C125.552 114.008 126 113.56 126 113.008V108.932C126 108.38 125.552 107.932 125 107.932H121.004C120.451 107.932 120.004 107.484 120.004 106.932V102.936C120.004 102.384 119.556 101.936 119.004 101.936H114.928C114.376 101.936 113.928 102.384 113.928 102.936V106.932C113.928 107.484 113.481 107.932 112.928 107.932H103.015C102.463 107.932 102.015 107.484 102.015 106.932V102.936C102.015 102.384 101.567 101.936 101.015 101.936H91.0226C90.4703 101.936 90.0226 101.488 90.0226 100.936V91.0226C90.0226 90.4703 90.4703 90.0226 91.0226 90.0226H101.015C101.567 90.0226 102.015 89.5749 102.015 89.0226V79.0302C102.015 78.4779 102.463 78.0302 103.015 78.0302H107.011C107.564 78.0302 108.011 77.5825 108.011 77.0302V72.9547C108.011 72.4025 107.564 71.9547 107.011 71.9547H96.9397C96.3874 71.9547 95.9397 72.4025 95.9397 72.9547V76.951C95.9397 77.5033 95.4919 77.951 94.9397 77.951H91.0226C90.4703 77.951 90.0226 77.5033 90.0226 76.951V72.9547C90.0226 72.4025 89.5749 71.9547 89.0226 71.9547H85.0264C84.4741 71.9547 84.0264 71.507 84.0264 70.9547V67.0377C84.0264 66.4854 84.4741 66.0377 85.0264 66.0377H125C125.552 66.0377 126 65.59 126 65.0377V48.9698C126 48.4175 125.552 47.9698 125 47.9698H96.9397C96.3874 47.9698 95.9397 48.4175 95.9397 48.9698V52.9661C95.9397 53.5183 95.4919 53.9661 94.9397 53.9661H91.0226C90.4703 53.9661 90.0226 53.5183 90.0226 52.9661V48.9698C90.0226 48.4175 89.5749 47.9698 89.0226 47.9698H84.9472C84.3949 47.9698 83.9472 48.4175 83.9472 48.9698V64.9585C83.9472 65.5108 83.4995 65.9585 82.9472 65.9585H79.0302C78.4779 65.9585 78.0302 65.5108 78.0302 64.9585V60.9623C78.0302 60.41 77.5825 59.9623 77.0302 59.9623H66.9585C66.4062 59.9623 65.9585 60.41 65.9585 60.9623V64.9585C65.9585 65.5108 65.5108 65.9585 64.9585 65.9585H61.0415C60.4892 65.9585 60.0415 65.5108 60.0415 64.9585V55.0453C60.0415 54.493 60.4892 54.0453 61.0415 54.0453H65.0377C65.59 54.0453 66.0377 53.5975 66.0377 53.0453V49.049C66.0377 48.4967 66.4854 48.049 67.0377 48.049H77.0302C77.5825 48.049 78.0302 47.6013 78.0302 47.049V36.9774C78.0302 36.4251 77.5825 35.9774 77.0302 35.9774H72.9547C72.4025 35.9774 71.9547 36.4251 71.9547 36.9774V40.9736C71.9547 41.5259 71.507 41.9736 70.9547 41.9736H67.0377C66.4854 41.9736 66.0377 41.5259 66.0377 40.9736V36.9774C66.0377 36.4251 65.59 35.9774 65.0377 35.9774H60.9623C60.41 35.9774 59.9623 36.4251 59.9623 36.9774V40.9736C59.9623 41.5259 59.5146 41.9736 58.9623 41.9736H55.0453C54.493 41.9736 54.0453 41.5259 54.0453 40.9736V36.9774ZM61.0415 47.9698C60.4892 47.9698 60.0415 47.5221 60.0415 46.9698V43.0528C60.0415 42.5005 60.4892 42.0528 61.0415 42.0528H64.9585C65.5108 42.0528 65.9585 42.5005 65.9585 43.0528V46.9698C65.9585 47.5221 65.5108 47.9698 64.9585 47.9698H61.0415ZM54.0453 67.0377C54.0453 66.4854 54.493 66.0377 55.0453 66.0377H58.9623C59.5146 66.0377 59.9623 66.4854 59.9623 67.0377V70.9547C59.9623 71.507 59.5146 71.9547 58.9623 71.9547H55.0453C54.493 71.9547 54.0453 71.507 54.0453 70.9547V67.0377ZM54.0453 79.0302C54.0453 78.4779 54.493 78.0302 55.0453 78.0302H64.9585C65.5108 78.0302 65.9585 78.4779 65.9585 79.0302V82.9472C65.9585 83.4995 65.5108 83.9472 64.9585 83.9472H55.0453C54.493 83.9472 54.0453 83.4995 54.0453 82.9472V79.0302ZM60.0415 91.0226C60.0415 90.4703 60.4892 90.0226 61.0415 90.0226H70.9547C71.507 90.0226 71.9547 90.4703 71.9547 91.0226V94.9397C71.9547 95.4919 71.507 95.9397 70.9547 95.9397H61.0415C60.4892 95.9397 60.0415 95.4919 60.0415 94.9397V91.0226ZM73.0339 102.015C72.4817 102.015 72.0339 102.463 72.0339 103.015V112.928C72.0339 113.481 72.4817 113.928 73.0339 113.928H76.951C77.5033 113.928 77.951 113.481 77.951 112.928V103.015C77.951 102.463 77.5033 102.015 76.951 102.015H73.0339ZM84.0264 118.925C84.0264 119.477 84.4741 119.925 85.0264 119.925H88.9434C89.4957 119.925 89.9434 119.477 89.9434 118.925V115.008C89.9434 114.455 89.4957 114.008 88.9434 114.008H85.0264C84.4741 114.008 84.0264 114.455 84.0264 115.008V118.925ZM88.9434 107.932C89.4957 107.932 89.9434 107.484 89.9434 106.932V103.015C89.9434 102.463 89.4957 102.015 88.9434 102.015H85.0264C84.4741 102.015 84.0264 102.463 84.0264 103.015V106.932C84.0264 107.484 84.4741 107.932 85.0264 107.932H88.9434ZM84.9472 89.9434C84.3949 89.9434 83.9472 90.3911 83.9472 90.9434V100.936C83.9472 101.488 83.4995 101.936 82.9472 101.936H79.0302C78.4779 101.936 78.0302 101.488 78.0302 100.936V90.9434C78.0302 90.3911 77.5825 89.9434 77.0302 89.9434H73.0339C72.4817 89.9434 72.0339 89.4957 72.0339 88.9434V85.0264C72.0339 84.4741 72.4817 84.0264 73.0339 84.0264H77.0302C77.5825 84.0264 78.0302 83.5787 78.0302 83.0264V78.951C78.0302 78.3987 77.5825 77.951 77.0302 77.951H67.0377C66.4854 77.951 66.0377 77.5033 66.0377 76.951V73.0339C66.0377 72.4817 66.4854 72.0339 67.0377 72.0339H82.9472C83.4995 72.0339 83.9472 72.4817 83.9472 73.0339V83.0264C83.9472 83.5787 84.3949 84.0264 84.9472 84.0264H88.9434C89.4957 84.0264 89.9434 84.4741 89.9434 85.0264V88.9434C89.9434 89.4957 89.4957 89.9434 88.9434 89.9434H84.9472ZM115.008 113.928C114.455 113.928 114.008 113.481 114.008 112.928V109.011C114.008 108.459 114.455 108.011 115.008 108.011H118.925C119.477 108.011 119.925 108.459 119.925 109.011V112.928C119.925 113.481 119.477 113.928 118.925 113.928H115.008ZM55.0453 113.928C54.493 113.928 54.0453 113.481 54.0453 112.928V109.011C54.0453 108.459 54.493 108.011 55.0453 108.011H59.0415C59.5938 108.011 60.0415 107.564 60.0415 107.011V103.015C60.0415 102.463 60.4892 102.015 61.0415 102.015H64.9585C65.5108 102.015 65.9585 102.463 65.9585 103.015V112.928C65.9585 113.481 65.5108 113.928 64.9585 113.928H55.0453ZM53.9661 76.951C53.9661 77.5033 53.5183 77.951 52.9661 77.951H49.049C48.4967 77.951 48.049 77.5033 48.049 76.951V73.0339C48.049 72.4817 48.4967 72.0339 49.049 72.0339H52.9661C53.5183 72.0339 53.9661 72.4817 53.9661 73.0339V76.951ZM109.011 59.9623C108.459 59.9623 108.011 59.5146 108.011 58.9623V55.0453C108.011 54.493 108.459 54.0453 109.011 54.0453H112.928C113.481 54.0453 113.928 54.493 113.928 55.0453V58.9623C113.928 59.5146 113.481 59.9623 112.928 59.9623H109.011Z" fill="#0085FF"/>
<path fill-rule="evenodd" clip-rule="evenodd" d="M18.0679 48.9698C18.0679 48.4175 17.6202 47.9698 17.0679 47.9698H6.99623C6.44394 47.9698 5.99623 48.4175 5.99623 48.9698V52.9661C5.99623 53.5183 5.54851 53.9661 4.99623 53.9661H1C0.447715 53.9661 0 54.4138 0 54.9661V59.0415C0 59.5938 0.447715 60.0415 1 60.0415H10.9925C11.5447 60.0415 11.9925 60.4892 11.9925 61.0415V77.0302C11.9925 77.5825 12.4402 78.0302 12.9925 78.0302H17.0679C17.6202 78.0302 18.0679 77.5825 18.0679 77.0302V67.0377C18.0679 66.4854 18.5156 66.0377 19.0679 66.0377H23.0641C23.6164 66.0377 24.0641 65.59 24.0641 65.0377V55.0453C24.0641 54.493 24.5118 54.0453 25.0641 54.0453H29.0603C29.6126 54.0453 30.0603 53.5975 30.0603 53.0453V48.9698C30.0603 48.4175 29.6126 47.9698 29.0603 47.9698H24.9849C24.4326 47.9698 23.9849 48.4175 23.9849 48.9698V52.9661C23.9849 53.5183 23.5372 53.9661 22.9849 53.9661H19.0679C18.5156 53.9661 18.0679 53.5183 18.0679 52.9661V48.9698ZM12.0717 58.9623C12.0717 59.5146 12.5194 59.9623 13.0717 59.9623H16.9887C17.541 59.9623 17.9887 59.5146 17.9887 58.9623V55.0453C17.9887 54.493 17.541 54.0453 16.9887 54.0453H13.0717C12.5194 54.0453 12.0717 54.493 12.0717 55.0453V58.9623Z" fill="#0085FF"/>
<path d="M6.07542 66.9585C6.07542 66.4062 5.62771 65.9585 5.07542 65.9585H1C0.447715 65.9585 0 66.4062 0 66.9585V71.0339C0 71.5862 0.447715 72.0339 1 72.0339H5.07542C5.62771 72.0339 6.07542 71.5862 6.07542 71.0339V66.9585Z" fill="#0085FF"/>
<path d="M120.004 72.9547C120.004 72.4025 119.556 71.9547 119.004 71.9547H114.928C114.376 71.9547 113.928 72.4025 113.928 72.9547V82.9472C113.928 83.4995 113.481 83.9472 112.928 83.9472H108.932C108.38 83.9472 107.932 84.3949 107.932 84.9472V89.0226C107.932 89.5749 108.38 90.0226 108.932 90.0226H112.928C113.481 90.0226 113.928 90.4703 113.928 91.0226V95.0189C113.928 95.5711 114.376 96.0189 114.928 96.0189H119.004C119.556 96.0189 120.004 95.5711 120.004 95.0189V91.0226C120.004 90.4703 120.451 90.0226 121.004 90.0226H125C125.552 90.0226 126 89.5749 126 89.0226V78.951C126 78.3987 125.552 77.951 125 77.951H121.004C120.451 77.951 120.004 77.5033 120.004 76.951V72.9547Z" fill="#0085FF"/>
<path d="M30.0603 96.9397C30.0603 96.3874 29.6126 95.9397 29.0603 95.9397H12.9925C12.4402 95.9397 11.9925 96.3874 11.9925 96.9397V113.008C11.9925 113.56 12.4402 114.008 12.9925 114.008H29.0603C29.6126 114.008 30.0603 113.56 30.0603 113.008V96.9397Z" fill="#0085FF"/>
<path fill-rule="evenodd" clip-rule="evenodd" d="M42.0528 84.9472C42.0528 84.3949 41.6051 83.9472 41.0528 83.9472H1C0.447715 83.9472 0 84.3949 0 84.9472V125C0 125.552 0.447713 126 0.999997 126H41.0528C41.6051 126 42.0528 125.552 42.0528 125V84.9472ZM7.07542 119.925C6.52314 119.925 6.07542 119.477 6.07542 118.925V91.0226C6.07542 90.4703 6.52314 90.0226 7.07543 90.0226H34.9774C35.5297 90.0226 35.9774 90.4703 35.9774 91.0226V118.925C35.9774 119.477 35.5297 119.925 34.9774 119.925H7.07542Z" fill="#0085FF"/>
</svg>
