<svg width="126" height="126" viewBox="0 0 126 126" fill="none" xmlns="http://www.w3.org/2000/svg">
<g filter="url(#filter0_d)">
<circle cx="63" cy="59" r="59" fill="white"/>
</g>
<path d="M46.3652 62.2738L48.8915 64.6797L52.3801 61.0708L52.2598 66.6044L55.7484 66.7247L55.989 57.5822L62.7256 50.7253V60.349L56.4702 67.0856L58.9964 69.3713L62.7256 65.4015V70.4539H66.2142V65.4015L70.0637 69.3713L72.4696 67.0856L66.2142 60.349V50.7253L72.9508 57.5822L73.3117 66.7247L76.8003 66.6044L76.5597 61.0708L80.1686 64.6797L82.5745 62.2738L78.9656 58.6649L84.4993 58.7852L84.6196 55.4169L75.477 55.056L68.6201 48.3194H78.2439L84.9805 54.5748L87.3864 52.0485L83.2963 48.3194H88.3488V44.8307H83.2963L87.3864 41.1015L84.9805 38.5753L78.2439 44.8307H68.6201L75.477 38.0941L84.6196 37.7332L84.4993 34.3649L78.9656 34.4852L82.5745 30.9966L80.1686 28.4704L46.3652 62.2738Z" fill="url(#paint0_linear)"/>
<path d="M78.0029 22.6961L73.191 27.508C72.5895 27.0268 72.1083 26.6659 71.5068 26.305L74.6346 20.2902L71.8677 18.8466L68.6197 24.8614C67.8979 24.6209 67.1762 24.3803 66.4544 24.1397L67.6574 17.4031L64.5296 16.8016L63.3267 23.6585C62.9658 23.6585 62.7252 23.6585 62.3643 23.6585C61.8831 23.6585 61.5222 23.6585 61.041 23.6585L60.0787 16.6813L56.8307 17.1625L57.793 24.1397C57.0712 24.3803 56.3495 24.6209 55.6277 24.8614L52.5 18.4857L49.6129 19.9293L52.7406 26.4253C52.1391 26.7862 51.5376 27.2674 51.0564 27.7486L46.004 22.4555L43.7183 24.6209L48.8911 29.9139C48.4099 30.5154 48.049 30.9966 47.6881 31.5981L41.0718 28.1095L39.6282 30.8763L46.2445 34.3649C46.004 34.9664 45.7634 35.6882 45.6431 36.4099L38.0644 35.207L37.4629 38.3347L45.0416 39.6579C45.0416 40.3797 45.0416 40.9812 45.0416 41.703L37.4629 42.7857L37.9441 45.9134L45.5228 44.8307C45.6431 45.4322 45.8837 46.154 46.1243 46.7554L39.2673 50.1238L40.7109 53.0109L47.5678 49.6426C47.9287 50.3643 48.4099 50.9658 49.0114 51.5673L44.1995 56.3792L46.4851 58.6648L80.4088 24.7412L78.0029 22.6961ZM52.3797 30.8763C55.0262 28.2298 58.5148 26.7862 62.244 26.7862C65.3717 26.7862 68.3791 27.8689 70.9054 29.7936L51.1767 49.402C46.846 43.9886 47.2069 35.9287 52.3797 30.8763Z" fill="url(#paint1_linear)"/>
<path d="M35.9216 86.9223H33.9404V74.5165H35.9216V86.9223ZM38.4216 80.3185L44.1292 86.8752H41.6764L35.9688 80.3185L41.1575 74.5165H43.6103L38.4216 80.3185Z" fill="black"/>
<path d="M53.6108 86.922H51.6768V79.4219H48.8938V80.3182C48.8938 85.2239 47.0541 86.7805 44.6484 87.0164V85.2711C46.2994 84.8937 46.9126 83.3371 46.9126 79.3748V77.7238H53.6108V86.922Z" fill="black"/>
<path d="M63.1861 86.9223H61.2522V81.2619L55.6389 87.111H54.9785V77.7241H56.9597V83.3846L62.5729 77.4883H63.2333V86.9223H63.1861Z" fill="black"/>
<path d="M74.5541 86.9223H72.573V81.5921L69.8842 84.7053H69.1767L66.488 81.5921V86.8752H64.5068V77.4883H65.1672L69.5069 82.4883L73.8465 77.4883H74.5069V86.9223H74.5541Z" fill="black"/>
<path d="M83.5636 81.356V86.9221H81.7239V85.8843C81.0636 86.6391 80.073 87.1108 78.7994 87.1108C76.8654 87.1108 75.5918 86.0259 75.5918 84.4692C75.5918 82.8183 76.9126 81.8277 78.9881 81.8277H81.5824V81.2145C81.5824 79.9409 80.8749 79.2333 79.6013 79.2333C78.5164 79.2333 77.7616 79.705 77.0541 80.6013L75.922 79.422C76.8654 78.0541 78.2333 77.4409 79.79 77.4409C82.007 77.488 83.5636 78.8088 83.5636 81.356ZM81.5352 83.4315V83.2428H79.1767C78.139 83.2428 77.5258 83.6202 77.5258 84.3749C77.5258 85.1768 78.2333 85.6013 79.1296 85.6013C80.4503 85.6013 81.5352 84.7051 81.5352 83.4315Z" fill="black"/>
<path d="M92.3851 79.4219H89.2718V86.922H87.3379V79.4219H84.2246V77.7238H92.3851V79.4219Z" fill="black"/>
<path d="M54.4508 102.179H52.4696V94.3956L48.8847 99.0655H48.2243L44.6394 94.3956V102.179H42.6582V89.5842H43.3186L48.5073 96.5183L53.6961 89.5842H54.3564V102.179H54.4508Z" fill="black"/>
<path d="M63.5548 96.6125V102.179H61.7151V101.141C61.0548 101.896 60.0642 102.367 58.7906 102.367C56.8566 102.367 55.583 101.282 55.583 99.7257C55.583 98.0747 56.9038 97.0842 58.9793 97.0842H61.5736V96.471C61.5736 95.1974 60.8661 94.4898 59.5925 94.4898C58.5076 94.4898 57.7528 94.9615 57.0453 95.8577L55.9132 94.6785C56.8566 93.3105 58.2245 92.6973 59.7812 92.6973C61.9982 92.7445 63.5548 94.0653 63.5548 96.6125ZM61.5736 98.688V98.4993H59.2151C58.1774 98.4993 57.5642 98.8766 57.5642 99.6314C57.5642 100.433 58.2717 100.858 59.1679 100.858C60.4887 100.858 61.5736 99.9616 61.5736 98.688Z" fill="black"/>
<path d="M74.3099 97.5558C74.3099 100.292 72.376 102.367 69.7816 102.367C68.508 102.367 67.4231 101.895 66.7155 101.046V105.528H64.7344V92.9803H66.574V94.3011C67.2344 93.3105 68.4137 92.7444 69.7816 92.7444C72.4231 92.7444 74.3099 94.8199 74.3099 97.5558ZM66.7155 97.5558C66.7155 99.6313 68.0835 100.575 69.4986 100.575C71.0552 100.575 72.3288 99.3955 72.3288 97.5558C72.3288 95.7633 71.1024 94.5369 69.4986 94.5369C68.1306 94.5369 66.7155 95.4803 66.7155 97.5558Z" fill="black"/>
<path d="M82.7523 94.6784H79.639V102.178H77.705V94.6784H74.5918V92.9803H82.7523V94.6784Z" fill="black"/>
<defs>
<filter id="filter0_d" x="0" y="0" width="126" height="126" filterUnits="userSpaceOnUse" color-interpolation-filters="sRGB">
<feFlood flood-opacity="0" result="BackgroundImageFix"/>
<feColorMatrix in="SourceAlpha" type="matrix" values="0 0 0 0 0 0 0 0 0 0 0 0 0 0 0 0 0 0 127 0"/>
<feOffset dy="4"/>
<feGaussianBlur stdDeviation="2"/>
<feColorMatrix type="matrix" values="0 0 0 0 0 0 0 0 0 0 0 0 0 0 0 0 0 0 0.25 0"/>
<feBlend mode="normal" in2="BackgroundImageFix" result="effect1_dropShadow"/>
<feBlend mode="normal" in="SourceGraphic" in2="effect1_dropShadow" result="shape"/>
</filter>
<linearGradient id="paint0_linear" x1="46.412" y1="49.4664" x2="88.3463" y2="49.4664" gradientUnits="userSpaceOnUse">
<stop stop-color="#9DD600"/>
<stop offset="0.3208" stop-color="#65C65B"/>
<stop offset="0.6528" stop-color="#2FB7B2"/>
<stop offset="0.8871" stop-color="#0DAEEA"/>
<stop offset="1" stop-color="#00AAFF"/>
</linearGradient>
<linearGradient id="paint1_linear" x1="37.4773" y1="37.8038" x2="80.3499" y2="37.8038" gradientUnits="userSpaceOnUse">
<stop stop-color="#F16522"/>
<stop offset="1" stop-color="#FFE605"/>
</linearGradient>
</defs>
</svg>
