<svg width="137" height="137" viewBox="0 0 137 137" fill="none" xmlns="http://www.w3.org/2000/svg">
<path d="M68.4985 135.536C105.407 135.536 135.328 105.57 135.328 68.6044C135.328 31.6393 105.407 1.67322 68.4985 1.67322C31.5897 1.67322 1.66919 31.6393 1.66919 68.6044C1.66919 105.57 31.5897 135.536 68.4985 135.536Z" fill="white"/>
<path d="M58.0585 16.3144C95.0234 16.3144 124.888 46.2243 124.888 83.2457C124.888 94.5403 122.173 105.207 117.161 114.411C128.438 102.488 135.33 86.3831 135.33 68.6044C135.33 31.5831 105.466 1.67322 68.5006 1.67322C42.8131 1.67322 20.467 16.1053 9.39844 37.4396C21.5112 24.2625 38.8451 16.3144 58.0585 16.3144Z" fill="#E9157B" fill-opacity="0.4"/>
<path d="M68.5 137C30.6997 137 0 106.253 0 68.6045C0 30.9557 30.6997 0 68.5 0C106.3 0 137 30.7465 137 68.6045C137 106.462 106.091 137 68.5 137ZM68.5 3.1374C32.5793 3.1374 3.13262 32.4198 3.13262 68.6045C3.13262 104.58 32.3704 133.862 68.5 133.862C104.421 133.862 133.659 104.58 133.659 68.6045C133.659 32.4198 104.421 3.1374 68.5 3.1374Z" fill="#E9157B"/>
<path d="M68.5019 135.535C88.3419 135.535 106.302 126.751 118.415 112.946C117.371 105.835 111.941 99.9782 104.632 98.7233L90.6391 96.2134C89.8038 96.0042 88.7596 95.795 87.9242 95.3767H48.662C47.8266 95.795 46.9913 96.0042 45.9471 96.2134L31.9547 98.7233C24.6452 99.9782 19.2153 105.835 18.1711 112.946C30.7016 126.751 48.4532 135.535 68.5019 135.535Z" fill="#E9157B" fill-opacity="0.4"/>
<path d="M71.6322 125.077C87.9218 122.149 103.376 114.619 110.477 100.815C108.597 99.5599 107.135 99.1416 104.838 98.7233L90.8456 96.2134C90.0102 96.0042 88.966 95.795 88.1306 95.3767H48.6596C47.8242 95.795 46.9889 96.0042 45.9447 96.2134L31.9523 98.7233C25.2694 99.7691 20.2572 104.789 18.5864 111.064C18.7953 111.273 19.0041 111.273 19.213 111.482C33.623 122.986 52.2099 128.633 71.6322 125.077Z" fill="white"/>
<path d="M68.5006 137C49.0783 137 30.2826 128.634 17.3344 113.992C17.1256 113.574 16.9167 113.156 16.9167 112.737C17.961 104.789 24.0174 98.5146 31.9533 97.2596L45.9457 94.7497C46.7811 94.5406 47.4076 94.3314 48.243 94.1222C48.4518 94.1222 48.6607 93.9131 48.8695 93.9131H88.3405C88.5494 93.9131 88.7582 93.9131 88.9671 94.1222C89.5936 94.5406 90.4289 94.7497 91.2643 94.7497L105.257 97.2596C113.193 98.7238 119.04 104.789 120.293 112.737C120.293 113.156 120.293 113.574 119.876 113.992C106.51 128.634 87.9229 137 68.5006 137ZM20.0494 112.528C32.5799 126.124 50.1225 133.863 68.5006 133.863C86.8786 133.863 104.421 126.124 116.743 112.528C115.49 106.254 110.687 101.443 104.421 100.397L90.4289 97.8871C89.5936 97.678 88.5494 97.4688 87.714 97.0505H49.0783C48.243 97.4688 47.4076 97.678 46.3634 97.8871L32.371 100.397C26.1058 101.443 21.3024 106.254 20.0494 112.528Z" fill="#E9157B"/>
<path d="M56.3851 82.4095L54.9232 88.0569C54.0878 91.4034 51.7906 94.1225 48.658 95.5866L68.2891 109.81L87.9202 95.5866C84.7875 94.1225 82.4903 91.4034 81.6549 88.0569L80.193 82.4095H56.3851Z" fill="white"/>
<path d="M78.3155 102.698L88.131 95.5866C84.9984 94.1225 82.7011 91.4034 81.8658 88.0569L80.4039 82.4095H70.1707L72.6768 92.6584C73.721 96.6324 75.6005 99.979 78.3155 102.698Z" fill="#E9157B" fill-opacity="0.4"/>
<path d="M68.5014 111.273C68.0838 111.273 67.8749 111.273 67.6661 111.064L48.035 96.841C47.6173 96.4227 47.4084 96.0044 47.4084 95.3769C47.4084 94.7494 47.8261 94.3311 48.2438 94.122C50.9588 92.867 52.8383 90.5662 53.6737 87.638L55.1356 81.9907C55.3444 81.3632 55.9709 80.7357 56.5975 80.7357H80.6142C81.2408 80.7357 81.8673 81.154 82.0761 81.9907L83.538 87.638C84.1646 90.5662 86.253 92.867 88.9679 94.122C89.3856 94.3311 89.8033 94.7494 89.8033 95.3769C89.8033 96.0044 89.5944 96.4227 89.1768 96.841L69.5456 111.064C69.128 111.273 68.7103 111.273 68.5014 111.273ZM51.5853 95.7952L68.5014 107.927L85.2088 95.7952C82.7027 94.122 81.0319 91.612 80.1966 88.4746L79.1524 84.0823H57.6417L56.5975 88.4746C55.7621 91.4029 54.0914 93.9128 51.5853 95.7952Z" fill="#E9157B"/>
<path d="M92.099 59.6106C92.099 75.716 81.4481 88.6839 68.2911 88.6839C55.1341 88.6839 44.4832 75.716 44.4832 59.6106C44.4832 43.5053 55.1341 35.1389 68.2911 35.1389C81.4481 35.1389 92.099 43.5053 92.099 59.6106Z" fill="white"/>
<path d="M68.5001 35.1389C66.4117 35.1389 64.3233 35.3481 62.2349 35.7664C72.2593 38.0672 79.7776 46.2244 79.7776 59.6106C79.7776 72.9969 72.2593 84.2915 62.2349 87.6381C64.3233 88.2656 66.4117 88.6839 68.5001 88.6839C81.6571 88.6839 92.308 75.716 92.308 59.6106C92.0992 43.5053 81.4483 35.1389 68.5001 35.1389Z" fill="#E9157B" fill-opacity="0.4"/>
<path d="M68.5007 90.1482C54.5084 90.1482 43.2309 76.3436 43.2309 59.6108C43.0221 43.9238 53.2553 33.4658 68.5007 33.4658C83.7462 33.4658 93.7706 43.9238 93.7706 59.6108C93.7706 76.3436 82.2843 90.1482 68.5007 90.1482ZM68.5007 36.6032C54.926 36.6032 46.3635 45.5971 46.3635 59.6108C46.3635 74.6703 56.3879 87.0108 68.5007 87.0108C80.6136 87.0108 90.6379 74.6703 90.6379 59.6108C90.6379 45.5971 81.8666 36.6032 68.5007 36.6032Z" fill="#E9157B"/>
<path d="M68.2911 53.1269C58.4755 49.5712 50.1219 50.4078 45.5274 51.6628C44.9008 53.9635 44.4832 56.6826 44.4832 59.6109C44.4832 75.7162 55.1341 88.6841 68.2911 88.6841C81.4481 88.6841 92.099 75.7162 92.099 59.6109C92.099 57.5193 91.8902 55.6368 91.6813 53.9635C86.2515 55.2185 77.2713 56.4735 68.2911 53.1269Z" fill="white"/>
<path d="M91.6808 53.7539C89.1747 54.3814 86.0421 55.0089 82.4918 55.218C82.7006 56.6821 82.7006 58.1463 82.7006 59.6104C82.7006 72.3692 76.6442 83.4546 67.6641 88.4745C67.8729 88.4745 68.0817 88.4745 68.2906 88.4745C81.4476 88.4745 92.0985 75.5065 92.0985 59.4012C92.0985 57.5188 92.0985 55.6363 91.6808 53.7539Z" fill="#E9157B" fill-opacity="0.4"/>
<path d="M68.4993 90.1485C54.5069 90.1485 43.2295 76.3439 43.2295 59.6111C43.2295 56.6829 43.6472 53.9638 44.2737 51.2447C44.4825 50.6172 44.9002 50.1989 45.3179 50.1989C50.5389 48.9439 58.8926 48.1073 68.917 51.663C77.4795 54.8004 85.8332 53.7546 91.263 52.2905C91.6807 52.0813 92.0984 52.2905 92.5161 52.4997C92.9338 52.7088 93.1426 53.1271 93.1426 53.5455C93.5603 55.4279 93.7691 57.5195 93.7691 59.6111C93.7691 76.3439 82.2829 90.1485 68.4993 90.1485ZM46.9886 52.918C46.571 55.0096 46.3621 57.3103 46.3621 59.6111C46.3621 74.6706 56.3865 87.0111 68.4993 87.0111C80.6121 87.0111 90.6365 74.6706 90.6365 59.6111C90.6365 58.3561 90.6365 57.1012 90.4277 55.8462C84.5801 57.1012 76.2264 57.7287 67.8728 54.8004C59.1014 51.4539 51.792 51.8722 46.9886 52.918Z" fill="#E9157B"/>
</svg>
