<svg width="24" height="24" viewBox="0 0 24 24" fill="none" xmlns="http://www.w3.org/2000/svg">
<path fill-rule="evenodd" clip-rule="evenodd" d="M12 1C18.0751 1 23 5.92487 23 12C23 18.0751 18.0751 23 12 23C5.92487 23 1 18.0751 1 12C1 5.92487 5.92487 1 12 1ZM20.9211 13.1964C19.861 13.7479 18.4647 14.209 16.8792 14.5269C16.6538 16.8289 16.1208 18.861 15.3455 20.3577C18.3045 19.1721 20.4876 16.4606 20.9211 13.1964ZM14.9863 12.8045C14.9953 12.5397 15 12.2713 15 12C15 6.98399 13.4064 3 12 3C10.5936 3 8.99998 6.98399 8.99998 12C8.99998 12.287 9.00519 12.5706 9.01529 12.8502C9.95339 12.9483 10.9558 13 12 13C13.028 13 14.0367 12.9275 14.9863 12.8045ZM16.9962 12.4541C16.9987 12.3035 17 12.1521 17 12C17 8.67237 16.3944 5.66731 15.3455 3.64232C18.3216 4.83473 20.5128 7.57078 20.9285 10.8601C20.4579 11.3883 18.9737 12.0157 16.9962 12.4541ZM9.17888 14.8773C10.076 14.9581 11.0209 15 12 15C12.9633 15 13.9124 14.9454 14.8253 14.8441C14.3742 18.4417 13.127 21 12 21C10.8764 21 9.63344 18.4574 9.17888 14.8773ZM7.00555 12.5502C6.43159 12.4357 5.89667 12.3009 5.40825 12.1475C4.16779 11.758 3.35716 11.2805 3.06563 10.9074C3.46627 7.59697 5.66412 4.8404 8.65455 3.6423C7.60556 5.66729 7 8.67235 7 12C7 12.1844 7.00186 12.3679 7.00555 12.5502ZM7.12914 14.6108C7.35916 16.8783 7.88867 18.8792 8.65455 20.3577C5.74676 19.1927 3.58834 16.5542 3.10294 13.3658C4.14642 13.9093 5.52332 14.3317 7.12914 14.6108Z" fill="#0085FF"/>
</svg>
