<svg width="22" height="23" viewBox="0 0 22 23" fill="none" xmlns="http://www.w3.org/2000/svg">
<path fill-rule="evenodd" clip-rule="evenodd" d="M11 0.996643C17.0751 0.996643 22 5.90487 22 11.9595C22 18.0141 17.0751 22.9223 11 22.9223C4.92487 22.9223 0 18.0141 0 11.9595C0 5.90487 4.92487 0.996643 11 0.996643ZM2.06563 10.8705C2.35716 11.2424 3.16779 11.7183 4.40825 12.1065C4.89667 12.2594 5.43159 12.3937 6.00555 12.5078C6.00186 12.3261 6 12.1433 6 11.9595C6 8.64307 6.60556 5.64817 7.65455 3.63001C4.66412 4.82407 2.46627 7.57132 2.06563 10.8705ZM6.12914 14.5615C4.52332 14.2833 3.14642 13.8623 2.10294 13.3206C2.58834 16.4983 4.74676 19.1279 7.65456 20.2889C6.88867 18.8155 6.35916 16.8213 6.12914 14.5615ZM8.17888 14.8271C9.07599 14.9076 10.0209 14.9493 11 14.9493C11.9633 14.9493 12.9124 14.8949 13.8253 14.794C13.3742 18.3794 12.127 20.9291 11 20.9291C9.87645 20.9291 8.63344 18.3951 8.17888 14.8271ZM13.9863 12.7613C13.0367 12.8838 12.028 12.9561 11 12.9561C9.95576 12.9561 8.95339 12.9046 8.01529 12.8068C8.00519 12.5281 7.99998 12.2455 7.99998 11.9595C7.99998 6.96042 9.59358 2.98989 11 2.98989C12.4064 2.98989 14 6.96042 14 11.9595C14 12.2299 13.9953 12.4973 13.9863 12.7613ZM15.8792 14.4778C15.6538 16.7721 15.1208 18.7973 14.3455 20.2889C17.3045 19.1074 19.4876 16.405 19.9211 13.1519C18.861 13.7014 17.4647 14.161 15.8792 14.4778ZM19.9285 10.8235C19.4579 11.3499 17.9737 11.9752 15.9962 12.4121C15.9987 12.2619 16 12.111 16 11.9595C16 8.64309 15.3944 5.64819 14.3455 3.63003C17.3216 4.81841 19.5128 7.54523 19.9285 10.8235Z" fill="#ED8E00"/>
</svg>
