<svg width="102" height="30" viewBox="0 0 102 30" fill="none" xmlns="http://www.w3.org/2000/svg">
<path d="M97.8818 30H4.13184C2.03184 30 0.381836 28.275 0.381836 26.25V3.75C0.381836 1.65 2.10684 0 4.13184 0H97.8818C99.9818 0 101.632 1.725 101.632 3.75V26.25C101.632 28.275 99.9818 30 97.8818 30Z" fill="black"/>
<path d="M35.9307 7.65029C35.9307 8.25029 35.7807 8.77529 35.4057 9.15029C34.9557 9.60029 34.4307 9.82529 33.7557 9.82529C33.0807 9.82529 32.5557 9.60029 32.1057 9.15029C31.6557 8.70029 31.4307 8.17529 31.4307 7.50029C31.4307 6.82529 31.6557 6.30029 32.1057 5.85029C32.5557 5.40029 33.0807 5.17529 33.7557 5.17529C34.0557 5.17529 34.3557 5.25029 34.6557 5.40029C34.9557 5.55029 35.1807 5.70029 35.3307 5.92529L34.9557 6.30029C34.6557 5.92529 34.2807 5.77529 33.7557 5.77529C33.3057 5.77529 32.8557 5.92529 32.5557 6.30029C32.1807 6.60029 32.0307 7.05029 32.0307 7.57529C32.0307 8.10029 32.1807 8.55029 32.5557 8.85029C32.9307 9.15029 33.3057 9.37529 33.7557 9.37529C34.2807 9.37529 34.6557 9.22529 35.0307 8.85029C35.2557 8.62529 35.4057 8.32529 35.4057 7.95029H33.7557V7.42529H35.9307C35.9307 7.42529 35.9307 7.57529 35.9307 7.65029Z" fill="white" stroke="white" stroke-width="0.154676" stroke-miterlimit="10"/>
<path d="M39.3818 5.77494H37.3568V7.19994H39.2318V7.72494H37.3568V9.14994H39.3818V9.74994H36.7568V5.24994H39.3818V5.77494Z" fill="white" stroke="white" stroke-width="0.154676" stroke-miterlimit="10"/>
<path d="M41.8574 9.74994H41.2574V5.77494H39.9824V5.24994H43.1324V5.77494H41.8574V9.74994Z" fill="white" stroke="white" stroke-width="0.154676" stroke-miterlimit="10"/>
<path d="M45.3066 9.74994V5.24994H45.9066V9.74994H45.3066Z" fill="white" stroke="white" stroke-width="0.154676" stroke-miterlimit="10"/>
<path d="M48.457 9.74994H47.857V5.77494H46.582V5.24994H49.657V5.77494H48.382V9.74994H48.457Z" fill="white" stroke="white" stroke-width="0.154676" stroke-miterlimit="10"/>
<path d="M55.5814 9.14981C55.1314 9.59981 54.6064 9.82481 53.9314 9.82481C53.2564 9.82481 52.7314 9.59981 52.2814 9.14981C51.8314 8.69981 51.6064 8.1748 51.6064 7.4998C51.6064 6.82481 51.8314 6.2998 52.2814 5.8498C52.7314 5.3998 53.2564 5.1748 53.9314 5.1748C54.6064 5.1748 55.1314 5.3998 55.5814 5.8498C56.0314 6.2998 56.2564 6.82481 56.2564 7.4998C56.2564 8.1748 56.0314 8.69981 55.5814 9.14981ZM52.7314 8.77481C53.0314 9.07481 53.4814 9.2998 53.9314 9.2998C54.3814 9.2998 54.8314 9.14981 55.1314 8.77481C55.4314 8.47481 55.6564 8.02481 55.6564 7.4998C55.6564 6.9748 55.5064 6.5248 55.1314 6.2248C54.8314 5.9248 54.3814 5.69981 53.9314 5.69981C53.4814 5.69981 53.0314 5.8498 52.7314 6.2248C52.4314 6.5248 52.2064 6.9748 52.2064 7.4998C52.2064 8.02481 52.3564 8.47481 52.7314 8.77481Z" fill="white" stroke="white" stroke-width="0.154676" stroke-miterlimit="10"/>
<path d="M57.082 9.74994V5.24994H57.757L59.932 8.77494V7.87494V5.24994H60.532V9.74994H59.932L57.607 6.07494V6.97494V9.74994H57.082Z" fill="white" stroke="white" stroke-width="0.154676" stroke-miterlimit="10"/>
<path d="M51.4561 16.35C49.6561 16.35 48.2311 17.6999 48.2311 19.5749C48.2311 21.3749 49.6561 22.8 51.4561 22.8C53.2561 22.8 54.6811 21.4499 54.6811 19.5749C54.6811 17.6249 53.2561 16.35 51.4561 16.35ZM51.4561 21.4499C50.4811 21.4499 49.6561 20.625 49.6561 19.5C49.6561 18.375 50.4811 17.55 51.4561 17.55C52.4311 17.55 53.2561 18.3 53.2561 19.5C53.2561 20.625 52.4311 21.4499 51.4561 21.4499ZM44.4811 16.35C42.6811 16.35 41.2561 17.6999 41.2561 19.5749C41.2561 21.3749 42.6811 22.8 44.4811 22.8C46.2811 22.8 47.7061 21.4499 47.7061 19.5749C47.7061 17.6249 46.2811 16.35 44.4811 16.35ZM44.4811 21.4499C43.5061 21.4499 42.6811 20.625 42.6811 19.5C42.6811 18.375 43.5061 17.55 44.4811 17.55C45.4561 17.55 46.2811 18.3 46.2811 19.5C46.2811 20.625 45.4561 21.4499 44.4811 21.4499ZM36.1561 17.3249V18.675H39.3811C39.3061 19.425 39.0061 20.025 38.6311 20.4C38.1811 20.85 37.4311 21.375 36.1561 21.375C34.1311 21.375 32.6311 19.8 32.6311 17.775C32.6311 15.75 34.2061 14.175 36.1561 14.175C37.2061 14.175 38.0311 14.625 38.6311 15.15L39.6061 14.175C38.7811 13.425 37.7311 12.825 36.2311 12.825C33.5311 12.825 31.2061 15.075 31.2061 17.775C31.2061 20.475 33.5311 22.725 36.2311 22.725C37.7311 22.725 38.7811 22.275 39.6811 21.3C40.5811 20.4 40.8811 19.125 40.8811 18.15C40.8811 17.85 40.8811 17.5499 40.8061 17.3249H36.1561ZM70.2061 18.375C69.9061 17.625 69.1561 16.35 67.5061 16.35C65.8561 16.35 64.5061 17.6249 64.5061 19.5749C64.5061 21.3749 65.8561 22.8 67.6561 22.8C69.0811 22.8 69.9811 21.9 70.2811 21.375L69.2311 20.625C68.8561 21.15 68.4061 21.525 67.6561 21.525C66.9061 21.525 66.4561 21.225 66.0811 20.55L70.3561 18.75L70.2061 18.375ZM65.8561 19.425C65.8561 18.225 66.8311 17.55 67.5061 17.55C68.0311 17.55 68.5561 17.85 68.7061 18.225L65.8561 19.425ZM62.3311 22.5H63.7561V13.125H62.3311V22.5ZM60.0811 17.025C59.7061 16.65 59.1061 16.275 58.3561 16.275C56.7811 16.275 55.2811 17.7 55.2811 19.5C55.2811 21.3 56.7061 22.65 58.3561 22.65C59.1061 22.65 59.7061 22.275 60.0061 21.9H60.0811V22.35C60.0811 23.55 59.4061 24.225 58.3561 24.225C57.5311 24.225 56.9311 23.625 56.7811 23.1L55.5811 23.625C55.9561 24.45 56.8561 25.5 58.4311 25.5C60.0811 25.5 61.4311 24.525 61.4311 22.1999V16.5H60.0811V17.025ZM58.4311 21.4499C57.4561 21.4499 56.6311 20.625 56.6311 19.5C56.6311 18.375 57.4561 17.55 58.4311 17.55C59.4061 17.55 60.1561 18.375 60.1561 19.5C60.1561 20.625 59.4061 21.4499 58.4311 21.4499ZM76.7311 13.125H73.3561V22.5H74.7811V18.975H76.7311C78.3061 18.975 79.8061 17.85 79.8061 16.05C79.8061 14.25 78.3061 13.125 76.7311 13.125ZM76.8061 17.625H74.7811V14.4H76.8061C77.8561 14.4 78.4561 15.3 78.4561 15.975C78.3811 16.8 77.7811 17.625 76.8061 17.625ZM85.4311 16.275C84.3811 16.275 83.3311 16.7249 82.9561 17.6999L84.2311 18.225C84.5311 17.7 84.9811 17.55 85.5061 17.55C86.2561 17.55 86.9311 18 87.0061 18.75V18.8249C86.7811 18.6749 86.1811 18.4499 85.5811 18.4499C84.2311 18.4499 82.8811 19.2 82.8811 20.55C82.8811 21.825 84.0061 22.65 85.2061 22.65C86.1811 22.65 86.6311 22.2 87.0061 21.75H87.0811V22.5H88.4311V18.9C88.2811 17.25 87.0061 16.275 85.4311 16.275ZM85.2811 21.4499C84.8311 21.4499 84.1561 21.225 84.1561 20.625C84.1561 19.875 84.9811 19.65 85.6561 19.65C86.2561 19.65 86.5561 19.7999 86.9311 19.9499C86.7811 20.8499 86.0311 21.4499 85.2811 21.4499ZM93.1561 16.5L91.5811 20.55H91.5061L89.8561 16.5H88.3561L90.8311 22.1999L89.4061 25.35H90.8311L94.6561 16.5H93.1561ZM80.5561 22.5H81.9811V13.125H80.5561V22.5Z" fill="white"/>
<path d="M8.18164 5.625C7.95664 5.85 7.80664 6.225 7.80664 6.675V23.25C7.80664 23.7 7.95664 24.075 8.18164 24.3L8.25664 24.375L17.5566 15.075V15V14.925L8.18164 5.625Z" fill="url(#paint0_linear)"/>
<path d="M20.6307 18.2249L17.5557 15.1499V14.9999V14.9249L20.6307 11.8499L20.7057 11.9249L24.3807 14.0249C25.4307 14.6249 25.4307 15.5999 24.3807 16.1999L20.6307 18.2249Z" fill="url(#paint1_linear)"/>
<path d="M20.7066 18.1498L17.5566 14.9998L8.18164 24.3748C8.55664 24.7498 9.08164 24.7498 9.75664 24.4498L20.7066 18.1498Z" fill="url(#paint2_linear)"/>
<path d="M20.7066 11.8501L9.75664 5.62508C9.08164 5.25008 8.55664 5.32508 8.18164 5.70008L17.5566 15.0001L20.7066 11.8501Z" fill="url(#paint3_linear)"/>
<path opacity="0.2" d="M20.6326 18.0751L9.75762 24.2251C9.15762 24.6001 8.63262 24.5251 8.25762 24.2251L8.18262 24.3001L8.25762 24.3751C8.63262 24.6751 9.15762 24.7501 9.75762 24.3751L20.6326 18.0751Z" fill="black"/>
<path opacity="0.12" d="M8.18184 24.2252C7.95684 24.0002 7.88184 23.6252 7.88184 23.1752V23.2502C7.88184 23.7002 8.03184 24.0752 8.25684 24.3002V24.2252H8.18184Z" fill="black"/>
<path opacity="0.12" d="M24.3818 15.9748L20.6318 18.0748L20.7068 18.1498L24.3818 16.0498C24.9068 15.7498 25.1318 15.3748 25.1318 14.9998C25.1318 15.3748 24.8318 15.6748 24.3818 15.9748Z" fill="black"/>
<path opacity="0.25" d="M9.75684 5.69997L24.3818 14.025C24.8318 14.325 25.1318 14.625 25.1318 15C25.1318 14.625 24.9068 14.25 24.3818 13.95L9.75684 5.62497C8.70684 5.02497 7.88184 5.54997 7.88184 6.74997V6.82497C7.88184 5.62497 8.70684 5.09997 9.75684 5.69997Z" fill="white"/>
<defs>
<linearGradient id="paint0_linear" x1="16.7314" y1="6.53227" x2="4.14462" y2="19.1191" gradientUnits="userSpaceOnUse">
<stop stop-color="#00A0FF"/>
<stop offset="0.00657445" stop-color="#00A1FF"/>
<stop offset="0.2601" stop-color="#00BEFF"/>
<stop offset="0.5122" stop-color="#00D2FF"/>
<stop offset="0.7604" stop-color="#00DFFF"/>
<stop offset="1" stop-color="#00E3FF"/>
</linearGradient>
<linearGradient id="paint1_linear" x1="25.7565" y1="15.001" x2="7.60879" y2="15.001" gradientUnits="userSpaceOnUse">
<stop stop-color="#FFE000"/>
<stop offset="0.4087" stop-color="#FFBD00"/>
<stop offset="0.7754" stop-color="#FFA500"/>
<stop offset="1" stop-color="#FF9C00"/>
</linearGradient>
<linearGradient id="paint2_linear" x1="19.0019" y1="16.7219" x2="1.93317" y2="33.7906" gradientUnits="userSpaceOnUse">
<stop stop-color="#FF3A44"/>
<stop offset="1" stop-color="#C31162"/>
</linearGradient>
<linearGradient id="paint3_linear" x1="5.85462" y1="0.132234" x2="13.4766" y2="7.75411" gradientUnits="userSpaceOnUse">
<stop stop-color="#32A071"/>
<stop offset="0.0685" stop-color="#2DA771"/>
<stop offset="0.4762" stop-color="#15CF74"/>
<stop offset="0.8009" stop-color="#06E775"/>
<stop offset="1" stop-color="#00F076"/>
</linearGradient>
</defs>
</svg>
