<svg width="158" height="144" viewBox="0 0 158 144" fill="none" xmlns="http://www.w3.org/2000/svg">
<g filter="url(#filter0_d)">
<path d="M153.841 117.476V57.2318C153.841 55.6098 152.451 53.9879 150.597 53.9879H145.268L145.036 53.2927C137.853 22.4757 110.743 0.92688 78.9994 0.92688C47.2555 0.92688 19.9141 22.4757 12.7311 53.5244L12.4994 54.2196H7.17017C5.54822 54.2196 3.92627 55.6098 3.92627 57.4635V117.707C3.92627 119.329 5.31651 120.951 7.17017 120.951H34.9751L35.2068 121.183C47.4872 131.61 63.0116 137.171 78.9994 137.171C94.9872 137.171 110.512 131.378 122.792 121.183L123.024 120.951H150.829C152.451 120.72 153.841 119.329 153.841 117.476Z" fill="white"/>
<path d="M144.573 55.1464C138.085 24.7928 111.207 1.85376 78.7678 1.85376C46.3287 1.85376 19.4507 24.7928 12.9629 55.1464H144.573Z" fill="white"/>
<path d="M35.207 119.793C47.0241 129.988 62.3168 136.012 78.9997 136.012C95.6826 136.012 110.975 129.988 122.792 119.793H35.207Z" fill="white"/>
<path d="M110.977 55.1466H144.574C138.086 24.7929 111.208 1.85388 78.7694 1.85388C77.1474 1.85388 75.7572 1.85388 74.1353 2.08559C94.2938 12.049 108.428 31.7441 110.977 55.1466Z" fill="#0085FF" fill-opacity="0.4"/>
<path d="M78.0738 119.793C69.2689 124.891 59.3055 128.134 48.647 128.83C57.6836 133.464 67.8787 136.012 78.7689 136.012C95.4519 136.012 110.745 129.988 122.562 119.793H78.0738Z" fill="#0085FF" fill-opacity="0.4"/>
<path d="M150.829 119.793H7.17059C5.78034 119.793 4.85352 118.866 4.85352 117.476V57.2316C4.85352 55.8414 5.78034 54.9146 7.17059 54.9146H150.829C152.219 54.9146 153.146 55.8414 153.146 57.2316V117.476C153.146 118.866 151.988 119.793 150.829 119.793Z" fill="#0085FF" fill-opacity="0.4"/>
<path d="M150.829 119.792H16.4385V66.4998C16.4385 65.1096 17.3653 64.1827 18.7555 64.1827H153.146V117.475C153.146 118.866 151.987 119.792 150.829 119.792Z" fill="white"/>
<path d="M150.829 121.646H7.17073C4.85366 121.646 3 119.793 3 117.476V57.2318C3 54.9147 4.85366 53.061 7.17073 53.061H150.829C153.146 53.061 155 54.9147 155 57.2318V117.476C154.768 119.793 152.915 121.646 150.829 121.646ZM7.17073 56.7684C6.93902 56.7684 6.47561 57.0001 6.47561 57.4635V117.707C6.47561 117.939 6.70732 118.403 7.17073 118.403H150.829C151.061 118.403 151.524 118.171 151.524 117.707V57.4635C151.524 57.2318 151.293 56.7684 150.829 56.7684H7.17073Z" fill="#0085FF"/>
<path d="M129.975 56.7684H28.0243C27.3291 56.7684 26.634 56.305 26.4023 55.6099C26.1706 54.9147 26.4023 53.9879 27.0974 53.7562L78.0731 21.3172C78.5365 20.8538 79.4633 20.8538 79.9267 21.3172L130.902 53.7562C131.597 54.2196 131.829 54.9147 131.597 55.6099C131.366 56.305 130.671 56.7684 129.975 56.7684ZM33.817 53.2928H123.719L78.9999 24.5611L33.817 53.2928Z" fill="#0085FF"/>
<path d="M78.9992 34.2928C84.118 34.2928 88.2675 30.1433 88.2675 25.0245C88.2675 19.9058 84.118 15.7562 78.9992 15.7562C73.8805 15.7562 69.731 19.9058 69.731 25.0245C69.731 30.1433 73.8805 34.2928 78.9992 34.2928Z" fill="white"/>
<path d="M74.3651 32.9023C74.3651 32.4389 74.3651 32.2072 74.3651 31.7438C74.3651 26.6462 78.5358 22.4755 83.6334 22.4755C85.2553 22.4755 86.8773 22.9389 88.2675 23.634C87.8041 18.9999 83.8651 15.5243 78.9992 15.5243C73.9017 15.5243 69.731 19.695 69.731 24.7926C69.731 28.2682 71.5846 31.2804 74.3651 32.9023Z" fill="#0085FF" fill-opacity="0.4"/>
<path d="M78.9999 35.9147C72.9755 35.9147 67.8779 31.0488 67.8779 24.7927C67.8779 18.7683 72.7438 13.9025 78.9999 13.9025C85.256 13.9025 90.1218 18.7683 90.1218 25.0244C89.8901 31.0488 85.0243 35.9147 78.9999 35.9147ZM78.9999 17.3781C74.8291 17.3781 71.3535 20.8537 71.3535 25.0244C71.3535 29.1952 74.8291 32.4391 78.9999 32.4391C83.1706 32.4391 86.6462 28.9634 86.6462 24.7927C86.6462 20.622 82.9389 17.3781 78.9999 17.3781Z" fill="#0085FF"/>
<path d="M134.61 105.427C133.915 105.427 133.451 105.195 133.219 104.732L115.61 77.1585V103.573C115.61 104.5 114.915 105.427 113.756 105.427C112.829 105.427 111.902 104.732 111.902 103.573V71.1341C111.902 70.439 112.366 69.7439 113.061 69.5122C113.756 69.2805 114.683 69.5122 114.915 70.2073L132.756 97.7805V71.3658C132.756 70.439 133.451 69.5122 134.61 69.5122C135.536 69.5122 136.463 70.2073 136.463 71.3658V103.805C136.463 104.5 136 105.195 135.305 105.427C134.841 105.427 134.61 105.427 134.61 105.427Z" fill="#0085FF"/>
<path d="M104.488 105.427H85.9513C85.0245 105.427 84.0977 104.732 84.0977 103.573V71.1343C84.0977 70.2075 84.7928 69.2806 85.9513 69.2806H104.488C105.415 69.2806 106.342 69.9758 106.342 71.1343C106.342 72.0611 105.646 72.988 104.488 72.988H87.5733V101.951H104.488C105.415 101.951 106.342 102.646 106.342 103.805C106.11 104.732 105.415 105.427 104.488 105.427Z" fill="#0085FF"/>
<path d="M99.8538 89.2073H85.9513C85.0245 89.2073 84.0977 88.5122 84.0977 87.3537C84.0977 86.4268 84.7928 85.5 85.9513 85.5H99.8538C100.781 85.5 101.707 86.1951 101.707 87.3537C101.476 88.5122 100.781 89.2073 99.8538 89.2073Z" fill="#0085FF"/>
<path d="M67.183 89.9026H55.5977V71.366H67.183C72.2806 71.366 76.4513 75.5367 76.4513 80.6343C76.4513 85.7318 72.5123 89.9026 67.183 89.9026Z" fill="#0085FF" fill-opacity="0.4"/>
<path d="M57.9147 89.9026H55.5977V71.366H57.9147C63.0123 71.366 67.183 75.5367 67.183 80.6343C67.183 85.7318 63.244 89.9026 57.9147 89.9026Z" fill="white"/>
<path d="M67.1822 91.5245H55.5968C54.67 91.5245 53.7432 90.8294 53.7432 89.6709V71.1343C53.7432 70.2075 54.4383 69.2806 55.5968 69.2806H67.1822C73.2066 69.2806 78.3041 74.1465 78.3041 80.4026C78.3041 86.6587 73.4383 91.5245 67.1822 91.5245ZM57.4505 88.0489H67.1822C71.3529 88.0489 74.8285 84.5733 74.8285 80.4026C74.8285 76.2319 71.3529 72.7562 67.1822 72.7562H57.4505V88.0489Z" fill="#0085FF"/>
<path d="M55.8292 105.427C54.9024 105.427 53.9756 104.732 53.9756 103.573V71.1343C53.9756 70.2075 54.6707 69.2806 55.8292 69.2806C56.9878 69.2806 57.6829 69.9758 57.6829 71.1343V103.573C57.4512 104.732 56.7561 105.427 55.8292 105.427Z" fill="#0085FF"/>
<path d="M34.7445 103.573H32.4275C27.3299 103.573 23.1592 99.4023 23.1592 94.3048V80.4023C23.1592 75.3048 27.3299 71.134 32.4275 71.134H34.7445C39.8421 71.134 44.0128 75.3048 44.0128 80.4023V94.3048C44.0128 99.634 40.0738 103.573 34.7445 103.573Z" fill="#0085FF" fill-opacity="0.4"/>
<path d="M33.586 103.573H32.4275C27.3299 103.573 23.1592 99.4023 23.1592 94.3048V80.4023C23.1592 75.3048 27.3299 71.134 32.4275 71.134H33.586V103.573Z" fill="white"/>
<path d="M34.7437 105.427H32.4266C26.4022 105.427 21.3047 100.561 21.3047 94.305V80.4026C21.3047 74.3782 26.1705 69.2806 32.4266 69.2806H34.7437C40.7681 69.2806 45.8657 74.1465 45.8657 80.4026V94.305C45.8657 100.561 40.9998 105.427 34.7437 105.427ZM32.4266 72.988C28.2559 72.988 24.7803 76.4636 24.7803 80.6343V94.5367C24.7803 98.7075 28.2559 102.183 32.4266 102.183H34.7437C38.9144 102.183 42.3901 98.7075 42.3901 94.5367V80.6343C42.3901 76.4636 38.9144 72.988 34.7437 72.988H32.4266Z" fill="#0085FF"/>
<path d="M119.781 119.792C108.659 128.829 94.2931 134.39 78.7687 134.39C63.2443 134.39 49.1102 129.061 37.7565 119.792H32.4272C44.7077 130.914 60.9272 137.866 78.7687 137.866C96.6102 137.866 112.83 131.146 125.11 119.792H119.781Z" fill="#0085FF"/>
<path d="M14.8174 55.1463C21.3052 25.4878 47.4881 3.47561 79.0003 3.47561C110.513 3.47561 136.464 25.4878 142.952 55.1463H146.427C139.939 23.6341 112.134 0 79.0003 0C45.8662 0 17.8296 23.6341 11.3418 55.1463H14.8174Z" fill="#0085FF"/>
</g>
<defs>
<filter id="filter0_d" x="0" y="0" width="158" height="143.866" filterUnits="userSpaceOnUse" color-interpolation-filters="sRGB">
<feFlood flood-opacity="0" result="BackgroundImageFix"/>
<feColorMatrix in="SourceAlpha" type="matrix" values="0 0 0 0 0 0 0 0 0 0 0 0 0 0 0 0 0 0 127 0"/>
<feOffset dy="3"/>
<feGaussianBlur stdDeviation="1.5"/>
<feColorMatrix type="matrix" values="0 0 0 0 0 0 0 0 0 0 0 0 0 0 0 0 0 0 0.25 0"/>
<feBlend mode="normal" in2="BackgroundImageFix" result="effect1_dropShadow"/>
<feBlend mode="normal" in="SourceGraphic" in2="effect1_dropShadow" result="shape"/>
</filter>
</defs>
</svg>
