<svg width="90" height="89" viewBox="0 0 90 89" fill="none" xmlns="http://www.w3.org/2000/svg">
<path d="M7.66843 63.4025H11.7369L18.4776 80.2542H14.3128L13.2776 77.3894H6.15179L5.11661 80.2542H0.951852L7.66843 63.4025ZM9.66656 67.6636L7.21103 74.4283H12.2184L9.76285 67.6636H9.66656ZM24.134 67.808C25.7549 67.808 27.1111 68.442 28.2024 69.7098H28.2746V62.7766H31.7413V80.2542H29.8394L28.7561 78.0153H28.6839C28.1864 78.8177 27.5444 79.4517 26.758 79.9171C25.9716 80.3665 25.1049 80.5912 24.158 80.5912C22.5531 80.5912 21.221 79.9974 20.1618 78.8097C19.1186 77.606 18.597 76.0733 18.597 74.2116C18.597 72.3499 19.1186 70.8253 20.1618 69.6376C21.205 68.4339 22.529 67.8241 24.134 67.808ZM22.9784 76.4746C23.5722 77.0684 24.3105 77.3653 25.1932 77.3653C26.0759 77.3653 26.8061 77.0684 27.3839 76.4746C27.9777 75.8807 28.2746 75.1264 28.2746 74.2116C28.2746 73.2968 27.9777 72.5425 27.3839 71.9487C26.8061 71.3549 26.0759 71.058 25.1932 71.058C24.3105 71.058 23.5722 71.3549 22.9784 71.9487C22.4006 72.5425 22.1118 73.2968 22.1118 74.2116C22.1118 75.1264 22.4006 75.8807 22.9784 76.4746ZM53.4193 63.4025H57.2952L52.3841 80.2542H48.1472L45.1861 69.9506H45.0898L42.1528 80.2542H37.9158L32.9807 63.4025H36.8566L40.0102 75.0542H40.0824L43.3324 63.4025H46.9435L50.1934 75.0542H50.2897L53.4193 63.4025ZM58.6114 80.2542V68.145H62.078V80.2542H58.6114ZM58.7799 62.6803C59.1971 62.263 59.7187 62.0544 60.3447 62.0544C60.9706 62.0544 61.4842 62.263 61.8854 62.6803C62.3027 63.0976 62.5113 63.6112 62.5113 64.221C62.5113 64.8148 62.3027 65.3284 61.8854 65.7617C61.4681 66.179 60.9545 66.3877 60.3447 66.3877C59.7348 66.3877 59.2212 66.179 58.8039 65.7617C58.3867 65.3284 58.178 64.8148 58.178 64.221C58.178 63.6112 58.3786 63.0976 58.7799 62.6803ZM74.5066 76.8116C74.5066 77.9671 74.0492 78.89 73.1344 79.5801C72.2196 80.2542 71.056 80.5912 69.6437 80.5912C67.5734 80.5912 65.6555 80.1097 63.8901 79.1468L64.8049 76.4746C66.2012 77.3733 67.7258 77.8227 69.3789 77.8227C69.9085 77.8227 70.3338 77.7425 70.6548 77.582C70.9758 77.4054 71.1363 77.1647 71.1363 76.8597C71.1363 76.5388 70.9758 76.29 70.6548 76.1135C70.3499 75.9209 69.7641 75.7203 68.8974 75.5116C67.4851 75.1585 66.3857 74.669 65.5993 74.0431C64.829 73.4172 64.4438 72.5666 64.4438 71.4913C64.4438 70.4 64.8691 69.5172 65.7197 68.8432C66.5703 68.1531 67.9104 67.808 69.74 67.808C70.398 67.808 71.1684 67.9123 72.0511 68.121C72.9499 68.3296 73.6319 68.5543 74.0974 68.795L73.3992 71.3709C72.34 70.8253 71.1363 70.5524 69.7882 70.5524C68.4882 70.5524 67.8382 70.8654 67.8382 71.4913C67.8382 71.7641 68.0147 71.9968 68.3678 72.1894C68.7369 72.382 69.3468 72.5907 70.1974 72.8154C71.6739 73.2005 72.7573 73.6981 73.4474 74.3079C74.1535 74.9178 74.5066 75.7524 74.5066 76.8116ZM82.2153 67.808C84.1412 67.808 85.6819 68.4018 86.8375 69.5895C88.0091 70.7611 88.5948 72.3018 88.5948 74.2116C88.5948 74.2758 88.5868 74.3641 88.5708 74.4764C88.5708 74.5888 88.5628 74.7332 88.5467 74.9098C88.5307 75.0703 88.5226 75.1987 88.5226 75.295H79.3746C79.8721 76.6752 81.148 77.3653 83.2023 77.3653C84.6789 77.3653 85.9708 77.0443 87.0782 76.4023L87.7282 79.4356C86.4924 80.206 84.9758 80.5912 83.1783 80.5912C80.8832 80.5912 79.0616 80.0054 77.7135 78.8338C76.3654 77.6462 75.6913 76.1054 75.6913 74.2116C75.6913 72.3499 76.3012 70.8172 77.5209 69.6135C78.7567 68.4099 80.3215 67.808 82.2153 67.808ZM79.3264 73.1524H85.1042C85.0721 72.5265 84.7832 72.0209 84.2375 71.6357C83.6918 71.2506 83.0258 71.058 82.2394 71.058C81.5011 71.058 80.8752 71.2506 80.3616 71.6357C79.8641 72.0049 79.519 72.5104 79.3264 73.1524Z" fill="black"/>
<path d="M27.1902 28.0373L17.9438 14.9974C16.5726 13.0772 14.4088 12.0481 12.2199 12.0481C10.8235 12.0481 9.40191 12.4623 8.18164 13.3282L24.5736 36.4336L27.1273 40.023L27.1777 40.0983C27.1902 40.0858 27.1902 40.0858 27.2028 40.0858C27.228 40.0607 27.2531 40.0481 27.2783 40.023L29.8321 36.4336C30.4359 34.4381 30.1466 32.1915 28.8508 30.3592L27.1902 28.0373Z" fill="#ED8E00"/>
<path d="M32.3353 25.3644L34.8891 28.9538L34.9394 29.0165L34.9897 28.9538L37.5309 25.3644L37.6567 25.1886L42.9403 17.7337L48.224 25.1886L48.3498 25.3644L50.891 28.9538L50.9413 29.0165L50.9916 28.9538L53.5454 25.3644L53.6712 25.1886L69.9248 2.24645C68.6919 1.38047 67.2829 0.966309 65.874 0.966309C63.6724 0.966309 61.5086 1.99544 60.15 3.91566L50.9413 16.9054L47.2302 11.6718L42.9403 5.62252L38.6505 11.6718L34.9268 16.9054L25.7055 3.91566C24.3343 1.99544 22.1705 0.966309 19.9816 0.966309C18.5852 0.966309 17.1636 1.38047 15.9434 2.24645L32.2095 25.1761L32.3353 25.3644Z" fill="#8152E4"/>
<path d="M73.6482 12.0357C71.4467 12.0357 69.2829 13.0649 67.9242 14.9851L58.6778 28.025L57.0298 30.3468C55.7215 32.1792 55.4322 34.4257 56.0486 36.4212L58.6024 40.0106C58.6275 40.0357 58.6527 40.0483 58.6778 40.0734C58.6904 40.0734 58.6904 40.086 58.703 40.086L58.7533 40.0106L61.3071 36.4212L77.6864 13.3284C76.4536 12.4499 75.0446 12.0357 73.6482 12.0357Z" fill="#ED8E00"/>
<path d="M50.9799 39.2952L47.3065 34.1119L43.0167 28.0626L42.9412 28.163L42.8657 28.0626L38.5759 34.1119L34.9025 39.2952L33.2545 41.617C31.9461 43.4494 31.6568 45.6959 32.2732 47.6914L34.827 51.2809C34.8521 51.306 34.8773 51.3185 34.9025 51.3436C34.915 51.3562 34.915 51.3562 34.9276 51.3562L34.9779 51.2809L37.5317 47.6914L42.8783 40.1612L42.9538 40.0608L43.0292 40.1612L48.3758 47.6914L50.9296 51.2809L50.9799 51.3562C50.9925 51.3436 50.9925 51.3436 51.005 51.3436C51.0302 51.3185 51.0554 51.306 51.0805 51.2809L53.6343 47.6914C54.2381 45.6959 53.9488 43.4494 52.653 41.617L50.9799 39.2952Z" fill="#8152E4"/>
</svg>
