<svg width="126" height="126" viewBox="0 0 126 126" fill="none" xmlns="http://www.w3.org/2000/svg">
<path d="M30.0603 11.9925H11.9925V30.0603H30.0603V11.9925Z" fill="#18B975"/>
<path fill-rule="evenodd" clip-rule="evenodd" d="M42.0528 0H0V42.0528H42.0528V0ZM6.07542 35.9774V6.07542H35.9774V35.9774H6.07542Z" fill="#18B975"/>
<path d="M60.0415 0H47.9698V30.0603H60.0415V24.0641H66.0377V18.0679H78.0302V0H71.9547V5.99623H65.9585V11.9925H54.0453V6.07542H60.0415V0Z" fill="#18B975"/>
<path d="M114.008 11.9925H95.9397V30.0603H114.008V11.9925Z" fill="#18B975"/>
<path fill-rule="evenodd" clip-rule="evenodd" d="M126 0H83.9472V42.0528H126V0ZM90.0226 35.9774V6.07542H119.925V35.9774H90.0226Z" fill="#18B975"/>
<path d="M78.0302 23.9849H71.9547V30.0603H78.0302V23.9849Z" fill="#18B975"/>
<path fill-rule="evenodd" clip-rule="evenodd" d="M54.0453 35.9774H47.9698V47.9698H35.9774V54.0453H48.049V48.049H59.9623V53.9661H53.9661V59.9623H47.9698V71.9547H36.0566V66.0377H42.0528V59.9623H35.9774V65.9585H29.9811V78.0302H47.9698V90.0226H53.9661V95.9397H47.9698V102.015H53.9661V107.932H47.9698V120.004H53.9661V126H60.0415V120.004H65.9585V126H72.0339V120.004H77.951V126H90.0226V120.004H95.9397V126H108.011V119.925H102.015V114.008H113.928V126H126V119.925H120.004V114.008H126V107.932H120.004V101.936H113.928V107.932H102.015V101.936H90.0226V90.0226H102.015V78.0302H108.011V71.9547H95.9397V77.951H90.0226V71.9547H84.0264V66.0377H126V47.9698H95.9397V53.9661H90.0226V47.9698H83.9472V65.9585H78.0302V59.9623H65.9585V65.9585H60.0415V54.0453H66.0377V48.049H78.0302V35.9774H71.9547V41.9736H66.0377V35.9774H59.9623V41.9736H54.0453V35.9774ZM60.0415 47.9698V42.0528H65.9585V47.9698H60.0415ZM54.0453 66.0377H59.9623V71.9547H54.0453V66.0377ZM54.0453 78.0302H65.9585V83.9472H54.0453V78.0302ZM60.0415 90.0226H71.9547V95.9397H60.0415V90.0226ZM72.0339 102.015V113.928H77.951V102.015H72.0339ZM84.0264 119.925H89.9434V114.008H84.0264V119.925ZM89.9434 107.932V102.015H84.0264V107.932H89.9434ZM83.9472 89.9434V101.936H78.0302V89.9434H72.0339V84.0264H78.0302V77.951H66.0377V72.0339H83.9472V84.0264H89.9434V89.9434H83.9472ZM114.008 113.928V108.011H119.925V113.928H114.008ZM54.0453 113.928V108.011H60.0415V102.015H65.9585V113.928H54.0453ZM53.9661 77.951H48.049V72.0339H53.9661V77.951ZM108.011 59.9623V54.0453H113.928V59.9623H108.011Z" fill="#18B975"/>
<path fill-rule="evenodd" clip-rule="evenodd" d="M18.0679 47.9698H5.99623V53.9661H0V60.0415H11.9925V78.0302H18.0679V66.0377H24.0641V54.0453H30.0603V47.9698H23.9849V53.9661H18.0679V47.9698ZM12.0717 59.9623H17.9887V54.0453H12.0717V59.9623Z" fill="#18B975"/>
<path d="M6.07542 65.9585H0V72.0339H6.07542V65.9585Z" fill="#18B975"/>
<path d="M120.004 71.9547H113.928V83.9472H107.932V90.0226H113.928V96.0189H120.004V90.0226H126V77.951H120.004V71.9547Z" fill="#18B975"/>
<path d="M30.0603 95.9397H11.9925V114.008H30.0603V95.9397Z" fill="#18B975"/>
<path fill-rule="evenodd" clip-rule="evenodd" d="M42.0528 83.9472H0V126H42.0528V83.9472ZM6.07542 119.925V90.0226H35.9774V119.925H6.07542Z" fill="#18B975"/>
</svg>
