<svg width="98" height="26" viewBox="0 0 98 26" fill="none" xmlns="http://www.w3.org/2000/svg">
<path d="M28.6579 12.0436L29.0348 10.8456L27.7879 10.8843C27.6826 10.8843 26.9168 10.8628 26.174 10.3279C26.2293 10.3333 26.2847 10.3408 26.3412 10.3408C27.1058 10.3408 27.8454 9.8836 28.142 9.23006L28.6786 8.04924C28.0062 8.05787 27.3915 7.97377 27.3915 7.97377C27.386 7.97264 26.9016 7.91122 26.3412 7.34286C25.9393 6.93526 25.4419 6.71952 24.9031 6.71952C24.6674 6.71952 24.4567 6.76157 24.2753 6.81875C24.3036 6.72279 24.3307 6.6257 24.346 6.5254C24.5175 5.42005 23.8007 4.57672 23.8007 4.57786L22.8634 3.42505L22.2823 4.77949C22.2801 4.78381 22.1335 5.1009 21.8706 5.25615C21.7913 4.85821 21.5969 4.4107 21.1809 3.98256C20.3967 3.1759 19.442 3.05619 18.9424 3.05619C18.711 3.05619 18.546 3.08101 18.5057 3.08746L17.374 3.30859C17.4391 3.05732 17.5782 2.62052 17.8323 2.22691L18.4569 1.26069L16.8852 1.43863L16.3845 0.38283L15.4157 0.878919L14.5196 0L13.6257 0.878919L12.6536 0.38283L12.1539 1.43863L10.5834 1.26069L11.209 2.22691C11.4632 2.62052 11.6022 3.05619 11.6663 3.30746L10.5866 3.09612L10.5497 3.08966C10.4954 3.08101 10.3314 3.05619 10.099 3.05619C9.59933 3.05619 8.64465 3.17697 7.86256 3.98256C7.44548 4.40964 7.25109 4.85821 7.17072 5.25615C6.91008 5.10303 6.76449 4.79027 6.76449 4.79027L6.18232 3.42823L5.22982 4.58864C5.11355 4.73849 4.53903 5.53119 4.6954 6.5276C4.71173 6.62683 4.73778 6.72386 4.76603 6.81988C4.58573 6.7627 4.37499 6.72064 4.13934 6.72064C3.60059 6.72064 3.10316 6.93633 2.70019 7.34399C2.14185 7.91015 1.65961 7.97377 1.66401 7.97377C1.66401 7.97377 1.15458 8.06431 0.36605 8.05026L0.899333 9.23118C1.19589 9.8858 1.93658 10.3419 2.70019 10.3419C2.75776 10.3419 2.81312 10.3343 2.86963 10.329C2.12887 10.8639 1.36312 10.8854 1.27077 10.8865L0 10.8456L0.384504 12.0425C0.577856 12.6594 1.22407 13.6818 2.46234 13.7917C2.32761 14.3525 2.02893 14.9801 1.37292 15.2508L0.42688 15.6379L0.94277 16.5298C1.23387 17.0108 1.91706 17.5737 2.89021 17.5737C3.10095 17.5726 3.30403 17.5521 3.49958 17.5112C3.54955 17.7312 3.61251 17.9512 3.68641 18.169C3.97637 19.0252 3.72658 19.6226 3.72331 19.6291L3.25626 20.6008L4.29897 20.8736C4.31203 20.8779 4.62698 20.9631 5.02128 20.9631C5.2005 20.9631 5.37098 20.9448 5.53177 20.9071C5.65336 20.879 5.76965 20.8413 5.88147 20.7959C6.01617 21.0364 6.18018 21.2554 6.37135 21.4516C7.03935 22.1321 7.98539 22.4772 9.18445 22.4772H9.1888L10.0447 22.4664L8.27642 23.1954L9.61892 23.8392C10.1066 24.0754 10.6855 24.3547 11.2742 24.5682L11.1069 25.0233L11.5696 25.2325C11.6109 25.2508 12.5004 25.6466 13.9798 25.7307C13.9798 25.7307 14.3371 25.7469 14.5337 25.7469C14.7303 25.7469 15.0833 25.7297 15.0833 25.7297C16.5529 25.6434 17.4359 25.2519 17.4772 25.2325L17.9409 25.0223L17.7715 24.5661C18.3776 24.3461 18.9771 24.0559 19.4442 23.8295L20.7616 23.1943L18.9988 22.4643L19.858 22.4751C21.0582 22.4751 22.0053 22.13 22.6721 21.4484C22.8622 21.2532 23.0263 21.0343 23.1621 20.7938C23.2739 20.8391 23.3912 20.8768 23.5128 20.9049C23.6725 20.9426 23.8431 20.961 24.0223 20.961C24.41 20.961 24.7283 20.8758 24.7369 20.8736L25.784 20.5987L25.3278 19.6453C25.3169 19.6205 25.0671 19.0241 25.3571 18.1668C25.431 17.9479 25.4929 17.7279 25.5428 17.509C25.7395 17.55 25.9447 17.5715 26.1566 17.5715C27.3958 17.5715 27.9899 16.7056 28.1051 16.5179L28.6156 15.6358L27.6695 15.2497C27.0124 14.979 26.7148 14.3503 26.5812 13.7907C27.802 13.6871 28.458 12.6648 28.6579 12.0436ZM11.7488 3.7205L11.7358 3.72376L11.7467 3.70972L11.7488 3.7205Z" fill="white"/>
<path d="M14.5207 3.66772C13.5193 3.66879 12.7688 3.99446 12.6047 4.37729L14.5207 5.12791L16.4367 4.37729C16.2737 3.99446 15.5232 3.66879 14.5207 3.66772Z" fill="white"/>
<path d="M14.54 23.5372H14.5378H14.5215H14.503H14.5019C13.8948 23.5415 13.0595 23.4175 12.6566 23.301L12.1721 24.6026C12.4915 24.7159 13.5733 24.9316 14.5215 24.9316C15.4675 24.9316 16.5504 24.7149 16.8687 24.6026L16.3853 23.301C15.9813 23.4185 15.1471 23.5415 14.54 23.5372Z" fill="white"/>
<path d="M18.2061 22.2432C17.8455 22.4459 17.0406 22.75 16.5725 22.8913L16.9657 23.9664C17.6901 23.7701 18.2875 23.5405 18.7818 23.2946L17.966 23.025L18.2061 22.2432Z" fill="white"/>
<path d="M10.8367 22.2432L11.0777 23.025L10.261 23.2946C10.7541 23.5405 11.3547 23.7701 12.0759 23.9664L12.4691 22.8913C12.0031 22.75 11.1972 22.4448 10.8367 22.2432Z" fill="white"/>
<path d="M14.5209 2.42313C15.2757 2.42313 16.0165 2.60213 16.5856 2.91709C16.6378 2.74341 16.7105 2.53313 16.8094 2.31313L16.5943 2.33902L16.3684 2.36277L16.2728 2.15895L15.985 1.55506L15.4604 1.82676L15.2562 1.9303L15.0933 1.77073L14.523 1.20996L13.9539 1.77073L13.791 1.9303L13.5868 1.82676L13.0589 1.55506L12.7743 2.15895L12.6766 2.36277L12.4507 2.33902L12.2356 2.31313C12.3345 2.53419 12.4062 2.74341 12.4594 2.91709C13.0296 2.60213 13.7681 2.42313 14.5209 2.42313Z" fill="white"/>
<path d="M26.0459 9.40266C26.1438 9.43608 26.2436 9.45115 26.3425 9.45115C26.7693 9.45115 27.1821 9.17727 27.3243 8.86342C27.3243 8.86342 26.5412 8.816 25.6995 7.96727C25.4312 7.69226 25.1477 7.61035 24.9044 7.61035C24.5264 7.61035 24.2429 7.80876 24.2429 7.80876C25.2596 8.3458 25.467 9.20854 26.0459 9.40266Z" fill="white"/>
<path d="M2.69957 9.45115C2.79837 9.45115 2.89831 9.43608 2.99393 9.40266C3.57498 9.20854 3.78352 8.3458 4.80018 7.80876C4.80018 7.80876 4.51555 7.61035 4.13978 7.61035C3.89539 7.61035 3.61189 7.69226 3.34252 7.96727C2.50189 8.816 1.71875 8.86342 1.71875 8.86342C1.85887 9.17727 2.27269 9.45115 2.69957 9.45115Z" fill="white"/>
<path d="M26.3219 12.9083C26.3393 12.9094 26.3545 12.9094 26.373 12.9094C27.4385 12.9094 27.8002 11.7759 27.8002 11.7759H27.7795C27.5841 11.7759 25.9993 11.7307 24.8795 10.3169C24.1421 9.38734 23.5381 8.56988 22.3444 8.24847L22.2272 8.22798L22.2011 8.10938C22.1685 7.92819 22.2934 7.7589 22.5769 7.57556C24.2235 6.50476 23.1058 5.13945 23.1058 5.13945C23.1058 5.13945 22.6355 6.2319 21.5831 6.2319C21.5581 6.2319 21.5309 6.23077 21.5049 6.23077C21.3854 6.22433 21.2703 6.21999 21.154 6.19526L20.9596 6.15744C20.9596 6.15744 21.2594 5.3476 20.536 4.6035C19.9908 4.04167 19.3271 3.94678 18.9437 3.94678C18.7504 3.94678 18.6276 3.97153 18.6276 3.97153C18.9915 4.44386 19.2544 5.22682 18.8341 5.70993C18.4713 6.1251 17.585 6.14559 17.585 6.76459C17.585 7.02667 17.8315 7.33295 18.2747 7.60791C19.6074 8.44152 20.9303 9.54687 21.4799 11.0287C22.1674 12.877 21.393 14.1032 20.2873 14.8063C20.2873 14.8063 20.6338 15.1233 21.1367 15.1632C21.2388 15.1729 21.3387 15.1772 21.4321 15.1772C22.4933 15.1772 23.0418 14.6833 23.0418 14.6833C23.0418 14.6833 22.9516 15.3659 22.3987 16.0001C21.8894 16.5856 21.2203 16.9297 20.2004 16.9448C20.2004 16.9448 20.1678 17.4149 20.6197 17.8215C20.9086 18.0782 21.5766 18.1623 21.5766 18.1623C21.5766 18.1623 20.3264 18.4135 20.1885 20.2469C20.1135 21.24 19.8583 21.5851 19.8583 21.5851H19.8811C22.7822 21.5851 22.7072 19.1145 22.7072 19.1145C22.7072 19.1145 22.9092 19.8456 23.7184 20.0365C23.8161 20.0624 23.9204 20.0722 24.0204 20.0722C24.2811 20.0722 24.507 20.0118 24.507 20.0118C24.507 20.0118 24.0834 19.1242 24.5037 17.883C24.8524 16.8531 24.7959 16.0896 24.7959 16.0896C24.7959 16.0896 25.1869 16.6762 26.1558 16.6817H26.1655C26.9726 16.6817 27.3244 16.0745 27.3244 16.0745C25.39 15.2775 25.5812 12.7045 25.5812 12.7045C25.5812 12.7045 25.8321 12.8899 26.3219 12.9083ZM25.7397 15.5956C24.9533 15.2107 24.4559 14.1884 24.3354 13.8195C24.205 15.8469 23.2079 17.2543 22.0425 18.6087C21.4375 19.3107 21.2269 19.9934 21.2269 19.9934C21.2269 19.9934 21.343 19.2202 21.8665 18.5904C22.9538 17.293 23.9867 15.6787 24.0638 13.812C24.117 12.5093 23.7793 11.4525 23.2525 10.5822C23.5468 11.4891 23.5056 12.5999 22.5052 13.6362C22.5052 13.6362 24.4961 11.2669 21.7123 8.8384C20.5979 7.91424 19.3793 7.34373 18.7515 6.93935C21.0194 7.67372 22.1262 6.8649 22.1262 6.8649C21.4016 7.48819 20.4644 7.4774 19.8832 7.38793C20.0407 7.46453 20.2048 7.54429 20.3818 7.63811C22.2934 8.66911 24.0117 10.3654 24.3049 12.7153V12.6969C24.7503 15.0036 25.7397 15.5956 25.7397 15.5956Z" fill="white"/>
<path d="M7.46506 18.1623C7.46506 18.1623 8.13307 18.0792 8.422 17.8215C8.87269 17.4149 8.84128 16.9448 8.84128 16.9448C7.8203 16.9307 7.15229 16.5856 6.63965 16.0012C6.0911 15.3671 5.99989 14.6844 5.99989 14.6844C5.99989 14.6844 6.54834 15.1784 7.60846 15.1784C7.70407 15.1784 7.8029 15.174 7.90496 15.1643C8.40788 15.1244 8.75544 14.8073 8.75544 14.8073C7.64969 14.1042 6.87426 12.877 7.56068 11.0287C8.11138 9.54794 9.43316 8.44152 10.7659 7.60791C11.2091 7.33295 11.4556 7.02769 11.4556 6.76459C11.4556 6.14559 10.5704 6.1251 10.2076 5.70993C9.78732 5.22682 10.0512 4.4428 10.414 3.97153C10.414 3.97153 10.2934 3.94678 10.099 3.94678C9.71667 3.94678 9.05301 4.04167 8.50779 4.6035C7.78223 5.3476 8.08314 6.15744 8.08314 6.15744L7.88869 6.19526C7.77252 6.21999 7.65624 6.22433 7.53786 6.23077C7.51075 6.23077 7.4868 6.2319 7.46077 6.2319C6.40612 6.2319 5.93799 5.14052 5.93799 5.14052C5.93799 5.14052 4.82032 6.50583 6.46582 7.57664C6.74933 7.75998 6.87318 7.92926 6.8406 8.11046L6.81445 8.22911L6.695 8.2496C5.50352 8.57095 4.89855 9.38836 4.16106 10.3179C3.04338 11.7296 1.46086 11.7759 1.26325 11.7759H1.24146C1.24146 11.7759 1.60318 12.9094 2.66867 12.9094C2.68607 12.9094 2.70126 12.9094 2.71971 12.9083C3.20955 12.891 3.46153 12.7045 3.46153 12.7045C3.46153 12.7045 3.65056 15.2764 1.71831 16.0745C1.71831 16.0745 2.07024 16.6817 2.87722 16.6817H2.88701C3.8569 16.6762 4.24687 16.0896 4.24687 16.0896C4.24687 16.0896 4.19037 16.8531 4.53796 17.883C4.95824 19.1242 4.53683 20.0118 4.53683 20.0118C4.53683 20.0118 4.76276 20.0722 5.02234 20.0722C5.12334 20.0722 5.22655 20.0624 5.32323 20.0365C6.13126 19.8456 6.3344 19.1145 6.3344 19.1145C6.3344 19.1145 6.26053 21.5851 9.16167 21.5851H9.18223C9.18223 21.5851 8.92814 21.24 8.85427 20.2469C8.71528 18.4135 7.46506 18.1623 7.46506 18.1623ZM6.99918 18.6087C5.83373 17.2543 4.83772 15.8469 4.70626 13.8195C4.58574 14.1873 4.09043 15.2107 3.3041 15.5956C3.3041 15.5956 4.29244 15.0036 4.73671 12.6969V12.7153C5.03107 10.3665 6.74826 8.66911 8.6609 7.63811C8.8358 7.54322 9.00196 7.46346 9.1584 7.38793C8.57731 7.4774 7.63997 7.48819 6.91549 6.8649C6.91549 6.8649 8.02226 7.67372 10.2891 6.93935C9.66132 7.34373 8.44369 7.91424 7.32929 8.8384C4.54442 11.2669 6.53642 13.6362 6.53642 13.6362C5.53503 12.5987 5.49487 11.4891 5.78917 10.5822C5.26133 11.4535 4.9246 12.5093 4.9789 13.812C5.05492 15.6787 6.08782 17.293 7.17291 18.5904C7.69757 19.2191 7.81595 19.9934 7.81595 19.9934C7.81595 19.9934 7.60298 19.3107 6.99918 18.6087Z" fill="white"/>
<path d="M12.3759 9.12982C12.4236 9.18046 12.4703 9.23554 12.515 9.29047C12.5258 9.30345 12.5355 9.31531 12.5464 9.33043C12.5877 9.38536 12.6301 9.44366 12.6703 9.50294C12.6789 9.51479 12.6877 9.52884 12.6974 9.54279C12.7463 9.61617 12.7919 9.69169 12.8375 9.76936C13.2556 10.4864 13.9258 10.9146 14.5199 10.9156C15.1151 10.9146 15.7831 10.4864 16.2035 9.76936C16.2502 9.68949 16.2969 9.61188 16.3457 9.53963C16.3533 9.52884 16.361 9.51914 16.3674 9.50835C16.4087 9.44688 16.4522 9.38649 16.4978 9.32823C16.5076 9.31531 16.5163 9.30452 16.525 9.29374C16.5717 9.23656 16.6194 9.18051 16.6684 9.12869C16.677 9.12011 16.6835 9.11255 16.6911 9.10611C16.904 8.88936 17.1582 8.72431 17.4905 8.63269L17.3428 8.54751H17.3342L16.7454 8.20781L16.1405 7.86377L14.5243 8.73729L14.5199 8.73402L14.5167 8.73729L12.8994 7.86377L12.2955 8.20669L11.7058 8.54638H11.6992L11.5493 8.63162C11.8828 8.72323 12.1358 8.88608 12.3498 9.10284C12.3595 9.11148 12.3661 9.12118 12.3759 9.12982ZM13.866 9.05971H14.5503H15.2335V9.52557C15.0728 9.33043 14.76 9.37034 14.76 9.37034V10.0422C14.76 10.0422 14.7719 10.3722 14.8881 10.5155H14.5503H14.2115C14.3298 10.3732 14.3407 10.0422 14.3407 10.0422V9.37034C14.3407 9.37034 14.029 9.33043 13.866 9.52557V9.05971Z" fill="white"/>
<path d="M14.3808 8.15572V5.42848L12.6321 4.8396L13.0937 7.48282L14.3808 8.15572ZM14.005 6.09817V6.53597L13.9203 6.49714C13.9159 6.49392 13.7921 6.46587 13.5748 6.29545C13.2164 6.01943 13.2099 5.76491 13.2099 5.76491L14.005 6.09817Z" fill="white"/>
<path d="M15.9493 7.48282L16.4087 4.8396L14.6611 5.42848V8.15572L15.9493 7.48282ZM15.037 6.09817L15.832 5.76598C15.832 5.76598 15.8255 6.0205 15.466 6.29653C15.2498 6.46694 15.1249 6.49494 15.1206 6.49821L15.0358 6.53699V6.09817H15.037Z" fill="white"/>
<path d="M11.9077 14.4788C12.0782 14.5403 12.2846 14.5532 12.3899 14.5532C12.3943 14.5403 12.3997 14.5241 12.4052 14.5047C12.4149 14.4734 12.4236 14.4432 12.4302 14.4087C12.4595 14.2578 12.4703 14.0863 12.4725 13.9763C12.4008 13.932 12.2998 13.8533 12.2434 13.7358C12.1782 13.5999 12.0858 13.5374 11.95 13.5374C11.7741 13.5374 11.5851 13.642 11.5047 13.6916C11.4407 14.0679 11.7198 14.4098 11.9077 14.4788Z" fill="white"/>
<path d="M15.7752 13.0312C15.4504 13.3817 14.815 13.9921 14.7835 14.0234L14.7455 14.0623L12.7373 14.0309C12.7361 14.2283 12.7035 14.3965 12.6721 14.5195C12.6667 14.54 12.6612 14.5615 12.6558 14.5831L15.0453 15.0091C15.294 14.8365 15.9783 14.3404 16.2433 14.1464C16.0499 13.866 16.0315 13.5338 16.0749 13.2998C15.949 13.2189 15.8523 13.1283 15.7752 13.0312Z" fill="white"/>
<path d="M16.0478 10.6332C15.5851 11.0893 15.1409 11.2575 14.7445 11.2964C14.6727 11.3039 14.6 11.3082 14.5261 11.3082H14.5207H14.5163C14.4425 11.3082 14.3686 11.3039 14.2969 11.2964C14.2274 11.2899 14.1547 11.2791 14.0819 11.2629C14.0558 11.3653 14.0232 11.5799 14.1166 11.7827C14.2003 11.9671 14.3708 12.1041 14.6195 12.1947L14.7031 12.227L14.7043 12.3165C14.7043 12.3434 14.7238 12.9237 15.3614 13.0843C15.4656 12.9776 15.5601 12.8816 15.6297 12.8017C15.4993 12.4977 15.5677 12.1871 15.7567 12.035C15.7481 12.0674 15.6655 12.8288 16.2803 13.1112L16.3813 13.1588L16.3508 13.2655C16.341 13.2979 16.1358 14.0344 16.8798 14.3083L17.0112 14.3579L16.9525 14.4852C16.9395 14.5132 16.6474 15.1819 17.3349 15.5614H18.8262V14.386C18.2962 14.3212 18.0713 13.8986 18.0137 13.5987C17.7672 13.5567 17.576 13.451 17.4456 13.2784C17.1328 12.8697 17.4022 12.4955 17.4055 12.475C17.4044 12.4783 17.4055 12.8773 17.6531 13.1232C17.7759 13.2417 17.9214 13.3335 18.1419 13.354L18.2505 13.3637L18.2603 13.4737C18.2624 13.4973 18.3222 14.0366 18.8272 14.1218L18.8262 11.7212C18.8262 11.3492 18.9359 10.975 19.0673 10.6299H16.0478V10.6332Z" fill="white"/>
<path d="M12.035 11.7329L11.9949 13.2621L12.1697 13.2881L12.5976 11.8214L12.3804 11.3706L12.035 11.7329Z" fill="white"/>
<path d="M16.7529 18.746C16.7659 18.746 16.7811 18.7482 16.7952 18.7515C17.0614 18.827 17.1287 19.7803 17.5957 19.8654C17.6414 19.8752 17.6837 19.8773 17.7207 19.8773C17.8554 19.8773 17.9357 19.8201 18.0226 19.7188C18.0226 19.7188 17.788 19.3521 17.6121 19.1052C17.3785 18.7817 17.1972 18.3901 16.7627 18.3901C16.7529 18.3901 16.7399 18.3902 16.7291 18.3913C16.5857 18.3988 16.4977 18.4678 16.4977 18.4678C16.3217 18.3579 16.1577 18.3201 16.0089 18.3201C15.7363 18.3201 15.5245 18.4442 15.4191 18.4442H15.4148L14.4437 18.3493C14.2917 18.3352 14.1722 18.1832 14.1288 18.1239C14.1179 18.1076 14.1125 18.098 14.1125 18.098C14.1125 18.0721 14.1125 18.0451 14.1103 18.0214C14.0778 17.2331 13.463 16.8955 13.2447 16.8901C13.2447 16.8901 13.2707 16.7403 13.211 16.6831L12.997 16.9408L12.2943 16.5903L12.795 17.1716L12.3703 17.645C12.317 17.699 12.3236 17.7723 12.3453 17.8025L12.5289 17.9632L12.7613 17.823C12.7733 17.8144 12.7939 17.8122 12.82 17.8122C12.8841 17.8122 12.9808 17.8283 13.0676 17.8283C13.1621 17.8283 13.2447 17.8078 13.2544 17.7194C13.2251 18.0117 12.9525 18.5196 13.1317 18.9186L13.2643 19.2195L12.4062 19.0965L12.0043 19.7706C11.8805 19.9949 11.8609 20.2375 11.9804 20.3691L12.1302 20.5557C12.1302 20.5557 12.341 20.3335 12.3888 20.1879L12.3203 20.1135C12.2628 20.0509 12.266 19.9949 12.3008 19.927L12.5528 19.5117L13.5661 19.749L13.6193 19.6584C13.6878 19.5452 13.7867 19.5106 13.8953 19.5106C13.9398 19.5106 13.9854 19.516 14.0332 19.5236C14.2212 19.5603 14.5307 19.6099 14.8402 19.6099C15.1802 19.6099 15.5169 19.5495 15.696 19.35C16.0632 19.8903 16.8072 19.9765 16.7485 20.2504L16.5531 21.1758C16.6823 21.1703 16.8072 21.1617 16.9256 21.1455L17.1113 20.1825C17.132 20.0779 17.1515 19.9366 17.1515 19.9366C17.0798 19.8644 16.9061 19.7112 16.8083 19.5257C16.6769 19.2755 16.7485 19.1451 16.6258 18.8194C16.6302 18.8216 16.6671 18.746 16.7529 18.746ZM12.9623 17.3937C12.9123 17.3927 12.8764 17.3506 12.8786 17.3011C12.883 17.2536 12.9232 17.2158 12.972 17.2201C13.022 17.2223 13.0578 17.2654 13.0557 17.3129C13.0513 17.3603 13.0101 17.397 12.9623 17.3937Z" fill="white"/>
<path d="M11.5787 19.6216C11.5787 19.6216 11.9143 19.4847 11.9446 19.3865L11.9001 19.2754C11.8686 19.2032 11.873 19.1244 11.9338 19.0813L12.2966 18.8322L12.9027 18.9476C12.9027 18.9476 12.7929 18.8117 12.8038 18.6294L12.226 18.5076L11.6807 18.8376C11.4472 19.0112 11.4298 19.2948 11.507 19.463L11.5787 19.6216Z" fill="white"/>
<path d="M15.8621 21.1894C15.9707 21.1851 16.0901 21.183 16.2216 21.183C16.2216 21.183 16.5333 20.2782 16.5506 20.2491C16.3758 20.1725 16.013 19.9816 15.8729 19.8943C15.9652 20.0312 16.1901 20.1887 16.1456 20.3095L15.8621 21.1894Z" fill="white"/>
<path d="M18.8293 15.8235H10.2129V19.0414C10.2129 20.3571 11.172 21.181 12.5872 21.181C13.7701 21.181 14.0817 21.2263 14.5217 21.6598C14.8247 21.36 15.0756 21.2478 15.5904 21.2058L15.6023 21.1562L15.8739 20.3226C15.8587 20.3043 15.4145 19.8028 15.4145 19.8028C15.2385 19.8611 15.0908 19.8708 14.8421 19.8708C14.5868 19.8708 14.299 19.8416 13.9873 19.7834C13.9558 19.7759 13.9265 19.7737 13.8971 19.7737C13.8591 19.7737 13.8559 19.7769 13.8461 19.7953L13.7918 19.8837L13.6929 20.0454L13.5072 20.0034L12.6806 19.8103L12.5676 19.9959L12.585 20.0152L12.6861 20.1253L12.6416 20.2687C12.5807 20.4563 12.383 20.6752 12.3233 20.7357L12.1169 20.9557L11.929 20.7195L11.7878 20.5437C11.639 20.3787 11.6043 20.1253 11.6879 19.86C11.6857 19.8621 11.6824 19.8632 11.6792 19.8632L11.4457 19.9592L11.3403 19.7327L11.2665 19.5721C11.1394 19.2895 11.186 18.8765 11.5283 18.6273L12.1941 18.2542L12.8273 18.3783C12.8425 18.3178 12.8653 18.1021 12.8837 18.0472C12.8718 18.0461 12.8599 18.0429 12.8479 18.0429L12.483 18.1777L12.131 17.9361C12.131 17.9361 11.9931 17.8045 12.118 17.673L12.459 17.1608L11.5955 16.0844L12.9228 16.6259L13.0109 16.5169L13.19 16.3045L13.3931 16.4964C13.4507 16.5514 13.4833 16.6193 13.4995 16.6873C13.8656 16.8286 14.5205 17.246 14.5781 17.9242L14.3728 18.0062V18.0116C14.4195 18.0666 14.4586 18.0893 14.4705 18.0914L15.4177 18.1842C15.4416 18.1798 15.472 18.169 15.5057 18.1593C15.623 18.1195 15.8001 18.0623 16.0096 18.0623C16.1802 18.0623 16.3452 18.1011 16.5038 18.1744C16.5625 18.1529 16.6342 18.1367 16.7168 18.1313L16.7623 18.1302C17.2696 18.1302 17.5215 18.5065 17.7237 18.8064C17.7573 18.8581 17.7909 18.9078 17.8257 18.9562C18.0027 19.2043 18.234 19.5677 18.2439 19.5829L18.3481 19.7446L18.2199 19.8924C18.1211 20.0055 17.9734 20.1382 17.7192 20.1382C17.6671 20.1382 17.6096 20.1328 17.5477 20.1209C17.4934 20.1113 17.4445 20.095 17.3967 20.0756C17.3891 20.1253 17.3793 20.1846 17.3695 20.2352L17.2033 21.0958C18.1972 20.8532 18.8282 20.108 18.8282 19.0425L18.8293 15.8235Z" fill="#FFDD2D"/>
<path d="M10.2133 15.5648H16.9137C16.5791 15.2219 16.5835 14.7873 16.6693 14.5047C16.5716 14.4583 16.4912 14.4022 16.4195 14.3419C16.1578 14.5338 15.3583 15.1119 15.1498 15.2563L15.1053 15.2866L12.4757 14.8142H12.4225C12.3595 14.8142 12.2672 14.812 12.1662 14.8002C12.1379 14.9178 12.0359 14.9986 11.9185 14.9986C11.9055 14.9986 11.8903 14.9976 11.8762 14.9943C11.8077 14.9824 11.7481 14.9479 11.7079 14.8908C11.6666 14.8347 11.6503 14.7678 11.6622 14.6988L11.672 14.6427C11.4005 14.453 11.1507 14.0291 11.2614 13.5827L11.2723 13.5352L11.3103 13.5083C11.3157 13.504 11.3613 13.4738 11.4287 13.4349L11.2375 13.4058C11.1659 13.3929 11.1181 13.3271 11.129 13.257C11.1409 13.1858 11.2082 13.1351 11.2788 13.1492L11.7339 13.2203L11.7752 11.6286L12.453 10.9168L12.8755 11.8001L12.429 13.3314L12.8309 13.394C12.9015 13.4047 12.9504 13.4705 12.9396 13.5428C12.9287 13.6064 12.8744 13.6506 12.8103 13.6506C12.8037 13.6506 12.7962 13.6506 12.7896 13.6496L12.4627 13.5967C12.4671 13.6064 12.4735 13.6117 12.4779 13.6225C12.5126 13.6938 12.5898 13.7455 12.6354 13.7671L14.6405 13.7983C14.7251 13.7164 14.9359 13.5115 15.152 13.2947C14.6589 13.1092 14.4797 12.6865 14.4492 12.4061C14.1734 12.2896 13.9833 12.115 13.878 11.8874C13.7498 11.606 13.7954 11.3245 13.8291 11.1876C13.5619 11.0905 13.2806 10.9137 12.9938 10.6311H9.97437C10.1036 10.9761 10.2133 11.3504 10.2133 11.7225V15.5648Z" fill="#FFDD2D"/>
<path d="M12.973 17.2198C12.9241 17.2155 12.8829 17.2532 12.8796 17.3007C12.8763 17.3502 12.9133 17.3923 12.9632 17.3933C13.011 17.3977 13.0534 17.361 13.0577 17.3125C13.0577 17.265 13.023 17.2209 12.973 17.2198Z" fill="black"/>
<path d="M18.8177 23.0551L18.3214 22.8664L18.4582 22.3574L18.6092 21.802C18.6092 21.802 17.7294 22.2755 16.4901 22.6314C16.1382 22.7316 15.8721 22.7769 15.8721 22.7769V23.1543C15.8721 23.1543 15.2096 23.2687 14.5394 23.2687H14.5317H14.522H14.509H14.5013C13.8312 23.2687 13.1687 23.1543 13.1687 23.1543V22.7769C13.1687 22.7769 12.9014 22.7316 12.5506 22.6314C11.3113 22.2755 10.4327 21.802 10.4327 21.802L10.5814 22.3574L10.7215 22.8664L10.2241 23.0551L9.67236 23.26C10.3056 23.563 11.182 24.0052 11.9848 24.223L11.7958 24.7363C11.7958 24.7363 12.8135 25.1968 14.509 25.2012V25.2023H14.5144H14.522H14.5286H14.5329V25.2012C16.2305 25.1968 17.2471 24.7363 17.2471 24.7363L17.057 24.223C17.8597 24.0052 18.7384 23.563 19.3684 23.26L18.8177 23.0551ZM10.261 23.2945L11.0778 23.025L10.8367 22.2431C11.1962 22.4458 12.0033 22.7499 12.4702 22.8912L12.076 23.9664C11.3547 23.7691 10.7541 23.5393 10.261 23.2945ZM14.522 24.9315C13.5738 24.9315 12.4909 24.7148 12.1727 24.6027L12.657 23.301C13.0589 23.4175 13.8953 23.5415 14.5024 23.5371H14.5035H14.522H14.5383H14.5405C15.1477 23.5415 15.9818 23.4175 16.3858 23.301L16.8691 24.6027C16.5509 24.7159 15.4691 24.9315 14.522 24.9315ZM16.9658 23.9664L16.5727 22.8912C17.0408 22.7499 17.8455 22.4458 18.2062 22.2431L17.9662 23.025L18.7819 23.2945C18.2876 23.5393 17.6902 23.7691 16.9658 23.9664Z" fill="black"/>
<path d="M14.521 2.738C15.5311 2.738 16.3391 3.07019 16.7856 3.42501C16.7856 3.42501 16.9181 2.63233 17.371 1.93249L16.5575 2.02411L16.1318 1.12583L15.3139 1.54427L14.521 0.765625L13.7303 1.54427L12.9113 1.12583L12.4866 2.02411L11.6731 1.93249C12.126 2.63233 12.2585 3.42501 12.2585 3.42501C12.706 3.07019 13.5119 2.738 14.521 2.738ZM12.4497 2.339L12.6756 2.36276L12.7734 2.15894L13.0579 1.55504L13.5858 1.82567L13.79 1.92922L13.9529 1.76965L14.5221 1.20888L15.0923 1.76965L15.2552 1.92922L15.4594 1.82567L15.9841 1.55504L16.2719 2.15894L16.3674 2.36276L16.5933 2.339L16.8084 2.31312C16.7096 2.53424 16.6368 2.74339 16.5846 2.91707C16.0155 2.60219 15.2747 2.42311 14.5199 2.42311C13.7683 2.42311 13.0286 2.60219 12.4573 2.91707C12.4041 2.74339 12.3324 2.53311 12.2335 2.31312L12.4497 2.339Z" fill="black"/>
<path d="M26.3719 13.2557C27.6786 13.2557 28.1151 11.9358 28.1336 11.8797L28.2791 11.4148L27.7893 11.43H27.7872C27.6145 11.43 26.1731 11.3922 25.1511 10.1025L25.0544 9.98278C24.3864 9.13946 23.7532 8.3382 22.6214 7.97259C22.654 7.94352 22.7007 7.90683 22.7648 7.86585C23.3655 7.47332 23.7152 6.99662 23.8031 6.44344C23.9313 5.6109 23.397 4.94767 23.3731 4.92072L23.0092 4.47427L22.7822 5.00377C22.767 5.03718 22.3846 5.88484 21.5809 5.88484H21.5212C21.4658 5.88157 21.4136 5.87942 21.3615 5.87508C21.3898 5.4966 21.3202 4.91101 20.7859 4.36208C20.1439 3.70103 19.3554 3.60181 18.9427 3.60181C18.7222 3.60181 18.5756 3.62876 18.5603 3.63096L18.0108 3.73876L18.3497 4.18201C18.6158 4.52385 18.8569 5.15476 18.5712 5.48474C18.4799 5.58934 18.2921 5.67452 18.1118 5.7597C17.7414 5.92898 17.2363 6.16409 17.2363 6.76372C17.2363 7.15196 17.5394 7.55742 18.089 7.90249C19.716 8.91836 20.7196 9.97844 21.153 11.1485C21.8231 12.9484 20.9488 13.975 20.0994 14.5153L19.7181 14.759L20.0516 15.0631C20.0961 15.102 20.5046 15.4589 21.1073 15.5107C21.2214 15.5182 21.3311 15.5246 21.4332 15.5246C21.8199 15.5246 22.149 15.4643 22.4161 15.3834C22.3423 15.5117 22.2521 15.6422 22.1381 15.7738C21.6526 16.3323 21.0552 16.5869 20.1961 16.5998L19.8767 16.6053L19.8518 16.9233C19.8485 16.987 19.8246 17.5769 20.3872 18.0784C20.4731 18.1559 20.5773 18.2197 20.6859 18.2725C20.3047 18.6133 19.9169 19.2063 19.842 20.2233C19.779 21.072 19.5748 21.3858 19.5727 21.389L19.2197 21.9239L19.8572 21.9326C20.9108 21.9326 21.7177 21.6436 22.2771 21.072C22.6073 20.7334 22.7963 20.3516 22.9082 20.013C23.0918 20.1683 23.3286 20.3041 23.6369 20.3764C23.7543 20.4034 23.8825 20.4184 24.0204 20.4184C24.318 20.4184 24.5668 20.3559 24.595 20.3495L25.0023 20.2416L24.822 19.8641C24.8089 19.834 24.469 19.0769 24.835 17.9964C24.9925 17.5294 25.0729 17.111 25.1119 16.7853C25.3683 16.9179 25.7115 17.0279 26.1557 17.029C27.1637 17.029 27.6079 16.2817 27.6286 16.2504L27.8273 15.9075L27.4592 15.7565C26.2578 15.2615 25.9918 13.9318 25.9385 13.2115C26.0471 13.232 26.171 13.2514 26.311 13.2557H26.3719ZM27.3244 16.0746C27.3244 16.0746 26.9725 16.6818 26.1655 16.6818H26.1557C25.1869 16.6764 24.7959 16.0897 24.7959 16.0897C24.7959 16.0897 24.8524 16.8533 24.5027 17.8831C24.0823 19.1244 24.5059 20.012 24.5059 20.012C24.5059 20.012 24.28 20.0723 24.0193 20.0723C23.9194 20.0723 23.8151 20.0626 23.7174 20.0367C22.9082 19.8458 22.7062 19.1147 22.7062 19.1147C22.7062 19.1147 22.7811 21.5853 19.88 21.5853H19.8572C19.8572 21.5853 20.1125 21.2402 20.1885 20.247C20.3264 18.4137 21.5766 18.1625 21.5766 18.1625C21.5766 18.1625 20.9096 18.0794 20.6207 17.8217C20.1689 17.4151 20.2004 16.9449 20.2004 16.9449C21.2214 16.9309 21.8894 16.5858 22.3987 16.0003C22.9506 15.3661 23.0418 14.6835 23.0418 14.6835C23.0418 14.6835 22.4932 15.1774 21.4321 15.1774C21.3387 15.1774 21.2388 15.1731 21.1367 15.1634C20.6349 15.1235 20.2873 14.8064 20.2873 14.8064C21.3919 14.1033 22.1674 12.8761 21.4799 11.0277C20.9292 9.54707 19.6063 8.44065 18.2747 7.60704C17.8315 7.33203 17.585 7.02688 17.585 6.76372C17.585 6.14472 18.4713 6.1253 18.8352 5.70901C19.2544 5.2259 18.9915 4.44193 18.6277 3.97067C18.6277 3.97067 18.7504 3.94584 18.9437 3.94584C19.3271 3.94584 19.9908 4.0418 20.536 4.60257C21.2605 5.34667 20.9596 6.15658 20.9596 6.15658L21.1541 6.19434C21.2703 6.21912 21.3854 6.22347 21.5049 6.22883C21.5309 6.22883 21.557 6.2299 21.5831 6.2299C22.6356 6.2299 23.1059 5.13745 23.1059 5.13745C23.1059 5.13745 24.2246 6.50384 22.578 7.57357C22.2945 7.75691 22.1696 7.92619 22.2022 8.10739L22.2283 8.22604L22.3455 8.24653C23.5392 8.56788 24.1431 9.38535 24.8806 10.3149C26.0004 11.7287 27.5852 11.774 27.7806 11.774H27.8013C27.8013 11.774 27.4396 12.9074 26.3741 12.9074C26.3567 12.9074 26.3415 12.9074 26.323 12.9063C25.8332 12.889 25.5823 12.7025 25.5823 12.7025C25.5823 12.7025 25.39 15.2766 27.3244 16.0746Z" fill="black"/>
<path d="M24.0768 8.11519C24.5644 8.37288 24.8479 8.71799 25.0967 9.02422C25.341 9.32294 25.5735 9.61087 25.9362 9.7306C26.0655 9.77485 26.2023 9.79534 26.3413 9.79534C26.8866 9.79534 27.4341 9.46422 27.6414 9.00593L27.85 8.54651L27.345 8.51631C27.321 8.51523 26.6716 8.45698 25.9482 7.72261C25.6506 7.4218 25.2911 7.26318 24.9033 7.26318C24.4298 7.26318 24.0789 7.49829 24.0398 7.52205L23.575 7.84667L24.0768 8.11519ZM24.9044 7.6105C25.1477 7.6105 25.4312 7.69241 25.6995 7.96742C26.5412 8.81615 27.3243 8.86357 27.3243 8.86357C27.1821 9.17629 26.7693 9.4513 26.3424 9.4513C26.2436 9.4513 26.1448 9.43622 26.0459 9.40281C25.467 9.20869 25.2595 8.34595 24.2418 7.80886C24.2418 7.80886 24.5265 7.6105 24.9044 7.6105Z" fill="black"/>
<path d="M24.3047 12.6971V12.7144C24.0114 10.3656 22.2931 8.6693 20.3815 7.63728C20.2045 7.54341 20.0416 7.46365 19.883 7.38705C20.4652 7.47658 21.4025 7.48736 22.1259 6.86401C22.1259 6.86401 21.0191 7.67284 18.7512 6.93846C19.3791 7.34285 20.5988 7.91336 21.7121 8.83752C24.4959 11.266 22.5039 13.6353 22.5039 13.6353C23.5042 12.599 23.5455 11.4883 23.2512 10.5813C23.7779 11.4516 24.1146 12.5084 24.0624 13.8111C23.9854 15.6778 22.9525 17.2922 21.8652 18.5895C21.3428 19.2193 21.2255 19.9925 21.2255 19.9925C21.2255 19.9925 21.4362 19.3099 22.0412 18.6078C23.2066 17.2534 24.2026 15.846 24.3329 13.8186C24.4535 14.1864 24.9499 15.2098 25.7373 15.5948C25.7395 15.5959 24.75 15.0038 24.3047 12.6971Z" fill="black"/>
<path d="M9.46901 21.388C9.46794 21.3848 9.26592 21.071 9.2008 20.2222C9.12478 19.2053 8.73803 18.6122 8.35574 18.2714C8.46655 18.2196 8.5686 18.156 8.65444 18.0773C9.21599 17.5758 9.19205 16.986 9.18877 16.9224L9.16708 16.6042L8.84556 16.5988C7.98864 16.5848 7.39011 16.3303 6.90463 15.7727C6.79168 15.6412 6.70047 15.5107 6.6266 15.3824C6.89373 15.4632 7.22068 15.5237 7.60844 15.5237C7.71275 15.5237 7.82029 15.5171 7.93431 15.5096C8.53709 15.4579 8.94553 15.102 8.99111 15.0621L9.32454 14.758L8.94333 14.5142C8.0907 13.9729 7.2196 12.9462 7.88868 11.1475C8.32203 9.97741 9.32454 8.91733 10.9538 7.90146C11.5034 7.55634 11.8042 7.15093 11.8042 6.76269C11.8042 6.16311 11.3003 5.92694 10.9299 5.75867C10.7496 5.67349 10.5617 5.58831 10.4705 5.48371C10.1837 5.15477 10.4259 4.52287 10.6909 4.18096L11.032 3.73778L10.4802 3.62991C10.464 3.62778 10.3195 3.60083 10.0979 3.60083C9.68515 3.60083 8.89882 3.70005 8.25578 4.3611C7.72032 4.91109 7.64978 5.49664 7.67689 5.87405C7.62476 5.87839 7.57264 5.88059 7.51831 5.88376H7.45968C6.65376 5.88376 6.27254 5.03619 6.25735 5.00272L6.03026 4.47323L5.66316 4.91967C5.64255 4.9467 5.10602 5.61095 5.23634 6.44241C5.32322 6.99559 5.67294 7.47223 6.27356 7.86482C6.33874 7.9058 6.38437 7.94244 6.41696 7.97162C5.28631 8.33712 4.65415 9.13951 3.98615 9.98277L3.88947 10.1025C2.86855 11.3923 1.42394 11.4301 1.25125 11.4301L0.759277 11.4149L0.909118 11.8797C0.926506 11.9358 1.36205 13.2557 2.66973 13.2557L2.73276 13.2537C2.87068 13.2493 2.99454 13.231 3.10534 13.2094C3.05097 13.9286 2.78486 15.2584 1.58251 15.7544L1.2154 15.9054L1.41422 16.2483C1.43374 16.2796 1.87907 17.027 2.88913 17.027C3.33014 17.0258 3.67333 16.9158 3.93078 16.7832C3.96989 17.1089 4.05024 17.5273 4.20775 17.9942C4.5738 19.0748 4.23274 19.8319 4.21967 19.8621L4.03938 20.2395L4.44781 20.3474C4.47493 20.3538 4.72584 20.4163 5.02233 20.4163C5.16138 20.4163 5.28958 20.4013 5.40473 20.3743C5.71427 20.302 5.95317 20.1662 6.13452 20.0109C6.24533 20.3494 6.43542 20.7313 6.76457 21.0699C7.32493 21.6414 8.13085 21.9304 9.18442 21.9304L9.82312 21.9218L9.46901 21.388ZM9.16053 21.5854C6.25944 21.5854 6.33337 19.1147 6.33337 19.1147C6.33337 19.1147 6.13135 19.8459 5.32215 20.0368C5.22548 20.0626 5.12227 20.0724 5.02126 20.0724C4.76062 20.0724 4.53576 20.0119 4.53576 20.0119C4.53576 20.0119 4.95717 19.1244 4.53682 17.8832C4.18929 16.8533 4.2458 16.0898 4.2458 16.0898C4.2458 16.0898 3.85583 16.6765 2.88594 16.6819H2.87615C2.06916 16.6819 1.71723 16.0747 1.71723 16.0747C3.65055 15.2778 3.46046 12.7047 3.46046 12.7047C3.46046 12.7047 3.20962 12.8902 2.71864 12.9085C2.70125 12.9096 2.68499 12.9096 2.6676 12.9096C1.60097 12.9096 1.24039 11.7762 1.24039 11.7762H1.2621C1.45872 11.7762 3.04125 11.7309 4.16104 10.3171C4.89854 9.38754 5.50351 8.57114 6.69499 8.24877L6.81444 8.22828L6.84059 8.10963C6.87317 7.92844 6.74932 7.75915 6.46586 7.57581C4.81925 6.50495 5.93798 5.13967 5.93798 5.13967C5.93798 5.13967 6.40611 6.23107 7.46076 6.23107C7.48679 6.23107 7.51074 6.22994 7.53785 6.22994C7.65622 6.22345 7.77358 6.21916 7.88868 6.19438L8.08313 6.15662C8.08313 6.15662 7.78222 5.34676 8.50778 4.60266C9.05306 4.04082 9.71666 3.94593 10.099 3.94593C10.2934 3.94593 10.414 3.97068 10.414 3.97068C10.0512 4.44302 9.78838 5.22598 10.2076 5.70911C10.5704 6.12427 11.4556 6.14477 11.4556 6.76376C11.4556 7.02579 11.2091 7.33213 10.7659 7.60708C9.43315 8.44069 8.11029 9.54711 7.56067 11.0278C6.87425 12.8762 7.64865 14.1023 8.75543 14.8065C8.75543 14.8065 8.40787 15.1235 7.905 15.1635C7.80289 15.1732 7.70406 15.1775 7.60844 15.1775C6.54838 15.1775 5.99988 14.6835 5.99988 14.6835C5.99988 14.6835 6.09109 15.3662 6.63964 16.0003C7.15228 16.5858 7.82029 16.931 8.84127 16.945C8.84127 16.945 8.87386 17.4152 8.42199 17.8217C8.13204 18.0784 7.46505 18.1625 7.46505 18.1625C7.46505 18.1625 8.71634 18.4138 8.85319 20.247C8.92813 21.2402 9.1812 21.5854 9.1812 21.5854H9.16053Z" fill="black"/>
<path d="M2.69937 9.79641C2.83949 9.79641 2.97634 9.77587 3.10553 9.73161C3.47051 9.61194 3.70184 9.32401 3.94622 9.02529C4.19608 8.71901 4.47738 8.37395 4.96502 8.11621L5.46686 7.84876L5.00086 7.52414C4.96175 7.49936 4.61203 7.26538 4.13958 7.26538C3.75075 7.26538 3.39016 7.42281 3.0936 7.72469C2.37023 8.45805 1.72182 8.51732 1.6979 8.51845L1.19287 8.54752L1.40035 9.00802C1.60882 9.46417 2.15516 9.79641 2.69937 9.79641ZM3.34232 7.96849C3.61169 7.69342 3.89519 7.61152 4.13958 7.61152C4.51535 7.61152 4.79991 7.80987 4.79991 7.80987C3.78332 8.34804 3.57478 9.20975 2.99366 9.40382C2.89812 9.43724 2.79818 9.45237 2.69937 9.45237C2.27249 9.45237 1.85974 9.17843 1.71856 8.86464C1.71856 8.86357 2.50055 8.81604 3.34232 7.96849Z" fill="black"/>
<path d="M4.97891 13.8123C4.92462 12.5096 5.26135 11.4527 5.78917 10.5825C5.49482 11.4894 5.53503 12.6002 6.53647 13.6366C6.53647 13.6366 4.54444 11.2673 7.32929 8.83874C8.44374 7.91453 9.66239 7.34402 10.2891 6.93963C8.02231 7.67401 6.91549 6.86523 6.91549 6.86523C7.63884 7.48858 8.57624 7.4778 9.15845 7.38725C9.00094 7.46374 8.8358 7.54356 8.6609 7.63737C6.74718 8.6694 5.02995 10.3657 4.73559 12.7145V12.6962C4.2914 15.0029 3.30298 15.5949 3.30298 15.5949C4.08938 15.2099 4.58469 14.1876 4.70521 13.8188C4.83667 15.8462 5.83261 17.2535 6.99806 18.608C7.60303 19.31 7.81595 19.9927 7.81595 19.9927C7.81595 19.9927 7.69757 19.2194 7.17296 18.5896C6.08788 17.2945 5.05494 15.679 4.97891 13.8123Z" fill="black"/>
<path d="M13.8657 9.05957V9.52543C14.0276 9.33023 14.3404 9.3702 14.3404 9.3702V10.042C14.3404 10.042 14.3295 10.372 14.2111 10.5154H14.55H14.8878C14.7716 10.3731 14.7596 10.042 14.7596 10.042V9.3702C14.7596 9.3702 15.0724 9.33023 15.2332 9.52543V9.05957H14.55H13.8657Z" fill="black"/>
<path d="M13.5746 6.2969C13.7907 6.46737 13.9157 6.49537 13.92 6.49864L14.0047 6.53742V6.09849L13.2097 5.76636C13.2097 5.76743 13.2173 6.02082 13.5746 6.2969Z" fill="black"/>
<path d="M15.4659 6.2969C15.8254 6.02082 15.8319 5.76636 15.8319 5.76636L15.0369 6.09849V6.53742L15.1205 6.49864C15.1259 6.49537 15.2497 6.46737 15.4659 6.2969Z" fill="black"/>
<path d="M16.898 4.50973C16.898 3.84435 15.7695 3.24585 14.5237 3.24585H14.5226H14.5194H14.5161C13.2703 3.24585 12.1418 3.84435 12.1418 4.50973L12.1668 4.67363L12.6642 7.50876L12.1647 7.79669L10.8721 8.5462H10.8765C10.8765 8.5462 10.5854 8.69392 10.4507 8.78559C9.95869 9.12534 9.85444 9.62027 10.14 9.82517C10.2107 9.42186 10.5322 8.99913 11.1339 8.99913C11.5673 8.99913 11.8974 9.22125 12.1647 9.55451C12.2331 9.63862 12.2982 9.72814 12.3591 9.82517C12.434 9.94699 12.5089 10.0538 12.5839 10.1574H9.25488C9.49926 10.6459 9.73166 11.1635 9.73166 11.7254V19.0412C9.73166 20.812 11.1035 21.6574 12.5871 21.6574C13.7341 21.6574 13.8884 21.6057 14.5216 22.2311C15.1515 21.6046 15.3058 21.6574 16.4538 21.6574C17.9386 21.6574 19.3082 20.812 19.3082 19.0412V11.7254C19.3082 11.1635 19.5407 10.6459 19.7861 10.1574H16.456C16.5299 10.0549 16.6048 9.94699 16.6797 9.82517C16.7416 9.72814 16.8057 9.63862 16.8731 9.55451C17.1424 9.22023 17.4715 8.99913 17.9049 8.99913C18.5066 8.99913 18.827 9.42079 18.8987 9.82517C19.1844 9.62027 19.0812 9.12534 18.5859 8.78559C18.4534 8.69392 18.1623 8.5462 18.1623 8.5462H18.1667L16.8741 7.79669L16.3767 7.50876L16.8741 4.67363L16.898 4.50973ZM12.6316 4.83972L14.3804 5.42851V8.15581L13.0933 7.48183L12.6316 4.83972ZM12.9934 10.6329C13.2801 10.9165 13.5614 11.0923 13.8286 11.1893C13.7938 11.3263 13.7483 11.6089 13.8775 11.8903C13.9828 12.1168 14.174 12.2915 14.4488 12.408C14.4792 12.6884 14.6573 13.11 15.1515 13.2966C14.9354 13.5133 14.7246 13.7171 14.6389 13.8002L12.6349 13.7689C12.5893 13.7462 12.5122 13.6956 12.4775 13.6233C12.4731 13.6136 12.4666 13.6082 12.4634 13.5974L12.7902 13.6503C12.7979 13.6513 12.8043 13.6513 12.8109 13.6513C12.8739 13.6513 12.9293 13.6082 12.9402 13.5435C12.951 13.4713 12.9021 13.4054 12.8315 13.3947L12.4297 13.3321L12.8761 11.8018L12.4535 10.9187L11.7758 11.6305L11.7345 13.2221L11.2795 13.151C11.2088 13.1369 11.1415 13.1887 11.1296 13.2588C11.1187 13.329 11.1664 13.3947 11.2381 13.4076L11.4293 13.4367C11.3609 13.4756 11.3164 13.5058 11.3109 13.51L11.2718 13.537L11.2609 13.5845C11.1502 14.031 11.4011 14.4548 11.6716 14.6446L11.6617 14.7006C11.6509 14.7697 11.6661 14.8365 11.7074 14.8926C11.7465 14.9498 11.8073 14.9843 11.8746 14.9961C11.8888 14.9983 11.9039 14.9993 11.917 14.9993C12.0343 14.9993 12.1364 14.9185 12.1657 14.801C12.2667 14.8128 12.3591 14.8149 12.422 14.8149H12.4753L15.1048 15.2862L15.1493 15.2571C15.3589 15.1115 16.1573 14.5335 16.4191 14.3426C16.4907 14.4041 16.5711 14.4602 16.6688 14.5065C16.5841 14.789 16.5787 15.2237 16.9144 15.5666H10.2128V11.7264C10.2128 11.3544 10.1032 10.9802 9.97389 10.6351H12.9934V10.6329ZM16.2431 14.1464C15.977 14.3405 15.2927 14.8365 15.0451 15.009L12.6556 14.5831C12.661 14.5615 12.6664 14.541 12.6719 14.5195C12.7033 14.3965 12.7349 14.2283 12.7371 14.031L14.7453 14.0633L14.7833 14.0244C14.8138 13.9943 15.4503 13.3839 15.775 13.0323C15.8521 13.1283 15.9487 13.22 16.0747 13.3008C16.0313 13.5338 16.0498 13.8659 16.2431 14.1464ZM12.2428 13.7354C12.2993 13.853 12.4014 13.9318 12.472 13.976C12.4698 14.0859 12.459 14.2574 12.4297 14.4084C12.4231 14.4418 12.4145 14.4731 12.4046 14.5044C12.3993 14.5238 12.3938 14.54 12.3894 14.5529C12.2841 14.5529 12.0766 14.54 11.9072 14.4785C11.7194 14.4095 11.4391 14.0676 11.5042 13.6913C11.5857 13.6416 11.7736 13.537 11.9496 13.537C12.0854 13.5359 12.1777 13.5996 12.2428 13.7354ZM11.9941 13.2621L12.0343 11.7339L12.3797 11.3705L12.5969 11.8213L12.169 13.2879L11.9941 13.2621ZM16.2214 21.184C16.091 21.184 15.9705 21.1862 15.8619 21.1905L16.1464 20.3116C16.191 20.1897 15.9661 20.0333 15.8738 19.8964C16.0139 19.9838 16.3767 20.1746 16.5516 20.2512C16.5331 20.2792 16.2214 21.184 16.2214 21.184ZM17.1142 20.1854L16.9285 21.1474C16.8101 21.1635 16.6841 21.1721 16.5548 21.1775L16.7503 20.2523C16.809 19.9772 16.065 19.8921 15.6979 19.3518C15.5186 19.5524 15.1809 19.6117 14.842 19.6117C14.5325 19.6117 14.2229 19.5621 14.035 19.5254C13.9872 19.5179 13.9415 19.5125 13.897 19.5125C13.7884 19.5125 13.6895 19.5459 13.6211 19.6602L13.5668 19.7508L12.5535 19.5136L12.3015 19.9277C12.2657 19.9946 12.2634 20.0517 12.3211 20.1142L12.3894 20.1887C12.3427 20.3353 12.1321 20.5564 12.1321 20.5564L11.9811 20.3698C11.8616 20.2372 11.8812 19.9956 12.0061 19.7713L12.4079 19.0973L13.266 19.2202L13.1324 18.9183C12.9532 18.5193 13.2258 18.0114 13.2551 17.7191C13.2454 17.8075 13.1639 17.8269 13.0683 17.8269C12.9814 17.8269 12.8847 17.8107 12.8206 17.8107C12.7957 17.8107 12.7739 17.8129 12.762 17.8215L12.5296 17.9617L12.346 17.801C12.3243 17.7698 12.3167 17.6975 12.371 17.6436L12.7957 17.1713L12.2939 16.59L12.9966 16.9405L13.2106 16.6828C13.2693 16.7399 13.2443 16.8898 13.2443 16.8898C13.4637 16.8952 14.0784 17.2328 14.111 18.02C14.1132 18.0436 14.1132 18.0707 14.1132 18.0965C14.1132 18.0965 14.1186 18.1062 14.1295 18.1224C14.1729 18.1818 14.2924 18.3338 14.4444 18.3478L15.4155 18.4427H15.4198C15.5263 18.4427 15.7381 18.3187 16.0095 18.3187C16.1573 18.3187 16.3224 18.3564 16.4983 18.4664C16.4983 18.4664 16.5863 18.3974 16.7297 18.3898C16.7405 18.3888 16.7525 18.3888 16.7634 18.3888C17.1989 18.3888 17.3792 18.7792 17.6127 19.1038C17.7887 19.3507 18.0233 19.7174 18.0233 19.7174C17.9364 19.8198 17.856 19.8759 17.7213 19.8759C17.6845 19.8759 17.6421 19.8726 17.5964 19.8641C17.1294 19.7788 17.0621 18.8255 16.796 18.75C16.7819 18.7457 16.7667 18.7447 16.7536 18.7447C16.6678 18.7447 16.6298 18.8202 16.6298 18.8202C16.7514 19.1447 16.6808 19.2763 16.8112 19.5265C16.9089 19.712 17.0827 19.8651 17.1544 19.9374C17.1544 19.9395 17.1348 20.0797 17.1142 20.1854ZM11.8996 19.2752L11.9441 19.3863C11.9148 19.4834 11.5782 19.6214 11.5782 19.6214L11.5053 19.4639C11.4282 19.2957 11.4445 19.0121 11.6791 18.8385L12.2244 18.5085L12.8022 18.6303C12.7913 18.8126 12.901 18.9485 12.901 18.9485L12.295 18.8331L11.9322 19.0822C11.8714 19.1243 11.867 19.203 11.8996 19.2752ZM17.2054 21.0945L17.3716 20.2339C17.3803 20.1833 17.3911 20.1239 17.3988 20.0743C17.4455 20.0938 17.4954 20.1099 17.5497 20.1197C17.6116 20.1315 17.6692 20.1369 17.7213 20.1369C17.9755 20.1369 18.1232 20.0042 18.2221 19.891L18.3503 19.7433L18.246 19.5815C18.2362 19.5653 18.0059 19.203 17.8278 18.9549C17.793 18.9064 17.7593 18.8579 17.7257 18.8051C17.5237 18.5052 17.2706 18.1289 16.7634 18.1289L16.7178 18.13C16.6341 18.1354 16.5624 18.1515 16.5049 18.1731C16.3452 18.0987 16.1812 18.061 16.0106 18.061C15.801 18.061 15.624 18.1182 15.5067 18.158C15.473 18.1677 15.4426 18.1785 15.4187 18.1828L14.4705 18.09C14.4586 18.088 14.4194 18.0653 14.3727 18.0092V18.0049L14.578 17.9229C14.5205 17.2446 13.8644 16.8273 13.4984 16.686C13.4822 16.618 13.4496 16.5501 13.392 16.4951L13.1878 16.3032L13.0085 16.5167L12.9206 16.6256L11.5934 16.0842L12.4568 17.1605L12.1158 17.6727C11.9908 17.8043 12.1288 17.9359 12.1288 17.9359L12.4807 18.1763L12.8457 18.0416C12.8587 18.0416 12.8696 18.0448 12.8815 18.0458C12.8641 18.1008 12.8413 18.3165 12.8261 18.3769L12.1929 18.2529L11.5271 18.6261C11.1849 18.8752 11.1382 19.2882 11.2653 19.5708L11.3392 19.7314L11.4445 19.9579L11.6769 19.8619C11.6802 19.8608 11.6835 19.8597 11.6856 19.8576C11.602 20.1229 11.6357 20.3752 11.7855 20.5413L11.9267 20.7182L12.1147 20.9543L12.3211 20.7343C12.3819 20.6739 12.5785 20.4551 12.6393 20.2674L12.6838 20.1239L12.5828 20.0139L12.5665 19.9946L12.6795 19.809L13.506 20.0021L13.6917 20.0441L13.7906 19.8824L13.8449 19.7939C13.8547 19.7756 13.8579 19.7723 13.896 19.7723C13.9253 19.7723 13.9546 19.7756 13.9861 19.7821C14.2978 19.8403 14.5856 19.8695 14.8409 19.8695C15.0885 19.8695 15.2362 19.8597 15.4133 19.8015C15.4133 19.8015 15.8575 20.3019 15.8727 20.3213L15.6012 21.1538L15.5892 21.2045C15.0744 21.2454 14.8235 21.3576 14.5205 21.6585C14.0806 21.2249 13.7688 21.1797 12.5861 21.1797C11.1708 21.1797 10.2118 20.3558 10.2118 19.0402V15.8233H18.827L18.8292 19.0402C18.8303 20.1077 18.1993 20.8518 17.2054 21.0945ZM19.0681 10.6329C18.9368 10.978 18.827 11.3522 18.827 11.7243L18.8282 14.1248C18.323 14.0407 18.2633 13.5003 18.2611 13.4767L18.2514 13.3667L18.1428 13.357C17.9234 13.3365 17.7778 13.2437 17.6551 13.1251C17.4074 12.8792 17.4063 12.4802 17.4074 12.4769C17.4042 12.4974 17.1348 12.8716 17.4477 13.2804C17.579 13.4529 17.7691 13.5586 18.0157 13.6007C18.0733 13.9005 18.2981 14.3232 18.8282 14.3879V15.5634H17.3379C16.6504 15.1838 16.9415 14.5151 16.9556 14.4871L17.0143 14.3599L16.8828 14.3102C16.1388 14.0364 16.343 13.2987 16.3539 13.2674L16.3843 13.1596L16.2833 13.1121C15.6685 12.8296 15.7522 12.0672 15.7598 12.0359C15.5708 12.1879 15.5023 12.4985 15.6327 12.8026C15.5621 12.8825 15.4676 12.9795 15.3644 13.0852C14.7279 12.9246 14.7084 12.3433 14.7084 12.3163L14.7072 12.2268L14.6237 12.1944C14.3749 12.1028 14.2044 11.9658 14.1207 11.7814C14.0263 11.5776 14.0599 11.3641 14.0861 11.2616C14.1588 11.2778 14.2315 11.2897 14.3011 11.2951C14.3727 11.3026 14.4466 11.3069 14.5205 11.3069H14.5248H14.5302C14.6041 11.3069 14.6769 11.3026 14.7486 11.2951C15.145 11.2562 15.5892 11.0869 16.052 10.6318H19.0681V10.6329ZM16.746 8.20644L17.3347 8.5462H17.3433L17.4911 8.63138C17.1587 8.72305 16.9046 8.88804 16.6917 9.1048C16.6841 9.11129 16.6765 9.11992 16.6688 9.12743C16.62 9.1792 16.5711 9.2353 16.5255 9.29248C16.5168 9.30326 16.5081 9.31512 16.4983 9.32697C16.4527 9.38517 16.4104 9.44455 16.3691 9.50704C16.3626 9.51787 16.355 9.52866 16.3474 9.53831C16.2985 9.61056 16.2518 9.68823 16.2051 9.768C15.7858 10.4852 15.1168 10.9133 14.5216 10.9144C13.9275 10.9133 13.2584 10.4852 12.8391 9.768C12.7935 9.69033 12.7479 9.61491 12.699 9.54153C12.6892 9.52753 12.6805 9.51353 12.6719 9.50162C12.6306 9.44235 12.5893 9.3841 12.547 9.32917C12.5361 9.31404 12.5263 9.30214 12.5154 9.28921C12.4698 9.23418 12.4231 9.1792 12.3764 9.12851C12.3667 9.121 12.3601 9.11129 12.3504 9.10265C12.1364 8.88589 11.8833 8.72197 11.5499 8.63138L11.6998 8.5462H11.7063L12.295 8.20644L12.8999 7.86251L14.5161 8.73597L14.5194 8.73275L14.5237 8.73597L16.1399 7.86251L16.746 8.20644ZM15.9487 7.48285L14.6606 8.15688V5.42851L16.4082 4.83972L15.9487 7.48285ZM14.5205 5.12873L12.6045 4.3771C12.7674 3.99428 13.519 3.66854 14.5205 3.66747C15.523 3.66854 16.2746 3.99428 16.4364 4.3771L14.5205 5.12873Z" fill="black"/>
<path d="M38.2465 16.5421V12.224H40.7975V10.6527H33.8381V12.224H36.389V16.5421H38.2465ZM43.3365 14.0799V10.6527H41.5409V16.5421H43.126L46.2218 13.1148V16.5421H48.0174V10.6527H46.4323L43.3365 14.0799ZM54.0581 14.3521V16.5421H55.8539V10.6527H54.0581V12.8055H51.1728V10.6527H49.3772V16.5421H51.1728V14.3521H54.0581ZM60.8541 16.5421C61.2627 16.5421 61.6342 16.505 61.981 16.406C62.9103 16.1462 63.5164 15.3914 63.5164 14.3645C63.5164 13.387 62.9967 12.7066 62.1673 12.3972C61.77 12.2488 61.3003 12.2364 60.8541 12.2364H59.009V10.6527H57.2138V16.5421H60.8541ZM60.5444 13.6221C60.7924 13.6221 61.0275 13.6221 61.238 13.6964C61.5354 13.7954 61.7088 14.0428 61.7088 14.3397C61.7088 14.6491 61.5354 14.9089 61.2503 15.0326C61.0522 15.1192 60.8541 15.1192 60.5444 15.1192H59.009V13.6221H60.5444ZM66.7359 14.315L68.8785 16.5421H71.268L68.2842 13.4736L71.1568 10.6527H68.9031L66.7359 12.8674H66.2409V10.6527H64.4457V16.5421H66.2409V14.315H66.7359ZM74.9626 10.4919C72.5478 10.4919 71.0994 11.8528 71.0994 13.6097C71.0994 15.3667 72.5478 16.7277 74.9626 16.7277C77.3655 16.7277 78.8145 15.3667 78.8145 13.6097C78.8145 11.8528 77.3655 10.4919 74.9626 10.4919ZM74.9626 15.2925C73.7617 15.2925 72.9945 14.5748 72.9945 13.6097C72.9945 12.6447 73.7617 11.9394 74.9626 11.9394C76.1517 11.9394 76.9318 12.6447 76.9318 13.6097C76.9318 14.5748 76.1517 15.2925 74.9626 15.2925ZM84.7945 10.3186H82.9987V10.9124C80.745 10.962 79.3948 11.9146 79.3948 13.5974C79.3948 15.28 80.745 16.1585 82.9987 16.2081V16.8019H84.7945V16.2081C87.06 16.1585 88.4102 15.28 88.4102 13.5974C88.4102 11.9146 87.06 10.962 84.7945 10.9124V10.3186ZM82.9987 14.946C81.7602 14.8965 81.2153 14.3892 81.2153 13.5974C81.2153 12.8055 81.7602 12.2364 82.9987 12.1869V14.946ZM84.7945 12.1869C86.0453 12.2364 86.5774 12.8055 86.5774 13.5974C86.5774 14.3892 86.0453 14.8965 84.7945 14.946V12.1869ZM94.3837 10.3186H92.5879V10.9124C90.3342 10.962 88.9851 11.9146 88.9851 13.5974C88.9851 15.28 90.3342 16.1585 92.5879 16.2081V16.8019H94.3837V16.2081C96.6503 16.1585 97.9999 15.28 97.9999 13.5974C97.9999 11.9146 96.6503 10.962 94.3837 10.9124V10.3186ZM92.5879 14.946C91.35 14.8965 90.8051 14.3892 90.8051 13.5974C90.8051 12.8055 91.35 12.2364 92.5879 12.1869V14.946ZM94.3837 12.1869C95.6346 12.2364 96.1671 12.8055 96.1671 13.5974C96.1671 14.3892 95.6346 14.8965 94.3837 14.946V12.1869Z" fill="black"/>
</svg>
