<svg width="19" height="13" viewBox="0 0 19 13" fill="none" xmlns="http://www.w3.org/2000/svg">
<path d="M18.2291 2.55749C18.026 1.79926 17.4169 1.20066 16.6452 0.991148C15.2543 0.622009 9.67006 0.622009 9.67006 0.622009C9.67006 0.622009 4.08587 0.622009 2.68474 0.991148C1.91311 1.19068 1.31408 1.78929 1.10086 2.55749C0.735352 3.93428 0.735352 6.80758 0.735352 6.80758C0.735352 6.80758 0.735352 9.68087 1.11102 11.0577C1.31408 11.8159 1.92326 12.4145 2.6949 12.624C4.08587 12.9931 9.67006 12.9931 9.67006 12.9931C9.67006 12.9931 15.2543 12.9931 16.6554 12.624C17.427 12.4245 18.026 11.8259 18.2393 11.0577C18.6048 9.68087 18.6048 6.80758 18.6048 6.80758C18.6048 6.80758 18.6048 3.93428 18.2291 2.55749ZM7.84251 9.42148V4.19368L12.5129 6.80758L7.84251 9.42148Z" fill="white"/>
</svg>
