<svg width="70" height="72" viewBox="0 0 70 72" fill="none" xmlns="http://www.w3.org/2000/svg">
<path opacity="0.5" d="M41.5936 26.8821L39.4979 25.5173L28.9578 32.3818L31.0535 33.7467L41.5936 26.8821Z" fill="black"/>
<path d="M28.1642 31.8653L38.7042 25.0008L35 22.5882L24.46 29.4528L28.1642 31.8653Z" fill="#396AFC"/>
<path d="M35.3967 50.8236L45.9376 43.9585V30.2273L35.3967 37.0924V50.8236Z" fill="#396AFC"/>
<path opacity="0.5" d="M29.834 40.8065L30.6361 41.8342V34.5087L28.5393 33.157V41.0724L29.374 40.6886C29.4522 40.6529 29.5382 40.6451 29.6204 40.6662C29.7026 40.6873 29.7771 40.7363 29.834 40.8065Z" fill="black"/>
<path d="M31.4297 43.0201C31.4297 43.111 31.4052 43.1998 31.3593 43.2746C31.3135 43.3494 31.2485 43.4066 31.1731 43.4387C31.0977 43.4708 31.0154 43.4763 30.9372 43.4543C30.859 43.4323 30.7885 43.384 30.7353 43.3158L29.4259 41.6379L28.3157 42.1551C28.2536 42.1832 28.1864 42.1941 28.1198 42.1869C28.0532 42.1796 27.9891 42.1544 27.933 42.1135C27.8774 42.0732 27.8313 42.0184 27.7987 41.9536C27.7661 41.8888 27.748 41.816 27.7459 41.7415V32.6404L24.0625 30.2273V43.9585L34.6033 50.8236V37.0924L31.4297 35.0255V43.0201Z" fill="#396AFC"/>
<path d="M42.387 27.399L31.8469 34.2636L35.0002 36.3172L45.5402 29.4527L42.387 27.399Z" fill="#396AFC"/>
<path opacity="0.5" d="M62.9484 32.7813L62.9968 33.2273H63.4455H69.5V38.7727H63.4455H62.9968L62.9484 39.2187C62.2395 45.7462 59.394 51.8294 54.882 56.4703C50.3703 61.1109 44.4608 64.0335 38.1247 64.7615L37.6818 64.8123V65.2582V71.5H32.3182V65.2582V64.8123L31.8753 64.7615C25.5392 64.0335 19.6297 61.1109 15.118 56.4703C10.606 51.8294 7.76048 45.7462 7.05162 39.2187L7.00319 38.7727H6.55455H0.5V33.2273H6.55455H7.00319L7.05162 32.7813C7.76048 26.2538 10.606 20.1706 15.118 15.5297C19.6297 10.8891 25.5392 7.9665 31.8753 7.23855L32.3182 7.18766V6.74182V0.5H37.6818V6.74182V7.18766L38.1247 7.23855C44.4608 7.9665 50.3703 10.8891 54.882 15.5297C59.394 20.1706 62.2395 26.2538 62.9484 32.7813ZM12.2273 36C12.2273 48.9282 22.397 59.4091 35 59.4091C47.603 59.4091 57.7727 48.9282 57.7727 36C57.7727 23.0718 47.603 12.5909 35 12.5909C22.397 12.5909 12.2273 23.0718 12.2273 36Z" stroke="black"/>
</svg>
<svg width="70" height="72" viewBox="0 0 70 72" fill="none" xmlns="http://www.w3.org/2000/svg">
<path opacity="0.5" d="M41.5936 26.8821L39.4979 25.5173L28.9578 32.3818L31.0535 33.7467L41.5936 26.8821Z" fill="black"/>
<path d="M28.1642 31.8653L38.7042 25.0008L35 22.5882L24.46 29.4528L28.1642 31.8653Z" fill="#396AFC"/>
<path d="M35.3967 50.8236L45.9376 43.9585V30.2273L35.3967 37.0924V50.8236Z" fill="#396AFC"/>
<path opacity="0.5" d="M29.834 40.8065L30.6361 41.8342V34.5087L28.5393 33.157V41.0724L29.374 40.6886C29.4522 40.6529 29.5382 40.6451 29.6204 40.6662C29.7026 40.6873 29.7771 40.7363 29.834 40.8065Z" fill="black"/>
<path d="M31.4297 43.0201C31.4297 43.111 31.4052 43.1998 31.3593 43.2746C31.3135 43.3494 31.2485 43.4066 31.1731 43.4387C31.0977 43.4708 31.0154 43.4763 30.9372 43.4543C30.859 43.4323 30.7885 43.384 30.7353 43.3158L29.4259 41.6379L28.3157 42.1551C28.2536 42.1832 28.1864 42.1941 28.1198 42.1869C28.0532 42.1796 27.9891 42.1544 27.933 42.1135C27.8774 42.0732 27.8313 42.0184 27.7987 41.9536C27.7661 41.8888 27.748 41.816 27.7459 41.7415V32.6404L24.0625 30.2273V43.9585L34.6033 50.8236V37.0924L31.4297 35.0255V43.0201Z" fill="#396AFC"/>
<path d="M42.387 27.399L31.8469 34.2636L35.0002 36.3172L45.5402 29.4527L42.387 27.399Z" fill="#396AFC"/>
<path opacity="0.5" d="M62.9484 32.7813L62.9968 33.2273H63.4455H69.5V38.7727H63.4455H62.9968L62.9484 39.2187C62.2395 45.7462 59.394 51.8294 54.882 56.4703C50.3703 61.1109 44.4608 64.0335 38.1247 64.7615L37.6818 64.8123V65.2582V71.5H32.3182V65.2582V64.8123L31.8753 64.7615C25.5392 64.0335 19.6297 61.1109 15.118 56.4703C10.606 51.8294 7.76048 45.7462 7.05162 39.2187L7.00319 38.7727H6.55455H0.5V33.2273H6.55455H7.00319L7.05162 32.7813C7.76048 26.2538 10.606 20.1706 15.118 15.5297C19.6297 10.8891 25.5392 7.9665 31.8753 7.23855L32.3182 7.18766V6.74182V0.5H37.6818V6.74182V7.18766L38.1247 7.23855C44.4608 7.9665 50.3703 10.8891 54.882 15.5297C59.394 20.1706 62.2395 26.2538 62.9484 32.7813ZM12.2273 36C12.2273 48.9282 22.397 59.4091 35 59.4091C47.603 59.4091 57.7727 48.9282 57.7727 36C57.7727 23.0718 47.603 12.5909 35 12.5909C22.397 12.5909 12.2273 23.0718 12.2273 36Z" stroke="black"/>
</svg>
<svg width="70" height="72" viewBox="0 0 70 72" fill="none" xmlns="http://www.w3.org/2000/svg">
<path opacity="0.5" d="M41.5936 26.8821L39.4979 25.5173L28.9578 32.3818L31.0535 33.7467L41.5936 26.8821Z" fill="black"/>
<path d="M28.1642 31.8653L38.7042 25.0008L35 22.5882L24.46 29.4528L28.1642 31.8653Z" fill="#396AFC"/>
<path d="M35.3967 50.8236L45.9376 43.9585V30.2273L35.3967 37.0924V50.8236Z" fill="#396AFC"/>
<path opacity="0.5" d="M29.834 40.8065L30.6361 41.8342V34.5087L28.5393 33.157V41.0724L29.374 40.6886C29.4522 40.6529 29.5382 40.6451 29.6204 40.6662C29.7026 40.6873 29.7771 40.7363 29.834 40.8065Z" fill="black"/>
<path d="M31.4297 43.0201C31.4297 43.111 31.4052 43.1998 31.3593 43.2746C31.3135 43.3494 31.2485 43.4066 31.1731 43.4387C31.0977 43.4708 31.0154 43.4763 30.9372 43.4543C30.859 43.4323 30.7885 43.384 30.7353 43.3158L29.4259 41.6379L28.3157 42.1551C28.2536 42.1832 28.1864 42.1941 28.1198 42.1869C28.0532 42.1796 27.9891 42.1544 27.933 42.1135C27.8774 42.0732 27.8313 42.0184 27.7987 41.9536C27.7661 41.8888 27.748 41.816 27.7459 41.7415V32.6404L24.0625 30.2273V43.9585L34.6033 50.8236V37.0924L31.4297 35.0255V43.0201Z" fill="#396AFC"/>
<path d="M42.387 27.399L31.8469 34.2636L35.0002 36.3172L45.5402 29.4527L42.387 27.399Z" fill="#396AFC"/>
<path opacity="0.5" d="M62.9484 32.7813L62.9968 33.2273H63.4455H69.5V38.7727H63.4455H62.9968L62.9484 39.2187C62.2395 45.7462 59.394 51.8294 54.882 56.4703C50.3703 61.1109 44.4608 64.0335 38.1247 64.7615L37.6818 64.8123V65.2582V71.5H32.3182V65.2582V64.8123L31.8753 64.7615C25.5392 64.0335 19.6297 61.1109 15.118 56.4703C10.606 51.8294 7.76048 45.7462 7.05162 39.2187L7.00319 38.7727H6.55455H0.5V33.2273H6.55455H7.00319L7.05162 32.7813C7.76048 26.2538 10.606 20.1706 15.118 15.5297C19.6297 10.8891 25.5392 7.9665 31.8753 7.23855L32.3182 7.18766V6.74182V0.5H37.6818V6.74182V7.18766L38.1247 7.23855C44.4608 7.9665 50.3703 10.8891 54.882 15.5297C59.394 20.1706 62.2395 26.2538 62.9484 32.7813ZM12.2273 36C12.2273 48.9282 22.397 59.4091 35 59.4091C47.603 59.4091 57.7727 48.9282 57.7727 36C57.7727 23.0718 47.603 12.5909 35 12.5909C22.397 12.5909 12.2273 23.0718 12.2273 36Z" stroke="black"/>
</svg>
<svg width="70" height="72" viewBox="0 0 70 72" fill="none" xmlns="http://www.w3.org/2000/svg">
<path opacity="0.5" d="M41.5936 26.8821L39.4979 25.5173L28.9578 32.3818L31.0535 33.7467L41.5936 26.8821Z" fill="black"/>
<path d="M28.1642 31.8653L38.7042 25.0008L35 22.5882L24.46 29.4528L28.1642 31.8653Z" fill="#396AFC"/>
<path d="M35.3967 50.8236L45.9376 43.9585V30.2273L35.3967 37.0924V50.8236Z" fill="#396AFC"/>
<path opacity="0.5" d="M29.834 40.8065L30.6361 41.8342V34.5087L28.5393 33.157V41.0724L29.374 40.6886C29.4522 40.6529 29.5382 40.6451 29.6204 40.6662C29.7026 40.6873 29.7771 40.7363 29.834 40.8065Z" fill="black"/>
<path d="M31.4297 43.0201C31.4297 43.111 31.4052 43.1998 31.3593 43.2746C31.3135 43.3494 31.2485 43.4066 31.1731 43.4387C31.0977 43.4708 31.0154 43.4763 30.9372 43.4543C30.859 43.4323 30.7885 43.384 30.7353 43.3158L29.4259 41.6379L28.3157 42.1551C28.2536 42.1832 28.1864 42.1941 28.1198 42.1869C28.0532 42.1796 27.9891 42.1544 27.933 42.1135C27.8774 42.0732 27.8313 42.0184 27.7987 41.9536C27.7661 41.8888 27.748 41.816 27.7459 41.7415V32.6404L24.0625 30.2273V43.9585L34.6033 50.8236V37.0924L31.4297 35.0255V43.0201Z" fill="#396AFC"/>
<path d="M42.387 27.399L31.8469 34.2636L35.0002 36.3172L45.5402 29.4527L42.387 27.399Z" fill="#396AFC"/>
<path opacity="0.5" d="M62.9484 32.7813L62.9968 33.2273H63.4455H69.5V38.7727H63.4455H62.9968L62.9484 39.2187C62.2395 45.7462 59.394 51.8294 54.882 56.4703C50.3703 61.1109 44.4608 64.0335 38.1247 64.7615L37.6818 64.8123V65.2582V71.5H32.3182V65.2582V64.8123L31.8753 64.7615C25.5392 64.0335 19.6297 61.1109 15.118 56.4703C10.606 51.8294 7.76048 45.7462 7.05162 39.2187L7.00319 38.7727H6.55455H0.5V33.2273H6.55455H7.00319L7.05162 32.7813C7.76048 26.2538 10.606 20.1706 15.118 15.5297C19.6297 10.8891 25.5392 7.9665 31.8753 7.23855L32.3182 7.18766V6.74182V0.5H37.6818V6.74182V7.18766L38.1247 7.23855C44.4608 7.9665 50.3703 10.8891 54.882 15.5297C59.394 20.1706 62.2395 26.2538 62.9484 32.7813ZM12.2273 36C12.2273 48.9282 22.397 59.4091 35 59.4091C47.603 59.4091 57.7727 48.9282 57.7727 36C57.7727 23.0718 47.603 12.5909 35 12.5909C22.397 12.5909 12.2273 23.0718 12.2273 36Z" stroke="black"/>
</svg>
<svg width="70" height="72" viewBox="0 0 70 72" fill="none" xmlns="http://www.w3.org/2000/svg">
<path opacity="0.5" d="M41.5936 26.8821L39.4979 25.5173L28.9578 32.3818L31.0535 33.7467L41.5936 26.8821Z" fill="black"/>
<path d="M28.1642 31.8653L38.7042 25.0008L35 22.5882L24.46 29.4528L28.1642 31.8653Z" fill="#396AFC"/>
<path d="M35.3967 50.8236L45.9376 43.9585V30.2273L35.3967 37.0924V50.8236Z" fill="#396AFC"/>
<path opacity="0.5" d="M29.834 40.8065L30.6361 41.8342V34.5087L28.5393 33.157V41.0724L29.374 40.6886C29.4522 40.6529 29.5382 40.6451 29.6204 40.6662C29.7026 40.6873 29.7771 40.7363 29.834 40.8065Z" fill="black"/>
<path d="M31.4297 43.0201C31.4297 43.111 31.4052 43.1998 31.3593 43.2746C31.3135 43.3494 31.2485 43.4066 31.1731 43.4387C31.0977 43.4708 31.0154 43.4763 30.9372 43.4543C30.859 43.4323 30.7885 43.384 30.7353 43.3158L29.4259 41.6379L28.3157 42.1551C28.2536 42.1832 28.1864 42.1941 28.1198 42.1869C28.0532 42.1796 27.9891 42.1544 27.933 42.1135C27.8774 42.0732 27.8313 42.0184 27.7987 41.9536C27.7661 41.8888 27.748 41.816 27.7459 41.7415V32.6404L24.0625 30.2273V43.9585L34.6033 50.8236V37.0924L31.4297 35.0255V43.0201Z" fill="#396AFC"/>
<path d="M42.387 27.399L31.8469 34.2636L35.0002 36.3172L45.5402 29.4527L42.387 27.399Z" fill="#396AFC"/>
<path opacity="0.5" d="M62.9484 32.7813L62.9968 33.2273H63.4455H69.5V38.7727H63.4455H62.9968L62.9484 39.2187C62.2395 45.7462 59.394 51.8294 54.882 56.4703C50.3703 61.1109 44.4608 64.0335 38.1247 64.7615L37.6818 64.8123V65.2582V71.5H32.3182V65.2582V64.8123L31.8753 64.7615C25.5392 64.0335 19.6297 61.1109 15.118 56.4703C10.606 51.8294 7.76048 45.7462 7.05162 39.2187L7.00319 38.7727H6.55455H0.5V33.2273H6.55455H7.00319L7.05162 32.7813C7.76048 26.2538 10.606 20.1706 15.118 15.5297C19.6297 10.8891 25.5392 7.9665 31.8753 7.23855L32.3182 7.18766V6.74182V0.5H37.6818V6.74182V7.18766L38.1247 7.23855C44.4608 7.9665 50.3703 10.8891 54.882 15.5297C59.394 20.1706 62.2395 26.2538 62.9484 32.7813ZM12.2273 36C12.2273 48.9282 22.397 59.4091 35 59.4091C47.603 59.4091 57.7727 48.9282 57.7727 36C57.7727 23.0718 47.603 12.5909 35 12.5909C22.397 12.5909 12.2273 23.0718 12.2273 36Z" stroke="black"/>
</svg>
