<svg width="21" height="23" viewBox="0 0 21 23" fill="none" xmlns="http://www.w3.org/2000/svg">
<path d="M0.916992 16.6809L20.0829 16.6809" stroke="#8152E4" stroke-width="1.75" stroke-linecap="round" stroke-linejoin="round"/>
<path d="M0.916992 16.6814V15.8083C0.916992 14.6144 1.59153 13.523 2.65939 12.9891V12.9891C3.7272 12.4552 4.40174 11.3638 4.40179 10.1699L4.40193 6.72684C4.40206 3.56396 6.96612 1 10.129 1H10.8714C14.0344 1 16.5986 3.56424 16.5984 6.72731L16.5983 10.1698C16.5982 11.3637 17.2728 12.4552 18.3406 12.9891V12.9891C19.4084 13.523 20.0829 14.6144 20.0829 15.8082V16.6814" stroke="#8152E4" stroke-width="1.75" stroke-linecap="round"/>
<path d="M7.01592 18.4235V18.4235C7.01592 20.348 8.57608 21.9082 10.5006 21.9082V21.9082C12.4252 21.9082 13.9854 20.348 13.9854 18.4235V18.4235" stroke="#8152E4" stroke-width="1.75"/>
</svg>
