<svg width="22" height="22" viewBox="0 0 22 22" fill="none" xmlns="http://www.w3.org/2000/svg">
<path d="M14.5869 11.2392H0.717391C0.32139 11.2392 0 10.9178 0 10.5218C0 10.1258 0.32139 9.80444 0.717391 9.80444H14.5869C14.9829 9.80444 15.3043 10.1258 15.3043 10.5218C15.3043 10.9178 14.9829 11.2392 14.5869 11.2392Z" fill="#C4A2FC"/>
<path d="M10.7612 15.0652C10.5774 15.0652 10.3939 14.9955 10.2541 14.8548C9.97389 14.5746 9.97389 14.1203 10.2541 13.8399L13.5733 10.5209L10.2541 7.2017C9.97389 6.92147 9.97389 6.46697 10.2541 6.18674C10.5345 5.9065 10.9888 5.9065 11.2691 6.18674L15.0951 10.0129C15.3753 10.2932 15.3753 10.7475 15.0951 11.0277L11.2691 14.8538C11.1284 14.9955 10.9449 15.0652 10.7612 15.0652Z" fill="#C4A2FC"/>
<path d="M11.4787 21.0436C7.12551 21.0436 3.28232 18.4247 1.68587 14.3708C1.5405 14.0035 1.72213 13.5865 2.09046 13.4411C2.45774 13.2977 2.87581 13.4765 3.02118 13.8467C4.39956 17.3466 7.7196 19.6088 11.4787 19.6088C16.4889 19.6088 20.5657 15.532 20.5657 10.5218C20.5657 5.51162 16.4889 1.43478 11.4787 1.43478C7.7196 1.43478 4.39956 3.69695 3.02118 7.19686C2.87475 7.56711 2.45774 7.74593 2.09046 7.60249C1.72213 7.45712 1.5405 7.0401 1.68587 6.67282C3.28232 2.61893 7.12551 0 11.4787 0C17.28 0 22.0005 4.72049 22.0005 10.5218C22.0005 16.3231 17.28 21.0436 11.4787 21.0436Z" fill="#C4A2FC"/>
</svg>
