<svg width="141" height="21" viewBox="0 0 141 21" fill="none" xmlns="http://www.w3.org/2000/svg">
<path d="M7.65751 11.5491L3.93265 6.28947C3.38025 5.51495 2.50858 5.09985 1.62678 5.09985C1.06425 5.09985 0.491581 5.26691 0 5.6162L6.6034 14.9357L7.63217 16.3835L7.65244 16.4138C7.65751 16.4088 7.65751 16.4088 7.66258 16.4088C7.67272 16.3987 7.68285 16.3936 7.69299 16.3835L8.72176 14.9357C8.96502 14.1308 8.84845 13.2247 8.32647 12.4856L7.65751 11.5491Z" fill="#ED8E00"/>
<path d="M9.73084 10.4705L10.7596 11.9183L10.7799 11.9436L10.8002 11.9183L11.8239 10.4705L11.8745 10.3997L14.003 7.39272L16.1315 10.3997L16.1822 10.4705L17.2059 11.9183L17.2262 11.9436L17.2465 11.9183L18.2752 10.4705L18.3259 10.3997L24.8736 1.14598C24.3769 0.796691 23.8093 0.629639 23.2417 0.629639C22.3548 0.629639 21.4832 1.04474 20.9359 1.81925L17.2262 7.05862L15.7312 4.94769L14.003 2.50771L12.2749 4.94769L10.7748 7.05862L7.06009 1.81925C6.50769 1.04474 5.63603 0.629639 4.75422 0.629639C4.19169 0.629639 3.61902 0.796691 3.12744 1.14598L9.68016 10.3946L9.73084 10.4705Z" fill="#8152E4"/>
<path d="M26.3731 5.09448C25.4863 5.09448 24.6146 5.50958 24.0673 6.2841L20.3424 11.5437L19.6785 12.4802C19.1514 13.2193 19.0349 14.1254 19.2832 14.9303L20.312 16.3781C20.3221 16.3882 20.3323 16.3933 20.3424 16.4034C20.3475 16.4034 20.3475 16.4085 20.3525 16.4085L20.3728 16.3781L21.4016 14.9303L27.9999 5.61589C27.5033 5.26153 26.9357 5.09448 26.3731 5.09448Z" fill="#ED8E00"/>
<path d="M17.241 16.0895L15.7612 13.9988L14.033 11.5588L14.0026 11.5993L13.9722 11.5588L12.2441 13.9988L10.7643 16.0895L10.1004 17.026C9.57332 17.7651 9.45676 18.6712 9.70509 19.4761L10.7339 20.9239C10.744 20.934 10.7541 20.9391 10.7643 20.9492C10.7693 20.9543 10.7693 20.9543 10.7744 20.9543L10.7947 20.9239L11.8234 19.4761L13.9773 16.4388L14.0077 16.3983L14.0381 16.4388L16.1919 19.4761L17.2207 20.9239L17.241 20.9543C17.246 20.9492 17.246 20.9492 17.2511 20.9492C17.2612 20.9391 17.2714 20.934 17.2815 20.9239L18.3103 19.4761C18.5535 18.6712 18.437 17.7651 17.915 17.026L17.241 16.0895Z" fill="#8152E4"/>
<path d="M40.9841 4.81033H42.7935L47.6789 16.3247H45.8201L44.8661 13.9231H38.9115L37.9574 16.3247H36.0987L40.9841 4.81033ZM39.4543 12.5908H44.3233L41.9217 6.73487H41.8559L39.4543 12.5908ZM52.5174 7.85341C53.8662 7.85341 54.9189 8.42365 55.6756 9.56412H55.7414V4.432H57.2711V16.3247H56.3829L55.8894 14.5647H55.8236C55.4837 15.1788 55.0231 15.6613 54.4419 16.0122C53.8607 16.3631 53.2192 16.5385 52.5174 16.5385C51.4098 16.5385 50.4831 16.1328 49.7375 15.3213C48.9918 14.4989 48.6134 13.4571 48.6025 12.196C48.6025 10.9349 48.9753 9.89859 49.721 9.0871C50.4667 8.26464 51.3988 7.85341 52.5174 7.85341ZM50.9711 14.285C51.5085 14.8224 52.1719 15.091 52.9615 15.091C53.751 15.091 54.409 14.8224 54.9354 14.285C55.4727 13.7367 55.7414 13.0404 55.7414 12.196C55.7414 11.3516 55.4727 10.6552 54.9354 10.1069C54.398 9.55864 53.7346 9.28449 52.945 9.28449C52.1664 9.28449 51.5085 9.55864 50.9711 10.1069C50.4338 10.6552 50.1651 11.3516 50.1651 12.196C50.1651 13.0404 50.4338 13.7367 50.9711 14.285ZM73.2692 4.81033H74.9964L71.5256 16.3247H69.601L67.0021 7.68892H66.9363L64.3373 16.3247H62.4292L58.942 4.81033H60.6692L63.3504 14.0218H63.4162L66.1467 4.81033H67.8081L70.5222 14.0218H70.588L73.2692 4.81033ZM76.7415 16.3247V8.0508H78.2713V16.3247H76.7415ZM76.7415 4.54714C76.9499 4.33879 77.2021 4.23461 77.4982 4.23461C77.7942 4.23461 78.041 4.33879 78.2384 4.54714C78.4467 4.74453 78.5509 4.99127 78.5509 5.28735C78.5509 5.58344 78.4467 5.83565 78.2384 6.04401C78.041 6.2414 77.7942 6.34009 77.4982 6.34009C77.2021 6.34009 76.9499 6.23592 76.7415 6.02756C76.5441 5.81921 76.4454 5.57247 76.4454 5.28735C76.4454 5.00223 76.5441 4.7555 76.7415 4.54714ZM87.1726 14.1041C87.1726 14.8278 86.882 15.4145 86.3007 15.8641C85.7195 16.3137 84.9629 16.5385 84.0308 16.5385C82.6819 16.5385 81.4483 16.1876 80.3297 15.4858L80.7738 14.285C81.695 14.9539 82.7477 15.2884 83.9321 15.2884C84.4584 15.2884 84.8752 15.1842 85.1822 14.9759C85.5002 14.7675 85.6592 14.4879 85.6592 14.137C85.6592 13.7861 85.5167 13.5174 85.2316 13.331C84.9574 13.1336 84.4365 12.9472 83.6689 12.7717C82.66 12.5414 81.9088 12.2289 81.4154 11.8341C80.9329 11.4393 80.6916 10.902 80.6916 10.2221C80.6916 9.54219 80.9712 8.97744 81.5305 8.52783C82.0898 8.07822 82.9013 7.85341 83.965 7.85341C84.4694 7.85341 85.0013 7.93018 85.5605 8.0837C86.1308 8.23723 86.5804 8.39623 86.9094 8.56072L86.5639 9.72861C85.7744 9.30093 84.9081 9.0871 83.965 9.0871C83.4167 9.0871 82.989 9.19676 82.6819 9.41608C82.3749 9.6354 82.2214 9.90407 82.2214 10.2221C82.2214 10.5291 82.3694 10.7814 82.6655 10.9787C82.9616 11.1761 83.4879 11.3626 84.2446 11.538C85.2754 11.7793 86.0211 12.0973 86.4817 12.4921C86.9423 12.8868 87.1726 13.4242 87.1726 14.1041ZM90.0581 9.07065C90.8915 8.25916 91.9442 7.85341 93.2163 7.85341C94.4884 7.85341 95.5247 8.25916 96.3252 9.07065C97.1367 9.87117 97.5424 10.9129 97.5424 12.196C97.5424 12.2727 97.5315 12.4866 97.5095 12.8375H90.4529C90.5954 13.5284 90.9518 14.0767 91.5221 14.4824C92.1033 14.8882 92.8435 15.091 93.7427 15.091C94.8941 15.091 95.8372 14.8169 96.5719 14.2686L96.868 15.6503C96.0675 16.2425 95.0257 16.5385 93.7427 16.5385C92.2403 16.5385 91.045 16.1383 90.1568 15.3378C89.2685 14.5372 88.8244 13.49 88.8244 12.196C88.8244 10.9239 89.2356 9.88214 90.0581 9.07065ZM90.4529 11.4393H95.9798C95.9249 10.8252 95.6343 10.3153 95.108 9.90955C94.5816 9.49284 93.951 9.28449 93.2163 9.28449C92.5255 9.28449 91.9278 9.48188 91.4234 9.87665C90.9299 10.2605 90.6064 10.7814 90.4529 11.4393ZM110.339 15.0252C111.008 15.0252 111.66 14.921 112.297 14.7127C112.944 14.5043 113.486 14.2302 113.925 13.8902L114.205 15.3871C113.108 16.1547 111.809 16.5385 110.306 16.5385C108.442 16.5385 106.923 16.0012 105.75 14.9265C104.576 13.8409 103.99 12.4208 103.99 10.6662C103.99 8.91164 104.576 7.46412 105.75 6.32365C106.934 5.17221 108.453 4.59649 110.306 4.59649C111.578 4.59649 112.735 4.88161 113.777 5.45184L113.366 6.98161C112.466 6.40041 111.441 6.10981 110.29 6.10981C108.908 6.10981 107.784 6.54845 106.918 7.42574C106.062 8.29206 105.635 9.37221 105.635 10.6662C105.635 11.9712 106.073 13.0239 106.951 13.8244C107.828 14.625 108.957 15.0252 110.339 15.0252ZM123.11 11.2913C123.834 11.5106 124.327 12.0205 124.59 12.821L125.775 16.3247H123.965L122.797 12.9855C122.534 12.196 121.871 11.8012 120.807 11.8012H117.764V16.3247H116.119V4.81033H121.432C122.584 4.81033 123.516 5.11738 124.228 5.73148C124.952 6.33461 125.314 7.1461 125.314 8.16595C125.314 8.88971 125.117 9.51477 124.722 10.0411C124.327 10.5675 123.79 10.9623 123.11 11.2255V11.2913ZM121.251 10.4688C121.953 10.4688 122.529 10.2769 122.978 9.8931C123.428 9.49832 123.653 8.99389 123.653 8.37978C123.653 7.76568 123.428 7.27221 122.978 6.89936C122.529 6.51555 121.953 6.32365 121.251 6.32365H117.764V10.4688H121.251ZM129.659 7.47508V16.3247H128.014V4.81033H130.103L134.051 13.6435H134.116L138.064 4.81033H140.153V16.3247H138.525V7.47508H138.459L134.561 16.3247H133.623L129.724 7.47508H129.659Z" fill="#25233E"/>
</svg>
