<svg width="91" height="91" viewBox="0 0 91 91" fill="none" xmlns="http://www.w3.org/2000/svg">
<path d="M0 0H4.33333V4.33333H0V0ZM4.33333 0H8.66667V4.33333H4.33333V0ZM8.66667 0H13V4.33333H8.66667V0ZM13 0H17.3333V4.33333H13V0ZM17.3333 0H21.6667V4.33333H17.3333V0ZM21.6667 0H26V4.33333H21.6667V0ZM26 0H30.3333V4.33333H26V0ZM34.6667 0H39V4.33333H34.6667V0ZM39 0H43.3333V4.33333H39V0ZM52 0H56.3333V4.33333H52V0ZM60.6667 0H65V4.33333H60.6667V0ZM65 0H69.3333V4.33333H65V0ZM69.3333 0H73.6667V4.33333H69.3333V0ZM73.6667 0H78V4.33333H73.6667V0ZM78 0H82.3333V4.33333H78V0ZM82.3333 0H86.6667V4.33333H82.3333V0ZM86.6667 0H91V4.33333H86.6667V0ZM0 4.33333H4.33333V8.66667H0V4.33333ZM26 4.33333H30.3333V8.66667H26V4.33333ZM34.6667 4.33333H39V8.66667H34.6667V4.33333ZM47.6667 4.33333H52V8.66667H47.6667V4.33333ZM52 4.33333H56.3333V8.66667H52V4.33333ZM60.6667 4.33333H65V8.66667H60.6667V4.33333ZM86.6667 4.33333H91V8.66667H86.6667V4.33333ZM0 8.66667H4.33333V13H0V8.66667ZM8.66667 8.66667H13V13H8.66667V8.66667ZM13 8.66667H17.3333V13H13V8.66667ZM17.3333 8.66667H21.6667V13H17.3333V8.66667ZM26 8.66667H30.3333V13H26V8.66667ZM34.6667 8.66667H39V13H34.6667V8.66667ZM39 8.66667H43.3333V13H39V8.66667ZM43.3333 8.66667H47.6667V13H43.3333V8.66667ZM47.6667 8.66667H52V13H47.6667V8.66667ZM52 8.66667H56.3333V13H52V8.66667ZM60.6667 8.66667H65V13H60.6667V8.66667ZM69.3333 8.66667H73.6667V13H69.3333V8.66667ZM73.6667 8.66667H78V13H73.6667V8.66667ZM78 8.66667H82.3333V13H78V8.66667ZM86.6667 8.66667H91V13H86.6667V8.66667ZM0 13H4.33333V17.3333H0V13ZM8.66667 13H13V17.3333H8.66667V13ZM13 13H17.3333V17.3333H13V13ZM17.3333 13H21.6667V17.3333H17.3333V13ZM26 13H30.3333V17.3333H26V13ZM34.6667 13H39V17.3333H34.6667V13ZM39 13H43.3333V17.3333H39V13ZM43.3333 13H47.6667V17.3333H43.3333V13ZM60.6667 13H65V17.3333H60.6667V13ZM69.3333 13H73.6667V17.3333H69.3333V13ZM73.6667 13H78V17.3333H73.6667V13ZM78 13H82.3333V17.3333H78V13ZM86.6667 13H91V17.3333H86.6667V13ZM0 17.3333H4.33333V21.6667H0V17.3333ZM8.66667 17.3333H13V21.6667H8.66667V17.3333ZM13 17.3333H17.3333V21.6667H13V17.3333ZM17.3333 17.3333H21.6667V21.6667H17.3333V17.3333ZM26 17.3333H30.3333V21.6667H26V17.3333ZM34.6667 17.3333H39V21.6667H34.6667V17.3333ZM39 17.3333H43.3333V21.6667H39V17.3333ZM52 17.3333H56.3333V21.6667H52V17.3333ZM60.6667 17.3333H65V21.6667H60.6667V17.3333ZM69.3333 17.3333H73.6667V21.6667H69.3333V17.3333ZM73.6667 17.3333H78V21.6667H73.6667V17.3333ZM78 17.3333H82.3333V21.6667H78V17.3333ZM86.6667 17.3333H91V21.6667H86.6667V17.3333ZM0 21.6667H4.33333V26H0V21.6667ZM26 21.6667H30.3333V26H26V21.6667ZM60.6667 21.6667H65V26H60.6667V21.6667ZM86.6667 21.6667H91V26H86.6667V21.6667ZM0 26H4.33333V30.3333H0V26ZM4.33333 26H8.66667V30.3333H4.33333V26ZM8.66667 26H13V30.3333H8.66667V26ZM13 26H17.3333V30.3333H13V26ZM17.3333 26H21.6667V30.3333H17.3333V26ZM21.6667 26H26V30.3333H21.6667V26ZM26 26H30.3333V30.3333H26V26ZM34.6667 26H39V30.3333H34.6667V26ZM43.3333 26H47.6667V30.3333H43.3333V26ZM52 26H56.3333V30.3333H52V26ZM60.6667 26H65V30.3333H60.6667V26ZM65 26H69.3333V30.3333H65V26ZM69.3333 26H73.6667V30.3333H69.3333V26ZM73.6667 26H78V30.3333H73.6667V26ZM78 26H82.3333V30.3333H78V26ZM82.3333 26H86.6667V30.3333H82.3333V26ZM86.6667 26H91V30.3333H86.6667V26ZM34.6667 30.3333H39V34.6667H34.6667V30.3333ZM39 30.3333H43.3333V34.6667H39V30.3333ZM47.6667 30.3333H52V34.6667H47.6667V30.3333ZM52 30.3333H56.3333V34.6667H52V30.3333ZM4.33333 34.6667H8.66667V39H4.33333V34.6667ZM8.66667 34.6667H13V39H8.66667V34.6667ZM17.3333 34.6667H21.6667V39H17.3333V34.6667ZM26 34.6667H30.3333V39H26V34.6667ZM30.3333 34.6667H34.6667V39H30.3333V34.6667ZM43.3333 34.6667H47.6667V39H43.3333V34.6667ZM60.6667 34.6667H65V39H60.6667V34.6667ZM69.3333 34.6667H73.6667V39H69.3333V34.6667ZM73.6667 34.6667H78V39H73.6667V34.6667ZM78 34.6667H82.3333V39H78V34.6667ZM82.3333 34.6667H86.6667V39H82.3333V34.6667ZM86.6667 34.6667H91V39H86.6667V34.6667ZM0 39H4.33333V43.3333H0V39ZM4.33333 39H8.66667V43.3333H4.33333V39ZM13 39H17.3333V43.3333H13V39ZM39 39H43.3333V43.3333H39V39ZM60.6667 39H65V43.3333H60.6667V39ZM65 39H69.3333V43.3333H65V39ZM69.3333 39H73.6667V43.3333H69.3333V39ZM73.6667 39H78V43.3333H73.6667V39ZM82.3333 39H86.6667V43.3333H82.3333V39ZM86.6667 39H91V43.3333H86.6667V39ZM8.66667 43.3333H13V47.6667H8.66667V43.3333ZM13 43.3333H17.3333V47.6667H13V43.3333ZM26 43.3333H30.3333V47.6667H26V43.3333ZM34.6667 43.3333H39V47.6667H34.6667V43.3333ZM39 43.3333H43.3333V47.6667H39V43.3333ZM47.6667 43.3333H52V47.6667H47.6667V43.3333ZM52 43.3333H56.3333V47.6667H52V43.3333ZM60.6667 43.3333H65V47.6667H60.6667V43.3333ZM65 43.3333H69.3333V47.6667H65V43.3333ZM69.3333 43.3333H73.6667V47.6667H69.3333V43.3333ZM73.6667 43.3333H78V47.6667H73.6667V43.3333ZM78 43.3333H82.3333V47.6667H78V43.3333ZM82.3333 43.3333H86.6667V47.6667H82.3333V43.3333ZM86.6667 43.3333H91V47.6667H86.6667V43.3333ZM0 47.6667H4.33333V52H0V47.6667ZM8.66667 47.6667H13V52H8.66667V47.6667ZM21.6667 47.6667H26V52H21.6667V47.6667ZM34.6667 47.6667H39V52H34.6667V47.6667ZM43.3333 47.6667H47.6667V52H43.3333V47.6667ZM47.6667 47.6667H52V52H47.6667V47.6667ZM52 47.6667H56.3333V52H52V47.6667ZM56.3333 47.6667H60.6667V52H56.3333V47.6667ZM8.66667 52H13V56.3333H8.66667V52ZM21.6667 52H26V56.3333H21.6667V52ZM26 52H30.3333V56.3333H26V52ZM30.3333 52H34.6667V56.3333H30.3333V52ZM39 52H43.3333V56.3333H39V52ZM43.3333 52H47.6667V56.3333H43.3333V52ZM60.6667 52H65V56.3333H60.6667V52ZM69.3333 52H73.6667V56.3333H69.3333V52ZM73.6667 52H78V56.3333H73.6667V52ZM82.3333 52H86.6667V56.3333H82.3333V52ZM34.6667 56.3333H39V60.6667H34.6667V56.3333ZM47.6667 56.3333H52V60.6667H47.6667V56.3333ZM52 56.3333H56.3333V60.6667H52V56.3333ZM60.6667 56.3333H65V60.6667H60.6667V56.3333ZM65 56.3333H69.3333V60.6667H65V56.3333ZM69.3333 56.3333H73.6667V60.6667H69.3333V56.3333ZM82.3333 56.3333H86.6667V60.6667H82.3333V56.3333ZM86.6667 56.3333H91V60.6667H86.6667V56.3333ZM0 60.6667H4.33333V65H0V60.6667ZM4.33333 60.6667H8.66667V65H4.33333V60.6667ZM8.66667 60.6667H13V65H8.66667V60.6667ZM13 60.6667H17.3333V65H13V60.6667ZM17.3333 60.6667H21.6667V65H17.3333V60.6667ZM21.6667 60.6667H26V65H21.6667V60.6667ZM26 60.6667H30.3333V65H26V60.6667ZM34.6667 60.6667H39V65H34.6667V60.6667ZM39 60.6667H43.3333V65H39V60.6667ZM43.3333 60.6667H47.6667V65H43.3333V60.6667ZM47.6667 60.6667H52V65H47.6667V60.6667ZM65 60.6667H69.3333V65H65V60.6667ZM69.3333 60.6667H73.6667V65H69.3333V60.6667ZM78 60.6667H82.3333V65H78V60.6667ZM82.3333 60.6667H86.6667V65H82.3333V60.6667ZM86.6667 60.6667H91V65H86.6667V60.6667ZM0 65H4.33333V69.3333H0V65ZM26 65H30.3333V69.3333H26V65ZM39 65H43.3333V69.3333H39V65ZM52 65H56.3333V69.3333H52V65ZM60.6667 65H65V69.3333H60.6667V65ZM82.3333 65H86.6667V69.3333H82.3333V65ZM0 69.3333H4.33333V73.6667H0V69.3333ZM8.66667 69.3333H13V73.6667H8.66667V69.3333ZM13 69.3333H17.3333V73.6667H13V69.3333ZM17.3333 69.3333H21.6667V73.6667H17.3333V69.3333ZM26 69.3333H30.3333V73.6667H26V69.3333ZM34.6667 69.3333H39V73.6667H34.6667V69.3333ZM39 69.3333H43.3333V73.6667H39V69.3333ZM43.3333 69.3333H47.6667V73.6667H43.3333V69.3333ZM47.6667 69.3333H52V73.6667H47.6667V69.3333ZM52 69.3333H56.3333V73.6667H52V69.3333ZM60.6667 69.3333H65V73.6667H60.6667V69.3333ZM0 73.6667H4.33333V78H0V73.6667ZM8.66667 73.6667H13V78H8.66667V73.6667ZM13 73.6667H17.3333V78H13V73.6667ZM17.3333 73.6667H21.6667V78H17.3333V73.6667ZM26 73.6667H30.3333V78H26V73.6667ZM39 73.6667H43.3333V78H39V73.6667ZM47.6667 73.6667H52V78H47.6667V73.6667ZM56.3333 73.6667H60.6667V78H56.3333V73.6667ZM65 73.6667H69.3333V78H65V73.6667ZM69.3333 73.6667H73.6667V78H69.3333V73.6667ZM82.3333 73.6667H86.6667V78H82.3333V73.6667ZM0 78H4.33333V82.3333H0V78ZM8.66667 78H13V82.3333H8.66667V78ZM13 78H17.3333V82.3333H13V78ZM17.3333 78H21.6667V82.3333H17.3333V78ZM26 78H30.3333V82.3333H26V78ZM34.6667 78H39V82.3333H34.6667V78ZM47.6667 78H52V82.3333H47.6667V78ZM56.3333 78H60.6667V82.3333H56.3333V78ZM60.6667 78H65V82.3333H60.6667V78ZM65 78H69.3333V82.3333H65V78ZM69.3333 78H73.6667V82.3333H69.3333V78ZM73.6667 78H78V82.3333H73.6667V78ZM78 78H82.3333V82.3333H78V78ZM86.6667 78H91V82.3333H86.6667V78ZM0 82.3333H4.33333V86.6667H0V82.3333ZM26 82.3333H30.3333V86.6667H26V82.3333ZM34.6667 82.3333H39V86.6667H34.6667V82.3333ZM39 82.3333H43.3333V86.6667H39V82.3333ZM43.3333 82.3333H47.6667V86.6667H43.3333V82.3333ZM47.6667 82.3333H52V86.6667H47.6667V82.3333ZM52 82.3333H56.3333V86.6667H52V82.3333ZM56.3333 82.3333H60.6667V86.6667H56.3333V82.3333ZM65 82.3333H69.3333V86.6667H65V82.3333ZM69.3333 82.3333H73.6667V86.6667H69.3333V82.3333ZM82.3333 82.3333H86.6667V86.6667H82.3333V82.3333ZM0 86.6667H4.33333V91H0V86.6667ZM4.33333 86.6667H8.66667V91H4.33333V86.6667ZM8.66667 86.6667H13V91H8.66667V86.6667ZM13 86.6667H17.3333V91H13V86.6667ZM17.3333 86.6667H21.6667V91H17.3333V86.6667ZM21.6667 86.6667H26V91H21.6667V86.6667ZM26 86.6667H30.3333V91H26V86.6667ZM39 86.6667H43.3333V91H39V86.6667ZM47.6667 86.6667H52V91H47.6667V86.6667ZM56.3333 86.6667H60.6667V91H56.3333V86.6667ZM60.6667 86.6667H65V91H60.6667V86.6667ZM69.3333 86.6667H73.6667V91H69.3333V86.6667ZM73.6667 86.6667H78V91H73.6667V86.6667ZM82.3333 86.6667H86.6667V91H82.3333V86.6667ZM86.6667 86.6667H91V91H86.6667V86.6667Z" fill="black"/>
</svg>
