<svg width="16" height="12" viewBox="0 0 16 12" fill="none" xmlns="http://www.w3.org/2000/svg">
<path d="M15.7155 1.65651L14.3336 0.28279C14.1441 0.0942869 13.9136 0 13.6428 0C13.3716 0 13.1412 0.0942869 12.9517 0.28279L6.2858 6.91921L3.29837 3.93935C3.10867 3.75078 2.87836 3.6566 2.60748 3.6566C2.33643 3.6566 2.10612 3.75078 1.91642 3.93935L0.534511 5.31311C0.344813 5.50165 0.25 5.73066 0.25 6.00008C0.25 6.26928 0.344813 6.49851 0.534511 6.68701L4.21283 10.3435L5.59485 11.7172C5.78444 11.9058 6.01482 12 6.2858 12C6.55668 12 6.78706 11.9056 6.97676 11.7172L8.35874 10.3435L15.7155 3.03034C15.905 2.84177 16 2.61279 16 2.34337C16.0001 2.0741 15.905 1.84509 15.7155 1.65651Z" fill="white"/>
</svg>
